%TF.GenerationSoftware,KiCad,Pcbnew,8.0.2*%
%TF.CreationDate,2024-12-23T20:56:35+01:00*%
%TF.ProjectId,bp-leanplate,62702d6c-6561-46e7-906c-6174652e6b69,rev?*%
%TF.SameCoordinates,Original*%
%TF.FileFunction,Copper,L1,Top*%
%TF.FilePolarity,Positive*%
%FSLAX46Y46*%
G04 Gerber Fmt 4.6, Leading zero omitted, Abs format (unit mm)*
G04 Created by KiCad (PCBNEW 8.0.2) date 2024-12-23 20:56:35*
%MOMM*%
%LPD*%
G01*
G04 APERTURE LIST*
G04 Aperture macros list*
%AMRoundRect*
0 Rectangle with rounded corners*
0 $1 Rounding radius*
0 $2 $3 $4 $5 $6 $7 $8 $9 X,Y pos of 4 corners*
0 Add a 4 corners polygon primitive as box body*
4,1,4,$2,$3,$4,$5,$6,$7,$8,$9,$2,$3,0*
0 Add four circle primitives for the rounded corners*
1,1,$1+$1,$2,$3*
1,1,$1+$1,$4,$5*
1,1,$1+$1,$6,$7*
1,1,$1+$1,$8,$9*
0 Add four rect primitives between the rounded corners*
20,1,$1+$1,$2,$3,$4,$5,0*
20,1,$1+$1,$4,$5,$6,$7,0*
20,1,$1+$1,$6,$7,$8,$9,0*
20,1,$1+$1,$8,$9,$2,$3,0*%
G04 Aperture macros list end*
%TA.AperFunction,ComponentPad*%
%ADD10C,1.700000*%
%TD*%
%TA.AperFunction,ComponentPad*%
%ADD11R,1.700000X1.700000*%
%TD*%
%TA.AperFunction,ComponentPad*%
%ADD12C,3.500000*%
%TD*%
%TA.AperFunction,SMDPad,CuDef*%
%ADD13RoundRect,0.250000X-1.500000X-0.550000X1.500000X-0.550000X1.500000X0.550000X-1.500000X0.550000X0*%
%TD*%
%TA.AperFunction,ComponentPad*%
%ADD14C,1.600000*%
%TD*%
%TA.AperFunction,ComponentPad*%
%ADD15O,1.600000X1.600000*%
%TD*%
%TA.AperFunction,ViaPad*%
%ADD16C,0.800000*%
%TD*%
%TA.AperFunction,Conductor*%
%ADD17C,0.250000*%
%TD*%
G04 APERTURE END LIST*
D10*
%TO.P,U3,*%
%TO.N,*%
X246380000Y-60960000D03*
X248920000Y-60960000D03*
X251460000Y-60960000D03*
X254000000Y-60960000D03*
%TO.P,U3,1,BUS0*%
%TO.N,BUS0*%
X274320000Y-38100000D03*
%TO.P,U3,2,BUS1*%
%TO.N,BUS1*%
X271780000Y-38100000D03*
%TO.P,U3,3,BUS2*%
%TO.N,BUS2*%
X269240000Y-38100000D03*
%TO.P,U3,4,BUS3*%
%TO.N,BUS3*%
X266700000Y-38100000D03*
%TO.P,U3,5,BUS4*%
%TO.N,BUS4*%
X264160000Y-38100000D03*
%TO.P,U3,6,BUS5*%
%TO.N,BUS5*%
X261620000Y-38100000D03*
%TO.P,U3,7,BUS6*%
%TO.N,BUS6*%
X259080000Y-38100000D03*
%TO.P,U3,8,BUS7*%
%TO.N,BUS7*%
X256540000Y-38100000D03*
%TO.P,U3,9,L0*%
%TO.N,unconnected-(U3-L0-Pad9)*%
X254000000Y-38100000D03*
%TO.P,U3,10,L1*%
%TO.N,unconnected-(U3-L1-Pad10)*%
X251460000Y-38100000D03*
%TO.P,U3,11,L2*%
%TO.N,unconnected-(U3-L2-Pad11)*%
X248920000Y-38100000D03*
%TO.P,U3,12,L3*%
%TO.N,unconnected-(U3-L3-Pad12)*%
X246380000Y-38100000D03*
%TO.P,U3,13,L4*%
%TO.N,unconnected-(U3-L4-Pad13)*%
X243840000Y-38100000D03*
%TO.P,U3,14,L5*%
%TO.N,unconnected-(U3-L5-Pad14)*%
X241300000Y-38100000D03*
%TO.P,U3,15,L6*%
%TO.N,unconnected-(U3-L6-Pad15)*%
X238760000Y-38100000D03*
%TO.P,U3,16,L7*%
%TO.N,unconnected-(U3-L7-Pad16)*%
X236220000Y-38100000D03*
%TO.P,U3,17,VCC*%
%TO.N,VCC*%
X233680000Y-60960000D03*
X276860000Y-38100000D03*
%TO.P,U3,18,CLK*%
%TO.N,CLK*%
X236220000Y-60960000D03*
%TO.P,U3,19,IN*%
%TO.N,TI*%
X238760000Y-60960000D03*
%TO.P,U3,20,~{CLR}*%
%TO.N,~{CLR}*%
X241300000Y-60960000D03*
%TO.P,U3,21,OUT*%
%TO.N,TO*%
X243840000Y-60960000D03*
%TO.P,U3,22,GND*%
%TO.N,GND*%
X233680000Y-38100000D03*
X256540000Y-60960000D03*
%TD*%
%TO.P,U8,*%
%TO.N,*%
X195580000Y-149860000D03*
X198120000Y-149860000D03*
X200660000Y-149860000D03*
X203200000Y-149860000D03*
%TO.P,U8,1,BUS0*%
%TO.N,BUS0*%
X223520000Y-127000000D03*
%TO.P,U8,2,BUS1*%
%TO.N,BUS1*%
X220980000Y-127000000D03*
%TO.P,U8,3,BUS2*%
%TO.N,BUS2*%
X218440000Y-127000000D03*
%TO.P,U8,4,BUS3*%
%TO.N,BUS3*%
X215900000Y-127000000D03*
%TO.P,U8,5,BUS4*%
%TO.N,BUS4*%
X213360000Y-127000000D03*
%TO.P,U8,6,BUS5*%
%TO.N,BUS5*%
X210820000Y-127000000D03*
%TO.P,U8,7,BUS6*%
%TO.N,BUS6*%
X208280000Y-127000000D03*
%TO.P,U8,8,BUS7*%
%TO.N,BUS7*%
X205740000Y-127000000D03*
%TO.P,U8,9,L0*%
%TO.N,B_D0*%
X203200000Y-127000000D03*
%TO.P,U8,10,L1*%
%TO.N,B_D1*%
X200660000Y-127000000D03*
%TO.P,U8,11,L2*%
%TO.N,B_D2*%
X198120000Y-127000000D03*
%TO.P,U8,12,L3*%
%TO.N,B_D3*%
X195580000Y-127000000D03*
%TO.P,U8,13,L4*%
%TO.N,B_D4*%
X193040000Y-127000000D03*
%TO.P,U8,14,L5*%
%TO.N,B_D5*%
X190500000Y-127000000D03*
%TO.P,U8,15,L6*%
%TO.N,B_D6*%
X187960000Y-127000000D03*
%TO.P,U8,16,L7*%
%TO.N,B_D7*%
X185420000Y-127000000D03*
%TO.P,U8,17,VCC*%
%TO.N,VCC*%
X182880000Y-149860000D03*
X226060000Y-127000000D03*
%TO.P,U8,18,CLK*%
%TO.N,CLK*%
X185420000Y-149860000D03*
%TO.P,U8,19,IN*%
%TO.N,BI*%
X187960000Y-149860000D03*
%TO.P,U8,20,~{CLR}*%
%TO.N,~{CLR}*%
X190500000Y-149860000D03*
%TO.P,U8,21,OUT*%
%TO.N,BO*%
X193040000Y-149860000D03*
%TO.P,U8,22,GND*%
%TO.N,GND*%
X182880000Y-127000000D03*
X205740000Y-149860000D03*
%TD*%
D11*
%TO.P,J1,1,VBUS*%
%TO.N,VCC*%
X58516000Y-47255000D03*
D10*
%TO.P,J1,2,D-*%
%TO.N,unconnected-(J1-D--Pad2)*%
X61016000Y-47255000D03*
%TO.P,J1,3,D+*%
%TO.N,unconnected-(J1-D+-Pad3)*%
X61016000Y-45255000D03*
%TO.P,J1,4,GND*%
%TO.N,GND*%
X58516000Y-45255000D03*
D12*
%TO.P,J1,5,Shield*%
%TO.N,Net-(J1-Shield)*%
X53746000Y-42545000D03*
X65786000Y-42545000D03*
%TD*%
D13*
%TO.P,C2,1*%
%TO.N,VCC*%
X107757000Y-54356000D03*
%TO.P,C2,2*%
%TO.N,GND*%
X113157000Y-54356000D03*
%TD*%
D10*
%TO.P,U11,*%
%TO.N,*%
X35560000Y-177800000D03*
X38100000Y-177800000D03*
X40640000Y-177800000D03*
X43180000Y-177800000D03*
X45720000Y-177800000D03*
%TO.P,U11,1,BUS0*%
%TO.N,BUS0*%
X119380000Y-127000000D03*
%TO.P,U11,2,BUS1*%
%TO.N,BUS1*%
X116840000Y-127000000D03*
%TO.P,U11,3,BUS2*%
%TO.N,BUS2*%
X114300000Y-127000000D03*
%TO.P,U11,4,BUS3*%
%TO.N,BUS3*%
X111760000Y-127000000D03*
%TO.P,U11,5,BUS4*%
%TO.N,BUS4*%
X109220000Y-127000000D03*
%TO.P,U11,6,BUS5*%
%TO.N,BUS5*%
X106680000Y-127000000D03*
%TO.P,U11,7,BUS6*%
%TO.N,BUS6*%
X104140000Y-127000000D03*
%TO.P,U11,8,BUS7*%
%TO.N,BUS7*%
X101600000Y-127000000D03*
%TO.P,U11,9,VCC*%
%TO.N,VCC*%
X25400000Y-177800000D03*
X121920000Y-127000000D03*
%TO.P,U11,10,CLK*%
%TO.N,CLK*%
X27940000Y-177800000D03*
%TO.P,U11,11,IN*%
%TO.N,OI*%
X30480000Y-177800000D03*
%TO.P,U11,12,~{CLR}*%
%TO.N,~{CLR}*%
X33020000Y-177800000D03*
%TO.P,U11,13,GND*%
%TO.N,GND*%
X48260000Y-177800000D03*
X99060000Y-127000000D03*
%TD*%
%TO.P,U6,*%
%TO.N,*%
X142240000Y-149860000D03*
X144780000Y-149860000D03*
X147320000Y-149860000D03*
X149860000Y-149860000D03*
%TO.P,U6,1,BUS0*%
%TO.N,BUS0*%
X170180000Y-127000000D03*
%TO.P,U6,2,BUS1*%
%TO.N,BUS1*%
X167640000Y-127000000D03*
%TO.P,U6,3,BUS2*%
%TO.N,BUS2*%
X165100000Y-127000000D03*
%TO.P,U6,4,BUS3*%
%TO.N,BUS3*%
X162560000Y-127000000D03*
%TO.P,U6,5,BUS4*%
%TO.N,BUS4*%
X160020000Y-127000000D03*
%TO.P,U6,6,BUS5*%
%TO.N,BUS5*%
X157480000Y-127000000D03*
%TO.P,U6,7,BUS6*%
%TO.N,BUS6*%
X154940000Y-127000000D03*
%TO.P,U6,8,BUS7*%
%TO.N,BUS7*%
X152400000Y-127000000D03*
%TO.P,U6,9,L0*%
%TO.N,A_D0*%
X149860000Y-127000000D03*
%TO.P,U6,10,L1*%
%TO.N,A_D1*%
X147320000Y-127000000D03*
%TO.P,U6,11,L2*%
%TO.N,A_D2*%
X144780000Y-127000000D03*
%TO.P,U6,12,L3*%
%TO.N,A_D3*%
X142240000Y-127000000D03*
%TO.P,U6,13,L4*%
%TO.N,A_D4*%
X139700000Y-127000000D03*
%TO.P,U6,14,L5*%
%TO.N,A_D5*%
X137160000Y-127000000D03*
%TO.P,U6,15,L6*%
%TO.N,A_D6*%
X134620000Y-127000000D03*
%TO.P,U6,16,L7*%
%TO.N,A_D7*%
X132080000Y-127000000D03*
%TO.P,U6,17,VCC*%
%TO.N,VCC*%
X129540000Y-149860000D03*
X172720000Y-127000000D03*
%TO.P,U6,18,CLK*%
%TO.N,CLK*%
X132080000Y-149860000D03*
%TO.P,U6,19,IN*%
%TO.N,AI*%
X134620000Y-149860000D03*
%TO.P,U6,20,~{CLR}*%
%TO.N,~{CLR}*%
X137160000Y-149860000D03*
%TO.P,U6,21,OUT*%
%TO.N,AO*%
X139700000Y-149860000D03*
%TO.P,U6,22,GND*%
%TO.N,GND*%
X129540000Y-127000000D03*
X152400000Y-149860000D03*
%TD*%
%TO.P,U5,*%
%TO.N,*%
X142240000Y-60960000D03*
X144780000Y-60960000D03*
X147320000Y-60960000D03*
X149860000Y-60960000D03*
%TO.P,U5,1,BUS0*%
%TO.N,BUS0*%
X170180000Y-38100000D03*
%TO.P,U5,2,BUS1*%
%TO.N,BUS1*%
X167640000Y-38100000D03*
%TO.P,U5,3,BUS2*%
%TO.N,BUS2*%
X165100000Y-38100000D03*
%TO.P,U5,4,BUS3*%
%TO.N,BUS3*%
X162560000Y-38100000D03*
%TO.P,U5,5,BUS4*%
%TO.N,BUS4*%
X160020000Y-38100000D03*
%TO.P,U5,6,BUS5*%
%TO.N,BUS5*%
X157480000Y-38100000D03*
%TO.P,U5,7,BUS6*%
%TO.N,BUS6*%
X154940000Y-38100000D03*
%TO.P,U5,8,BUS7*%
%TO.N,BUS7*%
X152400000Y-38100000D03*
%TO.P,U5,9,L0*%
%TO.N,MAR_A0*%
X149860000Y-38100000D03*
%TO.P,U5,10,L1*%
%TO.N,MAR_A1*%
X147320000Y-38100000D03*
%TO.P,U5,11,L2*%
%TO.N,MAR_A2*%
X144780000Y-38100000D03*
%TO.P,U5,12,L3*%
%TO.N,MAR_A3*%
X142240000Y-38100000D03*
%TO.P,U5,13,L4*%
%TO.N,MAR_A4*%
X139700000Y-38100000D03*
%TO.P,U5,14,L5*%
%TO.N,MAR_A5*%
X137160000Y-38100000D03*
%TO.P,U5,15,L6*%
%TO.N,MAR_A6*%
X134620000Y-38100000D03*
%TO.P,U5,16,L7*%
%TO.N,MAR_A7*%
X132080000Y-38100000D03*
%TO.P,U5,17,VCC*%
%TO.N,VCC*%
X129540000Y-60960000D03*
X172720000Y-38100000D03*
%TO.P,U5,18,CLK*%
%TO.N,CLK*%
X132080000Y-60960000D03*
%TO.P,U5,19,IN*%
%TO.N,MI*%
X134620000Y-60960000D03*
%TO.P,U5,20,~{CLR}*%
%TO.N,~{CLR}*%
X137160000Y-60960000D03*
%TO.P,U5,21,OUT*%
%TO.N,GND*%
X139700000Y-60960000D03*
%TO.P,U5,22,GND*%
X129540000Y-38100000D03*
X152400000Y-60960000D03*
%TD*%
%TO.P,U12,*%
%TO.N,*%
X289560000Y-60960000D03*
X292100000Y-60960000D03*
X294640000Y-60960000D03*
X297180000Y-60960000D03*
X299720000Y-60960000D03*
X302260000Y-60960000D03*
X304800000Y-60960000D03*
X307340000Y-60960000D03*
%TO.P,U12,1,BUS0*%
%TO.N,BUS0*%
X327660000Y-38100000D03*
%TO.P,U12,2,BUS1*%
%TO.N,BUS1*%
X325120000Y-38100000D03*
%TO.P,U12,3,BUS2*%
%TO.N,BUS2*%
X322580000Y-38100000D03*
%TO.P,U12,4,BUS3*%
%TO.N,BUS3*%
X320040000Y-38100000D03*
%TO.P,U12,5,BUS4*%
%TO.N,BUS4*%
X317500000Y-38100000D03*
%TO.P,U12,6,BUS5*%
%TO.N,BUS5*%
X314960000Y-38100000D03*
%TO.P,U12,7,BUS6*%
%TO.N,BUS6*%
X312420000Y-38100000D03*
%TO.P,U12,8,BUS7*%
%TO.N,BUS7*%
X309880000Y-38100000D03*
%TO.P,U12,9,VCC*%
%TO.N,VCC*%
X287020000Y-60960000D03*
X307340000Y-38100000D03*
%TO.P,U12,10,GND*%
%TO.N,GND*%
X309880000Y-60960000D03*
X330200000Y-38100000D03*
%TD*%
%TO.P,U2,*%
%TO.N,*%
X195580000Y-60960000D03*
X198120000Y-60960000D03*
X200660000Y-60960000D03*
X203200000Y-60960000D03*
%TO.P,U2,1,BUS0*%
%TO.N,BUS0*%
X223520000Y-38100000D03*
%TO.P,U2,2,BUS1*%
%TO.N,BUS1*%
X220980000Y-38100000D03*
%TO.P,U2,3,BUS2*%
%TO.N,BUS2*%
X218440000Y-38100000D03*
%TO.P,U2,4,BUS3*%
%TO.N,BUS3*%
X215900000Y-38100000D03*
%TO.P,U2,5,BUS4*%
%TO.N,BUS4*%
X213360000Y-38100000D03*
%TO.P,U2,6,BUS5*%
%TO.N,BUS5*%
X210820000Y-38100000D03*
%TO.P,U2,7,BUS6*%
%TO.N,BUS6*%
X208280000Y-38100000D03*
%TO.P,U2,8,BUS7*%
%TO.N,BUS7*%
X205740000Y-38100000D03*
%TO.P,U2,9,L0*%
%TO.N,IR_D0*%
X203200000Y-38100000D03*
%TO.P,U2,10,L1*%
%TO.N,IR_D1*%
X200660000Y-38100000D03*
%TO.P,U2,11,L2*%
%TO.N,IR_D2*%
X198120000Y-38100000D03*
%TO.P,U2,12,L3*%
%TO.N,IR_D3*%
X195580000Y-38100000D03*
%TO.P,U2,13,L4*%
%TO.N,IR_D4*%
X193040000Y-38100000D03*
%TO.P,U2,14,L5*%
%TO.N,IR_D5*%
X190500000Y-38100000D03*
%TO.P,U2,15,L6*%
%TO.N,IR_D6*%
X187960000Y-38100000D03*
%TO.P,U2,16,L7*%
%TO.N,IR_D7*%
X185420000Y-38100000D03*
%TO.P,U2,17,VCC*%
%TO.N,VCC*%
X182880000Y-60960000D03*
X226060000Y-38100000D03*
%TO.P,U2,18,CLK*%
%TO.N,CLK*%
X185420000Y-60960000D03*
%TO.P,U2,19,IN*%
%TO.N,II*%
X187960000Y-60960000D03*
%TO.P,U2,20,~{CLR}*%
%TO.N,~{CLR}*%
X190500000Y-60960000D03*
%TO.P,U2,21,OUT*%
%TO.N,GND*%
X193040000Y-60960000D03*
%TO.P,U2,22,GND*%
X182880000Y-38100000D03*
X205740000Y-60960000D03*
%TD*%
%TO.P,U4,*%
%TO.N,*%
X114300000Y-60960000D03*
X116840000Y-60960000D03*
X119380000Y-60960000D03*
%TO.P,U4,1,BUS0*%
%TO.N,BUS0*%
X45720000Y-38100000D03*
%TO.P,U4,2,BUS1*%
%TO.N,BUS1*%
X43180000Y-38100000D03*
%TO.P,U4,3,BUS2*%
%TO.N,BUS2*%
X40640000Y-38100000D03*
%TO.P,U4,4,BUS3*%
%TO.N,BUS3*%
X38100000Y-38100000D03*
%TO.P,U4,5,BUS4*%
%TO.N,BUS4*%
X35560000Y-38100000D03*
%TO.P,U4,6,BUS5*%
%TO.N,BUS5*%
X33020000Y-38100000D03*
%TO.P,U4,7,BUS6*%
%TO.N,BUS6*%
X30480000Y-38100000D03*
%TO.P,U4,8,BUS7*%
%TO.N,BUS7*%
X27940000Y-38100000D03*
%TO.P,U4,9,VCC*%
%TO.N,VCC*%
X48260000Y-38100000D03*
X99060000Y-60960000D03*
%TO.P,U4,10,CLK*%
%TO.N,CLK*%
X101600000Y-60960000D03*
%TO.P,U4,11,J*%
%TO.N,J*%
X104140000Y-60960000D03*
%TO.P,U4,12,~{CLR}*%
%TO.N,~{CLR}*%
X106680000Y-60960000D03*
%TO.P,U4,13,CO*%
%TO.N,CO*%
X109220000Y-60960000D03*
%TO.P,U4,14,CE*%
%TO.N,CE*%
X111760000Y-60960000D03*
%TO.P,U4,15,GND*%
%TO.N,GND*%
X25400000Y-38100000D03*
X121920000Y-60960000D03*
%TD*%
%TO.P,U9,*%
%TO.N,*%
X236220000Y-127000000D03*
X238760000Y-127000000D03*
X241300000Y-127000000D03*
X243840000Y-127000000D03*
X246380000Y-127000000D03*
X248920000Y-127000000D03*
X251460000Y-127000000D03*
X254000000Y-127000000D03*
X317500000Y-177800000D03*
X320040000Y-177800000D03*
X322580000Y-177800000D03*
X325120000Y-177800000D03*
X327660000Y-177800000D03*
%TO.P,U9,1,VCC*%
%TO.N,VCC*%
X256540000Y-127000000D03*
X307340000Y-177800000D03*
%TO.P,U9,2,CLK*%
%TO.N,CLK*%
X309880000Y-177800000D03*
%TO.P,U9,3,~{CLR}*%
%TO.N,~{CLR}*%
X312420000Y-177800000D03*
%TO.P,U9,4,HLT*%
%TO.N,HLTIN*%
X314960000Y-177800000D03*
%TO.P,U9,5,GND*%
%TO.N,GND*%
X233680000Y-127000000D03*
X330200000Y-177800000D03*
%TD*%
D14*
%TO.P,R1,1*%
%TO.N,HLT*%
X307340000Y-172720000D03*
D15*
%TO.P,R1,2*%
%TO.N,HLTIN*%
X314960000Y-172720000D03*
%TD*%
D10*
%TO.P,U1,*%
%TO.N,*%
X109220000Y-119380000D03*
X111760000Y-119380000D03*
X114300000Y-119380000D03*
X116840000Y-119380000D03*
X119380000Y-119380000D03*
%TO.P,U1,1,BUS0*%
%TO.N,BUS0*%
X119380000Y-68580000D03*
%TO.P,U1,2,BUS1*%
%TO.N,BUS1*%
X116840000Y-68580000D03*
%TO.P,U1,3,BUS2*%
%TO.N,BUS2*%
X114300000Y-68580000D03*
%TO.P,U1,4,BUS3*%
%TO.N,BUS3*%
X111760000Y-68580000D03*
%TO.P,U1,5,BUS4*%
%TO.N,BUS4*%
X109220000Y-68580000D03*
%TO.P,U1,6,BUS5*%
%TO.N,BUS5*%
X106680000Y-68580000D03*
%TO.P,U1,7,BUS6*%
%TO.N,BUS6*%
X104140000Y-68580000D03*
%TO.P,U1,8,BUS7*%
%TO.N,BUS7*%
X101600000Y-68580000D03*
%TO.P,U1,9,L0*%
%TO.N,MAR_A0*%
X45720000Y-68580000D03*
%TO.P,U1,10,L1*%
%TO.N,MAR_A1*%
X43180000Y-68580000D03*
%TO.P,U1,11,L2*%
%TO.N,MAR_A2*%
X40640000Y-68580000D03*
%TO.P,U1,12,L3*%
%TO.N,MAR_A3*%
X38100000Y-68580000D03*
%TO.P,U1,13,L4*%
%TO.N,MAR_A4*%
X35560000Y-68580000D03*
%TO.P,U1,14,L5*%
%TO.N,MAR_A5*%
X33020000Y-68580000D03*
%TO.P,U1,15,L6*%
%TO.N,MAR_A6*%
X30480000Y-68580000D03*
%TO.P,U1,16,L7*%
%TO.N,MAR_A7*%
X27940000Y-68580000D03*
%TO.P,U1,17,L8*%
%TO.N,GND*%
X45720000Y-73660000D03*
%TO.P,U1,18,L9*%
X43180000Y-73660000D03*
%TO.P,U1,19,L10*%
X40640000Y-73660000D03*
%TO.P,U1,20,L11*%
X38100000Y-73660000D03*
%TO.P,U1,21,L12*%
X35560000Y-73660000D03*
%TO.P,U1,22,L13*%
X33020000Y-73660000D03*
%TO.P,U1,23,L14*%
X30480000Y-73660000D03*
%TO.P,U1,24,L15*%
X27940000Y-73660000D03*
%TO.P,U1,25,VCC*%
%TO.N,VCC*%
X48260000Y-68580000D03*
X48260000Y-73660000D03*
X99060000Y-119380000D03*
X121920000Y-68580000D03*
%TO.P,U1,26,RO*%
%TO.N,RO*%
X101600000Y-119380000D03*
%TO.P,U1,27,RRO*%
%TO.N,RRO*%
X104140000Y-119380000D03*
%TO.P,U1,28,RI*%
%TO.N,RI*%
X106680000Y-119380000D03*
%TO.P,U1,29,GND*%
%TO.N,GND*%
X25400000Y-68580000D03*
X25400000Y-73660000D03*
X99060000Y-68580000D03*
X121920000Y-119380000D03*
%TD*%
D13*
%TO.P,C4,1*%
%TO.N,VCC*%
X183195000Y-53975000D03*
%TO.P,C4,2*%
%TO.N,GND*%
X188595000Y-53975000D03*
%TD*%
%TO.P,C8,1*%
%TO.N,VCC*%
X324833000Y-44831000D03*
%TO.P,C8,2*%
%TO.N,GND*%
X330233000Y-44831000D03*
%TD*%
D14*
%TO.P,R2,1*%
%TO.N,GND*%
X72517000Y-47371000D03*
D15*
%TO.P,R2,2*%
%TO.N,Net-(J1-Shield)*%
X72517000Y-39751000D03*
%TD*%
D13*
%TO.P,C3,1*%
%TO.N,VCC*%
X213200000Y-112649000D03*
%TO.P,C3,2*%
%TO.N,GND*%
X218600000Y-112649000D03*
%TD*%
%TO.P,C5,1*%
%TO.N,VCC*%
X324706000Y-167005000D03*
%TO.P,C5,2*%
%TO.N,GND*%
X330106000Y-167005000D03*
%TD*%
%TO.P,C7,1*%
%TO.N,VCC*%
X34384000Y-169926000D03*
%TO.P,C7,2*%
%TO.N,GND*%
X39784000Y-169926000D03*
%TD*%
%TO.P,C6,1*%
%TO.N,VCC*%
X166304000Y-146812000D03*
%TO.P,C6,2*%
%TO.N,GND*%
X171704000Y-146812000D03*
%TD*%
D10*
%TO.P,U7,*%
%TO.N,*%
X223520000Y-119380000D03*
%TO.P,U7,1,BUS0*%
%TO.N,BUS0*%
X223520000Y-68580000D03*
%TO.P,U7,2,BUS1*%
%TO.N,BUS1*%
X220980000Y-68580000D03*
%TO.P,U7,3,BUS2*%
%TO.N,BUS2*%
X218440000Y-68580000D03*
%TO.P,U7,4,BUS3*%
%TO.N,BUS3*%
X215900000Y-68580000D03*
%TO.P,U7,5,BUS4*%
%TO.N,BUS4*%
X213360000Y-68580000D03*
%TO.P,U7,6,BUS5*%
%TO.N,BUS5*%
X210820000Y-68580000D03*
%TO.P,U7,7,BUS6*%
%TO.N,BUS6*%
X208280000Y-68580000D03*
%TO.P,U7,8,BUS7*%
%TO.N,BUS7*%
X205740000Y-68580000D03*
%TO.P,U7,9,A0*%
%TO.N,A_D0*%
X149860000Y-68580000D03*
%TO.P,U7,10,A1*%
%TO.N,A_D1*%
X147320000Y-68580000D03*
%TO.P,U7,11,A2*%
%TO.N,A_D2*%
X144780000Y-68580000D03*
%TO.P,U7,12,A3*%
%TO.N,A_D3*%
X142240000Y-68580000D03*
%TO.P,U7,13,A4*%
%TO.N,A_D4*%
X139700000Y-68580000D03*
%TO.P,U7,14,A5*%
%TO.N,A_D5*%
X137160000Y-68580000D03*
%TO.P,U7,15,A6*%
%TO.N,A_D6*%
X134620000Y-68580000D03*
%TO.P,U7,16,A7*%
%TO.N,A_D7*%
X132080000Y-68580000D03*
%TO.P,U7,17,B0*%
%TO.N,B_D0*%
X149860000Y-119380000D03*
%TO.P,U7,18,B1*%
%TO.N,B_D1*%
X147320000Y-119380000D03*
%TO.P,U7,19,B2*%
%TO.N,B_D2*%
X144780000Y-119380000D03*
%TO.P,U7,20,B3*%
%TO.N,B_D3*%
X142240000Y-119380000D03*
%TO.P,U7,21,B4*%
%TO.N,B_D4*%
X139700000Y-119380000D03*
%TO.P,U7,22,B5*%
%TO.N,B_D5*%
X137160000Y-119380000D03*
%TO.P,U7,23,B6*%
%TO.N,B_D6*%
X134620000Y-119380000D03*
%TO.P,U7,24,B7*%
%TO.N,B_D7*%
X132080000Y-119380000D03*
%TO.P,U7,25,VCC*%
%TO.N,VCC*%
X152400000Y-68580000D03*
X152400000Y-119380000D03*
X203200000Y-119380000D03*
X226060000Y-68580000D03*
%TO.P,U7,26,CLK*%
%TO.N,CLK*%
X205740000Y-119380000D03*
%TO.P,U7,27,SU*%
%TO.N,PCL2*%
X208280000Y-119380000D03*
%TO.P,U7,28,FI*%
%TO.N,FI*%
X210820000Y-119380000D03*
%TO.P,U7,29,CLR*%
%TO.N,~{CLR}*%
X213360000Y-119380000D03*
%TO.P,U7,30,EO*%
%TO.N,EO*%
X215900000Y-119380000D03*
%TO.P,U7,31,CF*%
%TO.N,CF*%
X218440000Y-119380000D03*
%TO.P,U7,32,ZF*%
%TO.N,ZF*%
X220980000Y-119380000D03*
%TO.P,U7,33,GND*%
%TO.N,GND*%
X129540000Y-68580000D03*
X129540000Y-119380000D03*
X203200000Y-68580000D03*
X226060000Y-119380000D03*
%TD*%
D13*
%TO.P,C9,1*%
%TO.N,VCC*%
X109060000Y-112649000D03*
%TO.P,C9,2*%
%TO.N,GND*%
X114460000Y-112649000D03*
%TD*%
D14*
%TO.P,C1,1*%
%TO.N,HLTIN*%
X317540000Y-172720000D03*
%TO.P,C1,2*%
%TO.N,VCC*%
X322540000Y-172720000D03*
%TD*%
D10*
%TO.P,U10,*%
%TO.N,*%
X246380000Y-119380000D03*
X248920000Y-119380000D03*
X251460000Y-119380000D03*
X254000000Y-119380000D03*
%TO.P,U10,1,I0*%
%TO.N,IR_D0*%
X254000000Y-68580000D03*
%TO.P,U10,2,I1*%
%TO.N,IR_D1*%
X251460000Y-68580000D03*
%TO.P,U10,3,I2*%
%TO.N,IR_D2*%
X248920000Y-68580000D03*
%TO.P,U10,4,I3*%
%TO.N,IR_D3*%
X246380000Y-68580000D03*
%TO.P,U10,5,I4*%
%TO.N,IR_D4*%
X243840000Y-68580000D03*
%TO.P,U10,6,I5*%
%TO.N,IR_D5*%
X241300000Y-68580000D03*
%TO.P,U10,7,I6*%
%TO.N,IR_D6*%
X238760000Y-68580000D03*
%TO.P,U10,8,I7*%
%TO.N,IR_D7*%
X236220000Y-68580000D03*
%TO.P,U10,9,OCRA0*%
%TO.N,unconnected-(U10-OCRA0-Pad9)*%
X327660000Y-68580000D03*
%TO.P,U10,10,OCRA1*%
%TO.N,MI*%
X325120000Y-68580000D03*
%TO.P,U10,11,OCRA2*%
%TO.N,II*%
X322580000Y-68580000D03*
%TO.P,U10,12,OCRA3*%
%TO.N,J*%
X320040000Y-68580000D03*
%TO.P,U10,13,OCRA4*%
%TO.N,AI*%
X317500000Y-68580000D03*
%TO.P,U10,14,OCRA5*%
%TO.N,BI*%
X314960000Y-68580000D03*
%TO.P,U10,15,OCRA6*%
%TO.N,OI*%
X312420000Y-68580000D03*
%TO.P,U10,16,OCRA7*%
%TO.N,RI*%
X309880000Y-68580000D03*
%TO.P,U10,17,OCRA8*%
%TO.N,TI*%
X327660000Y-73660000D03*
%TO.P,U10,18,OCRA9*%
%TO.N,OCA9*%
X325120000Y-73660000D03*
%TO.P,U10,19,OCRA10*%
%TO.N,OCA10*%
X322580000Y-73660000D03*
%TO.P,U10,20,OCRA11*%
%TO.N,OCA11*%
X320040000Y-73660000D03*
%TO.P,U10,21,OCRA12*%
%TO.N,OCA12*%
X317500000Y-73660000D03*
%TO.P,U10,22,OCRA13*%
%TO.N,OCA13*%
X314960000Y-73660000D03*
%TO.P,U10,23,OCRA14*%
%TO.N,OCA14*%
X312420000Y-73660000D03*
%TO.P,U10,24,OCRA15*%
%TO.N,OCA15*%
X309880000Y-73660000D03*
%TO.P,U10,25,OCRB0*%
%TO.N,unconnected-(U10-OCRB0-Pad25)*%
X327660000Y-114300000D03*
%TO.P,U10,26,OCRB1*%
%TO.N,CO*%
X325120000Y-114300000D03*
%TO.P,U10,27,OCRB2*%
%TO.N,RRO*%
X322580000Y-114300000D03*
%TO.P,U10,28,OCRB3*%
%TO.N,AO*%
X320040000Y-114300000D03*
%TO.P,U10,29,OCRB4*%
%TO.N,BO*%
X317500000Y-114300000D03*
%TO.P,U10,30,OCRB5*%
%TO.N,EO*%
X314960000Y-114300000D03*
%TO.P,U10,31,OCRB6*%
%TO.N,RO*%
X312420000Y-114300000D03*
%TO.P,U10,32,OCRB7*%
%TO.N,TO*%
X309880000Y-114300000D03*
%TO.P,U10,33,OCRB8*%
%TO.N,OCB8*%
X327660000Y-119380000D03*
%TO.P,U10,34,OCRB9*%
%TO.N,OCB9*%
X325120000Y-119380000D03*
%TO.P,U10,35,OCRB10*%
%TO.N,OCB10*%
X322580000Y-119380000D03*
%TO.P,U10,36,OCRB11*%
%TO.N,OCB11*%
X320040000Y-119380000D03*
%TO.P,U10,37,OCRB12*%
%TO.N,OCB12*%
X317500000Y-119380000D03*
%TO.P,U10,38,OCRB13*%
%TO.N,OCB13*%
X314960000Y-119380000D03*
%TO.P,U10,39,OCRB14*%
%TO.N,OCB14*%
X312420000Y-119380000D03*
%TO.P,U10,40,OCRB15*%
%TO.N,OCB15*%
X309880000Y-119380000D03*
%TO.P,U10,41,PCL0*%
%TO.N,CE*%
X254000000Y-73660000D03*
%TO.P,U10,42,PCL1*%
%TO.N,FI*%
X251460000Y-73660000D03*
%TO.P,U10,43,PCL2*%
%TO.N,PCL2*%
X248920000Y-73660000D03*
%TO.P,U10,44,PCL3*%
%TO.N,PCL3*%
X246380000Y-73660000D03*
%TO.P,U10,45,PCL4*%
%TO.N,PCL4*%
X243840000Y-73660000D03*
%TO.P,U10,46,PCL5*%
%TO.N,PCL5*%
X241300000Y-73660000D03*
%TO.P,U10,47,PCL6*%
%TO.N,HLT*%
X238760000Y-73660000D03*
%TO.P,U10,48,PCL7*%
%TO.N,unconnected-(U10-PCL7-Pad48)*%
X236220000Y-73660000D03*
%TO.P,U10,49,VCC*%
%TO.N,VCC*%
X233680000Y-119380000D03*
X256540000Y-68580000D03*
X256540000Y-73660000D03*
X330200000Y-68580000D03*
X330200000Y-73660000D03*
X330200000Y-114300000D03*
X330200000Y-119380000D03*
%TO.P,U10,50,CLK*%
%TO.N,CLK*%
X236220000Y-119380000D03*
%TO.P,U10,51,ZF*%
%TO.N,ZF*%
X238760000Y-119380000D03*
%TO.P,U10,52,CF*%
%TO.N,CF*%
X241300000Y-119380000D03*
%TO.P,U10,53,~{CLR}*%
%TO.N,~{CLR}*%
X243840000Y-119380000D03*
%TO.P,U10,54,GND*%
%TO.N,GND*%
X233680000Y-68580000D03*
X233680000Y-73660000D03*
X256540000Y-119380000D03*
X307340000Y-68580000D03*
X307340000Y-73660000D03*
X307340000Y-114300000D03*
X307340000Y-119380000D03*
%TD*%
D16*
%TO.N,FI*%
X210820000Y-75175700D03*
%TO.N,OI*%
X30480000Y-77175100D03*
%TO.N,TO*%
X245110000Y-111914500D03*
%TO.N,TI*%
X240719800Y-63839500D03*
%TO.N,HLT*%
X240030000Y-167424500D03*
%TO.N,PCL2*%
X208280000Y-76229500D03*
%TO.N,IR_D7*%
X184150000Y-66161000D03*
%TO.N,IR_D6*%
X199475900Y-65676900D03*
%TO.N,IR_D5*%
X194216700Y-66941200D03*
%TO.N,IR_D4*%
X196756700Y-67675300D03*
%TO.N,IR_D3*%
X247570500Y-52439500D03*
X200713900Y-52439500D03*
%TO.N,IR_D2*%
X201951900Y-65208100D03*
%TO.N,IR_D1*%
X204520800Y-64772300D03*
%TO.N,IR_D0*%
X206675300Y-63843700D03*
%TO.N,RI*%
X308646600Y-115490600D03*
%TO.N,BO*%
X316230000Y-151248700D03*
%TO.N,BI*%
X311209900Y-150759000D03*
%TO.N,B_D6*%
X185858500Y-118545700D03*
%TO.N,B_D5*%
X188567100Y-116700900D03*
%TO.N,B_D4*%
X189138200Y-119262600D03*
%TO.N,B_D3*%
X195580000Y-117466500D03*
%TO.N,AO*%
X318770000Y-151993000D03*
%TO.N,AI*%
X313777800Y-135704500D03*
%TO.N,MAR_A7*%
X31274900Y-40680300D03*
%TO.N,MAR_A6*%
X133417600Y-63687400D03*
%TO.N,MAR_A5*%
X136100600Y-69793700D03*
%TO.N,MAR_A4*%
X138401300Y-66307800D03*
%TO.N,MAR_A3*%
X141055400Y-63816900D03*
%TO.N,MAR_A2*%
X143475600Y-64543600D03*
%TO.N,MAR_A1*%
X59253700Y-35069900D03*
%TO.N,MAR_A0*%
X146122500Y-65741400D03*
%TO.N,GND*%
X121920000Y-112649000D03*
X227236700Y-112649000D03*
X185637300Y-147404500D03*
X152400000Y-129577100D03*
%TO.N,CE*%
X117269300Y-73484700D03*
%TO.N,CO*%
X110490000Y-110706300D03*
%TO.N,~{CLR}*%
X245109900Y-179435600D03*
X137160000Y-175354500D03*
%TO.N,J*%
X320040000Y-72027500D03*
X106615700Y-77916900D03*
%TO.N,CLK*%
X132080000Y-179432000D03*
X237583300Y-176164400D03*
%TO.N,VCC*%
X322342400Y-167424500D03*
X129540000Y-67102800D03*
X48260000Y-48474500D03*
X327533100Y-44509500D03*
X203200000Y-112649000D03*
X307340000Y-44670200D03*
X174359500Y-52439500D03*
X287020000Y-68580000D03*
%TO.N,BUS7*%
X92961900Y-38807300D03*
X308491000Y-35773400D03*
%TO.N,BUS5*%
X48031400Y-67124600D03*
%TO.N,BUS4*%
X110650600Y-131835600D03*
X106517400Y-35593600D03*
%TO.N,BUS3*%
X55224900Y-66751100D03*
X268634500Y-32670500D03*
%TO.N,BUS2*%
X108142400Y-36477600D03*
X269571200Y-33587400D03*
%TO.N,BUS1*%
X118458500Y-40192100D03*
X220980000Y-41553600D03*
%TO.N,BUS0*%
X119973200Y-40918800D03*
X223520000Y-42273000D03*
%TD*%
D17*
%TO.N,FI*%
X244077800Y-75175700D02*
X210820000Y-75175700D01*
X245110000Y-74143500D02*
X244077800Y-75175700D01*
X245110000Y-73254200D02*
X245110000Y-74143500D01*
X245894800Y-72469400D02*
X245110000Y-73254200D01*
X250269400Y-72469400D02*
X245894800Y-72469400D01*
X251460000Y-73660000D02*
X250269400Y-72469400D01*
%TO.N,HLTIN*%
X317540000Y-172720000D02*
X314960000Y-172720000D01*
%TO.N,OI*%
X106901600Y-77175100D02*
X30480000Y-77175100D01*
X107191700Y-77465200D02*
X106901600Y-77175100D01*
X254399000Y-77465200D02*
X107191700Y-77465200D01*
X261739100Y-70125100D02*
X254399000Y-77465200D01*
X310874900Y-70125100D02*
X261739100Y-70125100D01*
X312420000Y-68580000D02*
X310874900Y-70125100D01*
%TO.N,TO*%
X307494500Y-111914500D02*
X309880000Y-114300000D01*
X245110000Y-111914500D02*
X307494500Y-111914500D01*
%TO.N,TI*%
X309403000Y-63839500D02*
X240719800Y-63839500D01*
X313690000Y-68126500D02*
X309403000Y-63839500D01*
X313690000Y-69042600D02*
X313690000Y-68126500D01*
X315767400Y-71120000D02*
X313690000Y-69042600D01*
X325120000Y-71120000D02*
X315767400Y-71120000D01*
X327660000Y-73660000D02*
X325120000Y-71120000D01*
%TO.N,HLT*%
X302044500Y-167424500D02*
X240030000Y-167424500D01*
X307340000Y-172720000D02*
X302044500Y-167424500D01*
%TO.N,ZF*%
X237087200Y-121052800D02*
X238760000Y-119380000D01*
X222652800Y-121052800D02*
X237087200Y-121052800D01*
X220980000Y-119380000D02*
X222652800Y-121052800D01*
%TO.N,CF*%
X239175500Y-121504500D02*
X241300000Y-119380000D01*
X220564500Y-121504500D02*
X239175500Y-121504500D01*
X218440000Y-119380000D02*
X220564500Y-121504500D01*
%TO.N,EO*%
X311509600Y-117750400D02*
X314960000Y-114300000D01*
X217529600Y-117750400D02*
X311509600Y-117750400D01*
X215900000Y-119380000D02*
X217529600Y-117750400D01*
%TO.N,Net-(J1-Shield)*%
X65786000Y-42545000D02*
X53746000Y-42545000D01*
X68596300Y-42545000D02*
X71390300Y-39751000D01*
X65786000Y-42545000D02*
X68596300Y-42545000D01*
X72517000Y-39751000D02*
X71390300Y-39751000D01*
%TO.N,PCL2*%
X246350500Y-76229500D02*
X248920000Y-73660000D01*
X208280000Y-76229500D02*
X246350500Y-76229500D01*
%TO.N,IR_D7*%
X234050900Y-66410900D02*
X236220000Y-68580000D01*
X198781200Y-66410900D02*
X234050900Y-66410900D01*
X198531300Y-66161000D02*
X198781200Y-66410900D01*
X184150000Y-66161000D02*
X198531300Y-66161000D01*
%TO.N,IR_D6*%
X236139200Y-65959200D02*
X238760000Y-68580000D01*
X199758200Y-65959200D02*
X236139200Y-65959200D01*
X199475900Y-65676900D02*
X199758200Y-65959200D01*
%TO.N,IR_D5*%
X233814600Y-66941200D02*
X194216700Y-66941200D01*
X234856700Y-67983300D02*
X233814600Y-66941200D01*
X234856700Y-68892500D02*
X234856700Y-67983300D01*
X235734800Y-69770600D02*
X234856700Y-68892500D01*
X240109400Y-69770600D02*
X235734800Y-69770600D01*
X241300000Y-68580000D02*
X240109400Y-69770600D01*
%TO.N,IR_D4*%
X197039100Y-67392900D02*
X196756700Y-67675300D01*
X227239500Y-67392900D02*
X197039100Y-67392900D01*
X230068900Y-70222300D02*
X227239500Y-67392900D01*
X242197700Y-70222300D02*
X230068900Y-70222300D01*
X243840000Y-68580000D02*
X242197700Y-70222300D01*
%TO.N,IR_D3*%
X200713900Y-52439500D02*
X247570500Y-52439500D01*
%TO.N,IR_D2*%
X202251300Y-65507500D02*
X201951900Y-65208100D01*
X245847500Y-65507500D02*
X202251300Y-65507500D01*
X248920000Y-68580000D02*
X245847500Y-65507500D01*
%TO.N,IR_D1*%
X204774900Y-65026400D02*
X204520800Y-64772300D01*
X247906400Y-65026400D02*
X204774900Y-65026400D01*
X251460000Y-68580000D02*
X247906400Y-65026400D01*
%TO.N,IR_D0*%
X207406300Y-64574700D02*
X206675300Y-63843700D01*
X249994700Y-64574700D02*
X207406300Y-64574700D01*
X254000000Y-68580000D02*
X249994700Y-64574700D01*
%TO.N,RI*%
X110117700Y-115942300D02*
X106680000Y-119380000D01*
X145231800Y-115942300D02*
X110117700Y-115942300D01*
X146586900Y-114587200D02*
X145231800Y-115942300D01*
X148088000Y-114587200D02*
X146586900Y-114587200D01*
X148539700Y-114135500D02*
X148088000Y-114587200D01*
X184469100Y-114135500D02*
X148539700Y-114135500D01*
X184920800Y-114587200D02*
X184469100Y-114135500D01*
X186822500Y-114587200D02*
X184920800Y-114587200D01*
X187725900Y-115490600D02*
X186822500Y-114587200D01*
X308646600Y-115490600D02*
X187725900Y-115490600D01*
%TO.N,RRO*%
X319438000Y-111158000D02*
X322580000Y-114300000D01*
X126886200Y-111158000D02*
X319438000Y-111158000D01*
X122865300Y-115178900D02*
X126886200Y-111158000D01*
X108341100Y-115178900D02*
X122865300Y-115178900D01*
X104140000Y-119380000D02*
X108341100Y-115178900D01*
%TO.N,RO*%
X102777300Y-120557300D02*
X101600000Y-119380000D01*
X107195600Y-120557300D02*
X102777300Y-120557300D01*
X108043300Y-119709600D02*
X107195600Y-120557300D01*
X108043300Y-118891000D02*
X108043300Y-119709600D01*
X110540300Y-116394000D02*
X108043300Y-118891000D01*
X145463800Y-116394000D02*
X110540300Y-116394000D01*
X146818900Y-115038900D02*
X145463800Y-116394000D01*
X148275100Y-115038900D02*
X146818900Y-115038900D01*
X148726800Y-114587200D02*
X148275100Y-115038900D01*
X184282000Y-114587200D02*
X148726800Y-114587200D01*
X184733700Y-115038900D02*
X184282000Y-114587200D01*
X186530800Y-115038900D02*
X184733700Y-115038900D01*
X187052300Y-115560400D02*
X186530800Y-115038900D01*
X187156900Y-115560400D02*
X187052300Y-115560400D01*
X187538800Y-115942300D02*
X187156900Y-115560400D01*
X189062200Y-115942300D02*
X187538800Y-115942300D01*
X189349300Y-116229400D02*
X189062200Y-115942300D01*
X310490600Y-116229400D02*
X189349300Y-116229400D01*
X312420000Y-114300000D02*
X310490600Y-116229400D01*
%TO.N,BO*%
X315975900Y-151502800D02*
X316230000Y-151248700D01*
X194682800Y-151502800D02*
X315975900Y-151502800D01*
X193040000Y-149860000D02*
X194682800Y-151502800D01*
%TO.N,BI*%
X310917800Y-151051100D02*
X311209900Y-150759000D01*
X205254900Y-151051100D02*
X310917800Y-151051100D01*
X204376700Y-150172900D02*
X205254900Y-151051100D01*
X204376700Y-149368900D02*
X204376700Y-150172900D01*
X203668800Y-148661000D02*
X204376700Y-149368900D01*
X189159000Y-148661000D02*
X203668800Y-148661000D01*
X187960000Y-149860000D02*
X189159000Y-148661000D01*
%TO.N,B_D7*%
X176620800Y-118200800D02*
X185420000Y-127000000D01*
X151912600Y-118200800D02*
X176620800Y-118200800D01*
X151036700Y-119076700D02*
X151912600Y-118200800D01*
X151036700Y-119872300D02*
X151036700Y-119076700D01*
X149448900Y-121460100D02*
X151036700Y-119872300D01*
X134160100Y-121460100D02*
X149448900Y-121460100D01*
X132080000Y-119380000D02*
X134160100Y-121460100D01*
%TO.N,B_D6*%
X185061900Y-117749100D02*
X185858500Y-118545700D01*
X183384400Y-117749100D02*
X185061900Y-117749100D01*
X182932700Y-117297400D02*
X183384400Y-117749100D01*
X150160000Y-117297400D02*
X182932700Y-117297400D01*
X148590100Y-118867300D02*
X150160000Y-117297400D01*
X148590100Y-119817600D02*
X148590100Y-118867300D01*
X147399300Y-121008400D02*
X148590100Y-119817600D01*
X136248400Y-121008400D02*
X147399300Y-121008400D01*
X134620000Y-119380000D02*
X136248400Y-121008400D01*
%TO.N,B_D5*%
X138919300Y-117620700D02*
X137160000Y-119380000D01*
X144875900Y-117620700D02*
X138919300Y-117620700D01*
X147006000Y-115490600D02*
X144875900Y-117620700D01*
X148462200Y-115490600D02*
X147006000Y-115490600D01*
X148913900Y-115038900D02*
X148462200Y-115490600D01*
X184094900Y-115038900D02*
X148913900Y-115038900D01*
X184546600Y-115490600D02*
X184094900Y-115038900D01*
X186343700Y-115490600D02*
X184546600Y-115490600D01*
X186865200Y-116012100D02*
X186343700Y-115490600D01*
X186969800Y-116012100D02*
X186865200Y-116012100D01*
X187351700Y-116394000D02*
X186969800Y-116012100D01*
X188260200Y-116394000D02*
X187351700Y-116394000D01*
X188567100Y-116700900D02*
X188260200Y-116394000D01*
%TO.N,B_D4*%
X188303900Y-119262600D02*
X189138200Y-119262600D01*
X186408500Y-117367200D02*
X188303900Y-119262600D01*
X186077300Y-117367200D02*
X186408500Y-117367200D01*
X185555800Y-116845700D02*
X186077300Y-117367200D01*
X183758700Y-116845700D02*
X185555800Y-116845700D01*
X183307000Y-116394000D02*
X183758700Y-116845700D01*
X149572300Y-116394000D02*
X183307000Y-116394000D01*
X148974200Y-116992100D02*
X149572300Y-116394000D01*
X147979000Y-116992100D02*
X148974200Y-116992100D01*
X145956700Y-119014400D02*
X147979000Y-116992100D01*
X145956700Y-119867500D02*
X145956700Y-119014400D01*
X145267500Y-120556700D02*
X145956700Y-119867500D01*
X140876700Y-120556700D02*
X145267500Y-120556700D01*
X139700000Y-119380000D02*
X140876700Y-120556700D01*
%TO.N,B_D3*%
X143547600Y-118072400D02*
X142240000Y-119380000D01*
X145063000Y-118072400D02*
X143547600Y-118072400D01*
X147193100Y-115942300D02*
X145063000Y-118072400D01*
X148649300Y-115942300D02*
X147193100Y-115942300D01*
X149101000Y-115490600D02*
X148649300Y-115942300D01*
X183907800Y-115490600D02*
X149101000Y-115490600D01*
X184359500Y-115942300D02*
X183907800Y-115490600D01*
X186156600Y-115942300D02*
X184359500Y-115942300D01*
X186678100Y-116463800D02*
X186156600Y-115942300D01*
X186782700Y-116463800D02*
X186678100Y-116463800D01*
X187164600Y-116845700D02*
X186782700Y-116463800D01*
X187684200Y-116845700D02*
X187164600Y-116845700D01*
X188305000Y-117466500D02*
X187684200Y-116845700D01*
X195580000Y-117466500D02*
X188305000Y-117466500D01*
%TO.N,B_D2*%
X147766000Y-116394000D02*
X144780000Y-119380000D01*
X148836400Y-116394000D02*
X147766000Y-116394000D01*
X149288100Y-115942300D02*
X148836400Y-116394000D01*
X183720600Y-115942300D02*
X149288100Y-115942300D01*
X184172300Y-116394000D02*
X183720600Y-115942300D01*
X185911900Y-116394000D02*
X184172300Y-116394000D01*
X186433400Y-116915500D02*
X185911900Y-116394000D01*
X186595600Y-116915500D02*
X186433400Y-116915500D01*
X186977500Y-117297400D02*
X186595600Y-116915500D01*
X187497000Y-117297400D02*
X186977500Y-117297400D01*
X188630100Y-118430500D02*
X187497000Y-117297400D01*
X189550500Y-118430500D02*
X188630100Y-118430500D01*
X198120000Y-127000000D02*
X189550500Y-118430500D01*
%TO.N,B_D1*%
X199455900Y-128204100D02*
X200660000Y-127000000D01*
X197657800Y-128204100D02*
X199455900Y-128204100D01*
X196756700Y-127303000D02*
X197657800Y-128204100D01*
X196756700Y-126485300D02*
X196756700Y-127303000D01*
X190300400Y-120029000D02*
X196756700Y-126485300D01*
X188431500Y-120029000D02*
X190300400Y-120029000D01*
X186221400Y-117818900D02*
X188431500Y-120029000D01*
X185890100Y-117818900D02*
X186221400Y-117818900D01*
X185368600Y-117297400D02*
X185890100Y-117818900D01*
X183571500Y-117297400D02*
X185368600Y-117297400D01*
X183119800Y-116845700D02*
X183571500Y-117297400D01*
X149854300Y-116845700D02*
X183119800Y-116845700D01*
X147320000Y-119380000D02*
X149854300Y-116845700D01*
%TO.N,B_D0*%
X201484100Y-128715900D02*
X203200000Y-127000000D01*
X195543000Y-128715900D02*
X201484100Y-128715900D01*
X194310000Y-127482900D02*
X195543000Y-128715900D01*
X194310000Y-126592900D02*
X194310000Y-127482900D01*
X186989500Y-119272400D02*
X194310000Y-126592900D01*
X184268900Y-119272400D02*
X186989500Y-119272400D01*
X182745600Y-117749100D02*
X184268900Y-119272400D01*
X151490900Y-117749100D02*
X182745600Y-117749100D01*
X149860000Y-119380000D02*
X151490900Y-117749100D01*
%TO.N,AO*%
X184674600Y-151993000D02*
X318770000Y-151993000D01*
X184274000Y-152393600D02*
X184674600Y-151993000D01*
X163891600Y-152393600D02*
X184274000Y-152393600D01*
X163491000Y-151993000D02*
X163891600Y-152393600D01*
X141833000Y-151993000D02*
X163491000Y-151993000D01*
X139700000Y-149860000D02*
X141833000Y-151993000D01*
%TO.N,AI*%
X148775500Y-135704500D02*
X313777800Y-135704500D01*
X134620000Y-149860000D02*
X148775500Y-135704500D01*
%TO.N,MI*%
X136298500Y-62638500D02*
X134620000Y-60960000D01*
X177901400Y-62638500D02*
X136298500Y-62638500D01*
X181214000Y-59325900D02*
X177901400Y-62638500D01*
X187990100Y-59325900D02*
X181214000Y-59325900D01*
X189136700Y-60472500D02*
X187990100Y-59325900D01*
X189136700Y-61276100D02*
X189136700Y-60472500D01*
X190521600Y-62661000D02*
X189136700Y-61276100D01*
X319201000Y-62661000D02*
X190521600Y-62661000D01*
X325120000Y-68580000D02*
X319201000Y-62661000D01*
%TO.N,II*%
X317112700Y-63112700D02*
X322580000Y-68580000D01*
X190112700Y-63112700D02*
X317112700Y-63112700D01*
X187960000Y-60960000D02*
X190112700Y-63112700D01*
%TO.N,MAR_A7*%
X129730900Y-35750900D02*
X132080000Y-38100000D01*
X107387700Y-35750900D02*
X129730900Y-35750900D01*
X107387700Y-35751000D02*
X107387700Y-35750900D01*
X106815200Y-36323500D02*
X107387700Y-35751000D01*
X58690500Y-36323500D02*
X106815200Y-36323500D01*
X58327200Y-35960200D02*
X58690500Y-36323500D01*
X41115700Y-35960200D02*
X58327200Y-35960200D01*
X39370000Y-37705900D02*
X41115700Y-35960200D01*
X39370000Y-38588600D02*
X39370000Y-37705900D01*
X37278300Y-40680300D02*
X39370000Y-38588600D01*
X31274900Y-40680300D02*
X37278300Y-40680300D01*
%TO.N,MAR_A6*%
X35372600Y-63687400D02*
X133417600Y-63687400D01*
X30480000Y-68580000D02*
X35372600Y-63687400D01*
%TO.N,MAR_A5*%
X135234200Y-70660100D02*
X136100600Y-69793700D01*
X42318400Y-70660100D02*
X135234200Y-70660100D01*
X42207800Y-70549500D02*
X42318400Y-70660100D01*
X42104400Y-70549500D02*
X42207800Y-70549500D01*
X41964400Y-70689500D02*
X42104400Y-70549500D01*
X35129500Y-70689500D02*
X41964400Y-70689500D01*
X33020000Y-68580000D02*
X35129500Y-70689500D01*
%TO.N,MAR_A4*%
X138117800Y-66024300D02*
X138401300Y-66307800D01*
X48101700Y-66024300D02*
X138117800Y-66024300D01*
X46943900Y-67182100D02*
X48101700Y-66024300D01*
X46943900Y-69088700D02*
X46943900Y-67182100D01*
X45824200Y-70208400D02*
X46943900Y-69088700D01*
X42505500Y-70208400D02*
X45824200Y-70208400D01*
X42207800Y-69910700D02*
X42505500Y-70208400D01*
X42104400Y-69910700D02*
X42207800Y-69910700D01*
X41777300Y-70237800D02*
X42104400Y-69910700D01*
X37217800Y-70237800D02*
X41777300Y-70237800D01*
X35560000Y-68580000D02*
X37217800Y-70237800D01*
%TO.N,MAR_A3*%
X143819400Y-63816900D02*
X141055400Y-63816900D01*
X144235200Y-64232700D02*
X143819400Y-63816900D01*
X144235200Y-64843000D02*
X144235200Y-64232700D01*
X143788500Y-65289700D02*
X144235200Y-64843000D01*
X141138600Y-65289700D02*
X143788500Y-65289700D01*
X140969800Y-65120900D02*
X141138600Y-65289700D01*
X47474000Y-65120900D02*
X140969800Y-65120900D01*
X44356700Y-68238200D02*
X47474000Y-65120900D01*
X44356700Y-69067500D02*
X44356700Y-68238200D01*
X43667500Y-69756700D02*
X44356700Y-69067500D01*
X42692600Y-69756700D02*
X43667500Y-69756700D01*
X42342900Y-69407000D02*
X42692600Y-69756700D01*
X41643900Y-69407000D02*
X42342900Y-69407000D01*
X41264800Y-69786100D02*
X41643900Y-69407000D01*
X39306100Y-69786100D02*
X41264800Y-69786100D01*
X38100000Y-68580000D02*
X39306100Y-69786100D01*
%TO.N,MAR_A2*%
X44676400Y-64543600D02*
X143475600Y-64543600D01*
X40640000Y-68580000D02*
X44676400Y-64543600D01*
%TO.N,MAR_A1*%
X144081300Y-34861300D02*
X147320000Y-38100000D01*
X59462300Y-34861300D02*
X144081300Y-34861300D01*
X59253700Y-35069900D02*
X59462300Y-34861300D01*
%TO.N,MAR_A0*%
X140726600Y-65741400D02*
X146122500Y-65741400D01*
X140557800Y-65572600D02*
X140726600Y-65741400D01*
X47836600Y-65572600D02*
X140557800Y-65572600D01*
X45720000Y-67689200D02*
X47836600Y-65572600D01*
X45720000Y-68580000D02*
X45720000Y-67689200D01*
%TO.N,GND*%
X255362700Y-118202700D02*
X256540000Y-119380000D01*
X227237300Y-118202700D02*
X255362700Y-118202700D01*
X226060000Y-119380000D02*
X227237300Y-118202700D01*
X59748000Y-44023000D02*
X58516000Y-45255000D01*
X63235700Y-44023000D02*
X59748000Y-44023000D01*
X66583700Y-47371000D02*
X63235700Y-44023000D01*
X72517000Y-47371000D02*
X66583700Y-47371000D01*
X121920000Y-119380000D02*
X129540000Y-119380000D01*
X128318000Y-69802000D02*
X129540000Y-68580000D01*
X100282000Y-69802000D02*
X128318000Y-69802000D01*
X99060000Y-68580000D02*
X100282000Y-69802000D01*
X25400000Y-73660000D02*
X27940000Y-73660000D01*
X27940000Y-73660000D02*
X30480000Y-73660000D01*
X30480000Y-73660000D02*
X33020000Y-73660000D01*
X33020000Y-73660000D02*
X35560000Y-73660000D01*
X35560000Y-73660000D02*
X38100000Y-73660000D01*
X38100000Y-73660000D02*
X40640000Y-73660000D01*
X40640000Y-73660000D02*
X43180000Y-73660000D01*
X43180000Y-73660000D02*
X45720000Y-73660000D01*
X330200000Y-167099000D02*
X330106000Y-167005000D01*
X330200000Y-177800000D02*
X330200000Y-167099000D01*
X32555000Y-45255000D02*
X58516000Y-45255000D01*
X25400000Y-38100000D02*
X32555000Y-45255000D01*
X330200000Y-44798000D02*
X330233000Y-44831000D01*
X330200000Y-38100000D02*
X330200000Y-44798000D01*
X257716700Y-59783300D02*
X256540000Y-60960000D01*
X308703300Y-59783300D02*
X257716700Y-59783300D01*
X309880000Y-60960000D02*
X308703300Y-59783300D01*
X40386000Y-169926000D02*
X39784000Y-169926000D01*
X48260000Y-177800000D02*
X40386000Y-169926000D01*
X114460000Y-112649000D02*
X121920000Y-112649000D01*
X218600000Y-112649000D02*
X227236700Y-112649000D01*
X115316000Y-54356000D02*
X121920000Y-60960000D01*
X113157000Y-54356000D02*
X115316000Y-54356000D01*
X106172000Y-47371000D02*
X113157000Y-54356000D01*
X72517000Y-47371000D02*
X106172000Y-47371000D01*
X194216700Y-59783300D02*
X193040000Y-60960000D01*
X204563300Y-59783300D02*
X194216700Y-59783300D01*
X205740000Y-60960000D02*
X204563300Y-59783300D01*
X208280000Y-73660000D02*
X233680000Y-73660000D01*
X203200000Y-68580000D02*
X208280000Y-73660000D01*
X123554700Y-59325300D02*
X121920000Y-60960000D01*
X138065300Y-59325300D02*
X123554700Y-59325300D01*
X139700000Y-60960000D02*
X138065300Y-59325300D01*
X140876700Y-59783300D02*
X139700000Y-60960000D01*
X151223300Y-59783300D02*
X140876700Y-59783300D01*
X152400000Y-60960000D02*
X151223300Y-59783300D01*
X188595000Y-53975000D02*
X188595000Y-56515000D01*
X188595000Y-56515000D02*
X193040000Y-60960000D01*
X156845000Y-56515000D02*
X188595000Y-56515000D01*
X152400000Y-60960000D02*
X156845000Y-56515000D01*
X185044800Y-146812000D02*
X171704000Y-146812000D01*
X185637300Y-147404500D02*
X185044800Y-146812000D01*
X307340000Y-119380000D02*
X256540000Y-119380000D01*
X129540000Y-129577100D02*
X129540000Y-127000000D01*
X129540000Y-129577100D02*
X152400000Y-129577100D01*
X127733200Y-131383900D02*
X129540000Y-129577100D01*
X118162700Y-131383900D02*
X127733200Y-131383900D01*
X117711000Y-130932200D02*
X118162700Y-131383900D01*
X102992200Y-130932200D02*
X117711000Y-130932200D01*
X99060000Y-127000000D02*
X102992200Y-130932200D01*
X203284500Y-147404500D02*
X185637300Y-147404500D01*
X205740000Y-149860000D02*
X203284500Y-147404500D01*
X163499600Y-149860000D02*
X152400000Y-149860000D01*
X164678100Y-151038500D02*
X163499600Y-149860000D01*
X183365700Y-151038500D02*
X164678100Y-151038500D01*
X184056700Y-150347500D02*
X183365700Y-151038500D01*
X184056700Y-148985100D02*
X184056700Y-150347500D01*
X185637300Y-147404500D02*
X184056700Y-148985100D01*
%TO.N,CE*%
X120743300Y-76958700D02*
X117269300Y-73484700D01*
X250701300Y-76958700D02*
X120743300Y-76958700D01*
X254000000Y-73660000D02*
X250701300Y-76958700D01*
%TO.N,CO*%
X321526300Y-110706300D02*
X110490000Y-110706300D01*
X325120000Y-114300000D02*
X321526300Y-110706300D01*
%TO.N,~{CLR}*%
X241263800Y-121956200D02*
X243840000Y-119380000D01*
X215936200Y-121956200D02*
X241263800Y-121956200D01*
X213360000Y-119380000D02*
X215936200Y-121956200D01*
X107863600Y-62143600D02*
X106680000Y-60960000D01*
X123223200Y-62143600D02*
X107863600Y-62143600D01*
X125589800Y-59777000D02*
X123223200Y-62143600D01*
X135977000Y-59777000D02*
X125589800Y-59777000D01*
X137160000Y-60960000D02*
X135977000Y-59777000D01*
X191708400Y-62168400D02*
X190500000Y-60960000D01*
X240091600Y-62168400D02*
X191708400Y-62168400D01*
X241300000Y-60960000D02*
X240091600Y-62168400D01*
X53389200Y-175354500D02*
X137160000Y-175354500D01*
X49763400Y-178980300D02*
X53389200Y-175354500D01*
X34200300Y-178980300D02*
X49763400Y-178980300D01*
X33020000Y-177800000D02*
X34200300Y-178980300D01*
X310784400Y-179435600D02*
X245109900Y-179435600D01*
X312420000Y-177800000D02*
X310784400Y-179435600D01*
X138377700Y-62177700D02*
X137160000Y-60960000D01*
X153454800Y-62177700D02*
X138377700Y-62177700D01*
X156758300Y-58874200D02*
X153454800Y-62177700D01*
X188414200Y-58874200D02*
X156758300Y-58874200D01*
X190500000Y-60960000D02*
X188414200Y-58874200D01*
X188818700Y-151541300D02*
X190500000Y-149860000D01*
X184487500Y-151541300D02*
X188818700Y-151541300D01*
X184086900Y-151941900D02*
X184487500Y-151541300D01*
X164078700Y-151941900D02*
X184086900Y-151941900D01*
X163678100Y-151541300D02*
X164078700Y-151941900D01*
X142257200Y-151541300D02*
X163678100Y-151541300D01*
X141063300Y-150347400D02*
X142257200Y-151541300D01*
X141063300Y-149526800D02*
X141063300Y-150347400D01*
X140198600Y-148662100D02*
X141063300Y-149526800D01*
X138357900Y-148662100D02*
X140198600Y-148662100D01*
X137160000Y-149860000D02*
X138357900Y-148662100D01*
%TO.N,J*%
X262749000Y-72027500D02*
X320040000Y-72027500D01*
X256859600Y-77916900D02*
X262749000Y-72027500D01*
X106615700Y-77916900D02*
X256859600Y-77916900D01*
%TO.N,CLK*%
X234998900Y-120601100D02*
X236220000Y-119380000D01*
X223077000Y-120601100D02*
X234998900Y-120601100D01*
X222343300Y-119867400D02*
X223077000Y-120601100D01*
X222343300Y-119001600D02*
X222343300Y-119867400D01*
X221544600Y-118202900D02*
X222343300Y-119001600D01*
X217834500Y-118202900D02*
X221544600Y-118202900D01*
X217263300Y-118774100D02*
X217834500Y-118202900D01*
X217263300Y-119765300D02*
X217263300Y-118774100D01*
X216408100Y-120620500D02*
X217263300Y-119765300D01*
X215472500Y-120620500D02*
X216408100Y-120620500D01*
X214723300Y-119871300D02*
X215472500Y-120620500D01*
X214723300Y-119069200D02*
X214723300Y-119871300D01*
X213808000Y-118153900D02*
X214723300Y-119069200D01*
X206966100Y-118153900D02*
X213808000Y-118153900D01*
X205740000Y-119380000D02*
X206966100Y-118153900D01*
X29572000Y-179432000D02*
X132080000Y-179432000D01*
X27940000Y-177800000D02*
X29572000Y-179432000D01*
X244360300Y-176164400D02*
X237583300Y-176164400D01*
X247179800Y-178983900D02*
X244360300Y-176164400D01*
X308696100Y-178983900D02*
X247179800Y-178983900D01*
X309880000Y-177800000D02*
X308696100Y-178983900D01*
X132080000Y-60960000D02*
X132080000Y-62561400D01*
X131594400Y-63047000D02*
X132080000Y-62561400D01*
X103687000Y-63047000D02*
X131594400Y-63047000D01*
X101600000Y-60960000D02*
X103687000Y-63047000D01*
X184241500Y-151038500D02*
X185420000Y-149860000D01*
X184164400Y-151038500D02*
X184241500Y-151038500D01*
X184164400Y-151225600D02*
X184164400Y-151038500D01*
X183899800Y-151490200D02*
X184164400Y-151225600D01*
X164265800Y-151490200D02*
X183899800Y-151490200D01*
X163815600Y-151040000D02*
X164265800Y-151490200D01*
X152941200Y-151040000D02*
X163815600Y-151040000D01*
X152939700Y-151038500D02*
X152941200Y-151040000D01*
X144276400Y-151038500D02*
X152939700Y-151038500D01*
X143510100Y-150272200D02*
X144276400Y-151038500D01*
X143510100Y-149454600D02*
X143510100Y-150272200D01*
X142265900Y-148210400D02*
X143510100Y-149454600D01*
X137121000Y-148210400D02*
X142265900Y-148210400D01*
X135983300Y-149348100D02*
X137121000Y-148210400D01*
X135983300Y-150175600D02*
X135983300Y-149348100D01*
X135122200Y-151036700D02*
X135983300Y-150175600D01*
X133256700Y-151036700D02*
X135122200Y-151036700D01*
X132080000Y-149860000D02*
X133256700Y-151036700D01*
X134503400Y-62561400D02*
X132080000Y-62561400D01*
X135032200Y-63090200D02*
X134503400Y-62561400D01*
X178133700Y-63090200D02*
X135032200Y-63090200D01*
X181446300Y-59777600D02*
X178133700Y-63090200D01*
X184237600Y-59777600D02*
X181446300Y-59777600D01*
X185420000Y-60960000D02*
X184237600Y-59777600D01*
%TO.N,VCC*%
X324286500Y-167424500D02*
X324706000Y-167005000D01*
X322342400Y-167424500D02*
X324286500Y-167424500D01*
X123165800Y-67334200D02*
X129540000Y-67334200D01*
X121920000Y-68580000D02*
X123165800Y-67334200D01*
X321358800Y-173901200D02*
X322540000Y-172720000D01*
X311238800Y-173901200D02*
X321358800Y-173901200D01*
X307340000Y-177800000D02*
X311238800Y-173901200D01*
X227236700Y-125823300D02*
X226060000Y-127000000D01*
X255363300Y-125823300D02*
X227236700Y-125823300D01*
X256540000Y-127000000D02*
X255363300Y-125823300D01*
X58516000Y-47255000D02*
X57339300Y-47255000D01*
X307340000Y-38100000D02*
X276860000Y-38100000D01*
X33274000Y-169926000D02*
X34384000Y-169926000D01*
X25400000Y-177800000D02*
X33274000Y-169926000D01*
X106608200Y-112649000D02*
X109060000Y-112649000D01*
X99868300Y-119388900D02*
X106608200Y-112649000D01*
X99859400Y-119380000D02*
X99868300Y-119388900D01*
X99060000Y-119380000D02*
X99859400Y-119380000D01*
X54450000Y-149860000D02*
X129540000Y-149860000D01*
X34384000Y-169926000D02*
X54450000Y-149860000D01*
X213200000Y-112649000D02*
X203200000Y-112649000D01*
X324833000Y-44670200D02*
X324833000Y-44831000D01*
X324993700Y-44509500D02*
X324833000Y-44670200D01*
X327533100Y-44509500D02*
X324993700Y-44509500D01*
X324833000Y-44670200D02*
X307340000Y-44670200D01*
X100293200Y-59726800D02*
X102870000Y-59726800D01*
X99060000Y-60960000D02*
X100293200Y-59726800D01*
X102870000Y-59243000D02*
X102870000Y-59726800D01*
X107757000Y-54356000D02*
X102870000Y-59243000D01*
X56119800Y-48474500D02*
X57339300Y-47255000D01*
X48260000Y-48474500D02*
X56119800Y-48474500D01*
X64440300Y-54356000D02*
X107757000Y-54356000D01*
X57339300Y-47255000D02*
X64440300Y-54356000D01*
X102870000Y-61354100D02*
X102870000Y-59726800D01*
X104111200Y-62595300D02*
X102870000Y-61354100D01*
X127904700Y-62595300D02*
X104111200Y-62595300D01*
X129540000Y-60960000D02*
X127904700Y-62595300D01*
X181659500Y-52439500D02*
X174359500Y-52439500D01*
X183195000Y-53975000D02*
X181659500Y-52439500D01*
X121920000Y-125778400D02*
X121920000Y-127000000D01*
X106257800Y-125778400D02*
X121920000Y-125778400D01*
X99868300Y-119388900D02*
X106257800Y-125778400D01*
X203200000Y-119380000D02*
X207395100Y-123575100D01*
X222635100Y-123575100D02*
X226060000Y-127000000D01*
X207395100Y-123575100D02*
X222635100Y-123575100D01*
X169352000Y-149860000D02*
X166304000Y-146812000D01*
X182880000Y-149860000D02*
X169352000Y-149860000D01*
X204470000Y-126500200D02*
X207395100Y-123575100D01*
X204470000Y-127394200D02*
X204470000Y-126500200D01*
X202696600Y-129167600D02*
X204470000Y-127394200D01*
X174887600Y-129167600D02*
X202696600Y-129167600D01*
X172720000Y-127000000D02*
X174887600Y-129167600D01*
X256540000Y-68580000D02*
X287020000Y-68580000D01*
X175260000Y-68580000D02*
X182880000Y-60960000D01*
X152400000Y-68580000D02*
X175260000Y-68580000D01*
X254446000Y-70674000D02*
X256540000Y-68580000D01*
X228154000Y-70674000D02*
X254446000Y-70674000D01*
X226060000Y-68580000D02*
X228154000Y-70674000D01*
X129540000Y-67334200D02*
X129540000Y-67102800D01*
X125045100Y-122653300D02*
X121920000Y-125778400D01*
X149126700Y-122653300D02*
X125045100Y-122653300D01*
X152400000Y-119380000D02*
X149126700Y-122653300D01*
X165100000Y-119380000D02*
X172720000Y-127000000D01*
X152400000Y-119380000D02*
X165100000Y-119380000D01*
X151154200Y-67334200D02*
X152400000Y-68580000D01*
X129540000Y-67334200D02*
X151154200Y-67334200D01*
%TO.N,BUS7*%
X151223300Y-128176700D02*
X152400000Y-127000000D01*
X149372600Y-128176700D02*
X151223300Y-128176700D01*
X148683300Y-127487400D02*
X149372600Y-128176700D01*
X148683300Y-126643200D02*
X148683300Y-127487400D01*
X147862000Y-125821900D02*
X148683300Y-126643200D01*
X128890000Y-125821900D02*
X147862000Y-125821900D01*
X123779700Y-130932200D02*
X128890000Y-125821900D01*
X118349800Y-130932200D02*
X123779700Y-130932200D01*
X117898100Y-130480500D02*
X118349800Y-130932200D01*
X105080500Y-130480500D02*
X117898100Y-130480500D01*
X101600000Y-127000000D02*
X105080500Y-130480500D01*
X308264400Y-35546800D02*
X308491000Y-35773400D01*
X262503900Y-35546800D02*
X308264400Y-35546800D01*
X260256700Y-37794000D02*
X262503900Y-35546800D01*
X260256700Y-38587500D02*
X260256700Y-37794000D01*
X259556500Y-39287700D02*
X260256700Y-38587500D01*
X257727700Y-39287700D02*
X259556500Y-39287700D01*
X256540000Y-38100000D02*
X257727700Y-39287700D01*
X153588700Y-39288700D02*
X152400000Y-38100000D01*
X155441000Y-39288700D02*
X153588700Y-39288700D01*
X156210100Y-38519600D02*
X155441000Y-39288700D01*
X156210100Y-37703800D02*
X156210100Y-38519600D01*
X159285200Y-34628700D02*
X156210100Y-37703800D01*
X202268700Y-34628700D02*
X159285200Y-34628700D01*
X205740000Y-38100000D02*
X202268700Y-34628700D01*
X206931600Y-39291600D02*
X205740000Y-38100000D01*
X208767700Y-39291600D02*
X206931600Y-39291600D01*
X209550000Y-38509300D02*
X208767700Y-39291600D01*
X209550000Y-37696900D02*
X209550000Y-38509300D01*
X211714800Y-35532100D02*
X209550000Y-37696900D01*
X253972100Y-35532100D02*
X211714800Y-35532100D01*
X256540000Y-38100000D02*
X253972100Y-35532100D01*
X92742700Y-38588100D02*
X92961900Y-38807300D01*
X71061000Y-38588100D02*
X92742700Y-38588100D01*
X69379500Y-40269600D02*
X71061000Y-38588100D01*
X46548700Y-40269600D02*
X69379500Y-40269600D01*
X45393100Y-41425200D02*
X46548700Y-40269600D01*
X30956200Y-41425200D02*
X45393100Y-41425200D01*
X27940000Y-38409000D02*
X30956200Y-41425200D01*
X27940000Y-38100000D02*
X27940000Y-38409000D01*
%TO.N,BUS6*%
X208280000Y-38100000D02*
X208280000Y-36887200D01*
X154940000Y-35266200D02*
X154940000Y-38100000D01*
X153310200Y-125370200D02*
X154940000Y-127000000D01*
X128702900Y-125370200D02*
X153310200Y-125370200D01*
X128257900Y-125815200D02*
X128702900Y-125370200D01*
X128055000Y-125815200D02*
X128257900Y-125815200D01*
X123389700Y-130480500D02*
X128055000Y-125815200D01*
X118536900Y-130480500D02*
X123389700Y-130480500D01*
X118085200Y-130028800D02*
X118536900Y-130480500D01*
X107168800Y-130028800D02*
X118085200Y-130028800D01*
X104140000Y-127000000D02*
X107168800Y-130028800D01*
X309366700Y-35046700D02*
X312420000Y-38100000D01*
X262133300Y-35046700D02*
X309366700Y-35046700D01*
X259080000Y-38100000D02*
X262133300Y-35046700D01*
X156029200Y-34177000D02*
X154940000Y-35266200D01*
X205569800Y-34177000D02*
X156029200Y-34177000D01*
X208280000Y-36887200D02*
X205569800Y-34177000D01*
X210086800Y-35080400D02*
X208280000Y-36887200D01*
X256060400Y-35080400D02*
X210086800Y-35080400D01*
X259080000Y-38100000D02*
X256060400Y-35080400D01*
X34249900Y-34330100D02*
X30480000Y-38100000D01*
X154003900Y-34330100D02*
X34249900Y-34330100D01*
X154940000Y-35266200D02*
X154003900Y-34330100D01*
%TO.N,BUS5*%
X207749000Y-130071000D02*
X210820000Y-127000000D01*
X163848400Y-130071000D02*
X207749000Y-130071000D01*
X161290000Y-127512600D02*
X163848400Y-130071000D01*
X161290000Y-126562700D02*
X161290000Y-127512600D01*
X160518500Y-125791200D02*
X161290000Y-126562700D01*
X158688800Y-125791200D02*
X160518500Y-125791200D01*
X157480000Y-127000000D02*
X158688800Y-125791200D01*
X155398500Y-124918500D02*
X157480000Y-127000000D01*
X128515800Y-124918500D02*
X155398500Y-124918500D01*
X128070800Y-125363500D02*
X128515800Y-124918500D01*
X127784100Y-125363500D02*
X128070800Y-125363500D01*
X127114300Y-126033300D02*
X127784100Y-125363500D01*
X127114300Y-126117100D02*
X127114300Y-126033300D01*
X123202600Y-130028800D02*
X127114300Y-126117100D01*
X118724000Y-130028800D02*
X123202600Y-130028800D01*
X118272300Y-129577100D02*
X118724000Y-130028800D01*
X109257100Y-129577100D02*
X118272300Y-129577100D01*
X106680000Y-127000000D02*
X109257100Y-129577100D01*
X313760800Y-39299200D02*
X314960000Y-38100000D01*
X311922800Y-39299200D02*
X313760800Y-39299200D01*
X311056700Y-38433100D02*
X311922800Y-39299200D01*
X311056700Y-37612500D02*
X311056700Y-38433100D01*
X309945900Y-36501700D02*
X311056700Y-37612500D01*
X308190100Y-36501700D02*
X309945900Y-36501700D01*
X307688400Y-36000000D02*
X308190100Y-36501700D01*
X263720000Y-36000000D02*
X307688400Y-36000000D01*
X261620000Y-38100000D02*
X263720000Y-36000000D01*
X160499600Y-35080400D02*
X157480000Y-38100000D01*
X199332900Y-35080400D02*
X160499600Y-35080400D01*
X201930000Y-37677500D02*
X199332900Y-35080400D01*
X201930000Y-38535300D02*
X201930000Y-37677500D01*
X203141500Y-39746800D02*
X201930000Y-38535300D01*
X209173200Y-39746800D02*
X203141500Y-39746800D01*
X210820000Y-38100000D02*
X209173200Y-39746800D01*
X212936200Y-35983800D02*
X210820000Y-38100000D01*
X226310500Y-35983800D02*
X212936200Y-35983800D01*
X230066100Y-39739400D02*
X226310500Y-35983800D01*
X259980600Y-39739400D02*
X230066100Y-39739400D01*
X261620000Y-38100000D02*
X259980600Y-39739400D01*
X105440300Y-67340300D02*
X106680000Y-68580000D01*
X55665000Y-67340300D02*
X105440300Y-67340300D01*
X55525900Y-67479400D02*
X55665000Y-67340300D01*
X54924000Y-67479400D02*
X55525900Y-67479400D01*
X54569200Y-67124600D02*
X54924000Y-67479400D01*
X48031400Y-67124600D02*
X54569200Y-67124600D01*
%TO.N,BUS4*%
X209837300Y-130522700D02*
X213360000Y-127000000D01*
X163542700Y-130522700D02*
X209837300Y-130522700D01*
X160020000Y-127000000D02*
X163542700Y-130522700D01*
X155184400Y-131835600D02*
X160020000Y-127000000D01*
X110650600Y-131835600D02*
X155184400Y-131835600D01*
X315830400Y-39769600D02*
X317500000Y-38100000D01*
X309881700Y-39769600D02*
X315830400Y-39769600D01*
X308610100Y-38498000D02*
X309881700Y-39769600D01*
X308610100Y-37700900D02*
X308610100Y-38498000D01*
X307360900Y-36451700D02*
X308610100Y-37700900D01*
X265808300Y-36451700D02*
X307360900Y-36451700D01*
X264160000Y-38100000D02*
X265808300Y-36451700D01*
X162587900Y-35532100D02*
X160020000Y-38100000D01*
X189624600Y-35532100D02*
X162587900Y-35532100D01*
X191863300Y-37770800D02*
X189624600Y-35532100D01*
X191863300Y-38589000D02*
X191863300Y-37770800D01*
X193472800Y-40198500D02*
X191863300Y-38589000D01*
X211261500Y-40198500D02*
X193472800Y-40198500D01*
X213360000Y-38100000D02*
X211261500Y-40198500D01*
X215024500Y-36435500D02*
X213360000Y-38100000D01*
X226091600Y-36435500D02*
X215024500Y-36435500D01*
X229847200Y-40191100D02*
X226091600Y-36435500D01*
X261460700Y-40191100D02*
X229847200Y-40191100D01*
X263551800Y-38100000D02*
X261460700Y-40191100D01*
X264160000Y-38100000D02*
X263551800Y-38100000D01*
X106239200Y-35871800D02*
X106517400Y-35593600D01*
X58877600Y-35871800D02*
X106239200Y-35871800D01*
X58514300Y-35508500D02*
X58877600Y-35871800D01*
X38151500Y-35508500D02*
X58514300Y-35508500D01*
X35560000Y-38100000D02*
X38151500Y-35508500D01*
%TO.N,BUS3*%
X165179300Y-129619300D02*
X162560000Y-127000000D01*
X204835200Y-129619300D02*
X165179300Y-129619300D01*
X207010000Y-127444500D02*
X204835200Y-129619300D01*
X207010000Y-126533400D02*
X207010000Y-127444500D01*
X207730700Y-125812700D02*
X207010000Y-126533400D01*
X214712700Y-125812700D02*
X207730700Y-125812700D01*
X215900000Y-127000000D02*
X214712700Y-125812700D01*
X160020200Y-124460200D02*
X162560000Y-127000000D01*
X128335300Y-124460200D02*
X160020200Y-124460200D01*
X127883700Y-124911800D02*
X128335300Y-124460200D01*
X127513200Y-124911800D02*
X127883700Y-124911800D01*
X126662600Y-125762400D02*
X127513200Y-124911800D01*
X126662600Y-125930000D02*
X126662600Y-125762400D01*
X123015500Y-129577100D02*
X126662600Y-125930000D01*
X118911100Y-129577100D02*
X123015500Y-129577100D01*
X118459400Y-129125400D02*
X118911100Y-129577100D01*
X113885400Y-129125400D02*
X118459400Y-129125400D01*
X111760000Y-127000000D02*
X113885400Y-129125400D01*
X314610500Y-32670500D02*
X268634500Y-32670500D01*
X320040000Y-38100000D02*
X314610500Y-32670500D01*
X164676200Y-35983800D02*
X162560000Y-38100000D01*
X187536300Y-35983800D02*
X164676200Y-35983800D01*
X189323300Y-37770800D02*
X187536300Y-35983800D01*
X189323300Y-38636900D02*
X189323300Y-37770800D01*
X191336600Y-40650200D02*
X189323300Y-38636900D01*
X213349800Y-40650200D02*
X191336600Y-40650200D01*
X215900000Y-38100000D02*
X213349800Y-40650200D01*
X217112800Y-36887200D02*
X215900000Y-38100000D01*
X218955300Y-36887200D02*
X217112800Y-36887200D01*
X219710100Y-37642000D02*
X218955300Y-36887200D01*
X219710100Y-38516100D02*
X219710100Y-37642000D01*
X221066700Y-39872700D02*
X219710100Y-38516100D01*
X222075800Y-39872700D02*
X221066700Y-39872700D01*
X223297600Y-41094500D02*
X222075800Y-39872700D01*
X263705500Y-41094500D02*
X223297600Y-41094500D01*
X266700000Y-38100000D02*
X263705500Y-41094500D01*
X109931100Y-66751100D02*
X55224900Y-66751100D01*
X111760000Y-68580000D02*
X109931100Y-66751100D01*
%TO.N,BUS2*%
X314770100Y-33587400D02*
X269571200Y-33587400D01*
X318676700Y-37494000D02*
X314770100Y-33587400D01*
X318676700Y-38484600D02*
X318676700Y-37494000D01*
X319469300Y-39277200D02*
X318676700Y-38484600D01*
X321402800Y-39277200D02*
X319469300Y-39277200D01*
X322580000Y-38100000D02*
X321402800Y-39277200D01*
X163459600Y-39740400D02*
X165100000Y-38100000D01*
X120461300Y-39740400D02*
X163459600Y-39740400D01*
X117198500Y-36477600D02*
X120461300Y-39740400D01*
X108142400Y-36477600D02*
X117198500Y-36477600D01*
X220318500Y-41101900D02*
X220818600Y-40601800D01*
X186702000Y-41101900D02*
X220318500Y-41101900D01*
X184150000Y-38549900D02*
X186702000Y-41101900D01*
X184150000Y-37617100D02*
X184150000Y-38549900D01*
X182968400Y-36435500D02*
X184150000Y-37617100D01*
X166764500Y-36435500D02*
X182968400Y-36435500D01*
X165100000Y-38100000D02*
X166764500Y-36435500D01*
X162108500Y-124008500D02*
X165100000Y-127000000D01*
X128027700Y-124008500D02*
X162108500Y-124008500D01*
X127576100Y-124460100D02*
X128027700Y-124008500D01*
X127326100Y-124460100D02*
X127576100Y-124460100D01*
X126210900Y-125575300D02*
X127326100Y-124460100D01*
X126210900Y-125742900D02*
X126210900Y-125575300D01*
X122828400Y-129125400D02*
X126210900Y-125742900D01*
X119098300Y-129125400D02*
X122828400Y-129125400D01*
X118646600Y-128673700D02*
X119098300Y-129125400D01*
X115973700Y-128673700D02*
X118646600Y-128673700D01*
X114300000Y-127000000D02*
X115973700Y-128673700D01*
X265793800Y-41546200D02*
X269240000Y-38100000D01*
X222391300Y-41546200D02*
X265793800Y-41546200D01*
X221446900Y-40601800D02*
X222391300Y-41546200D01*
X220818600Y-40601800D02*
X221446900Y-40601800D01*
X220818600Y-40478600D02*
X220818600Y-40601800D01*
X218440000Y-38100000D02*
X220818600Y-40478600D01*
X107844800Y-36775200D02*
X108142400Y-36477600D01*
X58503400Y-36775200D02*
X107844800Y-36775200D01*
X58178400Y-36450200D02*
X58503400Y-36775200D01*
X42289800Y-36450200D02*
X58178400Y-36450200D01*
X40640000Y-38100000D02*
X42289800Y-36450200D01*
%TO.N,BUS1*%
X165547900Y-40192100D02*
X167640000Y-38100000D01*
X118458500Y-40192100D02*
X165547900Y-40192100D01*
X322983600Y-40236400D02*
X325120000Y-38100000D01*
X277288900Y-40236400D02*
X322983600Y-40236400D01*
X275496700Y-38444200D02*
X277288900Y-40236400D01*
X275496700Y-37611800D02*
X275496700Y-38444200D01*
X274798200Y-36913300D02*
X275496700Y-37611800D01*
X272966700Y-36913300D02*
X274798200Y-36913300D01*
X271780000Y-38100000D02*
X272966700Y-36913300D01*
X184331600Y-41553600D02*
X220980000Y-41553600D01*
X179665200Y-36887200D02*
X184331600Y-41553600D01*
X168852800Y-36887200D02*
X179665200Y-36887200D01*
X167640000Y-38100000D02*
X168852800Y-36887200D01*
X118016700Y-128176700D02*
X116840000Y-127000000D01*
X119014900Y-128176700D02*
X118016700Y-128176700D01*
X119511900Y-128673700D02*
X119014900Y-128176700D01*
X122641300Y-128673700D02*
X119511900Y-128673700D01*
X125759200Y-125555800D02*
X122641300Y-128673700D01*
X125759200Y-125388200D02*
X125759200Y-125555800D01*
X127139000Y-124008400D02*
X125759200Y-125388200D01*
X127389000Y-124008400D02*
X127139000Y-124008400D01*
X127389000Y-124008300D02*
X127389000Y-124008400D01*
X127840600Y-123556700D02*
X127389000Y-124008300D01*
X164196700Y-123556700D02*
X127840600Y-123556700D01*
X167640000Y-127000000D02*
X164196700Y-123556700D01*
X223522800Y-40642800D02*
X220980000Y-38100000D01*
X263290900Y-40642800D02*
X223522800Y-40642800D01*
X265523300Y-38410400D02*
X263290900Y-40642800D01*
X265523300Y-37612600D02*
X265523300Y-38410400D01*
X266232500Y-36903400D02*
X265523300Y-37612600D01*
X270583400Y-36903400D02*
X266232500Y-36903400D01*
X271780000Y-38100000D02*
X270583400Y-36903400D01*
X115493300Y-37226900D02*
X118458500Y-40192100D01*
X58316300Y-37226900D02*
X115493300Y-37226900D01*
X57991300Y-36901900D02*
X58316300Y-37226900D01*
X44378100Y-36901900D02*
X57991300Y-36901900D01*
X43180000Y-38100000D02*
X44378100Y-36901900D01*
%TO.N,BUS0*%
X325071800Y-40688200D02*
X327660000Y-38100000D01*
X276908200Y-40688200D02*
X325071800Y-40688200D01*
X274320000Y-38100000D02*
X276908200Y-40688200D01*
X167361200Y-40918800D02*
X119973200Y-40918800D01*
X170180000Y-38100000D02*
X167361200Y-40918800D01*
X46920800Y-39300800D02*
X45720000Y-38100000D01*
X56351400Y-39300800D02*
X46920800Y-39300800D01*
X57572100Y-38080100D02*
X56351400Y-39300800D01*
X107207700Y-38080100D02*
X57572100Y-38080100D01*
X110046400Y-40918800D02*
X107207700Y-38080100D01*
X119973200Y-40918800D02*
X110046400Y-40918800D01*
X120602000Y-128222000D02*
X119380000Y-127000000D01*
X122454200Y-128222000D02*
X120602000Y-128222000D01*
X125307500Y-125368700D02*
X122454200Y-128222000D01*
X125307500Y-125177200D02*
X125307500Y-125368700D01*
X127379700Y-123105000D02*
X125307500Y-125177200D01*
X166285000Y-123105000D02*
X127379700Y-123105000D01*
X170180000Y-127000000D02*
X166285000Y-123105000D01*
X270147000Y-42273000D02*
X223520000Y-42273000D01*
X274320000Y-38100000D02*
X270147000Y-42273000D01*
X223512500Y-42280500D02*
X223520000Y-42273000D01*
X174360500Y-42280500D02*
X223512500Y-42280500D01*
X170180000Y-38100000D02*
X174360500Y-42280500D01*
%TD*%
M02*
