%TF.GenerationSoftware,KiCad,Pcbnew,8.0.2*%
%TF.CreationDate,2024-12-23T20:56:35+01:00*%
%TF.ProjectId,bp-leanplate,62702d6c-6561-46e7-906c-6174652e6b69,rev?*%
%TF.SameCoordinates,Original*%
%TF.FileFunction,Soldermask,Bot*%
%TF.FilePolarity,Negative*%
%FSLAX46Y46*%
G04 Gerber Fmt 4.6, Leading zero omitted, Abs format (unit mm)*
G04 Created by KiCad (PCBNEW 8.0.2) date 2024-12-23 20:56:35*
%MOMM*%
%LPD*%
G01*
G04 APERTURE LIST*
%ADD10C,3.200000*%
%ADD11C,1.700000*%
%ADD12R,1.700000X1.700000*%
%ADD13C,3.500000*%
%ADD14C,1.600000*%
%ADD15O,1.600000X1.600000*%
G04 APERTURE END LIST*
D10*
%TO.C,H5*%
X177800000Y-108013500D03*
%TD*%
D11*
%TO.C,U3*%
X246380000Y-60960000D03*
X248920000Y-60960000D03*
X251460000Y-60960000D03*
X254000000Y-60960000D03*
X274320000Y-38100000D03*
X271780000Y-38100000D03*
X269240000Y-38100000D03*
X266700000Y-38100000D03*
X264160000Y-38100000D03*
X261620000Y-38100000D03*
X259080000Y-38100000D03*
X256540000Y-38100000D03*
X254000000Y-38100000D03*
X251460000Y-38100000D03*
X248920000Y-38100000D03*
X246380000Y-38100000D03*
X243840000Y-38100000D03*
X241300000Y-38100000D03*
X238760000Y-38100000D03*
X236220000Y-38100000D03*
X233680000Y-60960000D03*
X276860000Y-38100000D03*
X236220000Y-60960000D03*
X238760000Y-60960000D03*
X241300000Y-60960000D03*
X243840000Y-60960000D03*
X233680000Y-38100000D03*
X256540000Y-60960000D03*
%TD*%
%TO.C,U8*%
X195580000Y-149860000D03*
X198120000Y-149860000D03*
X200660000Y-149860000D03*
X203200000Y-149860000D03*
X223520000Y-127000000D03*
X220980000Y-127000000D03*
X218440000Y-127000000D03*
X215900000Y-127000000D03*
X213360000Y-127000000D03*
X210820000Y-127000000D03*
X208280000Y-127000000D03*
X205740000Y-127000000D03*
X203200000Y-127000000D03*
X200660000Y-127000000D03*
X198120000Y-127000000D03*
X195580000Y-127000000D03*
X193040000Y-127000000D03*
X190500000Y-127000000D03*
X187960000Y-127000000D03*
X185420000Y-127000000D03*
X182880000Y-149860000D03*
X226060000Y-127000000D03*
X185420000Y-149860000D03*
X187960000Y-149860000D03*
X190500000Y-149860000D03*
X193040000Y-149860000D03*
X182880000Y-127000000D03*
X205740000Y-149860000D03*
%TD*%
D12*
%TO.C,J1*%
X58516000Y-47255000D03*
D11*
X61016000Y-47255000D03*
X61016000Y-45255000D03*
X58516000Y-45255000D03*
D13*
X53746000Y-42545000D03*
X65786000Y-42545000D03*
%TD*%
D11*
%TO.C,U11*%
X35560000Y-177800000D03*
X38100000Y-177800000D03*
X40640000Y-177800000D03*
X43180000Y-177800000D03*
X45720000Y-177800000D03*
X119380000Y-127000000D03*
X116840000Y-127000000D03*
X114300000Y-127000000D03*
X111760000Y-127000000D03*
X109220000Y-127000000D03*
X106680000Y-127000000D03*
X104140000Y-127000000D03*
X101600000Y-127000000D03*
X25400000Y-177800000D03*
X121920000Y-127000000D03*
X27940000Y-177800000D03*
X30480000Y-177800000D03*
X33020000Y-177800000D03*
X48260000Y-177800000D03*
X99060000Y-127000000D03*
%TD*%
D10*
%TO.C,H3*%
X334137000Y-181737000D03*
%TD*%
D11*
%TO.C,U6*%
X142240000Y-149860000D03*
X144780000Y-149860000D03*
X147320000Y-149860000D03*
X149860000Y-149860000D03*
X170180000Y-127000000D03*
X167640000Y-127000000D03*
X165100000Y-127000000D03*
X162560000Y-127000000D03*
X160020000Y-127000000D03*
X157480000Y-127000000D03*
X154940000Y-127000000D03*
X152400000Y-127000000D03*
X149860000Y-127000000D03*
X147320000Y-127000000D03*
X144780000Y-127000000D03*
X142240000Y-127000000D03*
X139700000Y-127000000D03*
X137160000Y-127000000D03*
X134620000Y-127000000D03*
X132080000Y-127000000D03*
X129540000Y-149860000D03*
X172720000Y-127000000D03*
X132080000Y-149860000D03*
X134620000Y-149860000D03*
X137160000Y-149860000D03*
X139700000Y-149860000D03*
X129540000Y-127000000D03*
X152400000Y-149860000D03*
%TD*%
%TO.C,U5*%
X142240000Y-60960000D03*
X144780000Y-60960000D03*
X147320000Y-60960000D03*
X149860000Y-60960000D03*
X170180000Y-38100000D03*
X167640000Y-38100000D03*
X165100000Y-38100000D03*
X162560000Y-38100000D03*
X160020000Y-38100000D03*
X157480000Y-38100000D03*
X154940000Y-38100000D03*
X152400000Y-38100000D03*
X149860000Y-38100000D03*
X147320000Y-38100000D03*
X144780000Y-38100000D03*
X142240000Y-38100000D03*
X139700000Y-38100000D03*
X137160000Y-38100000D03*
X134620000Y-38100000D03*
X132080000Y-38100000D03*
X129540000Y-60960000D03*
X172720000Y-38100000D03*
X132080000Y-60960000D03*
X134620000Y-60960000D03*
X137160000Y-60960000D03*
X139700000Y-60960000D03*
X129540000Y-38100000D03*
X152400000Y-60960000D03*
%TD*%
%TO.C,U12*%
X289560000Y-60960000D03*
X292100000Y-60960000D03*
X294640000Y-60960000D03*
X297180000Y-60960000D03*
X299720000Y-60960000D03*
X302260000Y-60960000D03*
X304800000Y-60960000D03*
X307340000Y-60960000D03*
X327660000Y-38100000D03*
X325120000Y-38100000D03*
X322580000Y-38100000D03*
X320040000Y-38100000D03*
X317500000Y-38100000D03*
X314960000Y-38100000D03*
X312420000Y-38100000D03*
X309880000Y-38100000D03*
X287020000Y-60960000D03*
X307340000Y-38100000D03*
X309880000Y-60960000D03*
X330200000Y-38100000D03*
%TD*%
%TO.C,U2*%
X195580000Y-60960000D03*
X198120000Y-60960000D03*
X200660000Y-60960000D03*
X203200000Y-60960000D03*
X223520000Y-38100000D03*
X220980000Y-38100000D03*
X218440000Y-38100000D03*
X215900000Y-38100000D03*
X213360000Y-38100000D03*
X210820000Y-38100000D03*
X208280000Y-38100000D03*
X205740000Y-38100000D03*
X203200000Y-38100000D03*
X200660000Y-38100000D03*
X198120000Y-38100000D03*
X195580000Y-38100000D03*
X193040000Y-38100000D03*
X190500000Y-38100000D03*
X187960000Y-38100000D03*
X185420000Y-38100000D03*
X182880000Y-60960000D03*
X226060000Y-38100000D03*
X185420000Y-60960000D03*
X187960000Y-60960000D03*
X190500000Y-60960000D03*
X193040000Y-60960000D03*
X182880000Y-38100000D03*
X205740000Y-60960000D03*
%TD*%
D10*
%TO.C,H2*%
X334137000Y-34290000D03*
%TD*%
%TO.C,H1*%
X21590000Y-34290000D03*
%TD*%
D11*
%TO.C,U4*%
X114300000Y-60960000D03*
X116840000Y-60960000D03*
X119380000Y-60960000D03*
X45720000Y-38100000D03*
X43180000Y-38100000D03*
X40640000Y-38100000D03*
X38100000Y-38100000D03*
X35560000Y-38100000D03*
X33020000Y-38100000D03*
X30480000Y-38100000D03*
X27940000Y-38100000D03*
X48260000Y-38100000D03*
X99060000Y-60960000D03*
X101600000Y-60960000D03*
X104140000Y-60960000D03*
X106680000Y-60960000D03*
X109220000Y-60960000D03*
X111760000Y-60960000D03*
X25400000Y-38100000D03*
X121920000Y-60960000D03*
%TD*%
%TO.C,U9*%
X236220000Y-127000000D03*
X238760000Y-127000000D03*
X241300000Y-127000000D03*
X243840000Y-127000000D03*
X246380000Y-127000000D03*
X248920000Y-127000000D03*
X251460000Y-127000000D03*
X254000000Y-127000000D03*
X317500000Y-177800000D03*
X320040000Y-177800000D03*
X322580000Y-177800000D03*
X325120000Y-177800000D03*
X327660000Y-177800000D03*
X256540000Y-127000000D03*
X307340000Y-177800000D03*
X309880000Y-177800000D03*
X312420000Y-177800000D03*
X314960000Y-177800000D03*
X233680000Y-127000000D03*
X330200000Y-177800000D03*
%TD*%
D14*
%TO.C,R1*%
X307340000Y-172720000D03*
D15*
X314960000Y-172720000D03*
%TD*%
D11*
%TO.C,U1*%
X109220000Y-119380000D03*
X111760000Y-119380000D03*
X114300000Y-119380000D03*
X116840000Y-119380000D03*
X119380000Y-119380000D03*
X119380000Y-68580000D03*
X116840000Y-68580000D03*
X114300000Y-68580000D03*
X111760000Y-68580000D03*
X109220000Y-68580000D03*
X106680000Y-68580000D03*
X104140000Y-68580000D03*
X101600000Y-68580000D03*
X45720000Y-68580000D03*
X43180000Y-68580000D03*
X40640000Y-68580000D03*
X38100000Y-68580000D03*
X35560000Y-68580000D03*
X33020000Y-68580000D03*
X30480000Y-68580000D03*
X27940000Y-68580000D03*
X45720000Y-73660000D03*
X43180000Y-73660000D03*
X40640000Y-73660000D03*
X38100000Y-73660000D03*
X35560000Y-73660000D03*
X33020000Y-73660000D03*
X30480000Y-73660000D03*
X27940000Y-73660000D03*
X48260000Y-68580000D03*
X48260000Y-73660000D03*
X99060000Y-119380000D03*
X121920000Y-68580000D03*
X101600000Y-119380000D03*
X104140000Y-119380000D03*
X106680000Y-119380000D03*
X25400000Y-68580000D03*
X25400000Y-73660000D03*
X99060000Y-68580000D03*
X121920000Y-119380000D03*
%TD*%
D14*
%TO.C,R2*%
X72517000Y-47371000D03*
D15*
X72517000Y-39751000D03*
%TD*%
D10*
%TO.C,H4*%
X21590000Y-181737000D03*
%TD*%
D11*
%TO.C,U7*%
X223520000Y-119380000D03*
X223520000Y-68580000D03*
X220980000Y-68580000D03*
X218440000Y-68580000D03*
X215900000Y-68580000D03*
X213360000Y-68580000D03*
X210820000Y-68580000D03*
X208280000Y-68580000D03*
X205740000Y-68580000D03*
X149860000Y-68580000D03*
X147320000Y-68580000D03*
X144780000Y-68580000D03*
X142240000Y-68580000D03*
X139700000Y-68580000D03*
X137160000Y-68580000D03*
X134620000Y-68580000D03*
X132080000Y-68580000D03*
X149860000Y-119380000D03*
X147320000Y-119380000D03*
X144780000Y-119380000D03*
X142240000Y-119380000D03*
X139700000Y-119380000D03*
X137160000Y-119380000D03*
X134620000Y-119380000D03*
X132080000Y-119380000D03*
X152400000Y-68580000D03*
X152400000Y-119380000D03*
X203200000Y-119380000D03*
X226060000Y-68580000D03*
X205740000Y-119380000D03*
X208280000Y-119380000D03*
X210820000Y-119380000D03*
X213360000Y-119380000D03*
X215900000Y-119380000D03*
X218440000Y-119380000D03*
X220980000Y-119380000D03*
X129540000Y-68580000D03*
X129540000Y-119380000D03*
X203200000Y-68580000D03*
X226060000Y-119380000D03*
%TD*%
D14*
%TO.C,C1*%
X317540000Y-172720000D03*
X322540000Y-172720000D03*
%TD*%
D11*
%TO.C,U10*%
X246380000Y-119380000D03*
X248920000Y-119380000D03*
X251460000Y-119380000D03*
X254000000Y-119380000D03*
X254000000Y-68580000D03*
X251460000Y-68580000D03*
X248920000Y-68580000D03*
X246380000Y-68580000D03*
X243840000Y-68580000D03*
X241300000Y-68580000D03*
X238760000Y-68580000D03*
X236220000Y-68580000D03*
X327660000Y-68580000D03*
X325120000Y-68580000D03*
X322580000Y-68580000D03*
X320040000Y-68580000D03*
X317500000Y-68580000D03*
X314960000Y-68580000D03*
X312420000Y-68580000D03*
X309880000Y-68580000D03*
X327660000Y-73660000D03*
X325120000Y-73660000D03*
X322580000Y-73660000D03*
X320040000Y-73660000D03*
X317500000Y-73660000D03*
X314960000Y-73660000D03*
X312420000Y-73660000D03*
X309880000Y-73660000D03*
X327660000Y-114300000D03*
X325120000Y-114300000D03*
X322580000Y-114300000D03*
X320040000Y-114300000D03*
X317500000Y-114300000D03*
X314960000Y-114300000D03*
X312420000Y-114300000D03*
X309880000Y-114300000D03*
X327660000Y-119380000D03*
X325120000Y-119380000D03*
X322580000Y-119380000D03*
X320040000Y-119380000D03*
X317500000Y-119380000D03*
X314960000Y-119380000D03*
X312420000Y-119380000D03*
X309880000Y-119380000D03*
X254000000Y-73660000D03*
X251460000Y-73660000D03*
X248920000Y-73660000D03*
X246380000Y-73660000D03*
X243840000Y-73660000D03*
X241300000Y-73660000D03*
X238760000Y-73660000D03*
X236220000Y-73660000D03*
X233680000Y-119380000D03*
X256540000Y-68580000D03*
X256540000Y-73660000D03*
X330200000Y-68580000D03*
X330200000Y-73660000D03*
X330200000Y-114300000D03*
X330200000Y-119380000D03*
X236220000Y-119380000D03*
X238760000Y-119380000D03*
X241300000Y-119380000D03*
X243840000Y-119380000D03*
X233680000Y-68580000D03*
X233680000Y-73660000D03*
X256540000Y-119380000D03*
X307340000Y-68580000D03*
X307340000Y-73660000D03*
X307340000Y-114300000D03*
X307340000Y-119380000D03*
%TD*%
M02*
