M48
; DRILL file {KiCad 8.0.2} date 2024-12-23T20:56:36+0100
; FORMAT={-:-/ absolute / inch / decimal}
; #@! TF.CreationDate,2024-12-23T20:56:36+01:00
; #@! TF.GenerationSoftware,Kicad,Pcbnew,8.0.2
; #@! TF.FileFunction,Plated,1,2,PTH
FMAT,2
INCH
; #@! TA.AperFunction,Plated,PTH,ViaDrill
T1C0.0157
; #@! TA.AperFunction,Plated,PTH,ComponentDrill
T2C0.0315
; #@! TA.AperFunction,Plated,PTH,ComponentDrill
T3C0.0362
; #@! TA.AperFunction,Plated,PTH,ComponentDrill
T4C0.0394
; #@! TA.AperFunction,Plated,PTH,ComponentDrill
T5C0.0917
%
G90
G05
T1
X1.2Y-3.0384
X1.2313Y-1.6016
X1.891Y-2.6427
X1.9Y-1.9084
X2.1742Y-2.628
X2.3328Y-1.3807
X3.6599Y-1.5278
X4.1936Y-1.4013
X4.1975Y-3.0676
X4.2576Y-1.4361
X4.35Y-4.3585
X4.3563Y-5.1904
X4.6169Y-2.8931
X4.6637Y-1.5824
X4.7234Y-1.611
X4.8Y-4.435
X5.1Y-2.6418
X5.2Y-7.0643
X5.2527Y-2.5074
X5.3583Y-2.7478
X5.4Y-6.9037
X5.4489Y-2.6105
X5.5534Y-2.5125
X5.6486Y-2.5411
X5.7529Y-2.5882
X6.0Y-5.1015
X6.8645Y-2.0645
X7.25Y-2.6048
X7.3086Y-5.8033
X7.3173Y-4.6672
X7.4239Y-4.5945
X7.4464Y-4.6954
X7.6463Y-2.6355
X7.7Y-4.6247
X7.7463Y-2.6644
X7.8534Y-2.5857
X7.9021Y-2.0645
X7.9509Y-2.5672
X8.0Y-4.435
X8.052Y-2.5501
X8.1368Y-2.5135
X8.2Y-3.0012
X8.3Y-2.9597
X8.7Y-1.636
X8.8Y-1.6643
X8.9463Y-4.435
X9.3537Y-6.9356
X9.45Y-6.5915
X9.4772Y-2.5134
X9.65Y-7.0644
X9.65Y-4.4061
X9.7469Y-2.0645
X10.5762Y-1.2862
X10.613Y-1.3223
X11.3Y-2.7
X12.1Y-1.7587
X12.1453Y-1.4084
X12.1514Y-4.5469
X12.2524Y-5.9354
X12.3535Y-5.3427
X12.45Y-5.9547
X12.55Y-5.984
X12.6Y-2.8357
X12.6906Y-6.5915
X12.895Y-1.7523
T2
X2.855Y-1.565
X2.855Y-1.865
X12.1Y-6.8
X12.4Y-6.8
X12.5016Y-6.8
X12.6984Y-6.8
T3
X2.3038Y-1.7817
X2.3038Y-1.8604
X2.4022Y-1.7817
X2.4022Y-1.8604
T4
X1.0Y-1.5
X1.0Y-2.7
X1.0Y-2.9
X1.0Y-7.0
X1.1Y-1.5
X1.1Y-2.7
X1.1Y-2.9
X1.1Y-7.0
X1.2Y-1.5
X1.2Y-2.7
X1.2Y-2.9
X1.2Y-7.0
X1.3Y-1.5
X1.3Y-2.7
X1.3Y-2.9
X1.3Y-7.0
X1.4Y-1.5
X1.4Y-2.7
X1.4Y-2.9
X1.4Y-7.0
X1.5Y-1.5
X1.5Y-2.7
X1.5Y-2.9
X1.5Y-7.0
X1.6Y-1.5
X1.6Y-2.7
X1.6Y-2.9
X1.6Y-7.0
X1.7Y-1.5
X1.7Y-2.7
X1.7Y-2.9
X1.7Y-7.0
X1.8Y-1.5
X1.8Y-2.7
X1.8Y-2.9
X1.8Y-7.0
X1.9Y-1.5
X1.9Y-2.7
X1.9Y-2.9
X1.9Y-7.0
X3.9Y-2.4
X3.9Y-2.7
X3.9Y-4.7
X3.9Y-5.0
X4.0Y-2.4
X4.0Y-2.7
X4.0Y-4.7
X4.0Y-5.0
X4.1Y-2.4
X4.1Y-2.7
X4.1Y-4.7
X4.1Y-5.0
X4.2Y-2.4
X4.2Y-2.7
X4.2Y-4.7
X4.2Y-5.0
X4.3Y-2.4
X4.3Y-2.7
X4.3Y-4.7
X4.3Y-5.0
X4.4Y-2.4
X4.4Y-2.7
X4.4Y-4.7
X4.4Y-5.0
X4.5Y-2.4
X4.5Y-2.7
X4.5Y-4.7
X4.5Y-5.0
X4.6Y-2.4
X4.6Y-2.7
X4.6Y-4.7
X4.6Y-5.0
X4.7Y-2.4
X4.7Y-2.7
X4.7Y-4.7
X4.7Y-5.0
X4.8Y-2.4
X4.8Y-2.7
X4.8Y-4.7
X4.8Y-5.0
X5.1Y-1.5
X5.1Y-2.4
X5.1Y-2.7
X5.1Y-4.7
X5.1Y-5.0
X5.1Y-5.9
X5.2Y-1.5
X5.2Y-2.4
X5.2Y-2.7
X5.2Y-4.7
X5.2Y-5.0
X5.2Y-5.9
X5.3Y-1.5
X5.3Y-2.4
X5.3Y-2.7
X5.3Y-4.7
X5.3Y-5.0
X5.3Y-5.9
X5.4Y-1.5
X5.4Y-2.4
X5.4Y-2.7
X5.4Y-4.7
X5.4Y-5.0
X5.4Y-5.9
X5.5Y-1.5
X5.5Y-2.4
X5.5Y-2.7
X5.5Y-4.7
X5.5Y-5.0
X5.5Y-5.9
X5.6Y-1.5
X5.6Y-2.4
X5.6Y-2.7
X5.6Y-4.7
X5.6Y-5.0
X5.6Y-5.9
X5.7Y-1.5
X5.7Y-2.4
X5.7Y-2.7
X5.7Y-4.7
X5.7Y-5.0
X5.7Y-5.9
X5.8Y-1.5
X5.8Y-2.4
X5.8Y-2.7
X5.8Y-4.7
X5.8Y-5.0
X5.8Y-5.9
X5.9Y-1.5
X5.9Y-2.4
X5.9Y-2.7
X5.9Y-4.7
X5.9Y-5.0
X5.9Y-5.9
X6.0Y-1.5
X6.0Y-2.4
X6.0Y-2.7
X6.0Y-4.7
X6.0Y-5.0
X6.0Y-5.9
X6.1Y-1.5
X6.1Y-5.0
X6.2Y-1.5
X6.2Y-5.0
X6.3Y-1.5
X6.3Y-5.0
X6.4Y-1.5
X6.4Y-5.0
X6.5Y-1.5
X6.5Y-5.0
X6.6Y-1.5
X6.6Y-5.0
X6.7Y-1.5
X6.7Y-5.0
X6.8Y-1.5
X6.8Y-5.0
X7.2Y-1.5
X7.2Y-2.4
X7.2Y-5.0
X7.2Y-5.9
X7.3Y-1.5
X7.3Y-2.4
X7.3Y-5.0
X7.3Y-5.9
X7.4Y-1.5
X7.4Y-2.4
X7.4Y-5.0
X7.4Y-5.9
X7.5Y-1.5
X7.5Y-2.4
X7.5Y-5.0
X7.5Y-5.9
X7.6Y-1.5
X7.6Y-2.4
X7.6Y-5.0
X7.6Y-5.9
X7.7Y-1.5
X7.7Y-2.4
X7.7Y-5.0
X7.7Y-5.9
X7.8Y-1.5
X7.8Y-2.4
X7.8Y-5.0
X7.8Y-5.9
X7.9Y-1.5
X7.9Y-2.4
X7.9Y-5.0
X7.9Y-5.9
X8.0Y-1.5
X8.0Y-2.4
X8.0Y-2.7
X8.0Y-4.7
X8.0Y-5.0
X8.0Y-5.9
X8.1Y-1.5
X8.1Y-2.4
X8.1Y-2.7
X8.1Y-4.7
X8.1Y-5.0
X8.1Y-5.9
X8.2Y-1.5
X8.2Y-2.7
X8.2Y-4.7
X8.2Y-5.0
X8.3Y-1.5
X8.3Y-2.7
X8.3Y-4.7
X8.3Y-5.0
X8.4Y-1.5
X8.4Y-2.7
X8.4Y-4.7
X8.4Y-5.0
X8.5Y-1.5
X8.5Y-2.7
X8.5Y-4.7
X8.5Y-5.0
X8.6Y-1.5
X8.6Y-2.7
X8.6Y-4.7
X8.6Y-5.0
X8.7Y-1.5
X8.7Y-2.7
X8.7Y-4.7
X8.7Y-5.0
X8.8Y-1.5
X8.8Y-2.7
X8.8Y-4.7
X8.8Y-5.0
X8.9Y-1.5
X8.9Y-2.7
X8.9Y-4.7
X8.9Y-5.0
X9.2Y-1.5
X9.2Y-2.4
X9.2Y-2.7
X9.2Y-2.9
X9.2Y-4.7
X9.2Y-5.0
X9.3Y-1.5
X9.3Y-2.4
X9.3Y-2.7
X9.3Y-2.9
X9.3Y-4.7
X9.3Y-5.0
X9.4Y-1.5
X9.4Y-2.4
X9.4Y-2.7
X9.4Y-2.9
X9.4Y-4.7
X9.4Y-5.0
X9.5Y-1.5
X9.5Y-2.4
X9.5Y-2.7
X9.5Y-2.9
X9.5Y-4.7
X9.5Y-5.0
X9.6Y-1.5
X9.6Y-2.4
X9.6Y-2.7
X9.6Y-2.9
X9.6Y-4.7
X9.6Y-5.0
X9.7Y-1.5
X9.7Y-2.4
X9.7Y-2.7
X9.7Y-2.9
X9.7Y-4.7
X9.7Y-5.0
X9.8Y-1.5
X9.8Y-2.4
X9.8Y-2.7
X9.8Y-2.9
X9.8Y-4.7
X9.8Y-5.0
X9.9Y-1.5
X9.9Y-2.4
X9.9Y-2.7
X9.9Y-2.9
X9.9Y-4.7
X9.9Y-5.0
X10.0Y-1.5
X10.0Y-2.4
X10.0Y-2.7
X10.0Y-2.9
X10.0Y-4.7
X10.0Y-5.0
X10.1Y-1.5
X10.1Y-2.4
X10.1Y-2.7
X10.1Y-2.9
X10.1Y-4.7
X10.1Y-5.0
X10.2Y-1.5
X10.3Y-1.5
X10.4Y-1.5
X10.5Y-1.5
X10.6Y-1.5
X10.7Y-1.5
X10.8Y-1.5
X10.9Y-1.5
X11.3Y-2.4
X11.4Y-2.4
X11.5Y-2.4
X11.6Y-2.4
X11.7Y-2.4
X11.8Y-2.4
X11.9Y-2.4
X12.0Y-2.4
X12.1Y-1.5
X12.1Y-2.4
X12.1Y-2.7
X12.1Y-2.9
X12.1Y-4.5
X12.1Y-4.7
X12.1Y-7.0
X12.2Y-1.5
X12.2Y-2.4
X12.2Y-2.7
X12.2Y-2.9
X12.2Y-4.5
X12.2Y-4.7
X12.2Y-7.0
X12.3Y-1.5
X12.3Y-2.7
X12.3Y-2.9
X12.3Y-4.5
X12.3Y-4.7
X12.3Y-7.0
X12.4Y-1.5
X12.4Y-2.7
X12.4Y-2.9
X12.4Y-4.5
X12.4Y-4.7
X12.4Y-7.0
X12.5Y-1.5
X12.5Y-2.7
X12.5Y-2.9
X12.5Y-4.5
X12.5Y-4.7
X12.5Y-7.0
X12.6Y-1.5
X12.6Y-2.7
X12.6Y-2.9
X12.6Y-4.5
X12.6Y-4.7
X12.6Y-7.0
X12.7Y-1.5
X12.7Y-2.7
X12.7Y-2.9
X12.7Y-4.5
X12.7Y-4.7
X12.7Y-7.0
X12.8Y-1.5
X12.8Y-2.7
X12.8Y-2.9
X12.8Y-4.5
X12.8Y-4.7
X12.8Y-7.0
X12.9Y-1.5
X12.9Y-2.7
X12.9Y-2.9
X12.9Y-4.5
X12.9Y-4.7
X12.9Y-7.0
X13.0Y-1.5
X13.0Y-2.7
X13.0Y-2.9
X13.0Y-4.5
X13.0Y-4.7
X13.0Y-7.0
T5
X2.116Y-1.675
X2.59Y-1.675
M30
