%TF.GenerationSoftware,KiCad,Pcbnew,(6.0.9)*%
%TF.CreationDate,2022-12-31T14:32:40+01:00*%
%TF.ProjectId,001-proto,3030312d-7072-46f7-946f-2e6b69636164,rev?*%
%TF.SameCoordinates,Original*%
%TF.FileFunction,Drillmap*%
%TF.FilePolarity,Positive*%
%FSLAX45Y45*%
G04 Gerber Fmt 4.5, Leading zero omitted, Abs format (unit mm)*
G04 Created by KiCad (PCBNEW (6.0.9)) date 2022-12-31 14:32:40*
%MOMM*%
%LPD*%
G01*
G04 APERTURE LIST*
%ADD10C,0.100000*%
%ADD11C,0.200000*%
%ADD12C,0.040000*%
%ADD13C,0.080000*%
%ADD14C,0.092000*%
%ADD15C,0.233000*%
G04 APERTURE END LIST*
D10*
X35814000Y-18542000D02*
X35814000Y-17272000D01*
X1778000Y-18542000D02*
X1778000Y-3302000D01*
X1778000Y-3302000D02*
X1778000Y-2032000D01*
X35560000Y-18796000D02*
X2032000Y-18796000D01*
X35560000Y-1778000D02*
X2032000Y-1778000D01*
X1778000Y-18542000D02*
G75*
G03*
X2032000Y-18796000I254000J0D01*
G01*
X35814000Y-17272000D02*
X35814000Y-2032000D01*
X2032000Y-1778000D02*
G75*
G03*
X1778000Y-2032000I0J-254000D01*
G01*
X35814000Y-2032000D02*
G75*
G03*
X35560000Y-1778000I-254000J0D01*
G01*
X35560000Y-18796000D02*
G75*
G03*
X35814000Y-18542000I0J254000D01*
G01*
D11*
D12*
X5171760Y-4694240D02*
X5211760Y-4734240D01*
X5211760Y-4694240D02*
X5171760Y-4734240D01*
X5274260Y-4337740D02*
X5314260Y-4377740D01*
X5314260Y-4337740D02*
X5274260Y-4377740D01*
X5607220Y-4766780D02*
X5647220Y-4806780D01*
X5647220Y-4766780D02*
X5607220Y-4806780D01*
X7128110Y-5874090D02*
X7168110Y-5914090D01*
X7168110Y-5874090D02*
X7128110Y-5914090D01*
X7389250Y-5659260D02*
X7429250Y-5699260D01*
X7429250Y-5659260D02*
X7389250Y-5699260D01*
X8448260Y-4217930D02*
X8488260Y-4257930D01*
X8488260Y-4217930D02*
X8448260Y-4257930D01*
X8559580Y-6186140D02*
X8599580Y-6226140D01*
X8599580Y-6186140D02*
X8559580Y-6226140D01*
X8595870Y-4111220D02*
X8635870Y-4151220D01*
X8635870Y-4111220D02*
X8595870Y-4151220D01*
X8768820Y-4028050D02*
X8808820Y-4068050D01*
X8808820Y-4028050D02*
X8768820Y-4068050D01*
X8824710Y-4848440D02*
X8864710Y-4888440D01*
X8864710Y-4848440D02*
X8824710Y-4888440D01*
X8980840Y-3985220D02*
X9020840Y-4025220D01*
X9020840Y-3985220D02*
X8980840Y-4025220D01*
X9161900Y-3910110D02*
X9201900Y-3950110D01*
X9201900Y-3910110D02*
X9161900Y-3950110D01*
X9658400Y-6188710D02*
X9698400Y-6228710D01*
X9698400Y-6188710D02*
X9658400Y-6228710D01*
X10185730Y-8986510D02*
X10225730Y-9026510D01*
X10225730Y-8986510D02*
X10185730Y-9026510D01*
X10948560Y-7873130D02*
X10988560Y-7913130D01*
X10988560Y-7873130D02*
X10948560Y-7913130D01*
X11197430Y-7177990D02*
X11237430Y-7217990D01*
X11237430Y-7177990D02*
X11197430Y-7217990D01*
X11802120Y-6739030D02*
X11842120Y-6779030D01*
X11842120Y-6739030D02*
X11802120Y-6779030D01*
X13047550Y-6141720D02*
X13087550Y-6181720D01*
X13087550Y-6141720D02*
X13047550Y-6181720D01*
X13053310Y-5201340D02*
X13093310Y-5241340D01*
X13093310Y-5201340D02*
X13053310Y-5241340D01*
X13069940Y-5348070D02*
X13109940Y-5388070D01*
X13109940Y-5348070D02*
X13069940Y-5388070D01*
X13073600Y-5452430D02*
X13113600Y-5492430D01*
X13113600Y-5452430D02*
X13073600Y-5492430D01*
X13073600Y-5856460D02*
X13113600Y-5896460D01*
X13113600Y-5856460D02*
X13073600Y-5896460D01*
X13073840Y-5586730D02*
X13113840Y-5626730D01*
X13113840Y-5586730D02*
X13073840Y-5626730D01*
X13561680Y-4694240D02*
X13601680Y-4734240D01*
X13601680Y-4694240D02*
X13561680Y-4734240D01*
X13670760Y-4323240D02*
X13710760Y-4363240D01*
X13710760Y-4323240D02*
X13670760Y-4363240D01*
X13814570Y-4766780D02*
X13854570Y-4806780D01*
X13854570Y-4766780D02*
X13814570Y-4806780D01*
X13950000Y-8362000D02*
X13990000Y-8402000D01*
X13990000Y-8362000D02*
X13950000Y-8402000D01*
X13950000Y-11410000D02*
X13990000Y-11450000D01*
X13990000Y-11410000D02*
X13950000Y-11450000D01*
X15401320Y-12815120D02*
X15441320Y-12855120D01*
X15441320Y-12815120D02*
X15401320Y-12855120D01*
X16236000Y-15283500D02*
X16276000Y-15323500D01*
X16276000Y-15283500D02*
X16236000Y-15323500D01*
X16299500Y-17379000D02*
X16339500Y-17419000D01*
X16339500Y-17379000D02*
X16299500Y-17419000D01*
X16299500Y-17823500D02*
X16339500Y-17863500D01*
X16339500Y-17823500D02*
X16299500Y-17863500D01*
X16348730Y-6253050D02*
X16388730Y-6293050D01*
X16388730Y-6253050D02*
X16348730Y-6293050D01*
X17151340Y-7919980D02*
X17191340Y-7959980D01*
X17191340Y-7919980D02*
X17151340Y-7959980D01*
X17626970Y-13054970D02*
X17666970Y-13094970D01*
X17666970Y-13054970D02*
X17626970Y-13094970D01*
X17668510Y-6568210D02*
X17708510Y-6608210D01*
X17708510Y-6568210D02*
X17668510Y-6608210D01*
X17748590Y-6724940D02*
X17788590Y-6764940D01*
X17788590Y-6724940D02*
X17748590Y-6764940D01*
X18182900Y-13102900D02*
X18222900Y-13142900D01*
X18222900Y-13102900D02*
X18182900Y-13142900D01*
X18426660Y-6583910D02*
X18466660Y-6623910D01*
X18466660Y-6583910D02*
X18426660Y-6623910D01*
X18553000Y-13175330D02*
X18593000Y-13215330D01*
X18593000Y-13175330D02*
X18553000Y-13215330D01*
X18944480Y-12098880D02*
X18984480Y-12138880D01*
X18984480Y-12098880D02*
X18944480Y-12138880D01*
X18990210Y-4710690D02*
X19030210Y-4750690D01*
X19030210Y-4710690D02*
X18990210Y-4750690D01*
X19010300Y-4005010D02*
X19050300Y-4045010D01*
X19050300Y-4005010D02*
X19010300Y-4045010D01*
X19048680Y-3074020D02*
X19088680Y-3114020D01*
X19088680Y-3074020D02*
X19048680Y-3114020D01*
X19050940Y-12099190D02*
X19090940Y-12139190D01*
X19090940Y-12099190D02*
X19050940Y-12139190D01*
X19053790Y-3904300D02*
X19093790Y-3944300D01*
X19093790Y-3904300D02*
X19053790Y-3944300D01*
X19121550Y-3147210D02*
X19161550Y-3187210D01*
X19161550Y-3147210D02*
X19121550Y-3187210D01*
X19300310Y-12188310D02*
X19340310Y-12228310D01*
X19340310Y-12188310D02*
X19300310Y-12228310D01*
X19399230Y-12033230D02*
X19439230Y-12073230D01*
X19439230Y-12033230D02*
X19399230Y-12073230D01*
X19411000Y-9949500D02*
X19451000Y-9989500D01*
X19451000Y-9949500D02*
X19411000Y-9989500D01*
X19564586Y-9795914D02*
X19604586Y-9835914D01*
X19604586Y-9795914D02*
X19564586Y-9835914D01*
X19904920Y-12030920D02*
X19944920Y-12070920D01*
X19944920Y-12030920D02*
X19904920Y-12070920D01*
X19944840Y-2177860D02*
X19984840Y-2217860D01*
X19984840Y-2177860D02*
X19944840Y-2217860D01*
X20222520Y-12032560D02*
X20262520Y-12072560D01*
X20262520Y-12032560D02*
X20222520Y-12072560D01*
X20287920Y-6928620D02*
X20327920Y-6968620D01*
X20327920Y-6928620D02*
X20287920Y-6968620D01*
X20487330Y-12105330D02*
X20527330Y-12145330D01*
X20527330Y-12105330D02*
X20487330Y-12145330D01*
X20824130Y-12188130D02*
X20864130Y-12228130D01*
X20864130Y-12188130D02*
X20824130Y-12228130D01*
X20853920Y-3971940D02*
X20893920Y-4011940D01*
X20893920Y-3971940D02*
X20853920Y-4011940D01*
X20975310Y-3924750D02*
X21015310Y-3964750D01*
X21015310Y-3924750D02*
X20975310Y-3964750D01*
X21551260Y-7835260D02*
X21591260Y-7875260D01*
X21591260Y-7835260D02*
X21551260Y-7875260D01*
X21674270Y-4720120D02*
X21714270Y-4760120D01*
X21714270Y-4720120D02*
X21674270Y-4760120D01*
X21704150Y-6630000D02*
X21744150Y-6670000D01*
X21744150Y-6630000D02*
X21704150Y-6670000D01*
X21885640Y-7492870D02*
X21925640Y-7532870D01*
X21925640Y-7492870D02*
X21885640Y-7532870D01*
X22205000Y-4294810D02*
X22245000Y-4334810D01*
X22245000Y-4294810D02*
X22205000Y-4334810D01*
X22224290Y-7131980D02*
X22264290Y-7171980D01*
X22264290Y-7131980D02*
X22224290Y-7171980D01*
X22285830Y-7585580D02*
X22325830Y-7625580D01*
X22325830Y-7585580D02*
X22285830Y-7625580D01*
X23104450Y-4477010D02*
X23144450Y-4517010D01*
X23144450Y-4477010D02*
X23104450Y-4517010D01*
X23233750Y-6630000D02*
X23273750Y-6670000D01*
X23273750Y-6630000D02*
X23233750Y-6670000D01*
X23420620Y-4630060D02*
X23460620Y-4670060D01*
X23460620Y-4630060D02*
X23420620Y-4670060D01*
X23494760Y-4883890D02*
X23534760Y-4923890D01*
X23534760Y-4883890D02*
X23494760Y-4923890D01*
X23651850Y-2277150D02*
X23691850Y-2317150D01*
X23691850Y-2277150D02*
X23651850Y-2317150D01*
X23905710Y-6725820D02*
X23945710Y-6765820D01*
X23945710Y-6725820D02*
X23905710Y-6765820D01*
X24119000Y-8890730D02*
X24159000Y-8930730D01*
X24159000Y-8890730D02*
X24119000Y-8930730D01*
X24155810Y-6505330D02*
X24195810Y-6545330D01*
X24195810Y-6505330D02*
X24155810Y-6545330D01*
X24474640Y-4794550D02*
X24514640Y-4834550D01*
X24514640Y-4794550D02*
X24474640Y-4834550D01*
X24554500Y-8235000D02*
X24594500Y-8275000D01*
X24594500Y-8235000D02*
X24554500Y-8275000D01*
X24554500Y-8743000D02*
X24594500Y-8783000D01*
X24594500Y-8743000D02*
X24554500Y-8783000D01*
X24798190Y-11696710D02*
X24838190Y-11736710D01*
X24838190Y-11696710D02*
X24798190Y-11736710D01*
X24935500Y-11473500D02*
X24975500Y-11513500D01*
X24975500Y-11473500D02*
X24935500Y-11513500D01*
X25126000Y-11283000D02*
X25166000Y-11323000D01*
X25166000Y-11283000D02*
X25126000Y-11323000D01*
X25380000Y-8171500D02*
X25420000Y-8211500D01*
X25420000Y-8171500D02*
X25380000Y-8211500D01*
X25380000Y-9314500D02*
X25420000Y-9354500D01*
X25420000Y-9314500D02*
X25380000Y-9354500D01*
X25380000Y-9759000D02*
X25420000Y-9799000D01*
X25420000Y-9759000D02*
X25380000Y-9799000D01*
X25426250Y-5848360D02*
X25466250Y-5888360D01*
X25466250Y-5848360D02*
X25426250Y-5888360D01*
X25514580Y-11059320D02*
X25554580Y-11099320D01*
X25554580Y-11059320D02*
X25514580Y-11099320D01*
X25634000Y-8171500D02*
X25674000Y-8211500D01*
X25674000Y-8171500D02*
X25634000Y-8211500D01*
X25689900Y-6239280D02*
X25729900Y-6279280D01*
X25729900Y-6239280D02*
X25689900Y-6279280D01*
X25842960Y-6334120D02*
X25882960Y-6374120D01*
X25882960Y-6334120D02*
X25842960Y-6374120D01*
X25983510Y-6607270D02*
X26023510Y-6647270D01*
X26023510Y-6607270D02*
X25983510Y-6647270D01*
X26006420Y-3441500D02*
X26046420Y-3481500D01*
X26046420Y-3441500D02*
X26006420Y-3481500D01*
X26269000Y-17506000D02*
X26309000Y-17546000D01*
X26309000Y-17506000D02*
X26269000Y-17546000D01*
X26359290Y-3519730D02*
X26399290Y-3559730D01*
X26399290Y-3519730D02*
X26359290Y-3559730D01*
X26713500Y-8171500D02*
X26753500Y-8211500D01*
X26753500Y-8171500D02*
X26713500Y-8211500D01*
X27666000Y-8171500D02*
X27706000Y-8211500D01*
X27706000Y-8171500D02*
X27666000Y-8211500D01*
X27783680Y-6747710D02*
X27823680Y-6787710D01*
X27823680Y-6747710D02*
X27783680Y-6787710D01*
X28114750Y-3465060D02*
X28154750Y-3505060D01*
X28154750Y-3465060D02*
X28114750Y-3505060D01*
X28502510Y-3295330D02*
X28542510Y-3335330D01*
X28542510Y-3295330D02*
X28502510Y-3335330D01*
X28714980Y-3402260D02*
X28754980Y-3442260D01*
X28754980Y-3402260D02*
X28714980Y-3442260D01*
X28909690Y-3401670D02*
X28949690Y-3441670D01*
X28949690Y-3401670D02*
X28909690Y-3441670D01*
X29771580Y-6706000D02*
X29811580Y-6746000D01*
X29811580Y-6706000D02*
X29771580Y-6746000D01*
X29888500Y-11092500D02*
X29928500Y-11132500D01*
X29928500Y-11092500D02*
X29888500Y-11132500D01*
X29907650Y-15180680D02*
X29947650Y-15220680D01*
X29947650Y-15180680D02*
X29907650Y-15220680D01*
X29935220Y-6830220D02*
X29975220Y-6870220D01*
X29975220Y-6830220D02*
X29935220Y-6870220D01*
X30010000Y-10764890D02*
X30050000Y-10804890D01*
X30050000Y-10764890D02*
X30010000Y-10804890D01*
X30017220Y-14989360D02*
X30057220Y-15029360D01*
X30057220Y-14989360D02*
X30017220Y-15029360D01*
X30093250Y-7062070D02*
X30133250Y-7102070D01*
X30133250Y-7062070D02*
X30093250Y-7102070D01*
X30093720Y-6725540D02*
X30133720Y-6765540D01*
X30133720Y-6725540D02*
X30093720Y-6765540D01*
X30319710Y-17640520D02*
X30359710Y-17680520D01*
X30359710Y-17640520D02*
X30319710Y-17680520D01*
X30393160Y-14334550D02*
X30433160Y-14374550D01*
X30433160Y-14334550D02*
X30393160Y-14374550D01*
X30494110Y-14229240D02*
X30534110Y-14269240D01*
X30534110Y-14229240D02*
X30494110Y-14269240D01*
X30587000Y-11092500D02*
X30627000Y-11132500D01*
X30627000Y-11092500D02*
X30587000Y-11132500D01*
X31222000Y-9314500D02*
X31262000Y-9354500D01*
X31262000Y-9314500D02*
X31222000Y-9354500D01*
X31603000Y-9251000D02*
X31643000Y-9291000D01*
X31643000Y-9251000D02*
X31603000Y-9291000D01*
X31679650Y-3416520D02*
X31719650Y-3456520D01*
X31719650Y-3416520D02*
X31679650Y-3456520D01*
X31729750Y-3134520D02*
X31769750Y-3174520D01*
X31769750Y-3134520D02*
X31729750Y-3174520D01*
X31783800Y-3401990D02*
X31823800Y-3441990D01*
X31823800Y-3401990D02*
X31783800Y-3441990D01*
X32047500Y-9251000D02*
X32087500Y-9291000D01*
X32087500Y-9251000D02*
X32047500Y-9291000D01*
X32224100Y-13833000D02*
X32264100Y-13873000D01*
X32264100Y-13833000D02*
X32224100Y-13873000D01*
X32279650Y-7417100D02*
X32319650Y-7457100D01*
X32319650Y-7417100D02*
X32279650Y-7457100D01*
X32301500Y-12807000D02*
X32341500Y-12847000D01*
X32341500Y-12807000D02*
X32301500Y-12847000D01*
X32376510Y-7308790D02*
X32416510Y-7348790D01*
X32416510Y-7308790D02*
X32376510Y-7348790D01*
X32492000Y-8933500D02*
X32532000Y-8973500D01*
X32532000Y-8933500D02*
X32492000Y-8973500D01*
X32670410Y-7751100D02*
X32710410Y-7791100D01*
X32710410Y-7751100D02*
X32670410Y-7791100D01*
X32987420Y-7998530D02*
X33027420Y-8038530D01*
X33027420Y-7998530D02*
X32987420Y-8038530D01*
X33000000Y-13505500D02*
X33040000Y-13545500D01*
X33040000Y-13505500D02*
X33000000Y-13545500D01*
X33357300Y-11719950D02*
X33397300Y-11759950D01*
X33397300Y-11719950D02*
X33357300Y-11759950D01*
X33857190Y-6704780D02*
X33897190Y-6744780D01*
X33897190Y-6704780D02*
X33857190Y-6744780D01*
D13*
X10454000Y-2644250D02*
G75*
G03*
X10454000Y-2644250I-40000J0D01*
G01*
X10704000Y-2644250D02*
G75*
G03*
X10704000Y-2644250I-40000J0D01*
G01*
X11506000Y-2644250D02*
G75*
G03*
X11506000Y-2644250I-40000J0D01*
G01*
X11756000Y-2644250D02*
G75*
G03*
X11756000Y-2644250I-40000J0D01*
G01*
X12994000Y-6477000D02*
G75*
G03*
X12994000Y-6477000I-40000J0D01*
G01*
X12994000Y-12319000D02*
G75*
G03*
X12994000Y-12319000I-40000J0D01*
G01*
X12994000Y-15240000D02*
G75*
G03*
X12994000Y-15240000I-40000J0D01*
G01*
X13244000Y-6477000D02*
G75*
G03*
X13244000Y-6477000I-40000J0D01*
G01*
X13244000Y-12319000D02*
G75*
G03*
X13244000Y-12319000I-40000J0D01*
G01*
X13244000Y-15240000D02*
G75*
G03*
X13244000Y-15240000I-40000J0D01*
G01*
X14518000Y-2286000D02*
G75*
G03*
X14518000Y-2286000I-40000J0D01*
G01*
X14518000Y-3048000D02*
G75*
G03*
X14518000Y-3048000I-40000J0D01*
G01*
X24424000Y-6477000D02*
G75*
G03*
X24424000Y-6477000I-40000J0D01*
G01*
X24424000Y-12319000D02*
G75*
G03*
X24424000Y-12319000I-40000J0D01*
G01*
X24428000Y-18034000D02*
G75*
G03*
X24428000Y-18034000I-40000J0D01*
G01*
X24674000Y-6477000D02*
G75*
G03*
X24674000Y-6477000I-40000J0D01*
G01*
X24674000Y-12319000D02*
G75*
G03*
X24674000Y-12319000I-40000J0D01*
G01*
X24678000Y-18034000D02*
G75*
G03*
X24678000Y-18034000I-40000J0D01*
G01*
X32806000Y-17272000D02*
G75*
G03*
X32806000Y-17272000I-40000J0D01*
G01*
X33568000Y-17272000D02*
G75*
G03*
X33568000Y-17272000I-40000J0D01*
G01*
X33826000Y-17272000D02*
G75*
G03*
X33826000Y-17272000I-40000J0D01*
G01*
X34326000Y-17272000D02*
G75*
G03*
X34326000Y-17272000I-40000J0D01*
G01*
D14*
X12954000Y-3056000D02*
X12954000Y-3148000D01*
X12908000Y-3102000D02*
X13000000Y-3102000D01*
X12954000Y-3256000D02*
X12954000Y-3348000D01*
X12908000Y-3302000D02*
X13000000Y-3302000D01*
X13204000Y-3056000D02*
X13204000Y-3148000D01*
X13158000Y-3102000D02*
X13250000Y-3102000D01*
X13204000Y-3256000D02*
X13204000Y-3348000D01*
X13158000Y-3302000D02*
X13250000Y-3302000D01*
D10*
X2575356Y-3845356D02*
X2575356Y-3774644D01*
X2504644Y-3774644D01*
X2504644Y-3845356D01*
X2575356Y-3845356D01*
X2575356Y-6893356D02*
X2575356Y-6822644D01*
X2504644Y-6822644D01*
X2504644Y-6893356D01*
X2575356Y-6893356D01*
X2575356Y-7274356D02*
X2575356Y-7203644D01*
X2504644Y-7203644D01*
X2504644Y-7274356D01*
X2575356Y-7274356D01*
X2575356Y-17815356D02*
X2575356Y-17744644D01*
X2504644Y-17744644D01*
X2504644Y-17815356D01*
X2575356Y-17815356D01*
X2829356Y-3845356D02*
X2829356Y-3774644D01*
X2758644Y-3774644D01*
X2758644Y-3845356D01*
X2829356Y-3845356D01*
X2829356Y-6893356D02*
X2829356Y-6822644D01*
X2758644Y-6822644D01*
X2758644Y-6893356D01*
X2829356Y-6893356D01*
X2829356Y-7274356D02*
X2829356Y-7203644D01*
X2758644Y-7203644D01*
X2758644Y-7274356D01*
X2829356Y-7274356D01*
X2829356Y-17815356D02*
X2829356Y-17744644D01*
X2758644Y-17744644D01*
X2758644Y-17815356D01*
X2829356Y-17815356D01*
X3083356Y-3845356D02*
X3083356Y-3774644D01*
X3012644Y-3774644D01*
X3012644Y-3845356D01*
X3083356Y-3845356D01*
X3083356Y-6893356D02*
X3083356Y-6822644D01*
X3012644Y-6822644D01*
X3012644Y-6893356D01*
X3083356Y-6893356D01*
X3083356Y-7274356D02*
X3083356Y-7203644D01*
X3012644Y-7203644D01*
X3012644Y-7274356D01*
X3083356Y-7274356D01*
X3083356Y-17815356D02*
X3083356Y-17744644D01*
X3012644Y-17744644D01*
X3012644Y-17815356D01*
X3083356Y-17815356D01*
X3337356Y-3845356D02*
X3337356Y-3774644D01*
X3266644Y-3774644D01*
X3266644Y-3845356D01*
X3337356Y-3845356D01*
X3337356Y-6893356D02*
X3337356Y-6822644D01*
X3266644Y-6822644D01*
X3266644Y-6893356D01*
X3337356Y-6893356D01*
X3337356Y-7274356D02*
X3337356Y-7203644D01*
X3266644Y-7203644D01*
X3266644Y-7274356D01*
X3337356Y-7274356D01*
X3337356Y-17815356D02*
X3337356Y-17744644D01*
X3266644Y-17744644D01*
X3266644Y-17815356D01*
X3337356Y-17815356D01*
X3591356Y-3845356D02*
X3591356Y-3774644D01*
X3520644Y-3774644D01*
X3520644Y-3845356D01*
X3591356Y-3845356D01*
X3591356Y-6893356D02*
X3591356Y-6822644D01*
X3520644Y-6822644D01*
X3520644Y-6893356D01*
X3591356Y-6893356D01*
X3591356Y-7274356D02*
X3591356Y-7203644D01*
X3520644Y-7203644D01*
X3520644Y-7274356D01*
X3591356Y-7274356D01*
X3591356Y-17815356D02*
X3591356Y-17744644D01*
X3520644Y-17744644D01*
X3520644Y-17815356D01*
X3591356Y-17815356D01*
X3845356Y-3845356D02*
X3845356Y-3774644D01*
X3774644Y-3774644D01*
X3774644Y-3845356D01*
X3845356Y-3845356D01*
X3845356Y-6893356D02*
X3845356Y-6822644D01*
X3774644Y-6822644D01*
X3774644Y-6893356D01*
X3845356Y-6893356D01*
X3845356Y-7274356D02*
X3845356Y-7203644D01*
X3774644Y-7203644D01*
X3774644Y-7274356D01*
X3845356Y-7274356D01*
X3845356Y-17815356D02*
X3845356Y-17744644D01*
X3774644Y-17744644D01*
X3774644Y-17815356D01*
X3845356Y-17815356D01*
X4099356Y-3845356D02*
X4099356Y-3774644D01*
X4028644Y-3774644D01*
X4028644Y-3845356D01*
X4099356Y-3845356D01*
X4099356Y-6893356D02*
X4099356Y-6822644D01*
X4028644Y-6822644D01*
X4028644Y-6893356D01*
X4099356Y-6893356D01*
X4099356Y-7274356D02*
X4099356Y-7203644D01*
X4028644Y-7203644D01*
X4028644Y-7274356D01*
X4099356Y-7274356D01*
X4099356Y-17815356D02*
X4099356Y-17744644D01*
X4028644Y-17744644D01*
X4028644Y-17815356D01*
X4099356Y-17815356D01*
X4353356Y-3845356D02*
X4353356Y-3774644D01*
X4282644Y-3774644D01*
X4282644Y-3845356D01*
X4353356Y-3845356D01*
X4353356Y-6893356D02*
X4353356Y-6822644D01*
X4282644Y-6822644D01*
X4282644Y-6893356D01*
X4353356Y-6893356D01*
X4353356Y-7274356D02*
X4353356Y-7203644D01*
X4282644Y-7203644D01*
X4282644Y-7274356D01*
X4353356Y-7274356D01*
X4353356Y-17815356D02*
X4353356Y-17744644D01*
X4282644Y-17744644D01*
X4282644Y-17815356D01*
X4353356Y-17815356D01*
X4607356Y-3845356D02*
X4607356Y-3774644D01*
X4536644Y-3774644D01*
X4536644Y-3845356D01*
X4607356Y-3845356D01*
X4607356Y-6893356D02*
X4607356Y-6822644D01*
X4536644Y-6822644D01*
X4536644Y-6893356D01*
X4607356Y-6893356D01*
X4607356Y-7274356D02*
X4607356Y-7203644D01*
X4536644Y-7203644D01*
X4536644Y-7274356D01*
X4607356Y-7274356D01*
X4607356Y-17815356D02*
X4607356Y-17744644D01*
X4536644Y-17744644D01*
X4536644Y-17815356D01*
X4607356Y-17815356D01*
X4861356Y-3845356D02*
X4861356Y-3774644D01*
X4790644Y-3774644D01*
X4790644Y-3845356D01*
X4861356Y-3845356D01*
X4861356Y-6893356D02*
X4861356Y-6822644D01*
X4790644Y-6822644D01*
X4790644Y-6893356D01*
X4861356Y-6893356D01*
X4861356Y-7274356D02*
X4861356Y-7203644D01*
X4790644Y-7203644D01*
X4790644Y-7274356D01*
X4861356Y-7274356D01*
X4861356Y-17815356D02*
X4861356Y-17744644D01*
X4790644Y-17744644D01*
X4790644Y-17815356D01*
X4861356Y-17815356D01*
X8963356Y-2910356D02*
X8963356Y-2839644D01*
X8892644Y-2839644D01*
X8892644Y-2910356D01*
X8963356Y-2910356D01*
D11*
X8878000Y-2775000D02*
X8878000Y-2975000D01*
X8978000Y-2775000D02*
X8978000Y-2975000D01*
X8878000Y-2975000D02*
G75*
G03*
X8978000Y-2975000I50000J0D01*
G01*
X8978000Y-2775000D02*
G75*
G03*
X8878000Y-2775000I-50000J0D01*
G01*
D10*
X9433356Y-2610356D02*
X9433356Y-2539644D01*
X9362644Y-2539644D01*
X9362644Y-2610356D01*
X9433356Y-2610356D01*
D11*
X9498000Y-2525000D02*
X9298000Y-2525000D01*
X9498000Y-2625000D02*
X9298000Y-2625000D01*
X9298000Y-2525000D02*
G75*
G03*
X9298000Y-2625000I0J-50000D01*
G01*
X9498000Y-2625000D02*
G75*
G03*
X9498000Y-2525000I0J50000D01*
G01*
D10*
X9433356Y-3210356D02*
X9433356Y-3139644D01*
X9362644Y-3139644D01*
X9362644Y-3210356D01*
X9433356Y-3210356D01*
D11*
X9498000Y-3125000D02*
X9298000Y-3125000D01*
X9498000Y-3225000D02*
X9298000Y-3225000D01*
X9298000Y-3125000D02*
G75*
G03*
X9298000Y-3225000I0J-50000D01*
G01*
X9498000Y-3225000D02*
G75*
G03*
X9498000Y-3125000I0J50000D01*
G01*
D10*
X9941356Y-6131356D02*
X9941356Y-6060644D01*
X9870644Y-6060644D01*
X9870644Y-6131356D01*
X9941356Y-6131356D01*
X9941356Y-6893356D02*
X9941356Y-6822644D01*
X9870644Y-6822644D01*
X9870644Y-6893356D01*
X9941356Y-6893356D01*
X9941356Y-11973356D02*
X9941356Y-11902644D01*
X9870644Y-11902644D01*
X9870644Y-11973356D01*
X9941356Y-11973356D01*
X9941356Y-12735356D02*
X9941356Y-12664644D01*
X9870644Y-12664644D01*
X9870644Y-12735356D01*
X9941356Y-12735356D01*
X10195356Y-6131356D02*
X10195356Y-6060644D01*
X10124644Y-6060644D01*
X10124644Y-6131356D01*
X10195356Y-6131356D01*
X10195356Y-6893356D02*
X10195356Y-6822644D01*
X10124644Y-6822644D01*
X10124644Y-6893356D01*
X10195356Y-6893356D01*
X10195356Y-11973356D02*
X10195356Y-11902644D01*
X10124644Y-11902644D01*
X10124644Y-11973356D01*
X10195356Y-11973356D01*
X10195356Y-12735356D02*
X10195356Y-12664644D01*
X10124644Y-12664644D01*
X10124644Y-12735356D01*
X10195356Y-12735356D01*
X10449356Y-6131356D02*
X10449356Y-6060644D01*
X10378644Y-6060644D01*
X10378644Y-6131356D01*
X10449356Y-6131356D01*
X10449356Y-6893356D02*
X10449356Y-6822644D01*
X10378644Y-6822644D01*
X10378644Y-6893356D01*
X10449356Y-6893356D01*
X10449356Y-11973356D02*
X10449356Y-11902644D01*
X10378644Y-11902644D01*
X10378644Y-11973356D01*
X10449356Y-11973356D01*
X10449356Y-12735356D02*
X10449356Y-12664644D01*
X10378644Y-12664644D01*
X10378644Y-12735356D01*
X10449356Y-12735356D01*
X10703356Y-6131356D02*
X10703356Y-6060644D01*
X10632644Y-6060644D01*
X10632644Y-6131356D01*
X10703356Y-6131356D01*
X10703356Y-6893356D02*
X10703356Y-6822644D01*
X10632644Y-6822644D01*
X10632644Y-6893356D01*
X10703356Y-6893356D01*
X10703356Y-11973356D02*
X10703356Y-11902644D01*
X10632644Y-11902644D01*
X10632644Y-11973356D01*
X10703356Y-11973356D01*
X10703356Y-12735356D02*
X10703356Y-12664644D01*
X10632644Y-12664644D01*
X10632644Y-12735356D01*
X10703356Y-12735356D01*
X10957356Y-6131356D02*
X10957356Y-6060644D01*
X10886644Y-6060644D01*
X10886644Y-6131356D01*
X10957356Y-6131356D01*
X10957356Y-6893356D02*
X10957356Y-6822644D01*
X10886644Y-6822644D01*
X10886644Y-6893356D01*
X10957356Y-6893356D01*
X10957356Y-11973356D02*
X10957356Y-11902644D01*
X10886644Y-11902644D01*
X10886644Y-11973356D01*
X10957356Y-11973356D01*
X10957356Y-12735356D02*
X10957356Y-12664644D01*
X10886644Y-12664644D01*
X10886644Y-12735356D01*
X10957356Y-12735356D01*
X11211356Y-6131356D02*
X11211356Y-6060644D01*
X11140644Y-6060644D01*
X11140644Y-6131356D01*
X11211356Y-6131356D01*
X11211356Y-6893356D02*
X11211356Y-6822644D01*
X11140644Y-6822644D01*
X11140644Y-6893356D01*
X11211356Y-6893356D01*
X11211356Y-11973356D02*
X11211356Y-11902644D01*
X11140644Y-11902644D01*
X11140644Y-11973356D01*
X11211356Y-11973356D01*
X11211356Y-12735356D02*
X11211356Y-12664644D01*
X11140644Y-12664644D01*
X11140644Y-12735356D01*
X11211356Y-12735356D01*
X11465356Y-6131356D02*
X11465356Y-6060644D01*
X11394644Y-6060644D01*
X11394644Y-6131356D01*
X11465356Y-6131356D01*
X11465356Y-6893356D02*
X11465356Y-6822644D01*
X11394644Y-6822644D01*
X11394644Y-6893356D01*
X11465356Y-6893356D01*
X11465356Y-11973356D02*
X11465356Y-11902644D01*
X11394644Y-11902644D01*
X11394644Y-11973356D01*
X11465356Y-11973356D01*
X11465356Y-12735356D02*
X11465356Y-12664644D01*
X11394644Y-12664644D01*
X11394644Y-12735356D01*
X11465356Y-12735356D01*
X11719356Y-6131356D02*
X11719356Y-6060644D01*
X11648644Y-6060644D01*
X11648644Y-6131356D01*
X11719356Y-6131356D01*
X11719356Y-6893356D02*
X11719356Y-6822644D01*
X11648644Y-6822644D01*
X11648644Y-6893356D01*
X11719356Y-6893356D01*
X11719356Y-11973356D02*
X11719356Y-11902644D01*
X11648644Y-11902644D01*
X11648644Y-11973356D01*
X11719356Y-11973356D01*
X11719356Y-12735356D02*
X11719356Y-12664644D01*
X11648644Y-12664644D01*
X11648644Y-12735356D01*
X11719356Y-12735356D01*
X11973356Y-6131356D02*
X11973356Y-6060644D01*
X11902644Y-6060644D01*
X11902644Y-6131356D01*
X11973356Y-6131356D01*
X11973356Y-6893356D02*
X11973356Y-6822644D01*
X11902644Y-6822644D01*
X11902644Y-6893356D01*
X11973356Y-6893356D01*
X11973356Y-11973356D02*
X11973356Y-11902644D01*
X11902644Y-11902644D01*
X11902644Y-11973356D01*
X11973356Y-11973356D01*
X11973356Y-12735356D02*
X11973356Y-12664644D01*
X11902644Y-12664644D01*
X11902644Y-12735356D01*
X11973356Y-12735356D01*
X12227356Y-6131356D02*
X12227356Y-6060644D01*
X12156644Y-6060644D01*
X12156644Y-6131356D01*
X12227356Y-6131356D01*
X12227356Y-6893356D02*
X12227356Y-6822644D01*
X12156644Y-6822644D01*
X12156644Y-6893356D01*
X12227356Y-6893356D01*
X12227356Y-11973356D02*
X12227356Y-11902644D01*
X12156644Y-11902644D01*
X12156644Y-11973356D01*
X12227356Y-11973356D01*
X12227356Y-12735356D02*
X12227356Y-12664644D01*
X12156644Y-12664644D01*
X12156644Y-12735356D01*
X12227356Y-12735356D01*
X14005356Y-3845356D02*
X14005356Y-3774644D01*
X13934644Y-3774644D01*
X13934644Y-3845356D01*
X14005356Y-3845356D01*
X14005356Y-6131356D02*
X14005356Y-6060644D01*
X13934644Y-6060644D01*
X13934644Y-6131356D01*
X14005356Y-6131356D01*
X14005356Y-6893356D02*
X14005356Y-6822644D01*
X13934644Y-6822644D01*
X13934644Y-6893356D01*
X14005356Y-6893356D01*
X14005356Y-11973356D02*
X14005356Y-11902644D01*
X13934644Y-11902644D01*
X13934644Y-11973356D01*
X14005356Y-11973356D01*
X14005356Y-12735356D02*
X14005356Y-12664644D01*
X13934644Y-12664644D01*
X13934644Y-12735356D01*
X14005356Y-12735356D01*
X14005356Y-15021356D02*
X14005356Y-14950644D01*
X13934644Y-14950644D01*
X13934644Y-15021356D01*
X14005356Y-15021356D01*
X14259356Y-3845356D02*
X14259356Y-3774644D01*
X14188644Y-3774644D01*
X14188644Y-3845356D01*
X14259356Y-3845356D01*
X14259356Y-6131356D02*
X14259356Y-6060644D01*
X14188644Y-6060644D01*
X14188644Y-6131356D01*
X14259356Y-6131356D01*
X14259356Y-6893356D02*
X14259356Y-6822644D01*
X14188644Y-6822644D01*
X14188644Y-6893356D01*
X14259356Y-6893356D01*
X14259356Y-11973356D02*
X14259356Y-11902644D01*
X14188644Y-11902644D01*
X14188644Y-11973356D01*
X14259356Y-11973356D01*
X14259356Y-12735356D02*
X14259356Y-12664644D01*
X14188644Y-12664644D01*
X14188644Y-12735356D01*
X14259356Y-12735356D01*
X14259356Y-15021356D02*
X14259356Y-14950644D01*
X14188644Y-14950644D01*
X14188644Y-15021356D01*
X14259356Y-15021356D01*
X14513356Y-3845356D02*
X14513356Y-3774644D01*
X14442644Y-3774644D01*
X14442644Y-3845356D01*
X14513356Y-3845356D01*
X14513356Y-6131356D02*
X14513356Y-6060644D01*
X14442644Y-6060644D01*
X14442644Y-6131356D01*
X14513356Y-6131356D01*
X14513356Y-6893356D02*
X14513356Y-6822644D01*
X14442644Y-6822644D01*
X14442644Y-6893356D01*
X14513356Y-6893356D01*
X14513356Y-11973356D02*
X14513356Y-11902644D01*
X14442644Y-11902644D01*
X14442644Y-11973356D01*
X14513356Y-11973356D01*
X14513356Y-12735356D02*
X14513356Y-12664644D01*
X14442644Y-12664644D01*
X14442644Y-12735356D01*
X14513356Y-12735356D01*
X14513356Y-15021356D02*
X14513356Y-14950644D01*
X14442644Y-14950644D01*
X14442644Y-15021356D01*
X14513356Y-15021356D01*
X14767356Y-3845356D02*
X14767356Y-3774644D01*
X14696644Y-3774644D01*
X14696644Y-3845356D01*
X14767356Y-3845356D01*
X14767356Y-6131356D02*
X14767356Y-6060644D01*
X14696644Y-6060644D01*
X14696644Y-6131356D01*
X14767356Y-6131356D01*
X14767356Y-6893356D02*
X14767356Y-6822644D01*
X14696644Y-6822644D01*
X14696644Y-6893356D01*
X14767356Y-6893356D01*
X14767356Y-11973356D02*
X14767356Y-11902644D01*
X14696644Y-11902644D01*
X14696644Y-11973356D01*
X14767356Y-11973356D01*
X14767356Y-12735356D02*
X14767356Y-12664644D01*
X14696644Y-12664644D01*
X14696644Y-12735356D01*
X14767356Y-12735356D01*
X14767356Y-15021356D02*
X14767356Y-14950644D01*
X14696644Y-14950644D01*
X14696644Y-15021356D01*
X14767356Y-15021356D01*
X15021356Y-3845356D02*
X15021356Y-3774644D01*
X14950644Y-3774644D01*
X14950644Y-3845356D01*
X15021356Y-3845356D01*
X15021356Y-6131356D02*
X15021356Y-6060644D01*
X14950644Y-6060644D01*
X14950644Y-6131356D01*
X15021356Y-6131356D01*
X15021356Y-6893356D02*
X15021356Y-6822644D01*
X14950644Y-6822644D01*
X14950644Y-6893356D01*
X15021356Y-6893356D01*
X15021356Y-11973356D02*
X15021356Y-11902644D01*
X14950644Y-11902644D01*
X14950644Y-11973356D01*
X15021356Y-11973356D01*
X15021356Y-12735356D02*
X15021356Y-12664644D01*
X14950644Y-12664644D01*
X14950644Y-12735356D01*
X15021356Y-12735356D01*
X15021356Y-15021356D02*
X15021356Y-14950644D01*
X14950644Y-14950644D01*
X14950644Y-15021356D01*
X15021356Y-15021356D01*
X15275356Y-3845356D02*
X15275356Y-3774644D01*
X15204644Y-3774644D01*
X15204644Y-3845356D01*
X15275356Y-3845356D01*
X15275356Y-6131356D02*
X15275356Y-6060644D01*
X15204644Y-6060644D01*
X15204644Y-6131356D01*
X15275356Y-6131356D01*
X15275356Y-6893356D02*
X15275356Y-6822644D01*
X15204644Y-6822644D01*
X15204644Y-6893356D01*
X15275356Y-6893356D01*
X15275356Y-11973356D02*
X15275356Y-11902644D01*
X15204644Y-11902644D01*
X15204644Y-11973356D01*
X15275356Y-11973356D01*
X15275356Y-12735356D02*
X15275356Y-12664644D01*
X15204644Y-12664644D01*
X15204644Y-12735356D01*
X15275356Y-12735356D01*
X15275356Y-15021356D02*
X15275356Y-14950644D01*
X15204644Y-14950644D01*
X15204644Y-15021356D01*
X15275356Y-15021356D01*
X15529356Y-3845356D02*
X15529356Y-3774644D01*
X15458644Y-3774644D01*
X15458644Y-3845356D01*
X15529356Y-3845356D01*
X15529356Y-6131356D02*
X15529356Y-6060644D01*
X15458644Y-6060644D01*
X15458644Y-6131356D01*
X15529356Y-6131356D01*
X15529356Y-6893356D02*
X15529356Y-6822644D01*
X15458644Y-6822644D01*
X15458644Y-6893356D01*
X15529356Y-6893356D01*
X15529356Y-11973356D02*
X15529356Y-11902644D01*
X15458644Y-11902644D01*
X15458644Y-11973356D01*
X15529356Y-11973356D01*
X15529356Y-12735356D02*
X15529356Y-12664644D01*
X15458644Y-12664644D01*
X15458644Y-12735356D01*
X15529356Y-12735356D01*
X15529356Y-15021356D02*
X15529356Y-14950644D01*
X15458644Y-14950644D01*
X15458644Y-15021356D01*
X15529356Y-15021356D01*
X15783356Y-3845356D02*
X15783356Y-3774644D01*
X15712644Y-3774644D01*
X15712644Y-3845356D01*
X15783356Y-3845356D01*
X15783356Y-6131356D02*
X15783356Y-6060644D01*
X15712644Y-6060644D01*
X15712644Y-6131356D01*
X15783356Y-6131356D01*
X15783356Y-6893356D02*
X15783356Y-6822644D01*
X15712644Y-6822644D01*
X15712644Y-6893356D01*
X15783356Y-6893356D01*
X15783356Y-11973356D02*
X15783356Y-11902644D01*
X15712644Y-11902644D01*
X15712644Y-11973356D01*
X15783356Y-11973356D01*
X15783356Y-12735356D02*
X15783356Y-12664644D01*
X15712644Y-12664644D01*
X15712644Y-12735356D01*
X15783356Y-12735356D01*
X15783356Y-15021356D02*
X15783356Y-14950644D01*
X15712644Y-14950644D01*
X15712644Y-15021356D01*
X15783356Y-15021356D01*
X16037356Y-3845356D02*
X16037356Y-3774644D01*
X15966644Y-3774644D01*
X15966644Y-3845356D01*
X16037356Y-3845356D01*
X16037356Y-6131356D02*
X16037356Y-6060644D01*
X15966644Y-6060644D01*
X15966644Y-6131356D01*
X16037356Y-6131356D01*
X16037356Y-6893356D02*
X16037356Y-6822644D01*
X15966644Y-6822644D01*
X15966644Y-6893356D01*
X16037356Y-6893356D01*
X16037356Y-11973356D02*
X16037356Y-11902644D01*
X15966644Y-11902644D01*
X15966644Y-11973356D01*
X16037356Y-11973356D01*
X16037356Y-12735356D02*
X16037356Y-12664644D01*
X15966644Y-12664644D01*
X15966644Y-12735356D01*
X16037356Y-12735356D01*
X16037356Y-15021356D02*
X16037356Y-14950644D01*
X15966644Y-14950644D01*
X15966644Y-15021356D01*
X16037356Y-15021356D01*
X16291356Y-3845356D02*
X16291356Y-3774644D01*
X16220644Y-3774644D01*
X16220644Y-3845356D01*
X16291356Y-3845356D01*
X16291356Y-6131356D02*
X16291356Y-6060644D01*
X16220644Y-6060644D01*
X16220644Y-6131356D01*
X16291356Y-6131356D01*
X16291356Y-6893356D02*
X16291356Y-6822644D01*
X16220644Y-6822644D01*
X16220644Y-6893356D01*
X16291356Y-6893356D01*
X16291356Y-11973356D02*
X16291356Y-11902644D01*
X16220644Y-11902644D01*
X16220644Y-11973356D01*
X16291356Y-11973356D01*
X16291356Y-12735356D02*
X16291356Y-12664644D01*
X16220644Y-12664644D01*
X16220644Y-12735356D01*
X16291356Y-12735356D01*
X16291356Y-15021356D02*
X16291356Y-14950644D01*
X16220644Y-14950644D01*
X16220644Y-15021356D01*
X16291356Y-15021356D01*
X16545356Y-3845356D02*
X16545356Y-3774644D01*
X16474644Y-3774644D01*
X16474644Y-3845356D01*
X16545356Y-3845356D01*
X16545356Y-12735356D02*
X16545356Y-12664644D01*
X16474644Y-12664644D01*
X16474644Y-12735356D01*
X16545356Y-12735356D01*
X16799356Y-3845356D02*
X16799356Y-3774644D01*
X16728644Y-3774644D01*
X16728644Y-3845356D01*
X16799356Y-3845356D01*
X16799356Y-12735356D02*
X16799356Y-12664644D01*
X16728644Y-12664644D01*
X16728644Y-12735356D01*
X16799356Y-12735356D01*
X17053356Y-3845356D02*
X17053356Y-3774644D01*
X16982644Y-3774644D01*
X16982644Y-3845356D01*
X17053356Y-3845356D01*
X17053356Y-12735356D02*
X17053356Y-12664644D01*
X16982644Y-12664644D01*
X16982644Y-12735356D01*
X17053356Y-12735356D01*
X17307356Y-3845356D02*
X17307356Y-3774644D01*
X17236644Y-3774644D01*
X17236644Y-3845356D01*
X17307356Y-3845356D01*
X17307356Y-12735356D02*
X17307356Y-12664644D01*
X17236644Y-12664644D01*
X17236644Y-12735356D01*
X17307356Y-12735356D01*
X17561356Y-3845356D02*
X17561356Y-3774644D01*
X17490644Y-3774644D01*
X17490644Y-3845356D01*
X17561356Y-3845356D01*
X17561356Y-12735356D02*
X17561356Y-12664644D01*
X17490644Y-12664644D01*
X17490644Y-12735356D01*
X17561356Y-12735356D01*
X17815356Y-3845356D02*
X17815356Y-3774644D01*
X17744644Y-3774644D01*
X17744644Y-3845356D01*
X17815356Y-3845356D01*
X17815356Y-12735356D02*
X17815356Y-12664644D01*
X17744644Y-12664644D01*
X17744644Y-12735356D01*
X17815356Y-12735356D01*
X18069356Y-3845356D02*
X18069356Y-3774644D01*
X17998644Y-3774644D01*
X17998644Y-3845356D01*
X18069356Y-3845356D01*
X18069356Y-12735356D02*
X18069356Y-12664644D01*
X17998644Y-12664644D01*
X17998644Y-12735356D01*
X18069356Y-12735356D01*
X18323356Y-3845356D02*
X18323356Y-3774644D01*
X18252644Y-3774644D01*
X18252644Y-3845356D01*
X18323356Y-3845356D01*
X18323356Y-12735356D02*
X18323356Y-12664644D01*
X18252644Y-12664644D01*
X18252644Y-12735356D01*
X18323356Y-12735356D01*
X19339356Y-3845356D02*
X19339356Y-3774644D01*
X19268644Y-3774644D01*
X19268644Y-3845356D01*
X19339356Y-3845356D01*
X19339356Y-6131356D02*
X19339356Y-6060644D01*
X19268644Y-6060644D01*
X19268644Y-6131356D01*
X19339356Y-6131356D01*
X19339356Y-12735356D02*
X19339356Y-12664644D01*
X19268644Y-12664644D01*
X19268644Y-12735356D01*
X19339356Y-12735356D01*
X19339356Y-15021356D02*
X19339356Y-14950644D01*
X19268644Y-14950644D01*
X19268644Y-15021356D01*
X19339356Y-15021356D01*
X19593356Y-3845356D02*
X19593356Y-3774644D01*
X19522644Y-3774644D01*
X19522644Y-3845356D01*
X19593356Y-3845356D01*
X19593356Y-6131356D02*
X19593356Y-6060644D01*
X19522644Y-6060644D01*
X19522644Y-6131356D01*
X19593356Y-6131356D01*
X19593356Y-12735356D02*
X19593356Y-12664644D01*
X19522644Y-12664644D01*
X19522644Y-12735356D01*
X19593356Y-12735356D01*
X19593356Y-15021356D02*
X19593356Y-14950644D01*
X19522644Y-14950644D01*
X19522644Y-15021356D01*
X19593356Y-15021356D01*
X19847356Y-3845356D02*
X19847356Y-3774644D01*
X19776644Y-3774644D01*
X19776644Y-3845356D01*
X19847356Y-3845356D01*
X19847356Y-6131356D02*
X19847356Y-6060644D01*
X19776644Y-6060644D01*
X19776644Y-6131356D01*
X19847356Y-6131356D01*
X19847356Y-12735356D02*
X19847356Y-12664644D01*
X19776644Y-12664644D01*
X19776644Y-12735356D01*
X19847356Y-12735356D01*
X19847356Y-15021356D02*
X19847356Y-14950644D01*
X19776644Y-14950644D01*
X19776644Y-15021356D01*
X19847356Y-15021356D01*
X20101356Y-3845356D02*
X20101356Y-3774644D01*
X20030644Y-3774644D01*
X20030644Y-3845356D01*
X20101356Y-3845356D01*
X20101356Y-6131356D02*
X20101356Y-6060644D01*
X20030644Y-6060644D01*
X20030644Y-6131356D01*
X20101356Y-6131356D01*
X20101356Y-12735356D02*
X20101356Y-12664644D01*
X20030644Y-12664644D01*
X20030644Y-12735356D01*
X20101356Y-12735356D01*
X20101356Y-15021356D02*
X20101356Y-14950644D01*
X20030644Y-14950644D01*
X20030644Y-15021356D01*
X20101356Y-15021356D01*
X20355356Y-3845356D02*
X20355356Y-3774644D01*
X20284644Y-3774644D01*
X20284644Y-3845356D01*
X20355356Y-3845356D01*
X20355356Y-6131356D02*
X20355356Y-6060644D01*
X20284644Y-6060644D01*
X20284644Y-6131356D01*
X20355356Y-6131356D01*
X20355356Y-12735356D02*
X20355356Y-12664644D01*
X20284644Y-12664644D01*
X20284644Y-12735356D01*
X20355356Y-12735356D01*
X20355356Y-15021356D02*
X20355356Y-14950644D01*
X20284644Y-14950644D01*
X20284644Y-15021356D01*
X20355356Y-15021356D01*
X20609356Y-3845356D02*
X20609356Y-3774644D01*
X20538644Y-3774644D01*
X20538644Y-3845356D01*
X20609356Y-3845356D01*
X20609356Y-6131356D02*
X20609356Y-6060644D01*
X20538644Y-6060644D01*
X20538644Y-6131356D01*
X20609356Y-6131356D01*
X20609356Y-12735356D02*
X20609356Y-12664644D01*
X20538644Y-12664644D01*
X20538644Y-12735356D01*
X20609356Y-12735356D01*
X20609356Y-15021356D02*
X20609356Y-14950644D01*
X20538644Y-14950644D01*
X20538644Y-15021356D01*
X20609356Y-15021356D01*
X20863356Y-3845356D02*
X20863356Y-3774644D01*
X20792644Y-3774644D01*
X20792644Y-3845356D01*
X20863356Y-3845356D01*
X20863356Y-6131356D02*
X20863356Y-6060644D01*
X20792644Y-6060644D01*
X20792644Y-6131356D01*
X20863356Y-6131356D01*
X20863356Y-12735356D02*
X20863356Y-12664644D01*
X20792644Y-12664644D01*
X20792644Y-12735356D01*
X20863356Y-12735356D01*
X20863356Y-15021356D02*
X20863356Y-14950644D01*
X20792644Y-14950644D01*
X20792644Y-15021356D01*
X20863356Y-15021356D01*
X21117356Y-2321356D02*
X21117356Y-2250644D01*
X21046644Y-2250644D01*
X21046644Y-2321356D01*
X21117356Y-2321356D01*
X21117356Y-3845356D02*
X21117356Y-3774644D01*
X21046644Y-3774644D01*
X21046644Y-3845356D01*
X21117356Y-3845356D01*
X21117356Y-6131356D02*
X21117356Y-6060644D01*
X21046644Y-6060644D01*
X21046644Y-6131356D01*
X21117356Y-6131356D01*
X21117356Y-12735356D02*
X21117356Y-12664644D01*
X21046644Y-12664644D01*
X21046644Y-12735356D01*
X21117356Y-12735356D01*
X21117356Y-15021356D02*
X21117356Y-14950644D01*
X21046644Y-14950644D01*
X21046644Y-15021356D01*
X21117356Y-15021356D01*
X21371356Y-2321356D02*
X21371356Y-2250644D01*
X21300644Y-2250644D01*
X21300644Y-2321356D01*
X21371356Y-2321356D01*
X21371356Y-3845356D02*
X21371356Y-3774644D01*
X21300644Y-3774644D01*
X21300644Y-3845356D01*
X21371356Y-3845356D01*
X21371356Y-6131356D02*
X21371356Y-6060644D01*
X21300644Y-6060644D01*
X21300644Y-6131356D01*
X21371356Y-6131356D01*
X21371356Y-6893356D02*
X21371356Y-6822644D01*
X21300644Y-6822644D01*
X21300644Y-6893356D01*
X21371356Y-6893356D01*
X21371356Y-11973356D02*
X21371356Y-11902644D01*
X21300644Y-11902644D01*
X21300644Y-11973356D01*
X21371356Y-11973356D01*
X21371356Y-12735356D02*
X21371356Y-12664644D01*
X21300644Y-12664644D01*
X21300644Y-12735356D01*
X21371356Y-12735356D01*
X21371356Y-15021356D02*
X21371356Y-14950644D01*
X21300644Y-14950644D01*
X21300644Y-15021356D01*
X21371356Y-15021356D01*
X21625356Y-2321356D02*
X21625356Y-2250644D01*
X21554644Y-2250644D01*
X21554644Y-2321356D01*
X21625356Y-2321356D01*
X21625356Y-3845356D02*
X21625356Y-3774644D01*
X21554644Y-3774644D01*
X21554644Y-3845356D01*
X21625356Y-3845356D01*
X21625356Y-6131356D02*
X21625356Y-6060644D01*
X21554644Y-6060644D01*
X21554644Y-6131356D01*
X21625356Y-6131356D01*
X21625356Y-6893356D02*
X21625356Y-6822644D01*
X21554644Y-6822644D01*
X21554644Y-6893356D01*
X21625356Y-6893356D01*
X21625356Y-11973356D02*
X21625356Y-11902644D01*
X21554644Y-11902644D01*
X21554644Y-11973356D01*
X21625356Y-11973356D01*
X21625356Y-12735356D02*
X21625356Y-12664644D01*
X21554644Y-12664644D01*
X21554644Y-12735356D01*
X21625356Y-12735356D01*
X21625356Y-15021356D02*
X21625356Y-14950644D01*
X21554644Y-14950644D01*
X21554644Y-15021356D01*
X21625356Y-15021356D01*
X21879356Y-2321356D02*
X21879356Y-2250644D01*
X21808644Y-2250644D01*
X21808644Y-2321356D01*
X21879356Y-2321356D01*
X21879356Y-3845356D02*
X21879356Y-3774644D01*
X21808644Y-3774644D01*
X21808644Y-3845356D01*
X21879356Y-3845356D01*
X21879356Y-6893356D02*
X21879356Y-6822644D01*
X21808644Y-6822644D01*
X21808644Y-6893356D01*
X21879356Y-6893356D01*
X21879356Y-11973356D02*
X21879356Y-11902644D01*
X21808644Y-11902644D01*
X21808644Y-11973356D01*
X21879356Y-11973356D01*
X21879356Y-12735356D02*
X21879356Y-12664644D01*
X21808644Y-12664644D01*
X21808644Y-12735356D01*
X21879356Y-12735356D01*
X22133356Y-2321356D02*
X22133356Y-2250644D01*
X22062644Y-2250644D01*
X22062644Y-2321356D01*
X22133356Y-2321356D01*
X22133356Y-3845356D02*
X22133356Y-3774644D01*
X22062644Y-3774644D01*
X22062644Y-3845356D01*
X22133356Y-3845356D01*
X22133356Y-6893356D02*
X22133356Y-6822644D01*
X22062644Y-6822644D01*
X22062644Y-6893356D01*
X22133356Y-6893356D01*
X22133356Y-11973356D02*
X22133356Y-11902644D01*
X22062644Y-11902644D01*
X22062644Y-11973356D01*
X22133356Y-11973356D01*
X22133356Y-12735356D02*
X22133356Y-12664644D01*
X22062644Y-12664644D01*
X22062644Y-12735356D01*
X22133356Y-12735356D01*
X22387356Y-2321356D02*
X22387356Y-2250644D01*
X22316644Y-2250644D01*
X22316644Y-2321356D01*
X22387356Y-2321356D01*
X22387356Y-3845356D02*
X22387356Y-3774644D01*
X22316644Y-3774644D01*
X22316644Y-3845356D01*
X22387356Y-3845356D01*
X22387356Y-6893356D02*
X22387356Y-6822644D01*
X22316644Y-6822644D01*
X22316644Y-6893356D01*
X22387356Y-6893356D01*
X22387356Y-11973356D02*
X22387356Y-11902644D01*
X22316644Y-11902644D01*
X22316644Y-11973356D01*
X22387356Y-11973356D01*
X22387356Y-12735356D02*
X22387356Y-12664644D01*
X22316644Y-12664644D01*
X22316644Y-12735356D01*
X22387356Y-12735356D01*
X22641356Y-2321356D02*
X22641356Y-2250644D01*
X22570644Y-2250644D01*
X22570644Y-2321356D01*
X22641356Y-2321356D01*
X22641356Y-3845356D02*
X22641356Y-3774644D01*
X22570644Y-3774644D01*
X22570644Y-3845356D01*
X22641356Y-3845356D01*
X22641356Y-6893356D02*
X22641356Y-6822644D01*
X22570644Y-6822644D01*
X22570644Y-6893356D01*
X22641356Y-6893356D01*
X22641356Y-11973356D02*
X22641356Y-11902644D01*
X22570644Y-11902644D01*
X22570644Y-11973356D01*
X22641356Y-11973356D01*
X22641356Y-12735356D02*
X22641356Y-12664644D01*
X22570644Y-12664644D01*
X22570644Y-12735356D01*
X22641356Y-12735356D01*
X22895356Y-2321356D02*
X22895356Y-2250644D01*
X22824644Y-2250644D01*
X22824644Y-2321356D01*
X22895356Y-2321356D01*
X22895356Y-3845356D02*
X22895356Y-3774644D01*
X22824644Y-3774644D01*
X22824644Y-3845356D01*
X22895356Y-3845356D01*
X22895356Y-6893356D02*
X22895356Y-6822644D01*
X22824644Y-6822644D01*
X22824644Y-6893356D01*
X22895356Y-6893356D01*
X22895356Y-11973356D02*
X22895356Y-11902644D01*
X22824644Y-11902644D01*
X22824644Y-11973356D01*
X22895356Y-11973356D01*
X22895356Y-12735356D02*
X22895356Y-12664644D01*
X22824644Y-12664644D01*
X22824644Y-12735356D01*
X22895356Y-12735356D01*
X23149356Y-2321356D02*
X23149356Y-2250644D01*
X23078644Y-2250644D01*
X23078644Y-2321356D01*
X23149356Y-2321356D01*
X23149356Y-3845356D02*
X23149356Y-3774644D01*
X23078644Y-3774644D01*
X23078644Y-3845356D01*
X23149356Y-3845356D01*
X23149356Y-6893356D02*
X23149356Y-6822644D01*
X23078644Y-6822644D01*
X23078644Y-6893356D01*
X23149356Y-6893356D01*
X23149356Y-11973356D02*
X23149356Y-11902644D01*
X23078644Y-11902644D01*
X23078644Y-11973356D01*
X23149356Y-11973356D01*
X23149356Y-12735356D02*
X23149356Y-12664644D01*
X23078644Y-12664644D01*
X23078644Y-12735356D01*
X23149356Y-12735356D01*
X23403356Y-2321356D02*
X23403356Y-2250644D01*
X23332644Y-2250644D01*
X23332644Y-2321356D01*
X23403356Y-2321356D01*
X23403356Y-3845356D02*
X23403356Y-3774644D01*
X23332644Y-3774644D01*
X23332644Y-3845356D01*
X23403356Y-3845356D01*
X23403356Y-6893356D02*
X23403356Y-6822644D01*
X23332644Y-6822644D01*
X23332644Y-6893356D01*
X23403356Y-6893356D01*
X23403356Y-11973356D02*
X23403356Y-11902644D01*
X23332644Y-11902644D01*
X23332644Y-11973356D01*
X23403356Y-11973356D01*
X23403356Y-12735356D02*
X23403356Y-12664644D01*
X23332644Y-12664644D01*
X23332644Y-12735356D01*
X23403356Y-12735356D01*
X23657356Y-3845356D02*
X23657356Y-3774644D01*
X23586644Y-3774644D01*
X23586644Y-3845356D01*
X23657356Y-3845356D01*
X23657356Y-6893356D02*
X23657356Y-6822644D01*
X23586644Y-6822644D01*
X23586644Y-6893356D01*
X23657356Y-6893356D01*
X23657356Y-11973356D02*
X23657356Y-11902644D01*
X23586644Y-11902644D01*
X23586644Y-11973356D01*
X23657356Y-11973356D01*
X23657356Y-12735356D02*
X23657356Y-12664644D01*
X23586644Y-12664644D01*
X23586644Y-12735356D01*
X23657356Y-12735356D01*
X24289356Y-2323856D02*
X24289356Y-2253144D01*
X24218644Y-2253144D01*
X24218644Y-2323856D01*
X24289356Y-2323856D01*
X24543356Y-2323856D02*
X24543356Y-2253144D01*
X24472644Y-2253144D01*
X24472644Y-2323856D01*
X24543356Y-2323856D01*
X24797356Y-2323856D02*
X24797356Y-2253144D01*
X24726644Y-2253144D01*
X24726644Y-2323856D01*
X24797356Y-2323856D01*
X25051356Y-2323856D02*
X25051356Y-2253144D01*
X24980644Y-2253144D01*
X24980644Y-2323856D01*
X25051356Y-2323856D01*
X25305356Y-2323856D02*
X25305356Y-2253144D01*
X25234644Y-2253144D01*
X25234644Y-2323856D01*
X25305356Y-2323856D01*
X25435356Y-3845356D02*
X25435356Y-3774644D01*
X25364644Y-3774644D01*
X25364644Y-3845356D01*
X25435356Y-3845356D01*
X25435356Y-6131356D02*
X25435356Y-6060644D01*
X25364644Y-6060644D01*
X25364644Y-6131356D01*
X25435356Y-6131356D01*
X25435356Y-6893356D02*
X25435356Y-6822644D01*
X25364644Y-6822644D01*
X25364644Y-6893356D01*
X25435356Y-6893356D01*
X25435356Y-7274356D02*
X25435356Y-7203644D01*
X25364644Y-7203644D01*
X25364644Y-7274356D01*
X25435356Y-7274356D01*
X25435356Y-11973356D02*
X25435356Y-11902644D01*
X25364644Y-11902644D01*
X25364644Y-11973356D01*
X25435356Y-11973356D01*
X25435356Y-12735356D02*
X25435356Y-12664644D01*
X25364644Y-12664644D01*
X25364644Y-12735356D01*
X25435356Y-12735356D01*
X25559356Y-2323856D02*
X25559356Y-2253144D01*
X25488644Y-2253144D01*
X25488644Y-2323856D01*
X25559356Y-2323856D01*
X25689356Y-3845356D02*
X25689356Y-3774644D01*
X25618644Y-3774644D01*
X25618644Y-3845356D01*
X25689356Y-3845356D01*
X25689356Y-6131356D02*
X25689356Y-6060644D01*
X25618644Y-6060644D01*
X25618644Y-6131356D01*
X25689356Y-6131356D01*
X25689356Y-6893356D02*
X25689356Y-6822644D01*
X25618644Y-6822644D01*
X25618644Y-6893356D01*
X25689356Y-6893356D01*
X25689356Y-7274356D02*
X25689356Y-7203644D01*
X25618644Y-7203644D01*
X25618644Y-7274356D01*
X25689356Y-7274356D01*
X25689356Y-11973356D02*
X25689356Y-11902644D01*
X25618644Y-11902644D01*
X25618644Y-11973356D01*
X25689356Y-11973356D01*
X25689356Y-12735356D02*
X25689356Y-12664644D01*
X25618644Y-12664644D01*
X25618644Y-12735356D01*
X25689356Y-12735356D01*
X25813356Y-2323856D02*
X25813356Y-2253144D01*
X25742644Y-2253144D01*
X25742644Y-2323856D01*
X25813356Y-2323856D01*
X25943356Y-3845356D02*
X25943356Y-3774644D01*
X25872644Y-3774644D01*
X25872644Y-3845356D01*
X25943356Y-3845356D01*
X25943356Y-6131356D02*
X25943356Y-6060644D01*
X25872644Y-6060644D01*
X25872644Y-6131356D01*
X25943356Y-6131356D01*
X25943356Y-6893356D02*
X25943356Y-6822644D01*
X25872644Y-6822644D01*
X25872644Y-6893356D01*
X25943356Y-6893356D01*
X25943356Y-7274356D02*
X25943356Y-7203644D01*
X25872644Y-7203644D01*
X25872644Y-7274356D01*
X25943356Y-7274356D01*
X25943356Y-11973356D02*
X25943356Y-11902644D01*
X25872644Y-11902644D01*
X25872644Y-11973356D01*
X25943356Y-11973356D01*
X25943356Y-12735356D02*
X25943356Y-12664644D01*
X25872644Y-12664644D01*
X25872644Y-12735356D01*
X25943356Y-12735356D01*
X26067356Y-2323856D02*
X26067356Y-2253144D01*
X25996644Y-2253144D01*
X25996644Y-2323856D01*
X26067356Y-2323856D01*
X26197356Y-3845356D02*
X26197356Y-3774644D01*
X26126644Y-3774644D01*
X26126644Y-3845356D01*
X26197356Y-3845356D01*
X26197356Y-6131356D02*
X26197356Y-6060644D01*
X26126644Y-6060644D01*
X26126644Y-6131356D01*
X26197356Y-6131356D01*
X26197356Y-6893356D02*
X26197356Y-6822644D01*
X26126644Y-6822644D01*
X26126644Y-6893356D01*
X26197356Y-6893356D01*
X26197356Y-7274356D02*
X26197356Y-7203644D01*
X26126644Y-7203644D01*
X26126644Y-7274356D01*
X26197356Y-7274356D01*
X26197356Y-11973356D02*
X26197356Y-11902644D01*
X26126644Y-11902644D01*
X26126644Y-11973356D01*
X26197356Y-11973356D01*
X26197356Y-12735356D02*
X26197356Y-12664644D01*
X26126644Y-12664644D01*
X26126644Y-12735356D01*
X26197356Y-12735356D01*
X26321356Y-2323856D02*
X26321356Y-2253144D01*
X26250644Y-2253144D01*
X26250644Y-2323856D01*
X26321356Y-2323856D01*
X26451356Y-3845356D02*
X26451356Y-3774644D01*
X26380644Y-3774644D01*
X26380644Y-3845356D01*
X26451356Y-3845356D01*
X26451356Y-6131356D02*
X26451356Y-6060644D01*
X26380644Y-6060644D01*
X26380644Y-6131356D01*
X26451356Y-6131356D01*
X26451356Y-6893356D02*
X26451356Y-6822644D01*
X26380644Y-6822644D01*
X26380644Y-6893356D01*
X26451356Y-6893356D01*
X26451356Y-7274356D02*
X26451356Y-7203644D01*
X26380644Y-7203644D01*
X26380644Y-7274356D01*
X26451356Y-7274356D01*
X26451356Y-11973356D02*
X26451356Y-11902644D01*
X26380644Y-11902644D01*
X26380644Y-11973356D01*
X26451356Y-11973356D01*
X26451356Y-12735356D02*
X26451356Y-12664644D01*
X26380644Y-12664644D01*
X26380644Y-12735356D01*
X26451356Y-12735356D01*
X26575356Y-2323856D02*
X26575356Y-2253144D01*
X26504644Y-2253144D01*
X26504644Y-2323856D01*
X26575356Y-2323856D01*
X26705356Y-3845356D02*
X26705356Y-3774644D01*
X26634644Y-3774644D01*
X26634644Y-3845356D01*
X26705356Y-3845356D01*
X26705356Y-6131356D02*
X26705356Y-6060644D01*
X26634644Y-6060644D01*
X26634644Y-6131356D01*
X26705356Y-6131356D01*
X26705356Y-6893356D02*
X26705356Y-6822644D01*
X26634644Y-6822644D01*
X26634644Y-6893356D01*
X26705356Y-6893356D01*
X26705356Y-7274356D02*
X26705356Y-7203644D01*
X26634644Y-7203644D01*
X26634644Y-7274356D01*
X26705356Y-7274356D01*
X26705356Y-11973356D02*
X26705356Y-11902644D01*
X26634644Y-11902644D01*
X26634644Y-11973356D01*
X26705356Y-11973356D01*
X26705356Y-12735356D02*
X26705356Y-12664644D01*
X26634644Y-12664644D01*
X26634644Y-12735356D01*
X26705356Y-12735356D01*
X26959356Y-3845356D02*
X26959356Y-3774644D01*
X26888644Y-3774644D01*
X26888644Y-3845356D01*
X26959356Y-3845356D01*
X26959356Y-6131356D02*
X26959356Y-6060644D01*
X26888644Y-6060644D01*
X26888644Y-6131356D01*
X26959356Y-6131356D01*
X26959356Y-6893356D02*
X26959356Y-6822644D01*
X26888644Y-6822644D01*
X26888644Y-6893356D01*
X26959356Y-6893356D01*
X26959356Y-7274356D02*
X26959356Y-7203644D01*
X26888644Y-7203644D01*
X26888644Y-7274356D01*
X26959356Y-7274356D01*
X26959356Y-11973356D02*
X26959356Y-11902644D01*
X26888644Y-11902644D01*
X26888644Y-11973356D01*
X26959356Y-11973356D01*
X26959356Y-12735356D02*
X26959356Y-12664644D01*
X26888644Y-12664644D01*
X26888644Y-12735356D01*
X26959356Y-12735356D01*
X27213356Y-3845356D02*
X27213356Y-3774644D01*
X27142644Y-3774644D01*
X27142644Y-3845356D01*
X27213356Y-3845356D01*
X27213356Y-6131356D02*
X27213356Y-6060644D01*
X27142644Y-6060644D01*
X27142644Y-6131356D01*
X27213356Y-6131356D01*
X27213356Y-6893356D02*
X27213356Y-6822644D01*
X27142644Y-6822644D01*
X27142644Y-6893356D01*
X27213356Y-6893356D01*
X27213356Y-7274356D02*
X27213356Y-7203644D01*
X27142644Y-7203644D01*
X27142644Y-7274356D01*
X27213356Y-7274356D01*
X27213356Y-11973356D02*
X27213356Y-11902644D01*
X27142644Y-11902644D01*
X27142644Y-11973356D01*
X27213356Y-11973356D01*
X27213356Y-12735356D02*
X27213356Y-12664644D01*
X27142644Y-12664644D01*
X27142644Y-12735356D01*
X27213356Y-12735356D01*
X27467356Y-2323856D02*
X27467356Y-2253144D01*
X27396644Y-2253144D01*
X27396644Y-2323856D01*
X27467356Y-2323856D01*
X27467356Y-3845356D02*
X27467356Y-3774644D01*
X27396644Y-3774644D01*
X27396644Y-3845356D01*
X27467356Y-3845356D01*
X27467356Y-6131356D02*
X27467356Y-6060644D01*
X27396644Y-6060644D01*
X27396644Y-6131356D01*
X27467356Y-6131356D01*
X27467356Y-6893356D02*
X27467356Y-6822644D01*
X27396644Y-6822644D01*
X27396644Y-6893356D01*
X27467356Y-6893356D01*
X27467356Y-7274356D02*
X27467356Y-7203644D01*
X27396644Y-7203644D01*
X27396644Y-7274356D01*
X27467356Y-7274356D01*
X27467356Y-11973356D02*
X27467356Y-11902644D01*
X27396644Y-11902644D01*
X27396644Y-11973356D01*
X27467356Y-11973356D01*
X27467356Y-12735356D02*
X27467356Y-12664644D01*
X27396644Y-12664644D01*
X27396644Y-12735356D01*
X27467356Y-12735356D01*
X27721356Y-2323856D02*
X27721356Y-2253144D01*
X27650644Y-2253144D01*
X27650644Y-2323856D01*
X27721356Y-2323856D01*
X27721356Y-3845356D02*
X27721356Y-3774644D01*
X27650644Y-3774644D01*
X27650644Y-3845356D01*
X27721356Y-3845356D01*
X27721356Y-6131356D02*
X27721356Y-6060644D01*
X27650644Y-6060644D01*
X27650644Y-6131356D01*
X27721356Y-6131356D01*
X27721356Y-6893356D02*
X27721356Y-6822644D01*
X27650644Y-6822644D01*
X27650644Y-6893356D01*
X27721356Y-6893356D01*
X27721356Y-7274356D02*
X27721356Y-7203644D01*
X27650644Y-7203644D01*
X27650644Y-7274356D01*
X27721356Y-7274356D01*
X27721356Y-11973356D02*
X27721356Y-11902644D01*
X27650644Y-11902644D01*
X27650644Y-11973356D01*
X27721356Y-11973356D01*
X27721356Y-12735356D02*
X27721356Y-12664644D01*
X27650644Y-12664644D01*
X27650644Y-12735356D01*
X27721356Y-12735356D01*
X27975356Y-2323856D02*
X27975356Y-2253144D01*
X27904644Y-2253144D01*
X27904644Y-2323856D01*
X27975356Y-2323856D01*
X27975356Y-3845356D02*
X27975356Y-3774644D01*
X27904644Y-3774644D01*
X27904644Y-3845356D01*
X27975356Y-3845356D01*
X28229356Y-2323856D02*
X28229356Y-2253144D01*
X28158644Y-2253144D01*
X28158644Y-2323856D01*
X28229356Y-2323856D01*
X28229356Y-3845356D02*
X28229356Y-3774644D01*
X28158644Y-3774644D01*
X28158644Y-3845356D01*
X28229356Y-3845356D01*
X28483356Y-2323856D02*
X28483356Y-2253144D01*
X28412644Y-2253144D01*
X28412644Y-2323856D01*
X28483356Y-2323856D01*
X28483356Y-3845356D02*
X28483356Y-3774644D01*
X28412644Y-3774644D01*
X28412644Y-3845356D01*
X28483356Y-3845356D01*
X28737356Y-2323856D02*
X28737356Y-2253144D01*
X28666644Y-2253144D01*
X28666644Y-2323856D01*
X28737356Y-2323856D01*
X28737356Y-3845356D02*
X28737356Y-3774644D01*
X28666644Y-3774644D01*
X28666644Y-3845356D01*
X28737356Y-3845356D01*
X28991356Y-2323856D02*
X28991356Y-2253144D01*
X28920644Y-2253144D01*
X28920644Y-2323856D01*
X28991356Y-2323856D01*
X28991356Y-3845356D02*
X28991356Y-3774644D01*
X28920644Y-3774644D01*
X28920644Y-3845356D01*
X28991356Y-3845356D01*
X29245356Y-2323856D02*
X29245356Y-2253144D01*
X29174644Y-2253144D01*
X29174644Y-2323856D01*
X29245356Y-2323856D01*
X29245356Y-3845356D02*
X29245356Y-3774644D01*
X29174644Y-3774644D01*
X29174644Y-3845356D01*
X29245356Y-3845356D01*
X29499356Y-2323856D02*
X29499356Y-2253144D01*
X29428644Y-2253144D01*
X29428644Y-2323856D01*
X29499356Y-2323856D01*
X29499356Y-3845356D02*
X29499356Y-3774644D01*
X29428644Y-3774644D01*
X29428644Y-3845356D01*
X29499356Y-3845356D01*
X29753356Y-2323856D02*
X29753356Y-2253144D01*
X29682644Y-2253144D01*
X29682644Y-2323856D01*
X29753356Y-2323856D01*
X29753356Y-3845356D02*
X29753356Y-3774644D01*
X29682644Y-3774644D01*
X29682644Y-3845356D01*
X29753356Y-3845356D01*
X30642356Y-2321356D02*
X30642356Y-2250644D01*
X30571644Y-2250644D01*
X30571644Y-2321356D01*
X30642356Y-2321356D01*
X30769356Y-6131356D02*
X30769356Y-6060644D01*
X30698644Y-6060644D01*
X30698644Y-6131356D01*
X30769356Y-6131356D01*
X30896356Y-2321356D02*
X30896356Y-2250644D01*
X30825644Y-2250644D01*
X30825644Y-2321356D01*
X30896356Y-2321356D01*
X31023356Y-6131356D02*
X31023356Y-6060644D01*
X30952644Y-6060644D01*
X30952644Y-6131356D01*
X31023356Y-6131356D01*
X31150356Y-2321356D02*
X31150356Y-2250644D01*
X31079644Y-2250644D01*
X31079644Y-2321356D01*
X31150356Y-2321356D01*
X31277356Y-6131356D02*
X31277356Y-6060644D01*
X31206644Y-6060644D01*
X31206644Y-6131356D01*
X31277356Y-6131356D01*
X31404356Y-2321356D02*
X31404356Y-2250644D01*
X31333644Y-2250644D01*
X31333644Y-2321356D01*
X31404356Y-2321356D01*
X31531356Y-6131356D02*
X31531356Y-6060644D01*
X31460644Y-6060644D01*
X31460644Y-6131356D01*
X31531356Y-6131356D01*
X31658356Y-2321356D02*
X31658356Y-2250644D01*
X31587644Y-2250644D01*
X31587644Y-2321356D01*
X31658356Y-2321356D01*
X31785356Y-6131356D02*
X31785356Y-6060644D01*
X31714644Y-6060644D01*
X31714644Y-6131356D01*
X31785356Y-6131356D01*
X31912356Y-2321356D02*
X31912356Y-2250644D01*
X31841644Y-2250644D01*
X31841644Y-2321356D01*
X31912356Y-2321356D01*
X32039356Y-6131356D02*
X32039356Y-6060644D01*
X31968644Y-6060644D01*
X31968644Y-6131356D01*
X32039356Y-6131356D01*
X32166356Y-2321356D02*
X32166356Y-2250644D01*
X32095644Y-2250644D01*
X32095644Y-2321356D01*
X32166356Y-2321356D01*
X32293356Y-6131356D02*
X32293356Y-6060644D01*
X32222644Y-6060644D01*
X32222644Y-6131356D01*
X32293356Y-6131356D01*
X32420356Y-2321356D02*
X32420356Y-2250644D01*
X32349644Y-2250644D01*
X32349644Y-2321356D01*
X32420356Y-2321356D01*
X32547356Y-6131356D02*
X32547356Y-6060644D01*
X32476644Y-6060644D01*
X32476644Y-6131356D01*
X32547356Y-6131356D01*
X32674356Y-2321356D02*
X32674356Y-2250644D01*
X32603644Y-2250644D01*
X32603644Y-2321356D01*
X32674356Y-2321356D01*
X32801356Y-3845356D02*
X32801356Y-3774644D01*
X32730644Y-3774644D01*
X32730644Y-3845356D01*
X32801356Y-3845356D01*
X32801356Y-6131356D02*
X32801356Y-6060644D01*
X32730644Y-6060644D01*
X32730644Y-6131356D01*
X32801356Y-6131356D01*
X32801356Y-6893356D02*
X32801356Y-6822644D01*
X32730644Y-6822644D01*
X32730644Y-6893356D01*
X32801356Y-6893356D01*
X32801356Y-7274356D02*
X32801356Y-7203644D01*
X32730644Y-7203644D01*
X32730644Y-7274356D01*
X32801356Y-7274356D01*
X32801356Y-11592356D02*
X32801356Y-11521644D01*
X32730644Y-11521644D01*
X32730644Y-11592356D01*
X32801356Y-11592356D01*
X32801356Y-11973356D02*
X32801356Y-11902644D01*
X32730644Y-11902644D01*
X32730644Y-11973356D01*
X32801356Y-11973356D01*
X32801356Y-17815356D02*
X32801356Y-17744644D01*
X32730644Y-17744644D01*
X32730644Y-17815356D01*
X32801356Y-17815356D01*
X32928356Y-2321356D02*
X32928356Y-2250644D01*
X32857644Y-2250644D01*
X32857644Y-2321356D01*
X32928356Y-2321356D01*
X33055356Y-3845356D02*
X33055356Y-3774644D01*
X32984644Y-3774644D01*
X32984644Y-3845356D01*
X33055356Y-3845356D01*
X33055356Y-6131356D02*
X33055356Y-6060644D01*
X32984644Y-6060644D01*
X32984644Y-6131356D01*
X33055356Y-6131356D01*
X33055356Y-6893356D02*
X33055356Y-6822644D01*
X32984644Y-6822644D01*
X32984644Y-6893356D01*
X33055356Y-6893356D01*
X33055356Y-7274356D02*
X33055356Y-7203644D01*
X32984644Y-7203644D01*
X32984644Y-7274356D01*
X33055356Y-7274356D01*
X33055356Y-11592356D02*
X33055356Y-11521644D01*
X32984644Y-11521644D01*
X32984644Y-11592356D01*
X33055356Y-11592356D01*
X33055356Y-11973356D02*
X33055356Y-11902644D01*
X32984644Y-11902644D01*
X32984644Y-11973356D01*
X33055356Y-11973356D01*
X33055356Y-17815356D02*
X33055356Y-17744644D01*
X32984644Y-17744644D01*
X32984644Y-17815356D01*
X33055356Y-17815356D01*
X33309356Y-3845356D02*
X33309356Y-3774644D01*
X33238644Y-3774644D01*
X33238644Y-3845356D01*
X33309356Y-3845356D01*
X33309356Y-6893356D02*
X33309356Y-6822644D01*
X33238644Y-6822644D01*
X33238644Y-6893356D01*
X33309356Y-6893356D01*
X33309356Y-7274356D02*
X33309356Y-7203644D01*
X33238644Y-7203644D01*
X33238644Y-7274356D01*
X33309356Y-7274356D01*
X33309356Y-11592356D02*
X33309356Y-11521644D01*
X33238644Y-11521644D01*
X33238644Y-11592356D01*
X33309356Y-11592356D01*
X33309356Y-11973356D02*
X33309356Y-11902644D01*
X33238644Y-11902644D01*
X33238644Y-11973356D01*
X33309356Y-11973356D01*
X33309356Y-17815356D02*
X33309356Y-17744644D01*
X33238644Y-17744644D01*
X33238644Y-17815356D01*
X33309356Y-17815356D01*
X33563356Y-3845356D02*
X33563356Y-3774644D01*
X33492644Y-3774644D01*
X33492644Y-3845356D01*
X33563356Y-3845356D01*
X33563356Y-6893356D02*
X33563356Y-6822644D01*
X33492644Y-6822644D01*
X33492644Y-6893356D01*
X33563356Y-6893356D01*
X33563356Y-7274356D02*
X33563356Y-7203644D01*
X33492644Y-7203644D01*
X33492644Y-7274356D01*
X33563356Y-7274356D01*
X33563356Y-11592356D02*
X33563356Y-11521644D01*
X33492644Y-11521644D01*
X33492644Y-11592356D01*
X33563356Y-11592356D01*
X33563356Y-11973356D02*
X33563356Y-11902644D01*
X33492644Y-11902644D01*
X33492644Y-11973356D01*
X33563356Y-11973356D01*
X33563356Y-17815356D02*
X33563356Y-17744644D01*
X33492644Y-17744644D01*
X33492644Y-17815356D01*
X33563356Y-17815356D01*
X33817356Y-3845356D02*
X33817356Y-3774644D01*
X33746644Y-3774644D01*
X33746644Y-3845356D01*
X33817356Y-3845356D01*
X33817356Y-6893356D02*
X33817356Y-6822644D01*
X33746644Y-6822644D01*
X33746644Y-6893356D01*
X33817356Y-6893356D01*
X33817356Y-7274356D02*
X33817356Y-7203644D01*
X33746644Y-7203644D01*
X33746644Y-7274356D01*
X33817356Y-7274356D01*
X33817356Y-11592356D02*
X33817356Y-11521644D01*
X33746644Y-11521644D01*
X33746644Y-11592356D01*
X33817356Y-11592356D01*
X33817356Y-11973356D02*
X33817356Y-11902644D01*
X33746644Y-11902644D01*
X33746644Y-11973356D01*
X33817356Y-11973356D01*
X33817356Y-17815356D02*
X33817356Y-17744644D01*
X33746644Y-17744644D01*
X33746644Y-17815356D01*
X33817356Y-17815356D01*
X34071356Y-3845356D02*
X34071356Y-3774644D01*
X34000644Y-3774644D01*
X34000644Y-3845356D01*
X34071356Y-3845356D01*
X34071356Y-6893356D02*
X34071356Y-6822644D01*
X34000644Y-6822644D01*
X34000644Y-6893356D01*
X34071356Y-6893356D01*
X34071356Y-7274356D02*
X34071356Y-7203644D01*
X34000644Y-7203644D01*
X34000644Y-7274356D01*
X34071356Y-7274356D01*
X34071356Y-11592356D02*
X34071356Y-11521644D01*
X34000644Y-11521644D01*
X34000644Y-11592356D01*
X34071356Y-11592356D01*
X34071356Y-11973356D02*
X34071356Y-11902644D01*
X34000644Y-11902644D01*
X34000644Y-11973356D01*
X34071356Y-11973356D01*
X34071356Y-17815356D02*
X34071356Y-17744644D01*
X34000644Y-17744644D01*
X34000644Y-17815356D01*
X34071356Y-17815356D01*
X34325356Y-3845356D02*
X34325356Y-3774644D01*
X34254644Y-3774644D01*
X34254644Y-3845356D01*
X34325356Y-3845356D01*
X34325356Y-6893356D02*
X34325356Y-6822644D01*
X34254644Y-6822644D01*
X34254644Y-6893356D01*
X34325356Y-6893356D01*
X34325356Y-7274356D02*
X34325356Y-7203644D01*
X34254644Y-7203644D01*
X34254644Y-7274356D01*
X34325356Y-7274356D01*
X34325356Y-11592356D02*
X34325356Y-11521644D01*
X34254644Y-11521644D01*
X34254644Y-11592356D01*
X34325356Y-11592356D01*
X34325356Y-11973356D02*
X34325356Y-11902644D01*
X34254644Y-11902644D01*
X34254644Y-11973356D01*
X34325356Y-11973356D01*
X34325356Y-17815356D02*
X34325356Y-17744644D01*
X34254644Y-17744644D01*
X34254644Y-17815356D01*
X34325356Y-17815356D01*
X34579356Y-3845356D02*
X34579356Y-3774644D01*
X34508644Y-3774644D01*
X34508644Y-3845356D01*
X34579356Y-3845356D01*
X34579356Y-6893356D02*
X34579356Y-6822644D01*
X34508644Y-6822644D01*
X34508644Y-6893356D01*
X34579356Y-6893356D01*
X34579356Y-7274356D02*
X34579356Y-7203644D01*
X34508644Y-7203644D01*
X34508644Y-7274356D01*
X34579356Y-7274356D01*
X34579356Y-11592356D02*
X34579356Y-11521644D01*
X34508644Y-11521644D01*
X34508644Y-11592356D01*
X34579356Y-11592356D01*
X34579356Y-11973356D02*
X34579356Y-11902644D01*
X34508644Y-11902644D01*
X34508644Y-11973356D01*
X34579356Y-11973356D01*
X34579356Y-17815356D02*
X34579356Y-17744644D01*
X34508644Y-17744644D01*
X34508644Y-17815356D01*
X34579356Y-17815356D01*
X34833356Y-3845356D02*
X34833356Y-3774644D01*
X34762644Y-3774644D01*
X34762644Y-3845356D01*
X34833356Y-3845356D01*
X34833356Y-6893356D02*
X34833356Y-6822644D01*
X34762644Y-6822644D01*
X34762644Y-6893356D01*
X34833356Y-6893356D01*
X34833356Y-7274356D02*
X34833356Y-7203644D01*
X34762644Y-7203644D01*
X34762644Y-7274356D01*
X34833356Y-7274356D01*
X34833356Y-11592356D02*
X34833356Y-11521644D01*
X34762644Y-11521644D01*
X34762644Y-11592356D01*
X34833356Y-11592356D01*
X34833356Y-11973356D02*
X34833356Y-11902644D01*
X34762644Y-11902644D01*
X34762644Y-11973356D01*
X34833356Y-11973356D01*
X34833356Y-17815356D02*
X34833356Y-17744644D01*
X34762644Y-17744644D01*
X34762644Y-17815356D01*
X34833356Y-17815356D01*
X35087356Y-3845356D02*
X35087356Y-3774644D01*
X35016644Y-3774644D01*
X35016644Y-3845356D01*
X35087356Y-3845356D01*
X35087356Y-6893356D02*
X35087356Y-6822644D01*
X35016644Y-6822644D01*
X35016644Y-6893356D01*
X35087356Y-6893356D01*
X35087356Y-7274356D02*
X35087356Y-7203644D01*
X35016644Y-7203644D01*
X35016644Y-7274356D01*
X35087356Y-7274356D01*
X35087356Y-11592356D02*
X35087356Y-11521644D01*
X35016644Y-11521644D01*
X35016644Y-11592356D01*
X35087356Y-11592356D01*
X35087356Y-11973356D02*
X35087356Y-11902644D01*
X35016644Y-11902644D01*
X35016644Y-11973356D01*
X35087356Y-11973356D01*
X35087356Y-17815356D02*
X35087356Y-17744644D01*
X35016644Y-17744644D01*
X35016644Y-17815356D01*
X35087356Y-17815356D01*
D15*
X12477000Y-2947500D02*
X12593500Y-2831000D01*
X12477000Y-2714500D01*
X12360500Y-2831000D01*
X12477000Y-2947500D01*
X13681000Y-2947500D02*
X13797500Y-2831000D01*
X13681000Y-2714500D01*
X13564500Y-2831000D01*
X13681000Y-2947500D01*
D11*
X2030619Y-19111476D02*
X2030619Y-18911476D01*
X2078238Y-18911476D01*
X2106810Y-18921000D01*
X2125857Y-18940048D01*
X2135381Y-18959095D01*
X2144905Y-18997190D01*
X2144905Y-19025762D01*
X2135381Y-19063857D01*
X2125857Y-19082905D01*
X2106810Y-19101952D01*
X2078238Y-19111476D01*
X2030619Y-19111476D01*
X2230619Y-19111476D02*
X2230619Y-18978143D01*
X2230619Y-19016238D02*
X2240143Y-18997190D01*
X2249667Y-18987667D01*
X2268714Y-18978143D01*
X2287762Y-18978143D01*
X2354429Y-19111476D02*
X2354429Y-18978143D01*
X2354429Y-18911476D02*
X2344905Y-18921000D01*
X2354429Y-18930524D01*
X2363952Y-18921000D01*
X2354429Y-18911476D01*
X2354429Y-18930524D01*
X2478238Y-19111476D02*
X2459190Y-19101952D01*
X2449667Y-19082905D01*
X2449667Y-18911476D01*
X2583000Y-19111476D02*
X2563952Y-19101952D01*
X2554429Y-19082905D01*
X2554429Y-18911476D01*
X2811571Y-19111476D02*
X2811571Y-18911476D01*
X2878238Y-19054333D01*
X2944905Y-18911476D01*
X2944905Y-19111476D01*
X3125857Y-19111476D02*
X3125857Y-19006714D01*
X3116333Y-18987667D01*
X3097286Y-18978143D01*
X3059190Y-18978143D01*
X3040143Y-18987667D01*
X3125857Y-19101952D02*
X3106809Y-19111476D01*
X3059190Y-19111476D01*
X3040143Y-19101952D01*
X3030619Y-19082905D01*
X3030619Y-19063857D01*
X3040143Y-19044810D01*
X3059190Y-19035286D01*
X3106809Y-19035286D01*
X3125857Y-19025762D01*
X3221095Y-18978143D02*
X3221095Y-19178143D01*
X3221095Y-18987667D02*
X3240143Y-18978143D01*
X3278238Y-18978143D01*
X3297286Y-18987667D01*
X3306809Y-18997190D01*
X3316333Y-19016238D01*
X3316333Y-19073381D01*
X3306809Y-19092429D01*
X3297286Y-19101952D01*
X3278238Y-19111476D01*
X3240143Y-19111476D01*
X3221095Y-19101952D01*
X3402048Y-19092429D02*
X3411571Y-19101952D01*
X3402048Y-19111476D01*
X3392524Y-19101952D01*
X3402048Y-19092429D01*
X3402048Y-19111476D01*
X3402048Y-18987667D02*
X3411571Y-18997190D01*
X3402048Y-19006714D01*
X3392524Y-18997190D01*
X3402048Y-18987667D01*
X3402048Y-19006714D01*
D12*
X1733000Y-19421000D02*
X1773000Y-19461000D01*
X1773000Y-19421000D02*
X1733000Y-19461000D01*
D11*
X2068714Y-19331476D02*
X2087762Y-19331476D01*
X2106810Y-19341000D01*
X2116333Y-19350524D01*
X2125857Y-19369571D01*
X2135381Y-19407667D01*
X2135381Y-19455286D01*
X2125857Y-19493381D01*
X2116333Y-19512429D01*
X2106810Y-19521952D01*
X2087762Y-19531476D01*
X2068714Y-19531476D01*
X2049667Y-19521952D01*
X2040143Y-19512429D01*
X2030619Y-19493381D01*
X2021095Y-19455286D01*
X2021095Y-19407667D01*
X2030619Y-19369571D01*
X2040143Y-19350524D01*
X2049667Y-19341000D01*
X2068714Y-19331476D01*
X2221095Y-19512429D02*
X2230619Y-19521952D01*
X2221095Y-19531476D01*
X2211571Y-19521952D01*
X2221095Y-19512429D01*
X2221095Y-19531476D01*
X2402048Y-19398143D02*
X2402048Y-19531476D01*
X2354429Y-19321952D02*
X2306810Y-19464810D01*
X2430619Y-19464810D01*
X2544905Y-19331476D02*
X2563952Y-19331476D01*
X2583000Y-19341000D01*
X2592524Y-19350524D01*
X2602048Y-19369571D01*
X2611571Y-19407667D01*
X2611571Y-19455286D01*
X2602048Y-19493381D01*
X2592524Y-19512429D01*
X2583000Y-19521952D01*
X2563952Y-19531476D01*
X2544905Y-19531476D01*
X2525857Y-19521952D01*
X2516333Y-19512429D01*
X2506810Y-19493381D01*
X2497286Y-19455286D01*
X2497286Y-19407667D01*
X2506810Y-19369571D01*
X2516333Y-19350524D01*
X2525857Y-19341000D01*
X2544905Y-19331476D01*
X2735381Y-19331476D02*
X2754429Y-19331476D01*
X2773476Y-19341000D01*
X2783000Y-19350524D01*
X2792524Y-19369571D01*
X2802048Y-19407667D01*
X2802048Y-19455286D01*
X2792524Y-19493381D01*
X2783000Y-19512429D01*
X2773476Y-19521952D01*
X2754429Y-19531476D01*
X2735381Y-19531476D01*
X2716333Y-19521952D01*
X2706810Y-19512429D01*
X2697286Y-19493381D01*
X2687762Y-19455286D01*
X2687762Y-19407667D01*
X2697286Y-19369571D01*
X2706810Y-19350524D01*
X2716333Y-19341000D01*
X2735381Y-19331476D01*
X2887762Y-19531476D02*
X2887762Y-19398143D01*
X2887762Y-19417190D02*
X2897286Y-19407667D01*
X2916333Y-19398143D01*
X2944905Y-19398143D01*
X2963952Y-19407667D01*
X2973476Y-19426714D01*
X2973476Y-19531476D01*
X2973476Y-19426714D02*
X2983000Y-19407667D01*
X3002048Y-19398143D01*
X3030619Y-19398143D01*
X3049667Y-19407667D01*
X3059190Y-19426714D01*
X3059190Y-19531476D01*
X3154428Y-19531476D02*
X3154428Y-19398143D01*
X3154428Y-19417190D02*
X3163952Y-19407667D01*
X3183000Y-19398143D01*
X3211571Y-19398143D01*
X3230619Y-19407667D01*
X3240143Y-19426714D01*
X3240143Y-19531476D01*
X3240143Y-19426714D02*
X3249667Y-19407667D01*
X3268714Y-19398143D01*
X3297286Y-19398143D01*
X3316333Y-19407667D01*
X3325857Y-19426714D01*
X3325857Y-19531476D01*
X3716333Y-19321952D02*
X3544905Y-19579095D01*
X3973476Y-19331476D02*
X3992524Y-19331476D01*
X4011571Y-19341000D01*
X4021095Y-19350524D01*
X4030619Y-19369571D01*
X4040143Y-19407667D01*
X4040143Y-19455286D01*
X4030619Y-19493381D01*
X4021095Y-19512429D01*
X4011571Y-19521952D01*
X3992524Y-19531476D01*
X3973476Y-19531476D01*
X3954428Y-19521952D01*
X3944905Y-19512429D01*
X3935381Y-19493381D01*
X3925857Y-19455286D01*
X3925857Y-19407667D01*
X3935381Y-19369571D01*
X3944905Y-19350524D01*
X3954428Y-19341000D01*
X3973476Y-19331476D01*
X4125857Y-19512429D02*
X4135381Y-19521952D01*
X4125857Y-19531476D01*
X4116333Y-19521952D01*
X4125857Y-19512429D01*
X4125857Y-19531476D01*
X4259190Y-19331476D02*
X4278238Y-19331476D01*
X4297286Y-19341000D01*
X4306810Y-19350524D01*
X4316333Y-19369571D01*
X4325857Y-19407667D01*
X4325857Y-19455286D01*
X4316333Y-19493381D01*
X4306810Y-19512429D01*
X4297286Y-19521952D01*
X4278238Y-19531476D01*
X4259190Y-19531476D01*
X4240143Y-19521952D01*
X4230619Y-19512429D01*
X4221095Y-19493381D01*
X4211571Y-19455286D01*
X4211571Y-19407667D01*
X4221095Y-19369571D01*
X4230619Y-19350524D01*
X4240143Y-19341000D01*
X4259190Y-19331476D01*
X4516333Y-19531476D02*
X4402048Y-19531476D01*
X4459190Y-19531476D02*
X4459190Y-19331476D01*
X4440143Y-19360048D01*
X4421095Y-19379095D01*
X4402048Y-19388619D01*
X4697286Y-19331476D02*
X4602048Y-19331476D01*
X4592524Y-19426714D01*
X4602048Y-19417190D01*
X4621095Y-19407667D01*
X4668714Y-19407667D01*
X4687762Y-19417190D01*
X4697286Y-19426714D01*
X4706810Y-19445762D01*
X4706810Y-19493381D01*
X4697286Y-19512429D01*
X4687762Y-19521952D01*
X4668714Y-19531476D01*
X4621095Y-19531476D01*
X4602048Y-19521952D01*
X4592524Y-19512429D01*
X4773476Y-19331476D02*
X4906810Y-19331476D01*
X4821095Y-19531476D01*
X4973476Y-19331476D02*
X4973476Y-19369571D01*
X5049667Y-19331476D02*
X5049667Y-19369571D01*
X5344905Y-19607667D02*
X5335381Y-19598143D01*
X5316333Y-19569571D01*
X5306810Y-19550524D01*
X5297286Y-19521952D01*
X5287762Y-19474333D01*
X5287762Y-19436238D01*
X5297286Y-19388619D01*
X5306810Y-19360048D01*
X5316333Y-19341000D01*
X5335381Y-19312429D01*
X5344905Y-19302905D01*
X5525857Y-19531476D02*
X5411571Y-19531476D01*
X5468714Y-19531476D02*
X5468714Y-19331476D01*
X5449667Y-19360048D01*
X5430619Y-19379095D01*
X5411571Y-19388619D01*
X5602048Y-19350524D02*
X5611571Y-19341000D01*
X5630619Y-19331476D01*
X5678238Y-19331476D01*
X5697286Y-19341000D01*
X5706809Y-19350524D01*
X5716333Y-19369571D01*
X5716333Y-19388619D01*
X5706809Y-19417190D01*
X5592524Y-19531476D01*
X5716333Y-19531476D01*
X5783000Y-19331476D02*
X5916333Y-19331476D01*
X5830619Y-19531476D01*
X6144905Y-19531476D02*
X6144905Y-19331476D01*
X6230619Y-19531476D02*
X6230619Y-19426714D01*
X6221095Y-19407667D01*
X6202048Y-19398143D01*
X6173476Y-19398143D01*
X6154428Y-19407667D01*
X6144905Y-19417190D01*
X6354428Y-19531476D02*
X6335381Y-19521952D01*
X6325857Y-19512429D01*
X6316333Y-19493381D01*
X6316333Y-19436238D01*
X6325857Y-19417190D01*
X6335381Y-19407667D01*
X6354428Y-19398143D01*
X6383000Y-19398143D01*
X6402048Y-19407667D01*
X6411571Y-19417190D01*
X6421095Y-19436238D01*
X6421095Y-19493381D01*
X6411571Y-19512429D01*
X6402048Y-19521952D01*
X6383000Y-19531476D01*
X6354428Y-19531476D01*
X6535381Y-19531476D02*
X6516333Y-19521952D01*
X6506809Y-19502905D01*
X6506809Y-19331476D01*
X6687762Y-19521952D02*
X6668714Y-19531476D01*
X6630619Y-19531476D01*
X6611571Y-19521952D01*
X6602048Y-19502905D01*
X6602048Y-19426714D01*
X6611571Y-19407667D01*
X6630619Y-19398143D01*
X6668714Y-19398143D01*
X6687762Y-19407667D01*
X6697286Y-19426714D01*
X6697286Y-19445762D01*
X6602048Y-19464810D01*
X6773476Y-19521952D02*
X6792524Y-19531476D01*
X6830619Y-19531476D01*
X6849667Y-19521952D01*
X6859190Y-19502905D01*
X6859190Y-19493381D01*
X6849667Y-19474333D01*
X6830619Y-19464810D01*
X6802048Y-19464810D01*
X6783000Y-19455286D01*
X6773476Y-19436238D01*
X6773476Y-19426714D01*
X6783000Y-19407667D01*
X6802048Y-19398143D01*
X6830619Y-19398143D01*
X6849667Y-19407667D01*
X6925857Y-19607667D02*
X6935381Y-19598143D01*
X6954428Y-19569571D01*
X6963952Y-19550524D01*
X6973476Y-19521952D01*
X6983000Y-19474333D01*
X6983000Y-19436238D01*
X6973476Y-19388619D01*
X6963952Y-19360048D01*
X6954428Y-19341000D01*
X6935381Y-19312429D01*
X6925857Y-19302905D01*
D13*
X1773000Y-19705000D02*
G75*
G03*
X1773000Y-19705000I-40000J0D01*
G01*
D11*
X2068714Y-19595476D02*
X2087762Y-19595476D01*
X2106810Y-19605000D01*
X2116333Y-19614524D01*
X2125857Y-19633571D01*
X2135381Y-19671667D01*
X2135381Y-19719286D01*
X2125857Y-19757381D01*
X2116333Y-19776429D01*
X2106810Y-19785952D01*
X2087762Y-19795476D01*
X2068714Y-19795476D01*
X2049667Y-19785952D01*
X2040143Y-19776429D01*
X2030619Y-19757381D01*
X2021095Y-19719286D01*
X2021095Y-19671667D01*
X2030619Y-19633571D01*
X2040143Y-19614524D01*
X2049667Y-19605000D01*
X2068714Y-19595476D01*
X2221095Y-19776429D02*
X2230619Y-19785952D01*
X2221095Y-19795476D01*
X2211571Y-19785952D01*
X2221095Y-19776429D01*
X2221095Y-19795476D01*
X2344905Y-19681190D02*
X2325857Y-19671667D01*
X2316333Y-19662143D01*
X2306810Y-19643095D01*
X2306810Y-19633571D01*
X2316333Y-19614524D01*
X2325857Y-19605000D01*
X2344905Y-19595476D01*
X2383000Y-19595476D01*
X2402048Y-19605000D01*
X2411571Y-19614524D01*
X2421095Y-19633571D01*
X2421095Y-19643095D01*
X2411571Y-19662143D01*
X2402048Y-19671667D01*
X2383000Y-19681190D01*
X2344905Y-19681190D01*
X2325857Y-19690714D01*
X2316333Y-19700238D01*
X2306810Y-19719286D01*
X2306810Y-19757381D01*
X2316333Y-19776429D01*
X2325857Y-19785952D01*
X2344905Y-19795476D01*
X2383000Y-19795476D01*
X2402048Y-19785952D01*
X2411571Y-19776429D01*
X2421095Y-19757381D01*
X2421095Y-19719286D01*
X2411571Y-19700238D01*
X2402048Y-19690714D01*
X2383000Y-19681190D01*
X2544905Y-19595476D02*
X2563952Y-19595476D01*
X2583000Y-19605000D01*
X2592524Y-19614524D01*
X2602048Y-19633571D01*
X2611571Y-19671667D01*
X2611571Y-19719286D01*
X2602048Y-19757381D01*
X2592524Y-19776429D01*
X2583000Y-19785952D01*
X2563952Y-19795476D01*
X2544905Y-19795476D01*
X2525857Y-19785952D01*
X2516333Y-19776429D01*
X2506810Y-19757381D01*
X2497286Y-19719286D01*
X2497286Y-19671667D01*
X2506810Y-19633571D01*
X2516333Y-19614524D01*
X2525857Y-19605000D01*
X2544905Y-19595476D01*
X2735381Y-19595476D02*
X2754429Y-19595476D01*
X2773476Y-19605000D01*
X2783000Y-19614524D01*
X2792524Y-19633571D01*
X2802048Y-19671667D01*
X2802048Y-19719286D01*
X2792524Y-19757381D01*
X2783000Y-19776429D01*
X2773476Y-19785952D01*
X2754429Y-19795476D01*
X2735381Y-19795476D01*
X2716333Y-19785952D01*
X2706810Y-19776429D01*
X2697286Y-19757381D01*
X2687762Y-19719286D01*
X2687762Y-19671667D01*
X2697286Y-19633571D01*
X2706810Y-19614524D01*
X2716333Y-19605000D01*
X2735381Y-19595476D01*
X2887762Y-19795476D02*
X2887762Y-19662143D01*
X2887762Y-19681190D02*
X2897286Y-19671667D01*
X2916333Y-19662143D01*
X2944905Y-19662143D01*
X2963952Y-19671667D01*
X2973476Y-19690714D01*
X2973476Y-19795476D01*
X2973476Y-19690714D02*
X2983000Y-19671667D01*
X3002048Y-19662143D01*
X3030619Y-19662143D01*
X3049667Y-19671667D01*
X3059190Y-19690714D01*
X3059190Y-19795476D01*
X3154428Y-19795476D02*
X3154428Y-19662143D01*
X3154428Y-19681190D02*
X3163952Y-19671667D01*
X3183000Y-19662143D01*
X3211571Y-19662143D01*
X3230619Y-19671667D01*
X3240143Y-19690714D01*
X3240143Y-19795476D01*
X3240143Y-19690714D02*
X3249667Y-19671667D01*
X3268714Y-19662143D01*
X3297286Y-19662143D01*
X3316333Y-19671667D01*
X3325857Y-19690714D01*
X3325857Y-19795476D01*
X3716333Y-19585952D02*
X3544905Y-19843095D01*
X3973476Y-19595476D02*
X3992524Y-19595476D01*
X4011571Y-19605000D01*
X4021095Y-19614524D01*
X4030619Y-19633571D01*
X4040143Y-19671667D01*
X4040143Y-19719286D01*
X4030619Y-19757381D01*
X4021095Y-19776429D01*
X4011571Y-19785952D01*
X3992524Y-19795476D01*
X3973476Y-19795476D01*
X3954428Y-19785952D01*
X3944905Y-19776429D01*
X3935381Y-19757381D01*
X3925857Y-19719286D01*
X3925857Y-19671667D01*
X3935381Y-19633571D01*
X3944905Y-19614524D01*
X3954428Y-19605000D01*
X3973476Y-19595476D01*
X4125857Y-19776429D02*
X4135381Y-19785952D01*
X4125857Y-19795476D01*
X4116333Y-19785952D01*
X4125857Y-19776429D01*
X4125857Y-19795476D01*
X4259190Y-19595476D02*
X4278238Y-19595476D01*
X4297286Y-19605000D01*
X4306810Y-19614524D01*
X4316333Y-19633571D01*
X4325857Y-19671667D01*
X4325857Y-19719286D01*
X4316333Y-19757381D01*
X4306810Y-19776429D01*
X4297286Y-19785952D01*
X4278238Y-19795476D01*
X4259190Y-19795476D01*
X4240143Y-19785952D01*
X4230619Y-19776429D01*
X4221095Y-19757381D01*
X4211571Y-19719286D01*
X4211571Y-19671667D01*
X4221095Y-19633571D01*
X4230619Y-19614524D01*
X4240143Y-19605000D01*
X4259190Y-19595476D01*
X4392524Y-19595476D02*
X4516333Y-19595476D01*
X4449667Y-19671667D01*
X4478238Y-19671667D01*
X4497286Y-19681190D01*
X4506810Y-19690714D01*
X4516333Y-19709762D01*
X4516333Y-19757381D01*
X4506810Y-19776429D01*
X4497286Y-19785952D01*
X4478238Y-19795476D01*
X4421095Y-19795476D01*
X4402048Y-19785952D01*
X4392524Y-19776429D01*
X4706810Y-19795476D02*
X4592524Y-19795476D01*
X4649667Y-19795476D02*
X4649667Y-19595476D01*
X4630619Y-19624048D01*
X4611571Y-19643095D01*
X4592524Y-19652619D01*
X4887762Y-19595476D02*
X4792524Y-19595476D01*
X4783000Y-19690714D01*
X4792524Y-19681190D01*
X4811571Y-19671667D01*
X4859190Y-19671667D01*
X4878238Y-19681190D01*
X4887762Y-19690714D01*
X4897286Y-19709762D01*
X4897286Y-19757381D01*
X4887762Y-19776429D01*
X4878238Y-19785952D01*
X4859190Y-19795476D01*
X4811571Y-19795476D01*
X4792524Y-19785952D01*
X4783000Y-19776429D01*
X4973476Y-19595476D02*
X4973476Y-19633571D01*
X5049667Y-19595476D02*
X5049667Y-19633571D01*
X5344905Y-19871667D02*
X5335381Y-19862143D01*
X5316333Y-19833571D01*
X5306810Y-19814524D01*
X5297286Y-19785952D01*
X5287762Y-19738333D01*
X5287762Y-19700238D01*
X5297286Y-19652619D01*
X5306810Y-19624048D01*
X5316333Y-19605000D01*
X5335381Y-19576429D01*
X5344905Y-19566905D01*
X5411571Y-19614524D02*
X5421095Y-19605000D01*
X5440143Y-19595476D01*
X5487762Y-19595476D01*
X5506810Y-19605000D01*
X5516333Y-19614524D01*
X5525857Y-19633571D01*
X5525857Y-19652619D01*
X5516333Y-19681190D01*
X5402048Y-19795476D01*
X5525857Y-19795476D01*
X5602048Y-19614524D02*
X5611571Y-19605000D01*
X5630619Y-19595476D01*
X5678238Y-19595476D01*
X5697286Y-19605000D01*
X5706809Y-19614524D01*
X5716333Y-19633571D01*
X5716333Y-19652619D01*
X5706809Y-19681190D01*
X5592524Y-19795476D01*
X5716333Y-19795476D01*
X5954428Y-19795476D02*
X5954428Y-19595476D01*
X6040143Y-19795476D02*
X6040143Y-19690714D01*
X6030619Y-19671667D01*
X6011571Y-19662143D01*
X5983000Y-19662143D01*
X5963952Y-19671667D01*
X5954428Y-19681190D01*
X6163952Y-19795476D02*
X6144905Y-19785952D01*
X6135381Y-19776429D01*
X6125857Y-19757381D01*
X6125857Y-19700238D01*
X6135381Y-19681190D01*
X6144905Y-19671667D01*
X6163952Y-19662143D01*
X6192524Y-19662143D01*
X6211571Y-19671667D01*
X6221095Y-19681190D01*
X6230619Y-19700238D01*
X6230619Y-19757381D01*
X6221095Y-19776429D01*
X6211571Y-19785952D01*
X6192524Y-19795476D01*
X6163952Y-19795476D01*
X6344905Y-19795476D02*
X6325857Y-19785952D01*
X6316333Y-19766905D01*
X6316333Y-19595476D01*
X6497286Y-19785952D02*
X6478238Y-19795476D01*
X6440143Y-19795476D01*
X6421095Y-19785952D01*
X6411571Y-19766905D01*
X6411571Y-19690714D01*
X6421095Y-19671667D01*
X6440143Y-19662143D01*
X6478238Y-19662143D01*
X6497286Y-19671667D01*
X6506809Y-19690714D01*
X6506809Y-19709762D01*
X6411571Y-19728810D01*
X6583000Y-19785952D02*
X6602048Y-19795476D01*
X6640143Y-19795476D01*
X6659190Y-19785952D01*
X6668714Y-19766905D01*
X6668714Y-19757381D01*
X6659190Y-19738333D01*
X6640143Y-19728810D01*
X6611571Y-19728810D01*
X6592524Y-19719286D01*
X6583000Y-19700238D01*
X6583000Y-19690714D01*
X6592524Y-19671667D01*
X6611571Y-19662143D01*
X6640143Y-19662143D01*
X6659190Y-19671667D01*
X6735381Y-19871667D02*
X6744905Y-19862143D01*
X6763952Y-19833571D01*
X6773476Y-19814524D01*
X6783000Y-19785952D01*
X6792524Y-19738333D01*
X6792524Y-19700238D01*
X6783000Y-19652619D01*
X6773476Y-19624048D01*
X6763952Y-19605000D01*
X6744905Y-19576429D01*
X6735381Y-19566905D01*
D14*
X1727000Y-19923000D02*
X1727000Y-20015000D01*
X1681000Y-19969000D02*
X1773000Y-19969000D01*
D11*
X2068714Y-19859476D02*
X2087762Y-19859476D01*
X2106810Y-19869000D01*
X2116333Y-19878524D01*
X2125857Y-19897571D01*
X2135381Y-19935667D01*
X2135381Y-19983286D01*
X2125857Y-20021381D01*
X2116333Y-20040429D01*
X2106810Y-20049952D01*
X2087762Y-20059476D01*
X2068714Y-20059476D01*
X2049667Y-20049952D01*
X2040143Y-20040429D01*
X2030619Y-20021381D01*
X2021095Y-19983286D01*
X2021095Y-19935667D01*
X2030619Y-19897571D01*
X2040143Y-19878524D01*
X2049667Y-19869000D01*
X2068714Y-19859476D01*
X2221095Y-20040429D02*
X2230619Y-20049952D01*
X2221095Y-20059476D01*
X2211571Y-20049952D01*
X2221095Y-20040429D01*
X2221095Y-20059476D01*
X2325857Y-20059476D02*
X2363952Y-20059476D01*
X2383000Y-20049952D01*
X2392524Y-20040429D01*
X2411571Y-20011857D01*
X2421095Y-19973762D01*
X2421095Y-19897571D01*
X2411571Y-19878524D01*
X2402048Y-19869000D01*
X2383000Y-19859476D01*
X2344905Y-19859476D01*
X2325857Y-19869000D01*
X2316333Y-19878524D01*
X2306810Y-19897571D01*
X2306810Y-19945190D01*
X2316333Y-19964238D01*
X2325857Y-19973762D01*
X2344905Y-19983286D01*
X2383000Y-19983286D01*
X2402048Y-19973762D01*
X2411571Y-19964238D01*
X2421095Y-19945190D01*
X2497286Y-19878524D02*
X2506810Y-19869000D01*
X2525857Y-19859476D01*
X2573476Y-19859476D01*
X2592524Y-19869000D01*
X2602048Y-19878524D01*
X2611571Y-19897571D01*
X2611571Y-19916619D01*
X2602048Y-19945190D01*
X2487762Y-20059476D01*
X2611571Y-20059476D01*
X2735381Y-19859476D02*
X2754429Y-19859476D01*
X2773476Y-19869000D01*
X2783000Y-19878524D01*
X2792524Y-19897571D01*
X2802048Y-19935667D01*
X2802048Y-19983286D01*
X2792524Y-20021381D01*
X2783000Y-20040429D01*
X2773476Y-20049952D01*
X2754429Y-20059476D01*
X2735381Y-20059476D01*
X2716333Y-20049952D01*
X2706810Y-20040429D01*
X2697286Y-20021381D01*
X2687762Y-19983286D01*
X2687762Y-19935667D01*
X2697286Y-19897571D01*
X2706810Y-19878524D01*
X2716333Y-19869000D01*
X2735381Y-19859476D01*
X2887762Y-20059476D02*
X2887762Y-19926143D01*
X2887762Y-19945190D02*
X2897286Y-19935667D01*
X2916333Y-19926143D01*
X2944905Y-19926143D01*
X2963952Y-19935667D01*
X2973476Y-19954714D01*
X2973476Y-20059476D01*
X2973476Y-19954714D02*
X2983000Y-19935667D01*
X3002048Y-19926143D01*
X3030619Y-19926143D01*
X3049667Y-19935667D01*
X3059190Y-19954714D01*
X3059190Y-20059476D01*
X3154428Y-20059476D02*
X3154428Y-19926143D01*
X3154428Y-19945190D02*
X3163952Y-19935667D01*
X3183000Y-19926143D01*
X3211571Y-19926143D01*
X3230619Y-19935667D01*
X3240143Y-19954714D01*
X3240143Y-20059476D01*
X3240143Y-19954714D02*
X3249667Y-19935667D01*
X3268714Y-19926143D01*
X3297286Y-19926143D01*
X3316333Y-19935667D01*
X3325857Y-19954714D01*
X3325857Y-20059476D01*
X3716333Y-19849952D02*
X3544905Y-20107095D01*
X3973476Y-19859476D02*
X3992524Y-19859476D01*
X4011571Y-19869000D01*
X4021095Y-19878524D01*
X4030619Y-19897571D01*
X4040143Y-19935667D01*
X4040143Y-19983286D01*
X4030619Y-20021381D01*
X4021095Y-20040429D01*
X4011571Y-20049952D01*
X3992524Y-20059476D01*
X3973476Y-20059476D01*
X3954428Y-20049952D01*
X3944905Y-20040429D01*
X3935381Y-20021381D01*
X3925857Y-19983286D01*
X3925857Y-19935667D01*
X3935381Y-19897571D01*
X3944905Y-19878524D01*
X3954428Y-19869000D01*
X3973476Y-19859476D01*
X4125857Y-20040429D02*
X4135381Y-20049952D01*
X4125857Y-20059476D01*
X4116333Y-20049952D01*
X4125857Y-20040429D01*
X4125857Y-20059476D01*
X4259190Y-19859476D02*
X4278238Y-19859476D01*
X4297286Y-19869000D01*
X4306810Y-19878524D01*
X4316333Y-19897571D01*
X4325857Y-19935667D01*
X4325857Y-19983286D01*
X4316333Y-20021381D01*
X4306810Y-20040429D01*
X4297286Y-20049952D01*
X4278238Y-20059476D01*
X4259190Y-20059476D01*
X4240143Y-20049952D01*
X4230619Y-20040429D01*
X4221095Y-20021381D01*
X4211571Y-19983286D01*
X4211571Y-19935667D01*
X4221095Y-19897571D01*
X4230619Y-19878524D01*
X4240143Y-19869000D01*
X4259190Y-19859476D01*
X4392524Y-19859476D02*
X4516333Y-19859476D01*
X4449667Y-19935667D01*
X4478238Y-19935667D01*
X4497286Y-19945190D01*
X4506810Y-19954714D01*
X4516333Y-19973762D01*
X4516333Y-20021381D01*
X4506810Y-20040429D01*
X4497286Y-20049952D01*
X4478238Y-20059476D01*
X4421095Y-20059476D01*
X4402048Y-20049952D01*
X4392524Y-20040429D01*
X4687762Y-19859476D02*
X4649667Y-19859476D01*
X4630619Y-19869000D01*
X4621095Y-19878524D01*
X4602048Y-19907095D01*
X4592524Y-19945190D01*
X4592524Y-20021381D01*
X4602048Y-20040429D01*
X4611571Y-20049952D01*
X4630619Y-20059476D01*
X4668714Y-20059476D01*
X4687762Y-20049952D01*
X4697286Y-20040429D01*
X4706810Y-20021381D01*
X4706810Y-19973762D01*
X4697286Y-19954714D01*
X4687762Y-19945190D01*
X4668714Y-19935667D01*
X4630619Y-19935667D01*
X4611571Y-19945190D01*
X4602048Y-19954714D01*
X4592524Y-19973762D01*
X4783000Y-19878524D02*
X4792524Y-19869000D01*
X4811571Y-19859476D01*
X4859190Y-19859476D01*
X4878238Y-19869000D01*
X4887762Y-19878524D01*
X4897286Y-19897571D01*
X4897286Y-19916619D01*
X4887762Y-19945190D01*
X4773476Y-20059476D01*
X4897286Y-20059476D01*
X4973476Y-19859476D02*
X4973476Y-19897571D01*
X5049667Y-19859476D02*
X5049667Y-19897571D01*
X5344905Y-20135667D02*
X5335381Y-20126143D01*
X5316333Y-20097571D01*
X5306810Y-20078524D01*
X5297286Y-20049952D01*
X5287762Y-20002333D01*
X5287762Y-19964238D01*
X5297286Y-19916619D01*
X5306810Y-19888048D01*
X5316333Y-19869000D01*
X5335381Y-19840429D01*
X5344905Y-19830905D01*
X5506810Y-19926143D02*
X5506810Y-20059476D01*
X5459190Y-19849952D02*
X5411571Y-19992810D01*
X5535381Y-19992810D01*
X5763952Y-20059476D02*
X5763952Y-19859476D01*
X5849667Y-20059476D02*
X5849667Y-19954714D01*
X5840143Y-19935667D01*
X5821095Y-19926143D01*
X5792524Y-19926143D01*
X5773476Y-19935667D01*
X5763952Y-19945190D01*
X5973476Y-20059476D02*
X5954428Y-20049952D01*
X5944905Y-20040429D01*
X5935381Y-20021381D01*
X5935381Y-19964238D01*
X5944905Y-19945190D01*
X5954428Y-19935667D01*
X5973476Y-19926143D01*
X6002048Y-19926143D01*
X6021095Y-19935667D01*
X6030619Y-19945190D01*
X6040143Y-19964238D01*
X6040143Y-20021381D01*
X6030619Y-20040429D01*
X6021095Y-20049952D01*
X6002048Y-20059476D01*
X5973476Y-20059476D01*
X6154428Y-20059476D02*
X6135381Y-20049952D01*
X6125857Y-20030905D01*
X6125857Y-19859476D01*
X6306809Y-20049952D02*
X6287762Y-20059476D01*
X6249667Y-20059476D01*
X6230619Y-20049952D01*
X6221095Y-20030905D01*
X6221095Y-19954714D01*
X6230619Y-19935667D01*
X6249667Y-19926143D01*
X6287762Y-19926143D01*
X6306809Y-19935667D01*
X6316333Y-19954714D01*
X6316333Y-19973762D01*
X6221095Y-19992810D01*
X6392524Y-20049952D02*
X6411571Y-20059476D01*
X6449667Y-20059476D01*
X6468714Y-20049952D01*
X6478238Y-20030905D01*
X6478238Y-20021381D01*
X6468714Y-20002333D01*
X6449667Y-19992810D01*
X6421095Y-19992810D01*
X6402048Y-19983286D01*
X6392524Y-19964238D01*
X6392524Y-19954714D01*
X6402048Y-19935667D01*
X6421095Y-19926143D01*
X6449667Y-19926143D01*
X6468714Y-19935667D01*
X6544905Y-20135667D02*
X6554428Y-20126143D01*
X6573476Y-20097571D01*
X6583000Y-20078524D01*
X6592524Y-20049952D01*
X6602048Y-20002333D01*
X6602048Y-19964238D01*
X6592524Y-19916619D01*
X6583000Y-19888048D01*
X6573476Y-19869000D01*
X6554428Y-19840429D01*
X6544905Y-19830905D01*
D10*
X1758356Y-20268356D02*
X1758356Y-20197644D01*
X1687644Y-20197644D01*
X1687644Y-20268356D01*
X1758356Y-20268356D01*
D11*
X2135381Y-20323476D02*
X2021095Y-20323476D01*
X2078238Y-20323476D02*
X2078238Y-20123476D01*
X2059190Y-20152048D01*
X2040143Y-20171095D01*
X2021095Y-20180619D01*
X2221095Y-20304429D02*
X2230619Y-20313952D01*
X2221095Y-20323476D01*
X2211571Y-20313952D01*
X2221095Y-20304429D01*
X2221095Y-20323476D01*
X2354429Y-20123476D02*
X2373476Y-20123476D01*
X2392524Y-20133000D01*
X2402048Y-20142524D01*
X2411571Y-20161571D01*
X2421095Y-20199667D01*
X2421095Y-20247286D01*
X2411571Y-20285381D01*
X2402048Y-20304429D01*
X2392524Y-20313952D01*
X2373476Y-20323476D01*
X2354429Y-20323476D01*
X2335381Y-20313952D01*
X2325857Y-20304429D01*
X2316333Y-20285381D01*
X2306810Y-20247286D01*
X2306810Y-20199667D01*
X2316333Y-20161571D01*
X2325857Y-20142524D01*
X2335381Y-20133000D01*
X2354429Y-20123476D01*
X2544905Y-20123476D02*
X2563952Y-20123476D01*
X2583000Y-20133000D01*
X2592524Y-20142524D01*
X2602048Y-20161571D01*
X2611571Y-20199667D01*
X2611571Y-20247286D01*
X2602048Y-20285381D01*
X2592524Y-20304429D01*
X2583000Y-20313952D01*
X2563952Y-20323476D01*
X2544905Y-20323476D01*
X2525857Y-20313952D01*
X2516333Y-20304429D01*
X2506810Y-20285381D01*
X2497286Y-20247286D01*
X2497286Y-20199667D01*
X2506810Y-20161571D01*
X2516333Y-20142524D01*
X2525857Y-20133000D01*
X2544905Y-20123476D01*
X2735381Y-20123476D02*
X2754429Y-20123476D01*
X2773476Y-20133000D01*
X2783000Y-20142524D01*
X2792524Y-20161571D01*
X2802048Y-20199667D01*
X2802048Y-20247286D01*
X2792524Y-20285381D01*
X2783000Y-20304429D01*
X2773476Y-20313952D01*
X2754429Y-20323476D01*
X2735381Y-20323476D01*
X2716333Y-20313952D01*
X2706810Y-20304429D01*
X2697286Y-20285381D01*
X2687762Y-20247286D01*
X2687762Y-20199667D01*
X2697286Y-20161571D01*
X2706810Y-20142524D01*
X2716333Y-20133000D01*
X2735381Y-20123476D01*
X2887762Y-20323476D02*
X2887762Y-20190143D01*
X2887762Y-20209190D02*
X2897286Y-20199667D01*
X2916333Y-20190143D01*
X2944905Y-20190143D01*
X2963952Y-20199667D01*
X2973476Y-20218714D01*
X2973476Y-20323476D01*
X2973476Y-20218714D02*
X2983000Y-20199667D01*
X3002048Y-20190143D01*
X3030619Y-20190143D01*
X3049667Y-20199667D01*
X3059190Y-20218714D01*
X3059190Y-20323476D01*
X3154428Y-20323476D02*
X3154428Y-20190143D01*
X3154428Y-20209190D02*
X3163952Y-20199667D01*
X3183000Y-20190143D01*
X3211571Y-20190143D01*
X3230619Y-20199667D01*
X3240143Y-20218714D01*
X3240143Y-20323476D01*
X3240143Y-20218714D02*
X3249667Y-20199667D01*
X3268714Y-20190143D01*
X3297286Y-20190143D01*
X3316333Y-20199667D01*
X3325857Y-20218714D01*
X3325857Y-20323476D01*
X3716333Y-20113952D02*
X3544905Y-20371095D01*
X3973476Y-20123476D02*
X3992524Y-20123476D01*
X4011571Y-20133000D01*
X4021095Y-20142524D01*
X4030619Y-20161571D01*
X4040143Y-20199667D01*
X4040143Y-20247286D01*
X4030619Y-20285381D01*
X4021095Y-20304429D01*
X4011571Y-20313952D01*
X3992524Y-20323476D01*
X3973476Y-20323476D01*
X3954428Y-20313952D01*
X3944905Y-20304429D01*
X3935381Y-20285381D01*
X3925857Y-20247286D01*
X3925857Y-20199667D01*
X3935381Y-20161571D01*
X3944905Y-20142524D01*
X3954428Y-20133000D01*
X3973476Y-20123476D01*
X4125857Y-20304429D02*
X4135381Y-20313952D01*
X4125857Y-20323476D01*
X4116333Y-20313952D01*
X4125857Y-20304429D01*
X4125857Y-20323476D01*
X4259190Y-20123476D02*
X4278238Y-20123476D01*
X4297286Y-20133000D01*
X4306810Y-20142524D01*
X4316333Y-20161571D01*
X4325857Y-20199667D01*
X4325857Y-20247286D01*
X4316333Y-20285381D01*
X4306810Y-20304429D01*
X4297286Y-20313952D01*
X4278238Y-20323476D01*
X4259190Y-20323476D01*
X4240143Y-20313952D01*
X4230619Y-20304429D01*
X4221095Y-20285381D01*
X4211571Y-20247286D01*
X4211571Y-20199667D01*
X4221095Y-20161571D01*
X4230619Y-20142524D01*
X4240143Y-20133000D01*
X4259190Y-20123476D01*
X4392524Y-20123476D02*
X4516333Y-20123476D01*
X4449667Y-20199667D01*
X4478238Y-20199667D01*
X4497286Y-20209190D01*
X4506810Y-20218714D01*
X4516333Y-20237762D01*
X4516333Y-20285381D01*
X4506810Y-20304429D01*
X4497286Y-20313952D01*
X4478238Y-20323476D01*
X4421095Y-20323476D01*
X4402048Y-20313952D01*
X4392524Y-20304429D01*
X4611571Y-20323476D02*
X4649667Y-20323476D01*
X4668714Y-20313952D01*
X4678238Y-20304429D01*
X4697286Y-20275857D01*
X4706810Y-20237762D01*
X4706810Y-20161571D01*
X4697286Y-20142524D01*
X4687762Y-20133000D01*
X4668714Y-20123476D01*
X4630619Y-20123476D01*
X4611571Y-20133000D01*
X4602048Y-20142524D01*
X4592524Y-20161571D01*
X4592524Y-20209190D01*
X4602048Y-20228238D01*
X4611571Y-20237762D01*
X4630619Y-20247286D01*
X4668714Y-20247286D01*
X4687762Y-20237762D01*
X4697286Y-20228238D01*
X4706810Y-20209190D01*
X4878238Y-20190143D02*
X4878238Y-20323476D01*
X4830619Y-20113952D02*
X4783000Y-20256810D01*
X4906810Y-20256810D01*
X4973476Y-20123476D02*
X4973476Y-20161571D01*
X5049667Y-20123476D02*
X5049667Y-20161571D01*
X5344905Y-20399667D02*
X5335381Y-20390143D01*
X5316333Y-20361571D01*
X5306810Y-20342524D01*
X5297286Y-20313952D01*
X5287762Y-20266333D01*
X5287762Y-20228238D01*
X5297286Y-20180619D01*
X5306810Y-20152048D01*
X5316333Y-20133000D01*
X5335381Y-20104429D01*
X5344905Y-20094905D01*
X5506810Y-20190143D02*
X5506810Y-20323476D01*
X5459190Y-20113952D02*
X5411571Y-20256810D01*
X5535381Y-20256810D01*
X5716333Y-20323476D02*
X5602048Y-20323476D01*
X5659190Y-20323476D02*
X5659190Y-20123476D01*
X5640143Y-20152048D01*
X5621095Y-20171095D01*
X5602048Y-20180619D01*
X5840143Y-20123476D02*
X5859190Y-20123476D01*
X5878238Y-20133000D01*
X5887762Y-20142524D01*
X5897286Y-20161571D01*
X5906809Y-20199667D01*
X5906809Y-20247286D01*
X5897286Y-20285381D01*
X5887762Y-20304429D01*
X5878238Y-20313952D01*
X5859190Y-20323476D01*
X5840143Y-20323476D01*
X5821095Y-20313952D01*
X5811571Y-20304429D01*
X5802048Y-20285381D01*
X5792524Y-20247286D01*
X5792524Y-20199667D01*
X5802048Y-20161571D01*
X5811571Y-20142524D01*
X5821095Y-20133000D01*
X5840143Y-20123476D01*
X6144905Y-20323476D02*
X6144905Y-20123476D01*
X6230619Y-20323476D02*
X6230619Y-20218714D01*
X6221095Y-20199667D01*
X6202048Y-20190143D01*
X6173476Y-20190143D01*
X6154428Y-20199667D01*
X6144905Y-20209190D01*
X6354428Y-20323476D02*
X6335381Y-20313952D01*
X6325857Y-20304429D01*
X6316333Y-20285381D01*
X6316333Y-20228238D01*
X6325857Y-20209190D01*
X6335381Y-20199667D01*
X6354428Y-20190143D01*
X6383000Y-20190143D01*
X6402048Y-20199667D01*
X6411571Y-20209190D01*
X6421095Y-20228238D01*
X6421095Y-20285381D01*
X6411571Y-20304429D01*
X6402048Y-20313952D01*
X6383000Y-20323476D01*
X6354428Y-20323476D01*
X6535381Y-20323476D02*
X6516333Y-20313952D01*
X6506809Y-20294905D01*
X6506809Y-20123476D01*
X6687762Y-20313952D02*
X6668714Y-20323476D01*
X6630619Y-20323476D01*
X6611571Y-20313952D01*
X6602048Y-20294905D01*
X6602048Y-20218714D01*
X6611571Y-20199667D01*
X6630619Y-20190143D01*
X6668714Y-20190143D01*
X6687762Y-20199667D01*
X6697286Y-20218714D01*
X6697286Y-20237762D01*
X6602048Y-20256810D01*
X6773476Y-20313952D02*
X6792524Y-20323476D01*
X6830619Y-20323476D01*
X6849667Y-20313952D01*
X6859190Y-20294905D01*
X6859190Y-20285381D01*
X6849667Y-20266333D01*
X6830619Y-20256810D01*
X6802048Y-20256810D01*
X6783000Y-20247286D01*
X6773476Y-20228238D01*
X6773476Y-20218714D01*
X6783000Y-20199667D01*
X6802048Y-20190143D01*
X6830619Y-20190143D01*
X6849667Y-20199667D01*
X7097286Y-20247286D02*
X7249667Y-20247286D01*
X7173476Y-20323476D02*
X7173476Y-20171095D01*
X7478238Y-20123476D02*
X7602048Y-20123476D01*
X7535381Y-20199667D01*
X7563952Y-20199667D01*
X7583000Y-20209190D01*
X7592524Y-20218714D01*
X7602048Y-20237762D01*
X7602048Y-20285381D01*
X7592524Y-20304429D01*
X7583000Y-20313952D01*
X7563952Y-20323476D01*
X7506809Y-20323476D01*
X7487762Y-20313952D01*
X7478238Y-20304429D01*
X7830619Y-20313952D02*
X7849667Y-20323476D01*
X7887762Y-20323476D01*
X7906809Y-20313952D01*
X7916333Y-20294905D01*
X7916333Y-20285381D01*
X7906809Y-20266333D01*
X7887762Y-20256810D01*
X7859190Y-20256810D01*
X7840143Y-20247286D01*
X7830619Y-20228238D01*
X7830619Y-20218714D01*
X7840143Y-20199667D01*
X7859190Y-20190143D01*
X7887762Y-20190143D01*
X7906809Y-20199667D01*
X8030619Y-20323476D02*
X8011571Y-20313952D01*
X8002048Y-20294905D01*
X8002048Y-20123476D01*
X8135381Y-20323476D02*
X8116333Y-20313952D01*
X8106809Y-20304429D01*
X8097286Y-20285381D01*
X8097286Y-20228238D01*
X8106809Y-20209190D01*
X8116333Y-20199667D01*
X8135381Y-20190143D01*
X8163952Y-20190143D01*
X8183000Y-20199667D01*
X8192524Y-20209190D01*
X8202048Y-20228238D01*
X8202048Y-20285381D01*
X8192524Y-20304429D01*
X8183000Y-20313952D01*
X8163952Y-20323476D01*
X8135381Y-20323476D01*
X8259190Y-20190143D02*
X8335381Y-20190143D01*
X8287762Y-20123476D02*
X8287762Y-20294905D01*
X8297286Y-20313952D01*
X8316333Y-20323476D01*
X8335381Y-20323476D01*
X8392524Y-20313952D02*
X8411571Y-20323476D01*
X8449667Y-20323476D01*
X8468714Y-20313952D01*
X8478238Y-20294905D01*
X8478238Y-20285381D01*
X8468714Y-20266333D01*
X8449667Y-20256810D01*
X8421095Y-20256810D01*
X8402048Y-20247286D01*
X8392524Y-20228238D01*
X8392524Y-20218714D01*
X8402048Y-20199667D01*
X8421095Y-20190143D01*
X8449667Y-20190143D01*
X8468714Y-20199667D01*
X8544905Y-20399667D02*
X8554429Y-20390143D01*
X8573476Y-20361571D01*
X8583000Y-20342524D01*
X8592524Y-20313952D01*
X8602048Y-20266333D01*
X8602048Y-20228238D01*
X8592524Y-20180619D01*
X8583000Y-20152048D01*
X8573476Y-20133000D01*
X8554429Y-20104429D01*
X8544905Y-20094905D01*
X1673000Y-20597000D02*
X1773000Y-20497000D01*
X1673000Y-20397000D01*
X1573000Y-20497000D01*
X1673000Y-20597000D01*
X2021095Y-20406524D02*
X2030619Y-20397000D01*
X2049667Y-20387476D01*
X2097286Y-20387476D01*
X2116333Y-20397000D01*
X2125857Y-20406524D01*
X2135381Y-20425571D01*
X2135381Y-20444619D01*
X2125857Y-20473190D01*
X2011571Y-20587476D01*
X2135381Y-20587476D01*
X2221095Y-20568429D02*
X2230619Y-20577952D01*
X2221095Y-20587476D01*
X2211571Y-20577952D01*
X2221095Y-20568429D01*
X2221095Y-20587476D01*
X2297286Y-20387476D02*
X2421095Y-20387476D01*
X2354429Y-20463667D01*
X2383000Y-20463667D01*
X2402048Y-20473190D01*
X2411571Y-20482714D01*
X2421095Y-20501762D01*
X2421095Y-20549381D01*
X2411571Y-20568429D01*
X2402048Y-20577952D01*
X2383000Y-20587476D01*
X2325857Y-20587476D01*
X2306810Y-20577952D01*
X2297286Y-20568429D01*
X2487762Y-20387476D02*
X2611571Y-20387476D01*
X2544905Y-20463667D01*
X2573476Y-20463667D01*
X2592524Y-20473190D01*
X2602048Y-20482714D01*
X2611571Y-20501762D01*
X2611571Y-20549381D01*
X2602048Y-20568429D01*
X2592524Y-20577952D01*
X2573476Y-20587476D01*
X2516333Y-20587476D01*
X2497286Y-20577952D01*
X2487762Y-20568429D01*
X2735381Y-20387476D02*
X2754429Y-20387476D01*
X2773476Y-20397000D01*
X2783000Y-20406524D01*
X2792524Y-20425571D01*
X2802048Y-20463667D01*
X2802048Y-20511286D01*
X2792524Y-20549381D01*
X2783000Y-20568429D01*
X2773476Y-20577952D01*
X2754429Y-20587476D01*
X2735381Y-20587476D01*
X2716333Y-20577952D01*
X2706810Y-20568429D01*
X2697286Y-20549381D01*
X2687762Y-20511286D01*
X2687762Y-20463667D01*
X2697286Y-20425571D01*
X2706810Y-20406524D01*
X2716333Y-20397000D01*
X2735381Y-20387476D01*
X2887762Y-20587476D02*
X2887762Y-20454143D01*
X2887762Y-20473190D02*
X2897286Y-20463667D01*
X2916333Y-20454143D01*
X2944905Y-20454143D01*
X2963952Y-20463667D01*
X2973476Y-20482714D01*
X2973476Y-20587476D01*
X2973476Y-20482714D02*
X2983000Y-20463667D01*
X3002048Y-20454143D01*
X3030619Y-20454143D01*
X3049667Y-20463667D01*
X3059190Y-20482714D01*
X3059190Y-20587476D01*
X3154428Y-20587476D02*
X3154428Y-20454143D01*
X3154428Y-20473190D02*
X3163952Y-20463667D01*
X3183000Y-20454143D01*
X3211571Y-20454143D01*
X3230619Y-20463667D01*
X3240143Y-20482714D01*
X3240143Y-20587476D01*
X3240143Y-20482714D02*
X3249667Y-20463667D01*
X3268714Y-20454143D01*
X3297286Y-20454143D01*
X3316333Y-20463667D01*
X3325857Y-20482714D01*
X3325857Y-20587476D01*
X3716333Y-20377952D02*
X3544905Y-20635095D01*
X3973476Y-20387476D02*
X3992524Y-20387476D01*
X4011571Y-20397000D01*
X4021095Y-20406524D01*
X4030619Y-20425571D01*
X4040143Y-20463667D01*
X4040143Y-20511286D01*
X4030619Y-20549381D01*
X4021095Y-20568429D01*
X4011571Y-20577952D01*
X3992524Y-20587476D01*
X3973476Y-20587476D01*
X3954428Y-20577952D01*
X3944905Y-20568429D01*
X3935381Y-20549381D01*
X3925857Y-20511286D01*
X3925857Y-20463667D01*
X3935381Y-20425571D01*
X3944905Y-20406524D01*
X3954428Y-20397000D01*
X3973476Y-20387476D01*
X4125857Y-20568429D02*
X4135381Y-20577952D01*
X4125857Y-20587476D01*
X4116333Y-20577952D01*
X4125857Y-20568429D01*
X4125857Y-20587476D01*
X4259190Y-20387476D02*
X4278238Y-20387476D01*
X4297286Y-20397000D01*
X4306810Y-20406524D01*
X4316333Y-20425571D01*
X4325857Y-20463667D01*
X4325857Y-20511286D01*
X4316333Y-20549381D01*
X4306810Y-20568429D01*
X4297286Y-20577952D01*
X4278238Y-20587476D01*
X4259190Y-20587476D01*
X4240143Y-20577952D01*
X4230619Y-20568429D01*
X4221095Y-20549381D01*
X4211571Y-20511286D01*
X4211571Y-20463667D01*
X4221095Y-20425571D01*
X4230619Y-20406524D01*
X4240143Y-20397000D01*
X4259190Y-20387476D01*
X4421095Y-20587476D02*
X4459190Y-20587476D01*
X4478238Y-20577952D01*
X4487762Y-20568429D01*
X4506810Y-20539857D01*
X4516333Y-20501762D01*
X4516333Y-20425571D01*
X4506810Y-20406524D01*
X4497286Y-20397000D01*
X4478238Y-20387476D01*
X4440143Y-20387476D01*
X4421095Y-20397000D01*
X4411571Y-20406524D01*
X4402048Y-20425571D01*
X4402048Y-20473190D01*
X4411571Y-20492238D01*
X4421095Y-20501762D01*
X4440143Y-20511286D01*
X4478238Y-20511286D01*
X4497286Y-20501762D01*
X4506810Y-20492238D01*
X4516333Y-20473190D01*
X4706810Y-20587476D02*
X4592524Y-20587476D01*
X4649667Y-20587476D02*
X4649667Y-20387476D01*
X4630619Y-20416048D01*
X4611571Y-20435095D01*
X4592524Y-20444619D01*
X4773476Y-20387476D02*
X4906810Y-20387476D01*
X4821095Y-20587476D01*
X4973476Y-20387476D02*
X4973476Y-20425571D01*
X5049667Y-20387476D02*
X5049667Y-20425571D01*
X5344905Y-20663667D02*
X5335381Y-20654143D01*
X5316333Y-20625571D01*
X5306810Y-20606524D01*
X5297286Y-20577952D01*
X5287762Y-20530333D01*
X5287762Y-20492238D01*
X5297286Y-20444619D01*
X5306810Y-20416048D01*
X5316333Y-20397000D01*
X5335381Y-20368429D01*
X5344905Y-20358905D01*
X5411571Y-20406524D02*
X5421095Y-20397000D01*
X5440143Y-20387476D01*
X5487762Y-20387476D01*
X5506810Y-20397000D01*
X5516333Y-20406524D01*
X5525857Y-20425571D01*
X5525857Y-20444619D01*
X5516333Y-20473190D01*
X5402048Y-20587476D01*
X5525857Y-20587476D01*
X5763952Y-20587476D02*
X5763952Y-20387476D01*
X5849667Y-20587476D02*
X5849667Y-20482714D01*
X5840143Y-20463667D01*
X5821095Y-20454143D01*
X5792524Y-20454143D01*
X5773476Y-20463667D01*
X5763952Y-20473190D01*
X5973476Y-20587476D02*
X5954428Y-20577952D01*
X5944905Y-20568429D01*
X5935381Y-20549381D01*
X5935381Y-20492238D01*
X5944905Y-20473190D01*
X5954428Y-20463667D01*
X5973476Y-20454143D01*
X6002048Y-20454143D01*
X6021095Y-20463667D01*
X6030619Y-20473190D01*
X6040143Y-20492238D01*
X6040143Y-20549381D01*
X6030619Y-20568429D01*
X6021095Y-20577952D01*
X6002048Y-20587476D01*
X5973476Y-20587476D01*
X6154428Y-20587476D02*
X6135381Y-20577952D01*
X6125857Y-20558905D01*
X6125857Y-20387476D01*
X6306809Y-20577952D02*
X6287762Y-20587476D01*
X6249667Y-20587476D01*
X6230619Y-20577952D01*
X6221095Y-20558905D01*
X6221095Y-20482714D01*
X6230619Y-20463667D01*
X6249667Y-20454143D01*
X6287762Y-20454143D01*
X6306809Y-20463667D01*
X6316333Y-20482714D01*
X6316333Y-20501762D01*
X6221095Y-20520810D01*
X6392524Y-20577952D02*
X6411571Y-20587476D01*
X6449667Y-20587476D01*
X6468714Y-20577952D01*
X6478238Y-20558905D01*
X6478238Y-20549381D01*
X6468714Y-20530333D01*
X6449667Y-20520810D01*
X6421095Y-20520810D01*
X6402048Y-20511286D01*
X6392524Y-20492238D01*
X6392524Y-20482714D01*
X6402048Y-20463667D01*
X6421095Y-20454143D01*
X6449667Y-20454143D01*
X6468714Y-20463667D01*
X6544905Y-20663667D02*
X6554428Y-20654143D01*
X6573476Y-20625571D01*
X6583000Y-20606524D01*
X6592524Y-20577952D01*
X6602048Y-20530333D01*
X6602048Y-20492238D01*
X6592524Y-20444619D01*
X6583000Y-20416048D01*
X6573476Y-20397000D01*
X6554428Y-20368429D01*
X6544905Y-20358905D01*
M02*
