%TF.GenerationSoftware,KiCad,Pcbnew,8.0.2*%
%TF.CreationDate,2024-12-23T20:56:35+01:00*%
%TF.ProjectId,bp-leanplate,62702d6c-6561-46e7-906c-6174652e6b69,rev?*%
%TF.SameCoordinates,Original*%
%TF.FileFunction,Copper,L2,Bot*%
%TF.FilePolarity,Positive*%
%FSLAX46Y46*%
G04 Gerber Fmt 4.6, Leading zero omitted, Abs format (unit mm)*
G04 Created by KiCad (PCBNEW 8.0.2) date 2024-12-23 20:56:35*
%MOMM*%
%LPD*%
G01*
G04 APERTURE LIST*
%TA.AperFunction,ComponentPad*%
%ADD10C,1.700000*%
%TD*%
%TA.AperFunction,ComponentPad*%
%ADD11R,1.700000X1.700000*%
%TD*%
%TA.AperFunction,ComponentPad*%
%ADD12C,3.500000*%
%TD*%
%TA.AperFunction,ComponentPad*%
%ADD13C,1.600000*%
%TD*%
%TA.AperFunction,ComponentPad*%
%ADD14O,1.600000X1.600000*%
%TD*%
%TA.AperFunction,ViaPad*%
%ADD15C,0.800000*%
%TD*%
%TA.AperFunction,Conductor*%
%ADD16C,0.250000*%
%TD*%
G04 APERTURE END LIST*
D10*
%TO.P,U3,*%
%TO.N,*%
X246380000Y-60960000D03*
X248920000Y-60960000D03*
X251460000Y-60960000D03*
X254000000Y-60960000D03*
%TO.P,U3,1,BUS0*%
%TO.N,BUS0*%
X274320000Y-38100000D03*
%TO.P,U3,2,BUS1*%
%TO.N,BUS1*%
X271780000Y-38100000D03*
%TO.P,U3,3,BUS2*%
%TO.N,BUS2*%
X269240000Y-38100000D03*
%TO.P,U3,4,BUS3*%
%TO.N,BUS3*%
X266700000Y-38100000D03*
%TO.P,U3,5,BUS4*%
%TO.N,BUS4*%
X264160000Y-38100000D03*
%TO.P,U3,6,BUS5*%
%TO.N,BUS5*%
X261620000Y-38100000D03*
%TO.P,U3,7,BUS6*%
%TO.N,BUS6*%
X259080000Y-38100000D03*
%TO.P,U3,8,BUS7*%
%TO.N,BUS7*%
X256540000Y-38100000D03*
%TO.P,U3,9,L0*%
%TO.N,unconnected-(U3-L0-Pad9)*%
X254000000Y-38100000D03*
%TO.P,U3,10,L1*%
%TO.N,unconnected-(U3-L1-Pad10)*%
X251460000Y-38100000D03*
%TO.P,U3,11,L2*%
%TO.N,unconnected-(U3-L2-Pad11)*%
X248920000Y-38100000D03*
%TO.P,U3,12,L3*%
%TO.N,unconnected-(U3-L3-Pad12)*%
X246380000Y-38100000D03*
%TO.P,U3,13,L4*%
%TO.N,unconnected-(U3-L4-Pad13)*%
X243840000Y-38100000D03*
%TO.P,U3,14,L5*%
%TO.N,unconnected-(U3-L5-Pad14)*%
X241300000Y-38100000D03*
%TO.P,U3,15,L6*%
%TO.N,unconnected-(U3-L6-Pad15)*%
X238760000Y-38100000D03*
%TO.P,U3,16,L7*%
%TO.N,unconnected-(U3-L7-Pad16)*%
X236220000Y-38100000D03*
%TO.P,U3,17,VCC*%
%TO.N,VCC*%
X233680000Y-60960000D03*
X276860000Y-38100000D03*
%TO.P,U3,18,CLK*%
%TO.N,CLK*%
X236220000Y-60960000D03*
%TO.P,U3,19,IN*%
%TO.N,TI*%
X238760000Y-60960000D03*
%TO.P,U3,20,~{CLR}*%
%TO.N,~{CLR}*%
X241300000Y-60960000D03*
%TO.P,U3,21,OUT*%
%TO.N,TO*%
X243840000Y-60960000D03*
%TO.P,U3,22,GND*%
%TO.N,GND*%
X233680000Y-38100000D03*
X256540000Y-60960000D03*
%TD*%
%TO.P,U8,*%
%TO.N,*%
X195580000Y-149860000D03*
X198120000Y-149860000D03*
X200660000Y-149860000D03*
X203200000Y-149860000D03*
%TO.P,U8,1,BUS0*%
%TO.N,BUS0*%
X223520000Y-127000000D03*
%TO.P,U8,2,BUS1*%
%TO.N,BUS1*%
X220980000Y-127000000D03*
%TO.P,U8,3,BUS2*%
%TO.N,BUS2*%
X218440000Y-127000000D03*
%TO.P,U8,4,BUS3*%
%TO.N,BUS3*%
X215900000Y-127000000D03*
%TO.P,U8,5,BUS4*%
%TO.N,BUS4*%
X213360000Y-127000000D03*
%TO.P,U8,6,BUS5*%
%TO.N,BUS5*%
X210820000Y-127000000D03*
%TO.P,U8,7,BUS6*%
%TO.N,BUS6*%
X208280000Y-127000000D03*
%TO.P,U8,8,BUS7*%
%TO.N,BUS7*%
X205740000Y-127000000D03*
%TO.P,U8,9,L0*%
%TO.N,B_D0*%
X203200000Y-127000000D03*
%TO.P,U8,10,L1*%
%TO.N,B_D1*%
X200660000Y-127000000D03*
%TO.P,U8,11,L2*%
%TO.N,B_D2*%
X198120000Y-127000000D03*
%TO.P,U8,12,L3*%
%TO.N,B_D3*%
X195580000Y-127000000D03*
%TO.P,U8,13,L4*%
%TO.N,B_D4*%
X193040000Y-127000000D03*
%TO.P,U8,14,L5*%
%TO.N,B_D5*%
X190500000Y-127000000D03*
%TO.P,U8,15,L6*%
%TO.N,B_D6*%
X187960000Y-127000000D03*
%TO.P,U8,16,L7*%
%TO.N,B_D7*%
X185420000Y-127000000D03*
%TO.P,U8,17,VCC*%
%TO.N,VCC*%
X182880000Y-149860000D03*
X226060000Y-127000000D03*
%TO.P,U8,18,CLK*%
%TO.N,CLK*%
X185420000Y-149860000D03*
%TO.P,U8,19,IN*%
%TO.N,BI*%
X187960000Y-149860000D03*
%TO.P,U8,20,~{CLR}*%
%TO.N,~{CLR}*%
X190500000Y-149860000D03*
%TO.P,U8,21,OUT*%
%TO.N,BO*%
X193040000Y-149860000D03*
%TO.P,U8,22,GND*%
%TO.N,GND*%
X182880000Y-127000000D03*
X205740000Y-149860000D03*
%TD*%
D11*
%TO.P,J1,1,VBUS*%
%TO.N,VCC*%
X58516000Y-47255000D03*
D10*
%TO.P,J1,2,D-*%
%TO.N,unconnected-(J1-D--Pad2)*%
X61016000Y-47255000D03*
%TO.P,J1,3,D+*%
%TO.N,unconnected-(J1-D+-Pad3)*%
X61016000Y-45255000D03*
%TO.P,J1,4,GND*%
%TO.N,GND*%
X58516000Y-45255000D03*
D12*
%TO.P,J1,5,Shield*%
%TO.N,Net-(J1-Shield)*%
X53746000Y-42545000D03*
X65786000Y-42545000D03*
%TD*%
D10*
%TO.P,U11,*%
%TO.N,*%
X35560000Y-177800000D03*
X38100000Y-177800000D03*
X40640000Y-177800000D03*
X43180000Y-177800000D03*
X45720000Y-177800000D03*
%TO.P,U11,1,BUS0*%
%TO.N,BUS0*%
X119380000Y-127000000D03*
%TO.P,U11,2,BUS1*%
%TO.N,BUS1*%
X116840000Y-127000000D03*
%TO.P,U11,3,BUS2*%
%TO.N,BUS2*%
X114300000Y-127000000D03*
%TO.P,U11,4,BUS3*%
%TO.N,BUS3*%
X111760000Y-127000000D03*
%TO.P,U11,5,BUS4*%
%TO.N,BUS4*%
X109220000Y-127000000D03*
%TO.P,U11,6,BUS5*%
%TO.N,BUS5*%
X106680000Y-127000000D03*
%TO.P,U11,7,BUS6*%
%TO.N,BUS6*%
X104140000Y-127000000D03*
%TO.P,U11,8,BUS7*%
%TO.N,BUS7*%
X101600000Y-127000000D03*
%TO.P,U11,9,VCC*%
%TO.N,VCC*%
X25400000Y-177800000D03*
X121920000Y-127000000D03*
%TO.P,U11,10,CLK*%
%TO.N,CLK*%
X27940000Y-177800000D03*
%TO.P,U11,11,IN*%
%TO.N,OI*%
X30480000Y-177800000D03*
%TO.P,U11,12,~{CLR}*%
%TO.N,~{CLR}*%
X33020000Y-177800000D03*
%TO.P,U11,13,GND*%
%TO.N,GND*%
X48260000Y-177800000D03*
X99060000Y-127000000D03*
%TD*%
%TO.P,U6,*%
%TO.N,*%
X142240000Y-149860000D03*
X144780000Y-149860000D03*
X147320000Y-149860000D03*
X149860000Y-149860000D03*
%TO.P,U6,1,BUS0*%
%TO.N,BUS0*%
X170180000Y-127000000D03*
%TO.P,U6,2,BUS1*%
%TO.N,BUS1*%
X167640000Y-127000000D03*
%TO.P,U6,3,BUS2*%
%TO.N,BUS2*%
X165100000Y-127000000D03*
%TO.P,U6,4,BUS3*%
%TO.N,BUS3*%
X162560000Y-127000000D03*
%TO.P,U6,5,BUS4*%
%TO.N,BUS4*%
X160020000Y-127000000D03*
%TO.P,U6,6,BUS5*%
%TO.N,BUS5*%
X157480000Y-127000000D03*
%TO.P,U6,7,BUS6*%
%TO.N,BUS6*%
X154940000Y-127000000D03*
%TO.P,U6,8,BUS7*%
%TO.N,BUS7*%
X152400000Y-127000000D03*
%TO.P,U6,9,L0*%
%TO.N,A_D0*%
X149860000Y-127000000D03*
%TO.P,U6,10,L1*%
%TO.N,A_D1*%
X147320000Y-127000000D03*
%TO.P,U6,11,L2*%
%TO.N,A_D2*%
X144780000Y-127000000D03*
%TO.P,U6,12,L3*%
%TO.N,A_D3*%
X142240000Y-127000000D03*
%TO.P,U6,13,L4*%
%TO.N,A_D4*%
X139700000Y-127000000D03*
%TO.P,U6,14,L5*%
%TO.N,A_D5*%
X137160000Y-127000000D03*
%TO.P,U6,15,L6*%
%TO.N,A_D6*%
X134620000Y-127000000D03*
%TO.P,U6,16,L7*%
%TO.N,A_D7*%
X132080000Y-127000000D03*
%TO.P,U6,17,VCC*%
%TO.N,VCC*%
X129540000Y-149860000D03*
X172720000Y-127000000D03*
%TO.P,U6,18,CLK*%
%TO.N,CLK*%
X132080000Y-149860000D03*
%TO.P,U6,19,IN*%
%TO.N,AI*%
X134620000Y-149860000D03*
%TO.P,U6,20,~{CLR}*%
%TO.N,~{CLR}*%
X137160000Y-149860000D03*
%TO.P,U6,21,OUT*%
%TO.N,AO*%
X139700000Y-149860000D03*
%TO.P,U6,22,GND*%
%TO.N,GND*%
X129540000Y-127000000D03*
X152400000Y-149860000D03*
%TD*%
%TO.P,U5,*%
%TO.N,*%
X142240000Y-60960000D03*
X144780000Y-60960000D03*
X147320000Y-60960000D03*
X149860000Y-60960000D03*
%TO.P,U5,1,BUS0*%
%TO.N,BUS0*%
X170180000Y-38100000D03*
%TO.P,U5,2,BUS1*%
%TO.N,BUS1*%
X167640000Y-38100000D03*
%TO.P,U5,3,BUS2*%
%TO.N,BUS2*%
X165100000Y-38100000D03*
%TO.P,U5,4,BUS3*%
%TO.N,BUS3*%
X162560000Y-38100000D03*
%TO.P,U5,5,BUS4*%
%TO.N,BUS4*%
X160020000Y-38100000D03*
%TO.P,U5,6,BUS5*%
%TO.N,BUS5*%
X157480000Y-38100000D03*
%TO.P,U5,7,BUS6*%
%TO.N,BUS6*%
X154940000Y-38100000D03*
%TO.P,U5,8,BUS7*%
%TO.N,BUS7*%
X152400000Y-38100000D03*
%TO.P,U5,9,L0*%
%TO.N,MAR_A0*%
X149860000Y-38100000D03*
%TO.P,U5,10,L1*%
%TO.N,MAR_A1*%
X147320000Y-38100000D03*
%TO.P,U5,11,L2*%
%TO.N,MAR_A2*%
X144780000Y-38100000D03*
%TO.P,U5,12,L3*%
%TO.N,MAR_A3*%
X142240000Y-38100000D03*
%TO.P,U5,13,L4*%
%TO.N,MAR_A4*%
X139700000Y-38100000D03*
%TO.P,U5,14,L5*%
%TO.N,MAR_A5*%
X137160000Y-38100000D03*
%TO.P,U5,15,L6*%
%TO.N,MAR_A6*%
X134620000Y-38100000D03*
%TO.P,U5,16,L7*%
%TO.N,MAR_A7*%
X132080000Y-38100000D03*
%TO.P,U5,17,VCC*%
%TO.N,VCC*%
X129540000Y-60960000D03*
X172720000Y-38100000D03*
%TO.P,U5,18,CLK*%
%TO.N,CLK*%
X132080000Y-60960000D03*
%TO.P,U5,19,IN*%
%TO.N,MI*%
X134620000Y-60960000D03*
%TO.P,U5,20,~{CLR}*%
%TO.N,~{CLR}*%
X137160000Y-60960000D03*
%TO.P,U5,21,OUT*%
%TO.N,GND*%
X139700000Y-60960000D03*
%TO.P,U5,22,GND*%
X129540000Y-38100000D03*
X152400000Y-60960000D03*
%TD*%
%TO.P,U12,*%
%TO.N,*%
X289560000Y-60960000D03*
X292100000Y-60960000D03*
X294640000Y-60960000D03*
X297180000Y-60960000D03*
X299720000Y-60960000D03*
X302260000Y-60960000D03*
X304800000Y-60960000D03*
X307340000Y-60960000D03*
%TO.P,U12,1,BUS0*%
%TO.N,BUS0*%
X327660000Y-38100000D03*
%TO.P,U12,2,BUS1*%
%TO.N,BUS1*%
X325120000Y-38100000D03*
%TO.P,U12,3,BUS2*%
%TO.N,BUS2*%
X322580000Y-38100000D03*
%TO.P,U12,4,BUS3*%
%TO.N,BUS3*%
X320040000Y-38100000D03*
%TO.P,U12,5,BUS4*%
%TO.N,BUS4*%
X317500000Y-38100000D03*
%TO.P,U12,6,BUS5*%
%TO.N,BUS5*%
X314960000Y-38100000D03*
%TO.P,U12,7,BUS6*%
%TO.N,BUS6*%
X312420000Y-38100000D03*
%TO.P,U12,8,BUS7*%
%TO.N,BUS7*%
X309880000Y-38100000D03*
%TO.P,U12,9,VCC*%
%TO.N,VCC*%
X287020000Y-60960000D03*
X307340000Y-38100000D03*
%TO.P,U12,10,GND*%
%TO.N,GND*%
X309880000Y-60960000D03*
X330200000Y-38100000D03*
%TD*%
%TO.P,U2,*%
%TO.N,*%
X195580000Y-60960000D03*
X198120000Y-60960000D03*
X200660000Y-60960000D03*
X203200000Y-60960000D03*
%TO.P,U2,1,BUS0*%
%TO.N,BUS0*%
X223520000Y-38100000D03*
%TO.P,U2,2,BUS1*%
%TO.N,BUS1*%
X220980000Y-38100000D03*
%TO.P,U2,3,BUS2*%
%TO.N,BUS2*%
X218440000Y-38100000D03*
%TO.P,U2,4,BUS3*%
%TO.N,BUS3*%
X215900000Y-38100000D03*
%TO.P,U2,5,BUS4*%
%TO.N,BUS4*%
X213360000Y-38100000D03*
%TO.P,U2,6,BUS5*%
%TO.N,BUS5*%
X210820000Y-38100000D03*
%TO.P,U2,7,BUS6*%
%TO.N,BUS6*%
X208280000Y-38100000D03*
%TO.P,U2,8,BUS7*%
%TO.N,BUS7*%
X205740000Y-38100000D03*
%TO.P,U2,9,L0*%
%TO.N,IR_D0*%
X203200000Y-38100000D03*
%TO.P,U2,10,L1*%
%TO.N,IR_D1*%
X200660000Y-38100000D03*
%TO.P,U2,11,L2*%
%TO.N,IR_D2*%
X198120000Y-38100000D03*
%TO.P,U2,12,L3*%
%TO.N,IR_D3*%
X195580000Y-38100000D03*
%TO.P,U2,13,L4*%
%TO.N,IR_D4*%
X193040000Y-38100000D03*
%TO.P,U2,14,L5*%
%TO.N,IR_D5*%
X190500000Y-38100000D03*
%TO.P,U2,15,L6*%
%TO.N,IR_D6*%
X187960000Y-38100000D03*
%TO.P,U2,16,L7*%
%TO.N,IR_D7*%
X185420000Y-38100000D03*
%TO.P,U2,17,VCC*%
%TO.N,VCC*%
X182880000Y-60960000D03*
X226060000Y-38100000D03*
%TO.P,U2,18,CLK*%
%TO.N,CLK*%
X185420000Y-60960000D03*
%TO.P,U2,19,IN*%
%TO.N,II*%
X187960000Y-60960000D03*
%TO.P,U2,20,~{CLR}*%
%TO.N,~{CLR}*%
X190500000Y-60960000D03*
%TO.P,U2,21,OUT*%
%TO.N,GND*%
X193040000Y-60960000D03*
%TO.P,U2,22,GND*%
X182880000Y-38100000D03*
X205740000Y-60960000D03*
%TD*%
%TO.P,U4,*%
%TO.N,*%
X114300000Y-60960000D03*
X116840000Y-60960000D03*
X119380000Y-60960000D03*
%TO.P,U4,1,BUS0*%
%TO.N,BUS0*%
X45720000Y-38100000D03*
%TO.P,U4,2,BUS1*%
%TO.N,BUS1*%
X43180000Y-38100000D03*
%TO.P,U4,3,BUS2*%
%TO.N,BUS2*%
X40640000Y-38100000D03*
%TO.P,U4,4,BUS3*%
%TO.N,BUS3*%
X38100000Y-38100000D03*
%TO.P,U4,5,BUS4*%
%TO.N,BUS4*%
X35560000Y-38100000D03*
%TO.P,U4,6,BUS5*%
%TO.N,BUS5*%
X33020000Y-38100000D03*
%TO.P,U4,7,BUS6*%
%TO.N,BUS6*%
X30480000Y-38100000D03*
%TO.P,U4,8,BUS7*%
%TO.N,BUS7*%
X27940000Y-38100000D03*
%TO.P,U4,9,VCC*%
%TO.N,VCC*%
X48260000Y-38100000D03*
X99060000Y-60960000D03*
%TO.P,U4,10,CLK*%
%TO.N,CLK*%
X101600000Y-60960000D03*
%TO.P,U4,11,J*%
%TO.N,J*%
X104140000Y-60960000D03*
%TO.P,U4,12,~{CLR}*%
%TO.N,~{CLR}*%
X106680000Y-60960000D03*
%TO.P,U4,13,CO*%
%TO.N,CO*%
X109220000Y-60960000D03*
%TO.P,U4,14,CE*%
%TO.N,CE*%
X111760000Y-60960000D03*
%TO.P,U4,15,GND*%
%TO.N,GND*%
X25400000Y-38100000D03*
X121920000Y-60960000D03*
%TD*%
%TO.P,U9,*%
%TO.N,*%
X236220000Y-127000000D03*
X238760000Y-127000000D03*
X241300000Y-127000000D03*
X243840000Y-127000000D03*
X246380000Y-127000000D03*
X248920000Y-127000000D03*
X251460000Y-127000000D03*
X254000000Y-127000000D03*
X317500000Y-177800000D03*
X320040000Y-177800000D03*
X322580000Y-177800000D03*
X325120000Y-177800000D03*
X327660000Y-177800000D03*
%TO.P,U9,1,VCC*%
%TO.N,VCC*%
X256540000Y-127000000D03*
X307340000Y-177800000D03*
%TO.P,U9,2,CLK*%
%TO.N,CLK*%
X309880000Y-177800000D03*
%TO.P,U9,3,~{CLR}*%
%TO.N,~{CLR}*%
X312420000Y-177800000D03*
%TO.P,U9,4,HLT*%
%TO.N,HLTIN*%
X314960000Y-177800000D03*
%TO.P,U9,5,GND*%
%TO.N,GND*%
X233680000Y-127000000D03*
X330200000Y-177800000D03*
%TD*%
D13*
%TO.P,R1,1*%
%TO.N,HLT*%
X307340000Y-172720000D03*
D14*
%TO.P,R1,2*%
%TO.N,HLTIN*%
X314960000Y-172720000D03*
%TD*%
D10*
%TO.P,U1,*%
%TO.N,*%
X109220000Y-119380000D03*
X111760000Y-119380000D03*
X114300000Y-119380000D03*
X116840000Y-119380000D03*
X119380000Y-119380000D03*
%TO.P,U1,1,BUS0*%
%TO.N,BUS0*%
X119380000Y-68580000D03*
%TO.P,U1,2,BUS1*%
%TO.N,BUS1*%
X116840000Y-68580000D03*
%TO.P,U1,3,BUS2*%
%TO.N,BUS2*%
X114300000Y-68580000D03*
%TO.P,U1,4,BUS3*%
%TO.N,BUS3*%
X111760000Y-68580000D03*
%TO.P,U1,5,BUS4*%
%TO.N,BUS4*%
X109220000Y-68580000D03*
%TO.P,U1,6,BUS5*%
%TO.N,BUS5*%
X106680000Y-68580000D03*
%TO.P,U1,7,BUS6*%
%TO.N,BUS6*%
X104140000Y-68580000D03*
%TO.P,U1,8,BUS7*%
%TO.N,BUS7*%
X101600000Y-68580000D03*
%TO.P,U1,9,L0*%
%TO.N,MAR_A0*%
X45720000Y-68580000D03*
%TO.P,U1,10,L1*%
%TO.N,MAR_A1*%
X43180000Y-68580000D03*
%TO.P,U1,11,L2*%
%TO.N,MAR_A2*%
X40640000Y-68580000D03*
%TO.P,U1,12,L3*%
%TO.N,MAR_A3*%
X38100000Y-68580000D03*
%TO.P,U1,13,L4*%
%TO.N,MAR_A4*%
X35560000Y-68580000D03*
%TO.P,U1,14,L5*%
%TO.N,MAR_A5*%
X33020000Y-68580000D03*
%TO.P,U1,15,L6*%
%TO.N,MAR_A6*%
X30480000Y-68580000D03*
%TO.P,U1,16,L7*%
%TO.N,MAR_A7*%
X27940000Y-68580000D03*
%TO.P,U1,17,L8*%
%TO.N,GND*%
X45720000Y-73660000D03*
%TO.P,U1,18,L9*%
X43180000Y-73660000D03*
%TO.P,U1,19,L10*%
X40640000Y-73660000D03*
%TO.P,U1,20,L11*%
X38100000Y-73660000D03*
%TO.P,U1,21,L12*%
X35560000Y-73660000D03*
%TO.P,U1,22,L13*%
X33020000Y-73660000D03*
%TO.P,U1,23,L14*%
X30480000Y-73660000D03*
%TO.P,U1,24,L15*%
X27940000Y-73660000D03*
%TO.P,U1,25,VCC*%
%TO.N,VCC*%
X48260000Y-68580000D03*
X48260000Y-73660000D03*
X99060000Y-119380000D03*
X121920000Y-68580000D03*
%TO.P,U1,26,RO*%
%TO.N,RO*%
X101600000Y-119380000D03*
%TO.P,U1,27,RRO*%
%TO.N,RRO*%
X104140000Y-119380000D03*
%TO.P,U1,28,RI*%
%TO.N,RI*%
X106680000Y-119380000D03*
%TO.P,U1,29,GND*%
%TO.N,GND*%
X25400000Y-68580000D03*
X25400000Y-73660000D03*
X99060000Y-68580000D03*
X121920000Y-119380000D03*
%TD*%
D13*
%TO.P,R2,1*%
%TO.N,GND*%
X72517000Y-47371000D03*
D14*
%TO.P,R2,2*%
%TO.N,Net-(J1-Shield)*%
X72517000Y-39751000D03*
%TD*%
D10*
%TO.P,U7,*%
%TO.N,*%
X223520000Y-119380000D03*
%TO.P,U7,1,BUS0*%
%TO.N,BUS0*%
X223520000Y-68580000D03*
%TO.P,U7,2,BUS1*%
%TO.N,BUS1*%
X220980000Y-68580000D03*
%TO.P,U7,3,BUS2*%
%TO.N,BUS2*%
X218440000Y-68580000D03*
%TO.P,U7,4,BUS3*%
%TO.N,BUS3*%
X215900000Y-68580000D03*
%TO.P,U7,5,BUS4*%
%TO.N,BUS4*%
X213360000Y-68580000D03*
%TO.P,U7,6,BUS5*%
%TO.N,BUS5*%
X210820000Y-68580000D03*
%TO.P,U7,7,BUS6*%
%TO.N,BUS6*%
X208280000Y-68580000D03*
%TO.P,U7,8,BUS7*%
%TO.N,BUS7*%
X205740000Y-68580000D03*
%TO.P,U7,9,A0*%
%TO.N,A_D0*%
X149860000Y-68580000D03*
%TO.P,U7,10,A1*%
%TO.N,A_D1*%
X147320000Y-68580000D03*
%TO.P,U7,11,A2*%
%TO.N,A_D2*%
X144780000Y-68580000D03*
%TO.P,U7,12,A3*%
%TO.N,A_D3*%
X142240000Y-68580000D03*
%TO.P,U7,13,A4*%
%TO.N,A_D4*%
X139700000Y-68580000D03*
%TO.P,U7,14,A5*%
%TO.N,A_D5*%
X137160000Y-68580000D03*
%TO.P,U7,15,A6*%
%TO.N,A_D6*%
X134620000Y-68580000D03*
%TO.P,U7,16,A7*%
%TO.N,A_D7*%
X132080000Y-68580000D03*
%TO.P,U7,17,B0*%
%TO.N,B_D0*%
X149860000Y-119380000D03*
%TO.P,U7,18,B1*%
%TO.N,B_D1*%
X147320000Y-119380000D03*
%TO.P,U7,19,B2*%
%TO.N,B_D2*%
X144780000Y-119380000D03*
%TO.P,U7,20,B3*%
%TO.N,B_D3*%
X142240000Y-119380000D03*
%TO.P,U7,21,B4*%
%TO.N,B_D4*%
X139700000Y-119380000D03*
%TO.P,U7,22,B5*%
%TO.N,B_D5*%
X137160000Y-119380000D03*
%TO.P,U7,23,B6*%
%TO.N,B_D6*%
X134620000Y-119380000D03*
%TO.P,U7,24,B7*%
%TO.N,B_D7*%
X132080000Y-119380000D03*
%TO.P,U7,25,VCC*%
%TO.N,VCC*%
X152400000Y-68580000D03*
X152400000Y-119380000D03*
X203200000Y-119380000D03*
X226060000Y-68580000D03*
%TO.P,U7,26,CLK*%
%TO.N,CLK*%
X205740000Y-119380000D03*
%TO.P,U7,27,SU*%
%TO.N,PCL2*%
X208280000Y-119380000D03*
%TO.P,U7,28,FI*%
%TO.N,FI*%
X210820000Y-119380000D03*
%TO.P,U7,29,CLR*%
%TO.N,~{CLR}*%
X213360000Y-119380000D03*
%TO.P,U7,30,EO*%
%TO.N,EO*%
X215900000Y-119380000D03*
%TO.P,U7,31,CF*%
%TO.N,CF*%
X218440000Y-119380000D03*
%TO.P,U7,32,ZF*%
%TO.N,ZF*%
X220980000Y-119380000D03*
%TO.P,U7,33,GND*%
%TO.N,GND*%
X129540000Y-68580000D03*
X129540000Y-119380000D03*
X203200000Y-68580000D03*
X226060000Y-119380000D03*
%TD*%
D13*
%TO.P,C1,1*%
%TO.N,HLTIN*%
X317540000Y-172720000D03*
%TO.P,C1,2*%
%TO.N,VCC*%
X322540000Y-172720000D03*
%TD*%
D10*
%TO.P,U10,*%
%TO.N,*%
X246380000Y-119380000D03*
X248920000Y-119380000D03*
X251460000Y-119380000D03*
X254000000Y-119380000D03*
%TO.P,U10,1,I0*%
%TO.N,IR_D0*%
X254000000Y-68580000D03*
%TO.P,U10,2,I1*%
%TO.N,IR_D1*%
X251460000Y-68580000D03*
%TO.P,U10,3,I2*%
%TO.N,IR_D2*%
X248920000Y-68580000D03*
%TO.P,U10,4,I3*%
%TO.N,IR_D3*%
X246380000Y-68580000D03*
%TO.P,U10,5,I4*%
%TO.N,IR_D4*%
X243840000Y-68580000D03*
%TO.P,U10,6,I5*%
%TO.N,IR_D5*%
X241300000Y-68580000D03*
%TO.P,U10,7,I6*%
%TO.N,IR_D6*%
X238760000Y-68580000D03*
%TO.P,U10,8,I7*%
%TO.N,IR_D7*%
X236220000Y-68580000D03*
%TO.P,U10,9,OCRA0*%
%TO.N,unconnected-(U10-OCRA0-Pad9)*%
X327660000Y-68580000D03*
%TO.P,U10,10,OCRA1*%
%TO.N,MI*%
X325120000Y-68580000D03*
%TO.P,U10,11,OCRA2*%
%TO.N,II*%
X322580000Y-68580000D03*
%TO.P,U10,12,OCRA3*%
%TO.N,J*%
X320040000Y-68580000D03*
%TO.P,U10,13,OCRA4*%
%TO.N,AI*%
X317500000Y-68580000D03*
%TO.P,U10,14,OCRA5*%
%TO.N,BI*%
X314960000Y-68580000D03*
%TO.P,U10,15,OCRA6*%
%TO.N,OI*%
X312420000Y-68580000D03*
%TO.P,U10,16,OCRA7*%
%TO.N,RI*%
X309880000Y-68580000D03*
%TO.P,U10,17,OCRA8*%
%TO.N,TI*%
X327660000Y-73660000D03*
%TO.P,U10,18,OCRA9*%
%TO.N,OCA9*%
X325120000Y-73660000D03*
%TO.P,U10,19,OCRA10*%
%TO.N,OCA10*%
X322580000Y-73660000D03*
%TO.P,U10,20,OCRA11*%
%TO.N,OCA11*%
X320040000Y-73660000D03*
%TO.P,U10,21,OCRA12*%
%TO.N,OCA12*%
X317500000Y-73660000D03*
%TO.P,U10,22,OCRA13*%
%TO.N,OCA13*%
X314960000Y-73660000D03*
%TO.P,U10,23,OCRA14*%
%TO.N,OCA14*%
X312420000Y-73660000D03*
%TO.P,U10,24,OCRA15*%
%TO.N,OCA15*%
X309880000Y-73660000D03*
%TO.P,U10,25,OCRB0*%
%TO.N,unconnected-(U10-OCRB0-Pad25)*%
X327660000Y-114300000D03*
%TO.P,U10,26,OCRB1*%
%TO.N,CO*%
X325120000Y-114300000D03*
%TO.P,U10,27,OCRB2*%
%TO.N,RRO*%
X322580000Y-114300000D03*
%TO.P,U10,28,OCRB3*%
%TO.N,AO*%
X320040000Y-114300000D03*
%TO.P,U10,29,OCRB4*%
%TO.N,BO*%
X317500000Y-114300000D03*
%TO.P,U10,30,OCRB5*%
%TO.N,EO*%
X314960000Y-114300000D03*
%TO.P,U10,31,OCRB6*%
%TO.N,RO*%
X312420000Y-114300000D03*
%TO.P,U10,32,OCRB7*%
%TO.N,TO*%
X309880000Y-114300000D03*
%TO.P,U10,33,OCRB8*%
%TO.N,OCB8*%
X327660000Y-119380000D03*
%TO.P,U10,34,OCRB9*%
%TO.N,OCB9*%
X325120000Y-119380000D03*
%TO.P,U10,35,OCRB10*%
%TO.N,OCB10*%
X322580000Y-119380000D03*
%TO.P,U10,36,OCRB11*%
%TO.N,OCB11*%
X320040000Y-119380000D03*
%TO.P,U10,37,OCRB12*%
%TO.N,OCB12*%
X317500000Y-119380000D03*
%TO.P,U10,38,OCRB13*%
%TO.N,OCB13*%
X314960000Y-119380000D03*
%TO.P,U10,39,OCRB14*%
%TO.N,OCB14*%
X312420000Y-119380000D03*
%TO.P,U10,40,OCRB15*%
%TO.N,OCB15*%
X309880000Y-119380000D03*
%TO.P,U10,41,PCL0*%
%TO.N,CE*%
X254000000Y-73660000D03*
%TO.P,U10,42,PCL1*%
%TO.N,FI*%
X251460000Y-73660000D03*
%TO.P,U10,43,PCL2*%
%TO.N,PCL2*%
X248920000Y-73660000D03*
%TO.P,U10,44,PCL3*%
%TO.N,PCL3*%
X246380000Y-73660000D03*
%TO.P,U10,45,PCL4*%
%TO.N,PCL4*%
X243840000Y-73660000D03*
%TO.P,U10,46,PCL5*%
%TO.N,PCL5*%
X241300000Y-73660000D03*
%TO.P,U10,47,PCL6*%
%TO.N,HLT*%
X238760000Y-73660000D03*
%TO.P,U10,48,PCL7*%
%TO.N,unconnected-(U10-PCL7-Pad48)*%
X236220000Y-73660000D03*
%TO.P,U10,49,VCC*%
%TO.N,VCC*%
X233680000Y-119380000D03*
X256540000Y-68580000D03*
X256540000Y-73660000D03*
X330200000Y-68580000D03*
X330200000Y-73660000D03*
X330200000Y-114300000D03*
X330200000Y-119380000D03*
%TO.P,U10,50,CLK*%
%TO.N,CLK*%
X236220000Y-119380000D03*
%TO.P,U10,51,ZF*%
%TO.N,ZF*%
X238760000Y-119380000D03*
%TO.P,U10,52,CF*%
%TO.N,CF*%
X241300000Y-119380000D03*
%TO.P,U10,53,~{CLR}*%
%TO.N,~{CLR}*%
X243840000Y-119380000D03*
%TO.P,U10,54,GND*%
%TO.N,GND*%
X233680000Y-68580000D03*
X233680000Y-73660000D03*
X256540000Y-119380000D03*
X307340000Y-68580000D03*
X307340000Y-73660000D03*
X307340000Y-114300000D03*
X307340000Y-119380000D03*
%TD*%
D15*
%TO.N,FI*%
X210820000Y-75175700D03*
%TO.N,OI*%
X30480000Y-77175100D03*
%TO.N,TO*%
X245110000Y-111914500D03*
%TO.N,TI*%
X240719800Y-63839500D03*
%TO.N,HLT*%
X240030000Y-167424500D03*
%TO.N,PCL2*%
X208280000Y-76229500D03*
%TO.N,IR_D7*%
X184150000Y-66161000D03*
%TO.N,IR_D6*%
X199475900Y-65676900D03*
%TO.N,IR_D5*%
X194216700Y-66941200D03*
%TO.N,IR_D4*%
X196756700Y-67675300D03*
%TO.N,IR_D3*%
X247570500Y-52439500D03*
X200713900Y-52439500D03*
%TO.N,IR_D2*%
X201951900Y-65208100D03*
%TO.N,IR_D1*%
X204520800Y-64772300D03*
%TO.N,IR_D0*%
X206675300Y-63843700D03*
%TO.N,RI*%
X308646600Y-115490600D03*
%TO.N,BO*%
X316230000Y-151248700D03*
%TO.N,BI*%
X311209900Y-150759000D03*
%TO.N,B_D6*%
X185858500Y-118545700D03*
%TO.N,B_D5*%
X188567100Y-116700900D03*
%TO.N,B_D4*%
X189138200Y-119262600D03*
%TO.N,B_D3*%
X195580000Y-117466500D03*
%TO.N,AO*%
X318770000Y-151993000D03*
%TO.N,AI*%
X313777800Y-135704500D03*
%TO.N,MAR_A7*%
X31274900Y-40680300D03*
%TO.N,MAR_A6*%
X133417600Y-63687400D03*
%TO.N,MAR_A5*%
X136100600Y-69793700D03*
%TO.N,MAR_A4*%
X138401300Y-66307800D03*
%TO.N,MAR_A3*%
X141055400Y-63816900D03*
%TO.N,MAR_A2*%
X143475600Y-64543600D03*
%TO.N,MAR_A1*%
X59253700Y-35069900D03*
%TO.N,MAR_A0*%
X146122500Y-65741400D03*
%TO.N,GND*%
X121920000Y-112649000D03*
X227236700Y-112649000D03*
X185637300Y-147404500D03*
X152400000Y-129577100D03*
%TO.N,CE*%
X117269300Y-73484700D03*
%TO.N,CO*%
X110490000Y-110706300D03*
%TO.N,~{CLR}*%
X245109900Y-179435600D03*
X137160000Y-175354500D03*
%TO.N,J*%
X320040000Y-72027500D03*
X106615700Y-77916900D03*
%TO.N,CLK*%
X132080000Y-179432000D03*
X237583300Y-176164400D03*
%TO.N,VCC*%
X322342400Y-167424500D03*
X129540000Y-67102800D03*
X48260000Y-48474500D03*
X327533100Y-44509500D03*
X203200000Y-112649000D03*
X307340000Y-44670200D03*
X174359500Y-52439500D03*
X287020000Y-68580000D03*
%TO.N,BUS7*%
X92961900Y-38807300D03*
X308491000Y-35773400D03*
%TO.N,BUS5*%
X48031400Y-67124600D03*
%TO.N,BUS4*%
X110650600Y-131835600D03*
X106517400Y-35593600D03*
%TO.N,BUS3*%
X55224900Y-66751100D03*
X268634500Y-32670500D03*
%TO.N,BUS2*%
X108142400Y-36477600D03*
X269571200Y-33587400D03*
%TO.N,BUS1*%
X118458500Y-40192100D03*
X220980000Y-41553600D03*
%TO.N,BUS0*%
X119973200Y-40918800D03*
X223520000Y-42273000D03*
%TD*%
D16*
%TO.N,FI*%
X210820000Y-119380000D02*
X210820000Y-75175700D01*
%TO.N,HLTIN*%
X314960000Y-172720000D02*
X314960000Y-177800000D01*
%TO.N,OI*%
X30480000Y-177800000D02*
X30480000Y-77175100D01*
%TO.N,TO*%
X245110000Y-62230000D02*
X245110000Y-111914500D01*
X243840000Y-60960000D02*
X245110000Y-62230000D01*
%TO.N,TI*%
X240719800Y-62919800D02*
X240719800Y-63839500D01*
X238760000Y-60960000D02*
X240719800Y-62919800D01*
%TO.N,HLT*%
X240030000Y-74930000D02*
X238760000Y-73660000D01*
X240030000Y-167424500D02*
X240030000Y-74930000D01*
%TO.N,PCL2*%
X208280000Y-119380000D02*
X208280000Y-76229500D01*
%TO.N,IR_D7*%
X184150000Y-41269900D02*
X184150000Y-66161000D01*
X181700600Y-38820500D02*
X184150000Y-41269900D01*
X181700600Y-37536000D02*
X181700600Y-38820500D01*
X182334700Y-36901900D02*
X181700600Y-37536000D01*
X184221900Y-36901900D02*
X182334700Y-36901900D01*
X185420000Y-38100000D02*
X184221900Y-36901900D01*
%TO.N,IR_D6*%
X199475900Y-43780400D02*
X199475900Y-65676900D01*
X194310000Y-38614500D02*
X199475900Y-43780400D01*
X194310000Y-37622500D02*
X194310000Y-38614500D01*
X193589400Y-36901900D02*
X194310000Y-37622500D01*
X189158100Y-36901900D02*
X193589400Y-36901900D01*
X187960000Y-38100000D02*
X189158100Y-36901900D01*
%TO.N,IR_D5*%
X194216700Y-41816700D02*
X194216700Y-66941200D01*
X190500000Y-38100000D02*
X194216700Y-41816700D01*
%TO.N,IR_D4*%
X196756700Y-41816700D02*
X196756700Y-67675300D01*
X193040000Y-38100000D02*
X196756700Y-41816700D01*
%TO.N,IR_D3*%
X200713900Y-43233900D02*
X195580000Y-38100000D01*
X200713900Y-52439500D02*
X200713900Y-43233900D01*
X247570500Y-67389500D02*
X247570500Y-52439500D01*
X246380000Y-68580000D02*
X247570500Y-67389500D01*
%TO.N,IR_D2*%
X201951900Y-41931900D02*
X201951900Y-65208100D01*
X198120000Y-38100000D02*
X201951900Y-41931900D01*
%TO.N,IR_D1*%
X204520800Y-41960800D02*
X204520800Y-64772300D01*
X200660000Y-38100000D02*
X204520800Y-41960800D01*
%TO.N,IR_D0*%
X206940800Y-63578200D02*
X206675300Y-63843700D01*
X206940800Y-41840800D02*
X206940800Y-63578200D01*
X203200000Y-38100000D02*
X206940800Y-41840800D01*
%TO.N,RI*%
X308646600Y-69813400D02*
X308646600Y-115490600D01*
X309880000Y-68580000D02*
X308646600Y-69813400D01*
%TO.N,BO*%
X316230000Y-115570000D02*
X316230000Y-151248700D01*
X317500000Y-114300000D02*
X316230000Y-115570000D01*
%TO.N,BI*%
X311209900Y-72330100D02*
X311209900Y-150759000D01*
X314960000Y-68580000D02*
X311209900Y-72330100D01*
%TO.N,B_D6*%
X185858500Y-124898500D02*
X185858500Y-118545700D01*
X187960000Y-127000000D02*
X185858500Y-124898500D01*
%TO.N,B_D5*%
X190500000Y-118633800D02*
X188567100Y-116700900D01*
X190500000Y-127000000D02*
X190500000Y-118633800D01*
%TO.N,B_D4*%
X189138200Y-127322400D02*
X189138200Y-119262600D01*
X190040900Y-128225100D02*
X189138200Y-127322400D01*
X191814900Y-128225100D02*
X190040900Y-128225100D01*
X193040000Y-127000000D02*
X191814900Y-128225100D01*
%TO.N,B_D3*%
X195580000Y-127000000D02*
X195580000Y-117466500D01*
%TO.N,AO*%
X318770000Y-115570000D02*
X318770000Y-151993000D01*
X320040000Y-114300000D02*
X318770000Y-115570000D01*
%TO.N,AI*%
X313777800Y-72302200D02*
X313777800Y-135704500D01*
X317500000Y-68580000D02*
X313777800Y-72302200D01*
%TO.N,A_D7*%
X133270600Y-125809400D02*
X132080000Y-127000000D01*
X133270600Y-69770600D02*
X133270600Y-125809400D01*
X132080000Y-68580000D02*
X133270600Y-69770600D01*
%TO.N,A_D6*%
X135833600Y-125786400D02*
X134620000Y-127000000D01*
X135833600Y-70554300D02*
X135833600Y-125786400D01*
X134620000Y-69340700D02*
X135833600Y-70554300D01*
X134620000Y-68580000D02*
X134620000Y-69340700D01*
%TO.N,A_D5*%
X138350600Y-125809400D02*
X137160000Y-127000000D01*
X138350600Y-69770600D02*
X138350600Y-125809400D01*
X137160000Y-68580000D02*
X138350600Y-69770600D01*
%TO.N,A_D4*%
X140890600Y-125809400D02*
X139700000Y-127000000D01*
X140890600Y-69770600D02*
X140890600Y-125809400D01*
X139700000Y-68580000D02*
X140890600Y-69770600D01*
%TO.N,A_D3*%
X143430600Y-125809400D02*
X142240000Y-127000000D01*
X143430600Y-69770600D02*
X143430600Y-125809400D01*
X142240000Y-68580000D02*
X143430600Y-69770600D01*
%TO.N,A_D2*%
X145970600Y-125809400D02*
X144780000Y-127000000D01*
X145970600Y-69770600D02*
X145970600Y-125809400D01*
X144780000Y-68580000D02*
X145970600Y-69770600D01*
%TO.N,A_D1*%
X148510600Y-125809400D02*
X147320000Y-127000000D01*
X148510600Y-69770600D02*
X148510600Y-125809400D01*
X147320000Y-68580000D02*
X148510600Y-69770600D01*
%TO.N,A_D0*%
X151050600Y-125809400D02*
X149860000Y-127000000D01*
X151050600Y-69770600D02*
X151050600Y-125809400D01*
X149860000Y-68580000D02*
X151050600Y-69770600D01*
%TO.N,MAR_A7*%
X27940000Y-44015200D02*
X27940000Y-68580000D01*
X31274900Y-40680300D02*
X27940000Y-44015200D01*
%TO.N,MAR_A6*%
X133417600Y-39302400D02*
X133417600Y-63687400D01*
X134620000Y-38100000D02*
X133417600Y-39302400D01*
%TO.N,MAR_A5*%
X135942600Y-39317400D02*
X137160000Y-38100000D01*
X135942600Y-69635700D02*
X135942600Y-39317400D01*
X136100600Y-69793700D02*
X135942600Y-69635700D01*
%TO.N,MAR_A4*%
X138401300Y-39398700D02*
X138401300Y-66307800D01*
X139700000Y-38100000D02*
X138401300Y-39398700D01*
%TO.N,MAR_A3*%
X141055400Y-39284600D02*
X141055400Y-63816900D01*
X142240000Y-38100000D02*
X141055400Y-39284600D01*
%TO.N,MAR_A2*%
X143475600Y-39404400D02*
X143475600Y-64543600D01*
X144780000Y-38100000D02*
X143475600Y-39404400D01*
%TO.N,MAR_A1*%
X57136800Y-37186800D02*
X59253700Y-35069900D01*
X57136800Y-66523000D02*
X57136800Y-37186800D01*
X48811400Y-74848400D02*
X57136800Y-66523000D01*
X47783100Y-74848400D02*
X48811400Y-74848400D01*
X47083300Y-74148600D02*
X47783100Y-74848400D01*
X47083300Y-72483300D02*
X47083300Y-74148600D01*
X43180000Y-68580000D02*
X47083300Y-72483300D01*
%TO.N,MAR_A0*%
X146122500Y-41837500D02*
X146122500Y-65741400D01*
X149860000Y-38100000D02*
X146122500Y-41837500D01*
%TO.N,GND*%
X307340000Y-119380000D02*
X307340000Y-114300000D01*
X307340000Y-114300000D02*
X307340000Y-73660000D01*
X307340000Y-73660000D02*
X307340000Y-68580000D01*
X309880000Y-66040000D02*
X309880000Y-60960000D01*
X307340000Y-68580000D02*
X309880000Y-66040000D01*
X233680000Y-73660000D02*
X233680000Y-68580000D01*
X234870600Y-39290600D02*
X233680000Y-38100000D01*
X234870600Y-67389400D02*
X234870600Y-39290600D01*
X233680000Y-68580000D02*
X234870600Y-67389400D01*
X129540000Y-119380000D02*
X129540000Y-127000000D01*
X25400000Y-73660000D02*
X25400000Y-68580000D01*
X25400000Y-68580000D02*
X25400000Y-38100000D01*
X121920000Y-119380000D02*
X121920000Y-112649000D01*
X307340000Y-159148900D02*
X307340000Y-119380000D01*
X322061100Y-173870000D02*
X307340000Y-159148900D01*
X326270000Y-173870000D02*
X322061100Y-173870000D01*
X330200000Y-177800000D02*
X326270000Y-173870000D01*
X234187200Y-118203300D02*
X227236700Y-118203300D01*
X234867100Y-118883200D02*
X234187200Y-118203300D01*
X234867100Y-125812900D02*
X234867100Y-118883200D01*
X233680000Y-127000000D02*
X234867100Y-125812900D01*
X227236700Y-118203300D02*
X226060000Y-119380000D01*
X227236700Y-118203300D02*
X227236700Y-112649000D01*
X309880000Y-58420000D02*
X309880000Y-60960000D01*
X330200000Y-38100000D02*
X309880000Y-58420000D01*
X193040000Y-48260000D02*
X193040000Y-60960000D01*
X182880000Y-38100000D02*
X193040000Y-48260000D01*
X130726700Y-67393300D02*
X129540000Y-68580000D01*
X130726700Y-39286700D02*
X130726700Y-67393300D01*
X129540000Y-38100000D02*
X130726700Y-39286700D01*
X129540000Y-68580000D02*
X125908600Y-68580000D01*
X125908600Y-64948600D02*
X125908600Y-68580000D01*
X121920000Y-60960000D02*
X125908600Y-64948600D01*
X125908600Y-108660400D02*
X121920000Y-112649000D01*
X125908600Y-68580000D02*
X125908600Y-108660400D01*
X233680000Y-106205700D02*
X227236700Y-112649000D01*
X233680000Y-73660000D02*
X233680000Y-106205700D01*
X152400000Y-149860000D02*
X152400000Y-129577100D01*
X182880000Y-144647200D02*
X182880000Y-127000000D01*
X185637300Y-147404500D02*
X182880000Y-144647200D01*
X205740000Y-66040000D02*
X203200000Y-68580000D01*
X205740000Y-60960000D02*
X205740000Y-66040000D01*
X48260000Y-76200000D02*
X48260000Y-177800000D01*
X45720000Y-73660000D02*
X48260000Y-76200000D01*
%TO.N,CE*%
X115663300Y-71878700D02*
X117269300Y-73484700D01*
X115663300Y-64863300D02*
X115663300Y-71878700D01*
X111760000Y-60960000D02*
X115663300Y-64863300D01*
%TO.N,CO*%
X110490000Y-62230000D02*
X110490000Y-110706300D01*
X109220000Y-60960000D02*
X110490000Y-62230000D01*
%TO.N,~{CLR}*%
X213360000Y-125217400D02*
X213360000Y-119380000D01*
X212183300Y-126394100D02*
X213360000Y-125217400D01*
X212183300Y-128176700D02*
X212183300Y-126394100D01*
X190500000Y-149860000D02*
X212183300Y-128176700D01*
X242570000Y-118110000D02*
X243840000Y-119380000D01*
X242570000Y-62230000D02*
X242570000Y-118110000D01*
X241300000Y-60960000D02*
X242570000Y-62230000D01*
X137160000Y-149860000D02*
X137160000Y-175354500D01*
X245109900Y-120649900D02*
X245109900Y-179435600D01*
X243840000Y-119380000D02*
X245109900Y-120649900D01*
%TO.N,J*%
X106615700Y-70341900D02*
X106615700Y-77916900D01*
X105410000Y-69136200D02*
X106615700Y-70341900D01*
X105410000Y-62230000D02*
X105410000Y-69136200D01*
X104140000Y-60960000D02*
X105410000Y-62230000D01*
X320040000Y-68580000D02*
X320040000Y-72027500D01*
%TO.N,CLK*%
X185420000Y-103326400D02*
X185420000Y-60960000D01*
X203606800Y-121513200D02*
X185420000Y-103326400D01*
X199390000Y-125730000D02*
X203606800Y-121513200D01*
X199390000Y-135890000D02*
X199390000Y-125730000D01*
X185420000Y-149860000D02*
X199390000Y-135890000D01*
X203606800Y-121513200D02*
X205740000Y-119380000D01*
X132080000Y-149860000D02*
X132080000Y-179432000D01*
X237410600Y-118189400D02*
X236220000Y-119380000D01*
X237410600Y-62150600D02*
X237410600Y-118189400D01*
X236220000Y-60960000D02*
X237410600Y-62150600D01*
X237583300Y-120743300D02*
X237583300Y-176164400D01*
X236220000Y-119380000D02*
X237583300Y-120743300D01*
%TO.N,VCC*%
X330200000Y-114300000D02*
X330200000Y-73660000D01*
X330200000Y-119380000D02*
X330200000Y-114300000D01*
X233680000Y-119380000D02*
X226060000Y-127000000D01*
X322540000Y-127040000D02*
X322540000Y-167424500D01*
X330200000Y-119380000D02*
X322540000Y-127040000D01*
X322540000Y-167424500D02*
X322540000Y-172720000D01*
X322540000Y-167424500D02*
X322342400Y-167424500D01*
X226060000Y-68580000D02*
X233680000Y-60960000D01*
X48260000Y-73660000D02*
X48260000Y-68580000D01*
X48260000Y-48474500D02*
X48260000Y-38100000D01*
X121920000Y-142240000D02*
X129540000Y-149860000D01*
X121920000Y-127000000D02*
X121920000Y-142240000D01*
X330200000Y-73660000D02*
X330200000Y-68580000D01*
X327533100Y-65913100D02*
X327533100Y-44509500D01*
X330200000Y-68580000D02*
X327533100Y-65913100D01*
X203200000Y-119380000D02*
X203200000Y-112649000D01*
X307340000Y-38100000D02*
X307340000Y-44670200D01*
X226060000Y-53340000D02*
X233680000Y-60960000D01*
X226060000Y-38100000D02*
X226060000Y-53340000D01*
X152400000Y-68580000D02*
X152400000Y-119380000D01*
X48260000Y-66325600D02*
X48260000Y-48474500D01*
X48260100Y-66325600D02*
X48260000Y-66325600D01*
X48758100Y-66823600D02*
X48260100Y-66325600D01*
X48758100Y-68081900D02*
X48758100Y-66823600D01*
X48260000Y-68580000D02*
X48758100Y-68081900D01*
X172720000Y-50800000D02*
X172720000Y-38100000D01*
X174359500Y-52439500D02*
X172720000Y-50800000D01*
X182880000Y-60960000D02*
X174359500Y-52439500D01*
X287020000Y-48260000D02*
X287020000Y-60960000D01*
X276860000Y-38100000D02*
X287020000Y-48260000D01*
X287020000Y-60960000D02*
X287020000Y-68580000D01*
X256540000Y-68580000D02*
X256540000Y-73660000D01*
X255349400Y-125809400D02*
X256540000Y-127000000D01*
X255349400Y-74850600D02*
X255349400Y-125809400D01*
X256540000Y-73660000D02*
X255349400Y-74850600D01*
X172720000Y-139700000D02*
X182880000Y-149860000D01*
X172720000Y-127000000D02*
X172720000Y-139700000D01*
X129540000Y-60960000D02*
X129540000Y-67102800D01*
%TO.N,BUS7*%
X102790600Y-125809400D02*
X101600000Y-127000000D01*
X102790600Y-69770600D02*
X102790600Y-125809400D01*
X101600000Y-68580000D02*
X102790600Y-69770600D01*
X206918700Y-125821300D02*
X205740000Y-127000000D01*
X206918700Y-69758700D02*
X206918700Y-125821300D01*
X205740000Y-68580000D02*
X206918700Y-69758700D01*
X153594200Y-39294200D02*
X152400000Y-38100000D01*
X153594200Y-125805800D02*
X153594200Y-39294200D01*
X152400000Y-127000000D02*
X153594200Y-125805800D01*
X309880000Y-37162400D02*
X308491000Y-35773400D01*
X309880000Y-38100000D02*
X309880000Y-37162400D01*
X92961900Y-59941900D02*
X92961900Y-38807300D01*
X101600000Y-68580000D02*
X92961900Y-59941900D01*
X207418000Y-39778000D02*
X205740000Y-38100000D01*
X207418000Y-66902000D02*
X207418000Y-39778000D01*
X205740000Y-68580000D02*
X207418000Y-66902000D01*
%TO.N,BUS6*%
X208280000Y-68580000D02*
X208280000Y-38100000D01*
X209470600Y-69770600D02*
X208280000Y-68580000D01*
X209470600Y-125809400D02*
X209470600Y-69770600D01*
X208280000Y-127000000D02*
X209470600Y-125809400D01*
X105330600Y-125809400D02*
X104140000Y-127000000D01*
X105330600Y-69770600D02*
X105330600Y-125809400D01*
X104140000Y-68580000D02*
X105330600Y-69770600D01*
X154940000Y-38100000D02*
X154940000Y-127000000D01*
%TO.N,BUS5*%
X107870600Y-125809400D02*
X106680000Y-127000000D01*
X107870600Y-69770600D02*
X107870600Y-125809400D01*
X106680000Y-68580000D02*
X107870600Y-69770600D01*
X210820000Y-38100000D02*
X210820000Y-68580000D01*
X212010600Y-125809400D02*
X210820000Y-127000000D01*
X212010600Y-69770600D02*
X212010600Y-125809400D01*
X210820000Y-68580000D02*
X212010600Y-69770600D01*
X33020000Y-52113200D02*
X48031400Y-67124600D01*
X33020000Y-38100000D02*
X33020000Y-52113200D01*
%TO.N,BUS4*%
X213360000Y-68580000D02*
X213360000Y-38100000D01*
X214550600Y-125809400D02*
X213360000Y-127000000D01*
X214550600Y-69770600D02*
X214550600Y-125809400D01*
X213360000Y-68580000D02*
X214550600Y-69770600D01*
X109220000Y-113907000D02*
X109220000Y-68580000D01*
X110410600Y-115097600D02*
X109220000Y-113907000D01*
X110410600Y-125809400D02*
X110410600Y-115097600D01*
X109220000Y-127000000D02*
X110410600Y-125809400D01*
X110650600Y-128430600D02*
X110650600Y-131835600D01*
X109220000Y-127000000D02*
X110650600Y-128430600D01*
X106517400Y-36025000D02*
X106517400Y-35593600D01*
X107950000Y-37457600D02*
X106517400Y-36025000D01*
X107950000Y-67310000D02*
X107950000Y-37457600D01*
X109220000Y-68580000D02*
X107950000Y-67310000D01*
%TO.N,BUS3*%
X112950600Y-125809400D02*
X111760000Y-127000000D01*
X112950600Y-69770600D02*
X112950600Y-125809400D01*
X111760000Y-68580000D02*
X112950600Y-69770600D01*
X215900000Y-38100000D02*
X215900000Y-68580000D01*
X217090600Y-125809400D02*
X215900000Y-127000000D01*
X217090600Y-69770600D02*
X217090600Y-125809400D01*
X215900000Y-68580000D02*
X217090600Y-69770600D01*
X268634500Y-36165500D02*
X266700000Y-38100000D01*
X268634500Y-32670500D02*
X268634500Y-36165500D01*
X49436700Y-60962900D02*
X55224900Y-66751100D01*
X49436700Y-37547400D02*
X49436700Y-60962900D01*
X48811300Y-36922000D02*
X49436700Y-37547400D01*
X39278000Y-36922000D02*
X48811300Y-36922000D01*
X38100000Y-38100000D02*
X39278000Y-36922000D01*
%TO.N,BUS2*%
X218440000Y-38100000D02*
X218440000Y-68580000D01*
X219630600Y-125809400D02*
X218440000Y-127000000D01*
X219630600Y-69770600D02*
X219630600Y-125809400D01*
X218440000Y-68580000D02*
X219630600Y-69770600D01*
X114300000Y-65282600D02*
X114300000Y-68580000D01*
X110583300Y-61565900D02*
X114300000Y-65282600D01*
X110583300Y-38918500D02*
X110583300Y-61565900D01*
X108142400Y-36477600D02*
X110583300Y-38918500D01*
X115490600Y-125809400D02*
X114300000Y-127000000D01*
X115490600Y-72733600D02*
X115490600Y-125809400D01*
X114300000Y-71543000D02*
X115490600Y-72733600D01*
X114300000Y-68580000D02*
X114300000Y-71543000D01*
X269571200Y-37768800D02*
X269240000Y-38100000D01*
X269571200Y-33587400D02*
X269571200Y-37768800D01*
%TO.N,BUS1*%
X118030600Y-125809400D02*
X116840000Y-127000000D01*
X118030600Y-69770600D02*
X118030600Y-125809400D01*
X116840000Y-68580000D02*
X118030600Y-69770600D01*
X222170600Y-125809400D02*
X220980000Y-127000000D01*
X222170600Y-69770600D02*
X222170600Y-125809400D01*
X220980000Y-68580000D02*
X222170600Y-69770600D01*
X118110000Y-67310000D02*
X116840000Y-68580000D01*
X118110000Y-40540600D02*
X118110000Y-67310000D01*
X118458500Y-40192100D02*
X118110000Y-40540600D01*
X220980000Y-68580000D02*
X220980000Y-41553600D01*
X220980000Y-41553600D02*
X220980000Y-38100000D01*
%TO.N,BUS0*%
X120570600Y-125809400D02*
X119380000Y-127000000D01*
X120570600Y-69770600D02*
X120570600Y-125809400D01*
X119380000Y-68580000D02*
X120570600Y-69770600D01*
X224710600Y-125809400D02*
X223520000Y-127000000D01*
X224710600Y-69770600D02*
X224710600Y-125809400D01*
X223520000Y-68580000D02*
X224710600Y-69770600D01*
X120581800Y-67378200D02*
X119380000Y-68580000D01*
X120581800Y-41527400D02*
X120581800Y-67378200D01*
X119973200Y-40918800D02*
X120581800Y-41527400D01*
X223520000Y-68580000D02*
X223520000Y-42273000D01*
X223520000Y-42273000D02*
X223520000Y-38100000D01*
%TD*%
M02*
