%TF.GenerationSoftware,KiCad,Pcbnew,8.0.2*%
%TF.CreationDate,2025-01-05T21:37:03+01:00*%
%TF.ProjectId,lcd_display,6c63645f-6469-4737-906c-61792e6b6963,rev?*%
%TF.SameCoordinates,Original*%
%TF.FileFunction,Copper,L2,Bot*%
%TF.FilePolarity,Positive*%
%FSLAX46Y46*%
G04 Gerber Fmt 4.6, Leading zero omitted, Abs format (unit mm)*
G04 Created by KiCad (PCBNEW 8.0.2) date 2025-01-05 21:37:03*
%MOMM*%
%LPD*%
G01*
G04 APERTURE LIST*
%TA.AperFunction,ComponentPad*%
%ADD10R,1.700000X1.700000*%
%TD*%
%TA.AperFunction,ComponentPad*%
%ADD11O,1.700000X1.700000*%
%TD*%
%TA.AperFunction,ComponentPad*%
%ADD12C,1.440000*%
%TD*%
%TA.AperFunction,ComponentPad*%
%ADD13C,3.000000*%
%TD*%
%TA.AperFunction,ComponentPad*%
%ADD14R,1.800000X2.600000*%
%TD*%
%TA.AperFunction,ComponentPad*%
%ADD15O,1.800000X2.600000*%
%TD*%
%TA.AperFunction,ViaPad*%
%ADD16C,0.600000*%
%TD*%
%TA.AperFunction,Conductor*%
%ADD17C,0.200000*%
%TD*%
G04 APERTURE END LIST*
D10*
%TO.P,J1,1,Pin_1*%
%TO.N,VCC*%
X25338000Y-73660000D03*
D11*
%TO.P,J1,2,Pin_2*%
%TO.N,CLK*%
X27878000Y-73660000D03*
%TO.P,J1,3,Pin_3*%
%TO.N,IN*%
X30418000Y-73660000D03*
%TO.P,J1,4,Pin_4*%
%TO.N,~{CLR}*%
X32958000Y-73660000D03*
%TO.P,J1,5,Pin_5*%
%TO.N,unconnected-(J1-Pin_5-Pad5)*%
X35498000Y-73660000D03*
%TO.P,J1,6,Pin_6*%
%TO.N,unconnected-(J1-Pin_6-Pad6)*%
X38038000Y-73660000D03*
%TO.P,J1,7,Pin_7*%
%TO.N,unconnected-(J1-Pin_7-Pad7)*%
X40578000Y-73660000D03*
%TO.P,J1,8,Pin_8*%
%TO.N,unconnected-(J1-Pin_8-Pad8)*%
X43118000Y-73660000D03*
%TO.P,J1,9,Pin_9*%
%TO.N,unconnected-(J1-Pin_9-Pad9)*%
X45658000Y-73660000D03*
%TO.P,J1,10,Pin_10*%
%TO.N,GND*%
X48198000Y-73660000D03*
%TD*%
D12*
%TO.P,RV1,1,1*%
%TO.N,GND*%
X60960000Y-25146000D03*
%TO.P,RV1,2,2*%
%TO.N,Net-(DS1-VO)*%
X58420000Y-25146000D03*
%TO.P,RV1,3,3*%
%TO.N,VCC*%
X55880000Y-25146000D03*
%TD*%
D13*
%TO.P,DS1,*%
%TO.N,*%
X42825900Y-32385000D03*
X42825900Y-63385700D03*
X117824480Y-63385700D03*
X117825000Y-32385000D03*
D14*
%TO.P,DS1,1,VSS*%
%TO.N,GND*%
X48325000Y-32385000D03*
D15*
%TO.P,DS1,2,VDD*%
%TO.N,VCC*%
X50865000Y-32385000D03*
%TO.P,DS1,3,VO*%
%TO.N,Net-(DS1-VO)*%
X53405000Y-32385000D03*
%TO.P,DS1,4,RS*%
%TO.N,D6*%
X55945000Y-32385000D03*
%TO.P,DS1,5,R/W*%
%TO.N,GND*%
X58485000Y-32385000D03*
%TO.P,DS1,6,E*%
%TO.N,D7*%
X61025000Y-32385000D03*
%TO.P,DS1,7,D0*%
%TO.N,unconnected-(DS1-D0-Pad7)*%
X63565000Y-32385000D03*
%TO.P,DS1,8,D1*%
%TO.N,unconnected-(DS1-D1-Pad8)*%
X66105000Y-32385000D03*
%TO.P,DS1,9,D2*%
%TO.N,unconnected-(DS1-D2-Pad9)*%
X68645000Y-32385000D03*
%TO.P,DS1,10,D3*%
%TO.N,unconnected-(DS1-D3-Pad10)*%
X71185000Y-32385000D03*
%TO.P,DS1,11,D4*%
%TO.N,D0*%
X73725000Y-32385000D03*
%TO.P,DS1,12,D5*%
%TO.N,D1*%
X76265000Y-32385000D03*
%TO.P,DS1,13,D6*%
%TO.N,D2*%
X78805000Y-32385000D03*
%TO.P,DS1,14,D7*%
%TO.N,D3*%
X81345000Y-32385000D03*
%TO.P,DS1,15,LED(+)*%
%TO.N,Net-(DS1-LED(+))*%
X83885000Y-32385000D03*
%TO.P,DS1,16,LED(-)*%
%TO.N,GND*%
X86425000Y-32385000D03*
%TD*%
D10*
%TO.P,J2,1,Pin_1*%
%TO.N,VCC*%
X121858000Y-22860000D03*
D11*
%TO.P,J2,2,Pin_2*%
%TO.N,BUS0*%
X119318000Y-22860000D03*
%TO.P,J2,3,Pin_3*%
%TO.N,BUS1*%
X116778000Y-22860000D03*
%TO.P,J2,4,Pin_4*%
%TO.N,BUS2*%
X114238000Y-22860000D03*
%TO.P,J2,5,Pin_5*%
%TO.N,BUS3*%
X111698000Y-22860000D03*
%TO.P,J2,6,Pin_6*%
%TO.N,BUS4*%
X109158000Y-22860000D03*
%TO.P,J2,7,Pin_7*%
%TO.N,BUS5*%
X106618000Y-22860000D03*
%TO.P,J2,8,Pin_8*%
%TO.N,BUS6*%
X104078000Y-22860000D03*
%TO.P,J2,9,Pin_9*%
%TO.N,BUS7*%
X101538000Y-22860000D03*
%TO.P,J2,10,Pin_10*%
%TO.N,GND*%
X98998000Y-22860000D03*
%TD*%
D16*
%TO.N,BUS0*%
X28348400Y-51689000D03*
%TO.N,BUS2*%
X28385000Y-57746800D03*
%TO.N,BUS1*%
X29137600Y-54034400D03*
%TO.N,~{CLR}*%
X28231700Y-49191500D03*
%TO.N,IN*%
X30734000Y-36068000D03*
X32096000Y-39624000D03*
%TO.N,D6*%
X38465100Y-52550300D03*
%TO.N,D7*%
X42602100Y-50406800D03*
%TO.N,VCC*%
X81788000Y-24130000D03*
X28241900Y-30204500D03*
X31173700Y-47777300D03*
%TD*%
D17*
%TO.N,BUS0*%
X119318000Y-22860000D02*
X118167900Y-22860000D01*
X35494800Y-51689000D02*
X28348400Y-51689000D01*
X36956300Y-53150500D02*
X35494800Y-51689000D01*
X83100100Y-53150500D02*
X36956300Y-53150500D01*
X112968000Y-23282600D02*
X83100100Y-53150500D01*
X112968000Y-22438300D02*
X112968000Y-23282600D01*
X113735900Y-21670400D02*
X112968000Y-22438300D01*
X117265800Y-21670400D02*
X113735900Y-21670400D01*
X118167900Y-22572500D02*
X117265800Y-21670400D01*
X118167900Y-22860000D02*
X118167900Y-22572500D01*
%TO.N,BUS2*%
X28385000Y-53936000D02*
X28385000Y-57746800D01*
X28888500Y-53432500D02*
X28385000Y-53936000D01*
X35998200Y-53432500D02*
X28888500Y-53432500D01*
X36116400Y-53550700D02*
X35998200Y-53432500D01*
X83547300Y-53550700D02*
X36116400Y-53550700D01*
X114238000Y-22860000D02*
X83547300Y-53550700D01*
%TO.N,BUS1*%
X84741000Y-54034400D02*
X29137600Y-54034400D01*
X115627900Y-23147500D02*
X84741000Y-54034400D01*
X115627900Y-22860000D02*
X115627900Y-23147500D01*
X116778000Y-22860000D02*
X115627900Y-22860000D01*
%TO.N,~{CLR}*%
X27748200Y-49675000D02*
X28231700Y-49191500D01*
X27748200Y-67300100D02*
X27748200Y-49675000D01*
X32958000Y-72509900D02*
X27748200Y-67300100D01*
X32958000Y-73660000D02*
X32958000Y-72509900D01*
%TO.N,IN*%
X32096000Y-37430000D02*
X30734000Y-36068000D01*
X32096000Y-39624000D02*
X32096000Y-37430000D01*
X27299100Y-69391000D02*
X30418000Y-72509900D01*
X27299100Y-49198400D02*
X27299100Y-69391000D01*
X28117200Y-48380300D02*
X27299100Y-49198400D01*
X31423900Y-48380300D02*
X28117200Y-48380300D01*
X32096000Y-47708200D02*
X31423900Y-48380300D01*
X32096000Y-39624000D02*
X32096000Y-47708200D01*
X30418000Y-73660000D02*
X30418000Y-72509900D01*
%TO.N,D6*%
X55945000Y-32385000D02*
X54744900Y-32385000D01*
X54744900Y-36270500D02*
X38465100Y-52550300D01*
X54744900Y-32385000D02*
X54744900Y-36270500D01*
%TO.N,D7*%
X61025000Y-32385000D02*
X59824900Y-32385000D01*
X59824900Y-33184000D02*
X42602100Y-50406800D01*
X59824900Y-32385000D02*
X59824900Y-33184000D01*
%TO.N,VCC*%
X81788000Y-24130000D02*
X78578000Y-20920000D01*
X50800000Y-20920000D02*
X78232000Y-20920000D01*
X78578000Y-20920000D02*
X78232000Y-20920000D01*
X26862000Y-75184000D02*
X25338000Y-73660000D01*
X120142000Y-75184000D02*
X26862000Y-75184000D01*
X121858000Y-73468000D02*
X120142000Y-75184000D01*
X121858000Y-22860000D02*
X121858000Y-73468000D01*
X50865000Y-29907000D02*
X50865000Y-31685000D01*
X51308000Y-29464000D02*
X50865000Y-29907000D01*
X51308000Y-28956000D02*
X51308000Y-29464000D01*
X52324000Y-27940000D02*
X51308000Y-28956000D01*
X52324000Y-22444000D02*
X52324000Y-27940000D01*
X50800000Y-20920000D02*
X52324000Y-22444000D01*
X55880000Y-26670000D02*
X55880000Y-25146000D01*
X50865000Y-31685000D02*
X55880000Y-26670000D01*
X50865000Y-32385000D02*
X50865000Y-31685000D01*
X50865000Y-31685000D02*
X50865000Y-32385000D01*
X78232000Y-20920000D02*
X78578000Y-20920000D01*
X121858000Y-21398000D02*
X121858000Y-22860000D01*
X121920000Y-21336000D02*
X121858000Y-21398000D01*
X121504000Y-20920000D02*
X121920000Y-21336000D01*
X78578000Y-20920000D02*
X121504000Y-20920000D01*
X28241900Y-30204500D02*
X23622000Y-30204500D01*
X25054000Y-20920000D02*
X50800000Y-20920000D01*
X23622000Y-22352000D02*
X25054000Y-20920000D01*
X23622000Y-30204500D02*
X23622000Y-22352000D01*
X23622000Y-70358000D02*
X23622000Y-47660800D01*
X24130000Y-70866000D02*
X23622000Y-70358000D01*
X24130000Y-71120000D02*
X24130000Y-70866000D01*
X25338000Y-72328000D02*
X24130000Y-71120000D01*
X25338000Y-73660000D02*
X25338000Y-72328000D01*
X23622000Y-47660800D02*
X23622000Y-30204500D01*
X31057200Y-47660800D02*
X31173700Y-47777300D01*
X23622000Y-47660800D02*
X31057200Y-47660800D01*
%TD*%
%TA.AperFunction,Conductor*%
%TO.N,VCC*%
G36*
X123840539Y-20840185D02*
G01*
X123886294Y-20892989D01*
X123897500Y-20944500D01*
X123897500Y-75575500D01*
X123877815Y-75642539D01*
X123825011Y-75688294D01*
X123773500Y-75699500D01*
X23422500Y-75699500D01*
X23355461Y-75679815D01*
X23309706Y-75627011D01*
X23298500Y-75575500D01*
X23298500Y-72762155D01*
X23988000Y-72762155D01*
X23988000Y-73410000D01*
X24904988Y-73410000D01*
X24872075Y-73467007D01*
X24838000Y-73594174D01*
X24838000Y-73725826D01*
X24872075Y-73852993D01*
X24904988Y-73910000D01*
X23988000Y-73910000D01*
X23988000Y-74557844D01*
X23994401Y-74617372D01*
X23994403Y-74617379D01*
X24044645Y-74752086D01*
X24044649Y-74752093D01*
X24130809Y-74867187D01*
X24130812Y-74867190D01*
X24245906Y-74953350D01*
X24245913Y-74953354D01*
X24380620Y-75003596D01*
X24380627Y-75003598D01*
X24440155Y-75009999D01*
X24440172Y-75010000D01*
X25088000Y-75010000D01*
X25088000Y-74093012D01*
X25145007Y-74125925D01*
X25272174Y-74160000D01*
X25403826Y-74160000D01*
X25530993Y-74125925D01*
X25588000Y-74093012D01*
X25588000Y-75010000D01*
X26235828Y-75010000D01*
X26235844Y-75009999D01*
X26295372Y-75003598D01*
X26295379Y-75003596D01*
X26430086Y-74953354D01*
X26430093Y-74953350D01*
X26545187Y-74867190D01*
X26545190Y-74867187D01*
X26631350Y-74752093D01*
X26631354Y-74752086D01*
X26680422Y-74620529D01*
X26722293Y-74564595D01*
X26787757Y-74540178D01*
X26856030Y-74555030D01*
X26884285Y-74576181D01*
X27006599Y-74698495D01*
X27083135Y-74752086D01*
X27200165Y-74834032D01*
X27200167Y-74834033D01*
X27200170Y-74834035D01*
X27414337Y-74933903D01*
X27642592Y-74995063D01*
X27813319Y-75010000D01*
X27877999Y-75015659D01*
X27878000Y-75015659D01*
X27878001Y-75015659D01*
X27942681Y-75010000D01*
X28113408Y-74995063D01*
X28341663Y-74933903D01*
X28555830Y-74834035D01*
X28749401Y-74698495D01*
X28916495Y-74531401D01*
X29046425Y-74345842D01*
X29101002Y-74302217D01*
X29170500Y-74295023D01*
X29232855Y-74326546D01*
X29249575Y-74345842D01*
X29379500Y-74531395D01*
X29379505Y-74531401D01*
X29546599Y-74698495D01*
X29623135Y-74752086D01*
X29740165Y-74834032D01*
X29740167Y-74834033D01*
X29740170Y-74834035D01*
X29954337Y-74933903D01*
X30182592Y-74995063D01*
X30353319Y-75010000D01*
X30417999Y-75015659D01*
X30418000Y-75015659D01*
X30418001Y-75015659D01*
X30482681Y-75010000D01*
X30653408Y-74995063D01*
X30881663Y-74933903D01*
X31095830Y-74834035D01*
X31289401Y-74698495D01*
X31456495Y-74531401D01*
X31586425Y-74345842D01*
X31641002Y-74302217D01*
X31710500Y-74295023D01*
X31772855Y-74326546D01*
X31789575Y-74345842D01*
X31919500Y-74531395D01*
X31919505Y-74531401D01*
X32086599Y-74698495D01*
X32163135Y-74752086D01*
X32280165Y-74834032D01*
X32280167Y-74834033D01*
X32280170Y-74834035D01*
X32494337Y-74933903D01*
X32722592Y-74995063D01*
X32893319Y-75010000D01*
X32957999Y-75015659D01*
X32958000Y-75015659D01*
X32958001Y-75015659D01*
X33022681Y-75010000D01*
X33193408Y-74995063D01*
X33421663Y-74933903D01*
X33635830Y-74834035D01*
X33829401Y-74698495D01*
X33996495Y-74531401D01*
X34126425Y-74345842D01*
X34181002Y-74302217D01*
X34250500Y-74295023D01*
X34312855Y-74326546D01*
X34329575Y-74345842D01*
X34459500Y-74531395D01*
X34459505Y-74531401D01*
X34626599Y-74698495D01*
X34703135Y-74752086D01*
X34820165Y-74834032D01*
X34820167Y-74834033D01*
X34820170Y-74834035D01*
X35034337Y-74933903D01*
X35262592Y-74995063D01*
X35433319Y-75010000D01*
X35497999Y-75015659D01*
X35498000Y-75015659D01*
X35498001Y-75015659D01*
X35562681Y-75010000D01*
X35733408Y-74995063D01*
X35961663Y-74933903D01*
X36175830Y-74834035D01*
X36369401Y-74698495D01*
X36536495Y-74531401D01*
X36666425Y-74345842D01*
X36721002Y-74302217D01*
X36790500Y-74295023D01*
X36852855Y-74326546D01*
X36869575Y-74345842D01*
X36999500Y-74531395D01*
X36999505Y-74531401D01*
X37166599Y-74698495D01*
X37243135Y-74752086D01*
X37360165Y-74834032D01*
X37360167Y-74834033D01*
X37360170Y-74834035D01*
X37574337Y-74933903D01*
X37802592Y-74995063D01*
X37973319Y-75010000D01*
X38037999Y-75015659D01*
X38038000Y-75015659D01*
X38038001Y-75015659D01*
X38102681Y-75010000D01*
X38273408Y-74995063D01*
X38501663Y-74933903D01*
X38715830Y-74834035D01*
X38909401Y-74698495D01*
X39076495Y-74531401D01*
X39206425Y-74345842D01*
X39261002Y-74302217D01*
X39330500Y-74295023D01*
X39392855Y-74326546D01*
X39409575Y-74345842D01*
X39539500Y-74531395D01*
X39539505Y-74531401D01*
X39706599Y-74698495D01*
X39783135Y-74752086D01*
X39900165Y-74834032D01*
X39900167Y-74834033D01*
X39900170Y-74834035D01*
X40114337Y-74933903D01*
X40342592Y-74995063D01*
X40513319Y-75010000D01*
X40577999Y-75015659D01*
X40578000Y-75015659D01*
X40578001Y-75015659D01*
X40642681Y-75010000D01*
X40813408Y-74995063D01*
X41041663Y-74933903D01*
X41255830Y-74834035D01*
X41449401Y-74698495D01*
X41616495Y-74531401D01*
X41746425Y-74345842D01*
X41801002Y-74302217D01*
X41870500Y-74295023D01*
X41932855Y-74326546D01*
X41949575Y-74345842D01*
X42079500Y-74531395D01*
X42079505Y-74531401D01*
X42246599Y-74698495D01*
X42323135Y-74752086D01*
X42440165Y-74834032D01*
X42440167Y-74834033D01*
X42440170Y-74834035D01*
X42654337Y-74933903D01*
X42882592Y-74995063D01*
X43053319Y-75010000D01*
X43117999Y-75015659D01*
X43118000Y-75015659D01*
X43118001Y-75015659D01*
X43182681Y-75010000D01*
X43353408Y-74995063D01*
X43581663Y-74933903D01*
X43795830Y-74834035D01*
X43989401Y-74698495D01*
X44156495Y-74531401D01*
X44286425Y-74345842D01*
X44341002Y-74302217D01*
X44410500Y-74295023D01*
X44472855Y-74326546D01*
X44489575Y-74345842D01*
X44619500Y-74531395D01*
X44619505Y-74531401D01*
X44786599Y-74698495D01*
X44863135Y-74752086D01*
X44980165Y-74834032D01*
X44980167Y-74834033D01*
X44980170Y-74834035D01*
X45194337Y-74933903D01*
X45422592Y-74995063D01*
X45593319Y-75010000D01*
X45657999Y-75015659D01*
X45658000Y-75015659D01*
X45658001Y-75015659D01*
X45722681Y-75010000D01*
X45893408Y-74995063D01*
X46121663Y-74933903D01*
X46335830Y-74834035D01*
X46529401Y-74698495D01*
X46696495Y-74531401D01*
X46826425Y-74345842D01*
X46881002Y-74302217D01*
X46950500Y-74295023D01*
X47012855Y-74326546D01*
X47029575Y-74345842D01*
X47159500Y-74531395D01*
X47159505Y-74531401D01*
X47326599Y-74698495D01*
X47403135Y-74752086D01*
X47520165Y-74834032D01*
X47520167Y-74834033D01*
X47520170Y-74834035D01*
X47734337Y-74933903D01*
X47962592Y-74995063D01*
X48133319Y-75010000D01*
X48197999Y-75015659D01*
X48198000Y-75015659D01*
X48198001Y-75015659D01*
X48262681Y-75010000D01*
X48433408Y-74995063D01*
X48661663Y-74933903D01*
X48875830Y-74834035D01*
X49069401Y-74698495D01*
X49236495Y-74531401D01*
X49372035Y-74337830D01*
X49471903Y-74123663D01*
X49533063Y-73895408D01*
X49553659Y-73660000D01*
X49533063Y-73424592D01*
X49471903Y-73196337D01*
X49372035Y-72982171D01*
X49366425Y-72974158D01*
X49236494Y-72788597D01*
X49069402Y-72621506D01*
X49069395Y-72621501D01*
X48875834Y-72485967D01*
X48875830Y-72485965D01*
X48875826Y-72485963D01*
X48661663Y-72386097D01*
X48661659Y-72386096D01*
X48661655Y-72386094D01*
X48433413Y-72324938D01*
X48433403Y-72324936D01*
X48198001Y-72304341D01*
X48197999Y-72304341D01*
X47962596Y-72324936D01*
X47962586Y-72324938D01*
X47734344Y-72386094D01*
X47734335Y-72386098D01*
X47520171Y-72485964D01*
X47520169Y-72485965D01*
X47326597Y-72621505D01*
X47159505Y-72788597D01*
X47029575Y-72974158D01*
X46974998Y-73017783D01*
X46905500Y-73024977D01*
X46843145Y-72993454D01*
X46826425Y-72974158D01*
X46696494Y-72788597D01*
X46529402Y-72621506D01*
X46529395Y-72621501D01*
X46335834Y-72485967D01*
X46335830Y-72485965D01*
X46335826Y-72485963D01*
X46121663Y-72386097D01*
X46121659Y-72386096D01*
X46121655Y-72386094D01*
X45893413Y-72324938D01*
X45893403Y-72324936D01*
X45658001Y-72304341D01*
X45657999Y-72304341D01*
X45422596Y-72324936D01*
X45422586Y-72324938D01*
X45194344Y-72386094D01*
X45194335Y-72386098D01*
X44980171Y-72485964D01*
X44980169Y-72485965D01*
X44786597Y-72621505D01*
X44619505Y-72788597D01*
X44489575Y-72974158D01*
X44434998Y-73017783D01*
X44365500Y-73024977D01*
X44303145Y-72993454D01*
X44286425Y-72974158D01*
X44156494Y-72788597D01*
X43989402Y-72621506D01*
X43989395Y-72621501D01*
X43795834Y-72485967D01*
X43795830Y-72485965D01*
X43795826Y-72485963D01*
X43581663Y-72386097D01*
X43581659Y-72386096D01*
X43581655Y-72386094D01*
X43353413Y-72324938D01*
X43353403Y-72324936D01*
X43118001Y-72304341D01*
X43117999Y-72304341D01*
X42882596Y-72324936D01*
X42882586Y-72324938D01*
X42654344Y-72386094D01*
X42654335Y-72386098D01*
X42440171Y-72485964D01*
X42440169Y-72485965D01*
X42246597Y-72621505D01*
X42079505Y-72788597D01*
X41949575Y-72974158D01*
X41894998Y-73017783D01*
X41825500Y-73024977D01*
X41763145Y-72993454D01*
X41746425Y-72974158D01*
X41616494Y-72788597D01*
X41449402Y-72621506D01*
X41449395Y-72621501D01*
X41255834Y-72485967D01*
X41255830Y-72485965D01*
X41255826Y-72485963D01*
X41041663Y-72386097D01*
X41041659Y-72386096D01*
X41041655Y-72386094D01*
X40813413Y-72324938D01*
X40813403Y-72324936D01*
X40578001Y-72304341D01*
X40577999Y-72304341D01*
X40342596Y-72324936D01*
X40342586Y-72324938D01*
X40114344Y-72386094D01*
X40114335Y-72386098D01*
X39900171Y-72485964D01*
X39900169Y-72485965D01*
X39706597Y-72621505D01*
X39539505Y-72788597D01*
X39409575Y-72974158D01*
X39354998Y-73017783D01*
X39285500Y-73024977D01*
X39223145Y-72993454D01*
X39206425Y-72974158D01*
X39076494Y-72788597D01*
X38909402Y-72621506D01*
X38909395Y-72621501D01*
X38715834Y-72485967D01*
X38715830Y-72485965D01*
X38715826Y-72485963D01*
X38501663Y-72386097D01*
X38501659Y-72386096D01*
X38501655Y-72386094D01*
X38273413Y-72324938D01*
X38273403Y-72324936D01*
X38038001Y-72304341D01*
X38037999Y-72304341D01*
X37802596Y-72324936D01*
X37802586Y-72324938D01*
X37574344Y-72386094D01*
X37574335Y-72386098D01*
X37360171Y-72485964D01*
X37360169Y-72485965D01*
X37166597Y-72621505D01*
X36999505Y-72788597D01*
X36869575Y-72974158D01*
X36814998Y-73017783D01*
X36745500Y-73024977D01*
X36683145Y-72993454D01*
X36666425Y-72974158D01*
X36536494Y-72788597D01*
X36369402Y-72621506D01*
X36369395Y-72621501D01*
X36175834Y-72485967D01*
X36175830Y-72485965D01*
X36175826Y-72485963D01*
X35961663Y-72386097D01*
X35961659Y-72386096D01*
X35961655Y-72386094D01*
X35733413Y-72324938D01*
X35733403Y-72324936D01*
X35498001Y-72304341D01*
X35497999Y-72304341D01*
X35262596Y-72324936D01*
X35262586Y-72324938D01*
X35034344Y-72386094D01*
X35034335Y-72386098D01*
X34820171Y-72485964D01*
X34820169Y-72485965D01*
X34626597Y-72621505D01*
X34459505Y-72788597D01*
X34329575Y-72974158D01*
X34274998Y-73017783D01*
X34205500Y-73024977D01*
X34143145Y-72993454D01*
X34126425Y-72974158D01*
X33996494Y-72788597D01*
X33829402Y-72621506D01*
X33829395Y-72621501D01*
X33635831Y-72485965D01*
X33635828Y-72485963D01*
X33616739Y-72477062D01*
X33564301Y-72430889D01*
X33549373Y-72396780D01*
X33517577Y-72278115D01*
X33488639Y-72227995D01*
X33438520Y-72141184D01*
X33326716Y-72029380D01*
X33326715Y-72029379D01*
X33322385Y-72025049D01*
X33322374Y-72025039D01*
X28385019Y-67087684D01*
X28351534Y-67026361D01*
X28348700Y-67000003D01*
X28348700Y-63385698D01*
X40820290Y-63385698D01*
X40820290Y-63385701D01*
X40840704Y-63671133D01*
X40901528Y-63950737D01*
X41001535Y-64218866D01*
X41138670Y-64470009D01*
X41138675Y-64470017D01*
X41310154Y-64699087D01*
X41310170Y-64699105D01*
X41512494Y-64901429D01*
X41512512Y-64901445D01*
X41741582Y-65072924D01*
X41741590Y-65072929D01*
X41992733Y-65210064D01*
X41992732Y-65210064D01*
X41992736Y-65210065D01*
X41992739Y-65210067D01*
X42260854Y-65310069D01*
X42260860Y-65310070D01*
X42260862Y-65310071D01*
X42540466Y-65370895D01*
X42540468Y-65370895D01*
X42540472Y-65370896D01*
X42794120Y-65389037D01*
X42825899Y-65391310D01*
X42825900Y-65391310D01*
X42825901Y-65391310D01*
X42854495Y-65389264D01*
X43111328Y-65370896D01*
X43390946Y-65310069D01*
X43659061Y-65210067D01*
X43910215Y-65072926D01*
X44139295Y-64901439D01*
X44341639Y-64699095D01*
X44513126Y-64470015D01*
X44650267Y-64218861D01*
X44750269Y-63950746D01*
X44811096Y-63671128D01*
X44831510Y-63385700D01*
X44831510Y-63385698D01*
X115818870Y-63385698D01*
X115818870Y-63385701D01*
X115839284Y-63671133D01*
X115900108Y-63950737D01*
X116000115Y-64218866D01*
X116137250Y-64470009D01*
X116137255Y-64470017D01*
X116308734Y-64699087D01*
X116308750Y-64699105D01*
X116511074Y-64901429D01*
X116511092Y-64901445D01*
X116740162Y-65072924D01*
X116740170Y-65072929D01*
X116991313Y-65210064D01*
X116991312Y-65210064D01*
X116991316Y-65210065D01*
X116991319Y-65210067D01*
X117259434Y-65310069D01*
X117259440Y-65310070D01*
X117259442Y-65310071D01*
X117539046Y-65370895D01*
X117539048Y-65370895D01*
X117539052Y-65370896D01*
X117792700Y-65389037D01*
X117824479Y-65391310D01*
X117824480Y-65391310D01*
X117824481Y-65391310D01*
X117853075Y-65389264D01*
X118109908Y-65370896D01*
X118389526Y-65310069D01*
X118657641Y-65210067D01*
X118908795Y-65072926D01*
X119137875Y-64901439D01*
X119340219Y-64699095D01*
X119511706Y-64470015D01*
X119648847Y-64218861D01*
X119748849Y-63950746D01*
X119809676Y-63671128D01*
X119830090Y-63385700D01*
X119809676Y-63100272D01*
X119748849Y-62820654D01*
X119648847Y-62552539D01*
X119511706Y-62301385D01*
X119511704Y-62301382D01*
X119340225Y-62072312D01*
X119340209Y-62072294D01*
X119137885Y-61869970D01*
X119137867Y-61869954D01*
X118908797Y-61698475D01*
X118908789Y-61698470D01*
X118657646Y-61561335D01*
X118657647Y-61561335D01*
X118550395Y-61521332D01*
X118389526Y-61461331D01*
X118389523Y-61461330D01*
X118389517Y-61461328D01*
X118109913Y-61400504D01*
X117824481Y-61380090D01*
X117824479Y-61380090D01*
X117539046Y-61400504D01*
X117259442Y-61461328D01*
X116991313Y-61561335D01*
X116740170Y-61698470D01*
X116740162Y-61698475D01*
X116511092Y-61869954D01*
X116511074Y-61869970D01*
X116308750Y-62072294D01*
X116308734Y-62072312D01*
X116137255Y-62301382D01*
X116137250Y-62301390D01*
X116000115Y-62552533D01*
X115900108Y-62820662D01*
X115839284Y-63100266D01*
X115818870Y-63385698D01*
X44831510Y-63385698D01*
X44811096Y-63100272D01*
X44750269Y-62820654D01*
X44650267Y-62552539D01*
X44513126Y-62301385D01*
X44513124Y-62301382D01*
X44341645Y-62072312D01*
X44341629Y-62072294D01*
X44139305Y-61869970D01*
X44139287Y-61869954D01*
X43910217Y-61698475D01*
X43910209Y-61698470D01*
X43659066Y-61561335D01*
X43659067Y-61561335D01*
X43551815Y-61521332D01*
X43390946Y-61461331D01*
X43390943Y-61461330D01*
X43390937Y-61461328D01*
X43111333Y-61400504D01*
X42825901Y-61380090D01*
X42825899Y-61380090D01*
X42540466Y-61400504D01*
X42260862Y-61461328D01*
X41992733Y-61561335D01*
X41741590Y-61698470D01*
X41741582Y-61698475D01*
X41512512Y-61869954D01*
X41512494Y-61869970D01*
X41310170Y-62072294D01*
X41310154Y-62072312D01*
X41138675Y-62301382D01*
X41138670Y-62301390D01*
X41001535Y-62552533D01*
X40901528Y-62820662D01*
X40840704Y-63100266D01*
X40820290Y-63385698D01*
X28348700Y-63385698D01*
X28348700Y-58667268D01*
X28368385Y-58600229D01*
X28421189Y-58554474D01*
X28458817Y-58544048D01*
X28564249Y-58532169D01*
X28564252Y-58532168D01*
X28564255Y-58532168D01*
X28734522Y-58472589D01*
X28887262Y-58376616D01*
X29014816Y-58249062D01*
X29110789Y-58096322D01*
X29170368Y-57926055D01*
X29190565Y-57746800D01*
X29170368Y-57567545D01*
X29110789Y-57397278D01*
X29014816Y-57244538D01*
X29014814Y-57244536D01*
X29014813Y-57244534D01*
X29012550Y-57241696D01*
X29011659Y-57239515D01*
X29011111Y-57238642D01*
X29011264Y-57238545D01*
X28986144Y-57177009D01*
X28985500Y-57164387D01*
X28985500Y-54961583D01*
X29005185Y-54894544D01*
X29057989Y-54848789D01*
X29123385Y-54838363D01*
X29137600Y-54839965D01*
X29137601Y-54839964D01*
X29137602Y-54839965D01*
X29137604Y-54839965D01*
X29316849Y-54819769D01*
X29316852Y-54819768D01*
X29316855Y-54819768D01*
X29487122Y-54760189D01*
X29639862Y-54664216D01*
X29639867Y-54664210D01*
X29642697Y-54661955D01*
X29644875Y-54661065D01*
X29645758Y-54660511D01*
X29645855Y-54660665D01*
X29707383Y-54635545D01*
X29720012Y-54634900D01*
X84654331Y-54634900D01*
X84654347Y-54634901D01*
X84661943Y-54634901D01*
X84820054Y-54634901D01*
X84820057Y-54634901D01*
X84972785Y-54593977D01*
X85022904Y-54565039D01*
X85109716Y-54514920D01*
X85221520Y-54403116D01*
X85221520Y-54403114D01*
X85231728Y-54392907D01*
X85231730Y-54392904D01*
X107239636Y-32384998D01*
X115819390Y-32384998D01*
X115819390Y-32385001D01*
X115839804Y-32670433D01*
X115900628Y-32950037D01*
X115900630Y-32950043D01*
X115900631Y-32950046D01*
X115961392Y-33112951D01*
X116000635Y-33218166D01*
X116137770Y-33469309D01*
X116137775Y-33469317D01*
X116309254Y-33698387D01*
X116309270Y-33698405D01*
X116511594Y-33900729D01*
X116511612Y-33900745D01*
X116740682Y-34072224D01*
X116740690Y-34072229D01*
X116991833Y-34209364D01*
X116991832Y-34209364D01*
X116991836Y-34209365D01*
X116991839Y-34209367D01*
X117259954Y-34309369D01*
X117259960Y-34309370D01*
X117259962Y-34309371D01*
X117539566Y-34370195D01*
X117539568Y-34370195D01*
X117539572Y-34370196D01*
X117793220Y-34388337D01*
X117824999Y-34390610D01*
X117825000Y-34390610D01*
X117825001Y-34390610D01*
X117853595Y-34388564D01*
X118110428Y-34370196D01*
X118390046Y-34309369D01*
X118658161Y-34209367D01*
X118909315Y-34072226D01*
X119138395Y-33900739D01*
X119340739Y-33698395D01*
X119512226Y-33469315D01*
X119649367Y-33218161D01*
X119749369Y-32950046D01*
X119810196Y-32670428D01*
X119830610Y-32385000D01*
X119810196Y-32099572D01*
X119749369Y-31819954D01*
X119649367Y-31551839D01*
X119592335Y-31447394D01*
X119512229Y-31300690D01*
X119512224Y-31300682D01*
X119340745Y-31071612D01*
X119340729Y-31071594D01*
X119138405Y-30869270D01*
X119138387Y-30869254D01*
X118909317Y-30697775D01*
X118909309Y-30697770D01*
X118658166Y-30560635D01*
X118658167Y-30560635D01*
X118550915Y-30520632D01*
X118390046Y-30460631D01*
X118390043Y-30460630D01*
X118390037Y-30460628D01*
X118110433Y-30399804D01*
X117825001Y-30379390D01*
X117824999Y-30379390D01*
X117539566Y-30399804D01*
X117259962Y-30460628D01*
X116991833Y-30560635D01*
X116740690Y-30697770D01*
X116740682Y-30697775D01*
X116511612Y-30869254D01*
X116511594Y-30869270D01*
X116309270Y-31071594D01*
X116309254Y-31071612D01*
X116137775Y-31300682D01*
X116137770Y-31300690D01*
X116000635Y-31551833D01*
X115900628Y-31819962D01*
X115839804Y-32099566D01*
X115819390Y-32384998D01*
X107239636Y-32384998D01*
X115728688Y-23895946D01*
X115790011Y-23862461D01*
X115859703Y-23867445D01*
X115904050Y-23895946D01*
X115906599Y-23898495D01*
X115965796Y-23939945D01*
X116100165Y-24034032D01*
X116100167Y-24034033D01*
X116100170Y-24034035D01*
X116314337Y-24133903D01*
X116314343Y-24133904D01*
X116314344Y-24133905D01*
X116369285Y-24148626D01*
X116542592Y-24195063D01*
X116713319Y-24210000D01*
X116777999Y-24215659D01*
X116778000Y-24215659D01*
X116778001Y-24215659D01*
X116842681Y-24210000D01*
X117013408Y-24195063D01*
X117241663Y-24133903D01*
X117455830Y-24034035D01*
X117649401Y-23898495D01*
X117816495Y-23731401D01*
X117946427Y-23545838D01*
X118001000Y-23502216D01*
X118070499Y-23495022D01*
X118132854Y-23526544D01*
X118149572Y-23545838D01*
X118279505Y-23731401D01*
X118446599Y-23898495D01*
X118505796Y-23939945D01*
X118640165Y-24034032D01*
X118640167Y-24034033D01*
X118640170Y-24034035D01*
X118854337Y-24133903D01*
X118854343Y-24133904D01*
X118854344Y-24133905D01*
X118909285Y-24148626D01*
X119082592Y-24195063D01*
X119253319Y-24210000D01*
X119317999Y-24215659D01*
X119318000Y-24215659D01*
X119318001Y-24215659D01*
X119382681Y-24210000D01*
X119553408Y-24195063D01*
X119781663Y-24133903D01*
X119995830Y-24034035D01*
X120189401Y-23898495D01*
X120311717Y-23776178D01*
X120373036Y-23742696D01*
X120442728Y-23747680D01*
X120498662Y-23789551D01*
X120515577Y-23820528D01*
X120564646Y-23952088D01*
X120564649Y-23952093D01*
X120650809Y-24067187D01*
X120650812Y-24067190D01*
X120765906Y-24153350D01*
X120765913Y-24153354D01*
X120900620Y-24203596D01*
X120900627Y-24203598D01*
X120960155Y-24209999D01*
X120960172Y-24210000D01*
X121608000Y-24210000D01*
X121608000Y-23293012D01*
X121665007Y-23325925D01*
X121792174Y-23360000D01*
X121923826Y-23360000D01*
X122050993Y-23325925D01*
X122108000Y-23293012D01*
X122108000Y-24210000D01*
X122755828Y-24210000D01*
X122755844Y-24209999D01*
X122815372Y-24203598D01*
X122815379Y-24203596D01*
X122950086Y-24153354D01*
X122950093Y-24153350D01*
X123065187Y-24067190D01*
X123065190Y-24067187D01*
X123151350Y-23952093D01*
X123151354Y-23952086D01*
X123201596Y-23817379D01*
X123201598Y-23817372D01*
X123207999Y-23757844D01*
X123208000Y-23757827D01*
X123208000Y-23110000D01*
X122291012Y-23110000D01*
X122323925Y-23052993D01*
X122358000Y-22925826D01*
X122358000Y-22794174D01*
X122323925Y-22667007D01*
X122291012Y-22610000D01*
X123208000Y-22610000D01*
X123208000Y-21962172D01*
X123207999Y-21962155D01*
X123201598Y-21902627D01*
X123201596Y-21902620D01*
X123151354Y-21767913D01*
X123151350Y-21767906D01*
X123065190Y-21652812D01*
X123065187Y-21652809D01*
X122950093Y-21566649D01*
X122950086Y-21566645D01*
X122815379Y-21516403D01*
X122815372Y-21516401D01*
X122755844Y-21510000D01*
X122108000Y-21510000D01*
X122108000Y-22426988D01*
X122050993Y-22394075D01*
X121923826Y-22360000D01*
X121792174Y-22360000D01*
X121665007Y-22394075D01*
X121608000Y-22426988D01*
X121608000Y-21510000D01*
X120960155Y-21510000D01*
X120900627Y-21516401D01*
X120900620Y-21516403D01*
X120765913Y-21566645D01*
X120765906Y-21566649D01*
X120650812Y-21652809D01*
X120650809Y-21652812D01*
X120564649Y-21767906D01*
X120564645Y-21767913D01*
X120515578Y-21899470D01*
X120473707Y-21955404D01*
X120408242Y-21979821D01*
X120339969Y-21964969D01*
X120311715Y-21943819D01*
X120267366Y-21899470D01*
X120189401Y-21821505D01*
X120189397Y-21821502D01*
X120189396Y-21821501D01*
X119995834Y-21685967D01*
X119995830Y-21685965D01*
X119924727Y-21652809D01*
X119781663Y-21586097D01*
X119781659Y-21586096D01*
X119781655Y-21586094D01*
X119553413Y-21524938D01*
X119553403Y-21524936D01*
X119318001Y-21504341D01*
X119317999Y-21504341D01*
X119082596Y-21524936D01*
X119082586Y-21524938D01*
X118854344Y-21586094D01*
X118854335Y-21586098D01*
X118640171Y-21685964D01*
X118640169Y-21685965D01*
X118446594Y-21821508D01*
X118446592Y-21821509D01*
X118444035Y-21824066D01*
X118442634Y-21824830D01*
X118442449Y-21824986D01*
X118442417Y-21824948D01*
X118382707Y-21857541D01*
X118313016Y-21852546D01*
X118268687Y-21824052D01*
X117753390Y-21308755D01*
X117753388Y-21308752D01*
X117634517Y-21189881D01*
X117634516Y-21189880D01*
X117547704Y-21139760D01*
X117547704Y-21139759D01*
X117547700Y-21139758D01*
X117497585Y-21110823D01*
X117344857Y-21069899D01*
X117186743Y-21069899D01*
X117179147Y-21069899D01*
X117179131Y-21069900D01*
X113822570Y-21069900D01*
X113822554Y-21069899D01*
X113814958Y-21069899D01*
X113656843Y-21069899D01*
X113580479Y-21090361D01*
X113504114Y-21110823D01*
X113504109Y-21110826D01*
X113367190Y-21189875D01*
X113367182Y-21189881D01*
X112740093Y-21816970D01*
X112678770Y-21850455D01*
X112609078Y-21845471D01*
X112572705Y-21824277D01*
X112569401Y-21821504D01*
X112375834Y-21685967D01*
X112375830Y-21685965D01*
X112304727Y-21652809D01*
X112161663Y-21586097D01*
X112161659Y-21586096D01*
X112161655Y-21586094D01*
X111933413Y-21524938D01*
X111933403Y-21524936D01*
X111698001Y-21504341D01*
X111697999Y-21504341D01*
X111462596Y-21524936D01*
X111462586Y-21524938D01*
X111234344Y-21586094D01*
X111234335Y-21586098D01*
X111020171Y-21685964D01*
X111020169Y-21685965D01*
X110826597Y-21821505D01*
X110659505Y-21988597D01*
X110529575Y-22174158D01*
X110474998Y-22217783D01*
X110405500Y-22224977D01*
X110343145Y-22193454D01*
X110326425Y-22174158D01*
X110196494Y-21988597D01*
X110029402Y-21821506D01*
X110029399Y-21821504D01*
X109952854Y-21767906D01*
X109835834Y-21685967D01*
X109835830Y-21685965D01*
X109764727Y-21652809D01*
X109621663Y-21586097D01*
X109621659Y-21586096D01*
X109621655Y-21586094D01*
X109393413Y-21524938D01*
X109393403Y-21524936D01*
X109158001Y-21504341D01*
X109157999Y-21504341D01*
X108922596Y-21524936D01*
X108922586Y-21524938D01*
X108694344Y-21586094D01*
X108694335Y-21586098D01*
X108480171Y-21685964D01*
X108480169Y-21685965D01*
X108286597Y-21821505D01*
X108119505Y-21988597D01*
X107989575Y-22174158D01*
X107934998Y-22217783D01*
X107865500Y-22224977D01*
X107803145Y-22193454D01*
X107786425Y-22174158D01*
X107656494Y-21988597D01*
X107489402Y-21821506D01*
X107489399Y-21821504D01*
X107412854Y-21767906D01*
X107295834Y-21685967D01*
X107295830Y-21685965D01*
X107224727Y-21652809D01*
X107081663Y-21586097D01*
X107081659Y-21586096D01*
X107081655Y-21586094D01*
X106853413Y-21524938D01*
X106853403Y-21524936D01*
X106618001Y-21504341D01*
X106617999Y-21504341D01*
X106382596Y-21524936D01*
X106382586Y-21524938D01*
X106154344Y-21586094D01*
X106154335Y-21586098D01*
X105940171Y-21685964D01*
X105940169Y-21685965D01*
X105746597Y-21821505D01*
X105579505Y-21988597D01*
X105449575Y-22174158D01*
X105394998Y-22217783D01*
X105325500Y-22224977D01*
X105263145Y-22193454D01*
X105246425Y-22174158D01*
X105116494Y-21988597D01*
X104949402Y-21821506D01*
X104949399Y-21821504D01*
X104872854Y-21767906D01*
X104755834Y-21685967D01*
X104755830Y-21685965D01*
X104684727Y-21652809D01*
X104541663Y-21586097D01*
X104541659Y-21586096D01*
X104541655Y-21586094D01*
X104313413Y-21524938D01*
X104313403Y-21524936D01*
X104078001Y-21504341D01*
X104077999Y-21504341D01*
X103842596Y-21524936D01*
X103842586Y-21524938D01*
X103614344Y-21586094D01*
X103614335Y-21586098D01*
X103400171Y-21685964D01*
X103400169Y-21685965D01*
X103206597Y-21821505D01*
X103039505Y-21988597D01*
X102909575Y-22174158D01*
X102854998Y-22217783D01*
X102785500Y-22224977D01*
X102723145Y-22193454D01*
X102706425Y-22174158D01*
X102576494Y-21988597D01*
X102409402Y-21821506D01*
X102409399Y-21821504D01*
X102332854Y-21767906D01*
X102215834Y-21685967D01*
X102215830Y-21685965D01*
X102144727Y-21652809D01*
X102001663Y-21586097D01*
X102001659Y-21586096D01*
X102001655Y-21586094D01*
X101773413Y-21524938D01*
X101773403Y-21524936D01*
X101538001Y-21504341D01*
X101537999Y-21504341D01*
X101302596Y-21524936D01*
X101302586Y-21524938D01*
X101074344Y-21586094D01*
X101074335Y-21586098D01*
X100860171Y-21685964D01*
X100860169Y-21685965D01*
X100666597Y-21821505D01*
X100499505Y-21988597D01*
X100369575Y-22174158D01*
X100314998Y-22217783D01*
X100245500Y-22224977D01*
X100183145Y-22193454D01*
X100166425Y-22174158D01*
X100036494Y-21988597D01*
X99869402Y-21821506D01*
X99869399Y-21821504D01*
X99792854Y-21767906D01*
X99675834Y-21685967D01*
X99675830Y-21685965D01*
X99604727Y-21652809D01*
X99461663Y-21586097D01*
X99461659Y-21586096D01*
X99461655Y-21586094D01*
X99233413Y-21524938D01*
X99233403Y-21524936D01*
X98998001Y-21504341D01*
X98997999Y-21504341D01*
X98762596Y-21524936D01*
X98762586Y-21524938D01*
X98534344Y-21586094D01*
X98534335Y-21586098D01*
X98320171Y-21685964D01*
X98320169Y-21685965D01*
X98126597Y-21821505D01*
X97959505Y-21988597D01*
X97823965Y-22182169D01*
X97823964Y-22182171D01*
X97724098Y-22396335D01*
X97724094Y-22396344D01*
X97662938Y-22624586D01*
X97662936Y-22624596D01*
X97642341Y-22859999D01*
X97642341Y-22860000D01*
X97662936Y-23095403D01*
X97662938Y-23095413D01*
X97724094Y-23323655D01*
X97724096Y-23323659D01*
X97724097Y-23323663D01*
X97804003Y-23495022D01*
X97823965Y-23537830D01*
X97823967Y-23537834D01*
X97932281Y-23692521D01*
X97959505Y-23731401D01*
X98126599Y-23898495D01*
X98185796Y-23939945D01*
X98320165Y-24034032D01*
X98320167Y-24034033D01*
X98320170Y-24034035D01*
X98534337Y-24133903D01*
X98534343Y-24133904D01*
X98534344Y-24133905D01*
X98589285Y-24148626D01*
X98762592Y-24195063D01*
X98933319Y-24210000D01*
X98997999Y-24215659D01*
X98998000Y-24215659D01*
X98998001Y-24215659D01*
X99062681Y-24210000D01*
X99233408Y-24195063D01*
X99461663Y-24133903D01*
X99675830Y-24034035D01*
X99869401Y-23898495D01*
X100036495Y-23731401D01*
X100166426Y-23545841D01*
X100221002Y-23502217D01*
X100290500Y-23495023D01*
X100352855Y-23526546D01*
X100369575Y-23545842D01*
X100499500Y-23731395D01*
X100499505Y-23731401D01*
X100666599Y-23898495D01*
X100725796Y-23939945D01*
X100860165Y-24034032D01*
X100860167Y-24034033D01*
X100860170Y-24034035D01*
X101074337Y-24133903D01*
X101074343Y-24133904D01*
X101074344Y-24133905D01*
X101129285Y-24148626D01*
X101302592Y-24195063D01*
X101473319Y-24210000D01*
X101537999Y-24215659D01*
X101538000Y-24215659D01*
X101538001Y-24215659D01*
X101602681Y-24210000D01*
X101773408Y-24195063D01*
X102001663Y-24133903D01*
X102215830Y-24034035D01*
X102409401Y-23898495D01*
X102576495Y-23731401D01*
X102706426Y-23545841D01*
X102761002Y-23502217D01*
X102830500Y-23495023D01*
X102892855Y-23526546D01*
X102909575Y-23545842D01*
X103039500Y-23731395D01*
X103039505Y-23731401D01*
X103206599Y-23898495D01*
X103265796Y-23939945D01*
X103400165Y-24034032D01*
X103400167Y-24034033D01*
X103400170Y-24034035D01*
X103614337Y-24133903D01*
X103614343Y-24133904D01*
X103614344Y-24133905D01*
X103669285Y-24148626D01*
X103842592Y-24195063D01*
X104013319Y-24210000D01*
X104077999Y-24215659D01*
X104078000Y-24215659D01*
X104078001Y-24215659D01*
X104142681Y-24210000D01*
X104313408Y-24195063D01*
X104541663Y-24133903D01*
X104755830Y-24034035D01*
X104949401Y-23898495D01*
X105116495Y-23731401D01*
X105246426Y-23545841D01*
X105301002Y-23502217D01*
X105370500Y-23495023D01*
X105432855Y-23526546D01*
X105449575Y-23545842D01*
X105579500Y-23731395D01*
X105579505Y-23731401D01*
X105746599Y-23898495D01*
X105805796Y-23939945D01*
X105940165Y-24034032D01*
X105940167Y-24034033D01*
X105940170Y-24034035D01*
X106154337Y-24133903D01*
X106154343Y-24133904D01*
X106154344Y-24133905D01*
X106209285Y-24148626D01*
X106382592Y-24195063D01*
X106553319Y-24210000D01*
X106617999Y-24215659D01*
X106618000Y-24215659D01*
X106618001Y-24215659D01*
X106682681Y-24210000D01*
X106853408Y-24195063D01*
X107081663Y-24133903D01*
X107295830Y-24034035D01*
X107489401Y-23898495D01*
X107656495Y-23731401D01*
X107786426Y-23545841D01*
X107841002Y-23502217D01*
X107910500Y-23495023D01*
X107972855Y-23526546D01*
X107989575Y-23545842D01*
X108119500Y-23731395D01*
X108119505Y-23731401D01*
X108286599Y-23898495D01*
X108345796Y-23939945D01*
X108480165Y-24034032D01*
X108480167Y-24034033D01*
X108480170Y-24034035D01*
X108694337Y-24133903D01*
X108694343Y-24133904D01*
X108694344Y-24133905D01*
X108749285Y-24148626D01*
X108922592Y-24195063D01*
X109093319Y-24210000D01*
X109157999Y-24215659D01*
X109158000Y-24215659D01*
X109158001Y-24215659D01*
X109222681Y-24210000D01*
X109393408Y-24195063D01*
X109621663Y-24133903D01*
X109835830Y-24034035D01*
X110029401Y-23898495D01*
X110196495Y-23731401D01*
X110326426Y-23545841D01*
X110381002Y-23502217D01*
X110450500Y-23495023D01*
X110512855Y-23526546D01*
X110529575Y-23545842D01*
X110659500Y-23731395D01*
X110659505Y-23731401D01*
X110826599Y-23898495D01*
X110885796Y-23939945D01*
X111020165Y-24034032D01*
X111020167Y-24034033D01*
X111020170Y-24034035D01*
X111096429Y-24069595D01*
X111148868Y-24115767D01*
X111168020Y-24182961D01*
X111147804Y-24249842D01*
X111131705Y-24269658D01*
X82887684Y-52513681D01*
X82826361Y-52547166D01*
X82800003Y-52550000D01*
X39613997Y-52550000D01*
X39546958Y-52530315D01*
X39501203Y-52477511D01*
X39491259Y-52408353D01*
X39520284Y-52344797D01*
X39526316Y-52338319D01*
X40544351Y-51320284D01*
X41588965Y-50275668D01*
X41650287Y-50242185D01*
X41719979Y-50247169D01*
X41775912Y-50289041D01*
X41800329Y-50354505D01*
X41799866Y-50377232D01*
X41796535Y-50406801D01*
X41796535Y-50406803D01*
X41816730Y-50586049D01*
X41816731Y-50586054D01*
X41876311Y-50756323D01*
X41910802Y-50811214D01*
X41972284Y-50909062D01*
X42099838Y-51036616D01*
X42182409Y-51088499D01*
X42247542Y-51129425D01*
X42252578Y-51132589D01*
X42422845Y-51192168D01*
X42422850Y-51192169D01*
X42602096Y-51212365D01*
X42602100Y-51212365D01*
X42602104Y-51212365D01*
X42781349Y-51192169D01*
X42781352Y-51192168D01*
X42781355Y-51192168D01*
X42951622Y-51132589D01*
X43104362Y-51036616D01*
X43231916Y-50909062D01*
X43327889Y-50756322D01*
X43387468Y-50586055D01*
X43397261Y-50499129D01*
X43424326Y-50434718D01*
X43432790Y-50425343D01*
X59975346Y-33882788D01*
X60036667Y-33849305D01*
X60106359Y-33854289D01*
X60135910Y-33870153D01*
X60275113Y-33971288D01*
X60290978Y-33982815D01*
X60419375Y-34048237D01*
X60487393Y-34082895D01*
X60487396Y-34082896D01*
X60572924Y-34110685D01*
X60697049Y-34151015D01*
X60914778Y-34185500D01*
X60914779Y-34185500D01*
X61135221Y-34185500D01*
X61135222Y-34185500D01*
X61352951Y-34151015D01*
X61562606Y-34082895D01*
X61759022Y-33982815D01*
X61937365Y-33853242D01*
X62093242Y-33697365D01*
X62103804Y-33682826D01*
X62194682Y-33557745D01*
X62250011Y-33515079D01*
X62319625Y-33509100D01*
X62381420Y-33541705D01*
X62395318Y-33557745D01*
X62496752Y-33697358D01*
X62496756Y-33697363D01*
X62652636Y-33853243D01*
X62652641Y-33853247D01*
X62754603Y-33927326D01*
X62830978Y-33982815D01*
X62959375Y-34048237D01*
X63027393Y-34082895D01*
X63027396Y-34082896D01*
X63112924Y-34110685D01*
X63237049Y-34151015D01*
X63454778Y-34185500D01*
X63454779Y-34185500D01*
X63675221Y-34185500D01*
X63675222Y-34185500D01*
X63892951Y-34151015D01*
X64102606Y-34082895D01*
X64299022Y-33982815D01*
X64477365Y-33853242D01*
X64633242Y-33697365D01*
X64643804Y-33682826D01*
X64734682Y-33557745D01*
X64790011Y-33515079D01*
X64859625Y-33509100D01*
X64921420Y-33541705D01*
X64935318Y-33557745D01*
X65036752Y-33697358D01*
X65036756Y-33697363D01*
X65192636Y-33853243D01*
X65192641Y-33853247D01*
X65294603Y-33927326D01*
X65370978Y-33982815D01*
X65499375Y-34048237D01*
X65567393Y-34082895D01*
X65567396Y-34082896D01*
X65652924Y-34110685D01*
X65777049Y-34151015D01*
X65994778Y-34185500D01*
X65994779Y-34185500D01*
X66215221Y-34185500D01*
X66215222Y-34185500D01*
X66432951Y-34151015D01*
X66642606Y-34082895D01*
X66839022Y-33982815D01*
X67017365Y-33853242D01*
X67173242Y-33697365D01*
X67183804Y-33682826D01*
X67274682Y-33557745D01*
X67330011Y-33515079D01*
X67399625Y-33509100D01*
X67461420Y-33541705D01*
X67475318Y-33557745D01*
X67576752Y-33697358D01*
X67576756Y-33697363D01*
X67732636Y-33853243D01*
X67732641Y-33853247D01*
X67834603Y-33927326D01*
X67910978Y-33982815D01*
X68039375Y-34048237D01*
X68107393Y-34082895D01*
X68107396Y-34082896D01*
X68192924Y-34110685D01*
X68317049Y-34151015D01*
X68534778Y-34185500D01*
X68534779Y-34185500D01*
X68755221Y-34185500D01*
X68755222Y-34185500D01*
X68972951Y-34151015D01*
X69182606Y-34082895D01*
X69379022Y-33982815D01*
X69557365Y-33853242D01*
X69713242Y-33697365D01*
X69723804Y-33682826D01*
X69814682Y-33557745D01*
X69870011Y-33515079D01*
X69939625Y-33509100D01*
X70001420Y-33541705D01*
X70015318Y-33557745D01*
X70116752Y-33697358D01*
X70116756Y-33697363D01*
X70272636Y-33853243D01*
X70272641Y-33853247D01*
X70374603Y-33927326D01*
X70450978Y-33982815D01*
X70579375Y-34048237D01*
X70647393Y-34082895D01*
X70647396Y-34082896D01*
X70732924Y-34110685D01*
X70857049Y-34151015D01*
X71074778Y-34185500D01*
X71074779Y-34185500D01*
X71295221Y-34185500D01*
X71295222Y-34185500D01*
X71512951Y-34151015D01*
X71722606Y-34082895D01*
X71919022Y-33982815D01*
X72097365Y-33853242D01*
X72253242Y-33697365D01*
X72263804Y-33682826D01*
X72354682Y-33557745D01*
X72410011Y-33515079D01*
X72479625Y-33509100D01*
X72541420Y-33541705D01*
X72555318Y-33557745D01*
X72656752Y-33697358D01*
X72656756Y-33697363D01*
X72812636Y-33853243D01*
X72812641Y-33853247D01*
X72914603Y-33927326D01*
X72990978Y-33982815D01*
X73119375Y-34048237D01*
X73187393Y-34082895D01*
X73187396Y-34082896D01*
X73272924Y-34110685D01*
X73397049Y-34151015D01*
X73614778Y-34185500D01*
X73614779Y-34185500D01*
X73835221Y-34185500D01*
X73835222Y-34185500D01*
X74052951Y-34151015D01*
X74262606Y-34082895D01*
X74459022Y-33982815D01*
X74637365Y-33853242D01*
X74793242Y-33697365D01*
X74803804Y-33682826D01*
X74894682Y-33557745D01*
X74950011Y-33515079D01*
X75019625Y-33509100D01*
X75081420Y-33541705D01*
X75095318Y-33557745D01*
X75196752Y-33697358D01*
X75196756Y-33697363D01*
X75352636Y-33853243D01*
X75352641Y-33853247D01*
X75454603Y-33927326D01*
X75530978Y-33982815D01*
X75659375Y-34048237D01*
X75727393Y-34082895D01*
X75727396Y-34082896D01*
X75812924Y-34110685D01*
X75937049Y-34151015D01*
X76154778Y-34185500D01*
X76154779Y-34185500D01*
X76375221Y-34185500D01*
X76375222Y-34185500D01*
X76592951Y-34151015D01*
X76802606Y-34082895D01*
X76999022Y-33982815D01*
X77177365Y-33853242D01*
X77333242Y-33697365D01*
X77343804Y-33682826D01*
X77434682Y-33557745D01*
X77490011Y-33515079D01*
X77559625Y-33509100D01*
X77621420Y-33541705D01*
X77635318Y-33557745D01*
X77736752Y-33697358D01*
X77736756Y-33697363D01*
X77892636Y-33853243D01*
X77892641Y-33853247D01*
X77994603Y-33927326D01*
X78070978Y-33982815D01*
X78199375Y-34048237D01*
X78267393Y-34082895D01*
X78267396Y-34082896D01*
X78352924Y-34110685D01*
X78477049Y-34151015D01*
X78694778Y-34185500D01*
X78694779Y-34185500D01*
X78915221Y-34185500D01*
X78915222Y-34185500D01*
X79132951Y-34151015D01*
X79342606Y-34082895D01*
X79539022Y-33982815D01*
X79717365Y-33853242D01*
X79873242Y-33697365D01*
X79883804Y-33682826D01*
X79974682Y-33557745D01*
X80030011Y-33515079D01*
X80099625Y-33509100D01*
X80161420Y-33541705D01*
X80175318Y-33557745D01*
X80276752Y-33697358D01*
X80276756Y-33697363D01*
X80432636Y-33853243D01*
X80432641Y-33853247D01*
X80534603Y-33927326D01*
X80610978Y-33982815D01*
X80739375Y-34048237D01*
X80807393Y-34082895D01*
X80807396Y-34082896D01*
X80892924Y-34110685D01*
X81017049Y-34151015D01*
X81234778Y-34185500D01*
X81234779Y-34185500D01*
X81455221Y-34185500D01*
X81455222Y-34185500D01*
X81672951Y-34151015D01*
X81882606Y-34082895D01*
X82079022Y-33982815D01*
X82257365Y-33853242D01*
X82413242Y-33697365D01*
X82423804Y-33682826D01*
X82514682Y-33557745D01*
X82570011Y-33515079D01*
X82639625Y-33509100D01*
X82701420Y-33541705D01*
X82715318Y-33557745D01*
X82816752Y-33697358D01*
X82816756Y-33697363D01*
X82972636Y-33853243D01*
X82972641Y-33853247D01*
X83074603Y-33927326D01*
X83150978Y-33982815D01*
X83279375Y-34048237D01*
X83347393Y-34082895D01*
X83347396Y-34082896D01*
X83432924Y-34110685D01*
X83557049Y-34151015D01*
X83774778Y-34185500D01*
X83774779Y-34185500D01*
X83995221Y-34185500D01*
X83995222Y-34185500D01*
X84212951Y-34151015D01*
X84422606Y-34082895D01*
X84619022Y-33982815D01*
X84797365Y-33853242D01*
X84953242Y-33697365D01*
X84963804Y-33682826D01*
X85054682Y-33557745D01*
X85110011Y-33515079D01*
X85179625Y-33509100D01*
X85241420Y-33541705D01*
X85255318Y-33557745D01*
X85356752Y-33697358D01*
X85356756Y-33697363D01*
X85512636Y-33853243D01*
X85512641Y-33853247D01*
X85614603Y-33927326D01*
X85690978Y-33982815D01*
X85819375Y-34048237D01*
X85887393Y-34082895D01*
X85887396Y-34082896D01*
X85972924Y-34110685D01*
X86097049Y-34151015D01*
X86314778Y-34185500D01*
X86314779Y-34185500D01*
X86535221Y-34185500D01*
X86535222Y-34185500D01*
X86752951Y-34151015D01*
X86962606Y-34082895D01*
X87159022Y-33982815D01*
X87337365Y-33853242D01*
X87493242Y-33697365D01*
X87622815Y-33519022D01*
X87722895Y-33322606D01*
X87791015Y-33112951D01*
X87825500Y-32895222D01*
X87825500Y-31874778D01*
X87791015Y-31657049D01*
X87722895Y-31447394D01*
X87722895Y-31447393D01*
X87688237Y-31379375D01*
X87622815Y-31250978D01*
X87594681Y-31212254D01*
X87493247Y-31072641D01*
X87493243Y-31072636D01*
X87337363Y-30916756D01*
X87337358Y-30916752D01*
X87159025Y-30787187D01*
X87159024Y-30787186D01*
X87159022Y-30787185D01*
X87041791Y-30727452D01*
X86962606Y-30687104D01*
X86962603Y-30687103D01*
X86752952Y-30618985D01*
X86644086Y-30601742D01*
X86535222Y-30584500D01*
X86314778Y-30584500D01*
X86242201Y-30595995D01*
X86097047Y-30618985D01*
X85887396Y-30687103D01*
X85887393Y-30687104D01*
X85690974Y-30787187D01*
X85512641Y-30916752D01*
X85512636Y-30916756D01*
X85356756Y-31072636D01*
X85356752Y-31072641D01*
X85255318Y-31212254D01*
X85199988Y-31254920D01*
X85130375Y-31260899D01*
X85068580Y-31228293D01*
X85054682Y-31212254D01*
X84953247Y-31072641D01*
X84953243Y-31072636D01*
X84797363Y-30916756D01*
X84797358Y-30916752D01*
X84619025Y-30787187D01*
X84619024Y-30787186D01*
X84619022Y-30787185D01*
X84501791Y-30727452D01*
X84422606Y-30687104D01*
X84422603Y-30687103D01*
X84212952Y-30618985D01*
X84104086Y-30601742D01*
X83995222Y-30584500D01*
X83774778Y-30584500D01*
X83702201Y-30595995D01*
X83557047Y-30618985D01*
X83347396Y-30687103D01*
X83347393Y-30687104D01*
X83150974Y-30787187D01*
X82972641Y-30916752D01*
X82972636Y-30916756D01*
X82816756Y-31072636D01*
X82816752Y-31072641D01*
X82715318Y-31212254D01*
X82659988Y-31254920D01*
X82590375Y-31260899D01*
X82528580Y-31228293D01*
X82514682Y-31212254D01*
X82413247Y-31072641D01*
X82413243Y-31072636D01*
X82257363Y-30916756D01*
X82257358Y-30916752D01*
X82079025Y-30787187D01*
X82079024Y-30787186D01*
X82079022Y-30787185D01*
X81961791Y-30727452D01*
X81882606Y-30687104D01*
X81882603Y-30687103D01*
X81672952Y-30618985D01*
X81564086Y-30601742D01*
X81455222Y-30584500D01*
X81234778Y-30584500D01*
X81162201Y-30595995D01*
X81017047Y-30618985D01*
X80807396Y-30687103D01*
X80807393Y-30687104D01*
X80610974Y-30787187D01*
X80432641Y-30916752D01*
X80432636Y-30916756D01*
X80276756Y-31072636D01*
X80276752Y-31072641D01*
X80175318Y-31212254D01*
X80119988Y-31254920D01*
X80050375Y-31260899D01*
X79988580Y-31228293D01*
X79974682Y-31212254D01*
X79873247Y-31072641D01*
X79873243Y-31072636D01*
X79717363Y-30916756D01*
X79717358Y-30916752D01*
X79539025Y-30787187D01*
X79539024Y-30787186D01*
X79539022Y-30787185D01*
X79421791Y-30727452D01*
X79342606Y-30687104D01*
X79342603Y-30687103D01*
X79132952Y-30618985D01*
X79024086Y-30601742D01*
X78915222Y-30584500D01*
X78694778Y-30584500D01*
X78622201Y-30595995D01*
X78477047Y-30618985D01*
X78267396Y-30687103D01*
X78267393Y-30687104D01*
X78070974Y-30787187D01*
X77892641Y-30916752D01*
X77892636Y-30916756D01*
X77736756Y-31072636D01*
X77736752Y-31072641D01*
X77635318Y-31212254D01*
X77579988Y-31254920D01*
X77510375Y-31260899D01*
X77448580Y-31228293D01*
X77434682Y-31212254D01*
X77333247Y-31072641D01*
X77333243Y-31072636D01*
X77177363Y-30916756D01*
X77177358Y-30916752D01*
X76999025Y-30787187D01*
X76999024Y-30787186D01*
X76999022Y-30787185D01*
X76881791Y-30727452D01*
X76802606Y-30687104D01*
X76802603Y-30687103D01*
X76592952Y-30618985D01*
X76484086Y-30601742D01*
X76375222Y-30584500D01*
X76154778Y-30584500D01*
X76082201Y-30595995D01*
X75937047Y-30618985D01*
X75727396Y-30687103D01*
X75727393Y-30687104D01*
X75530974Y-30787187D01*
X75352641Y-30916752D01*
X75352636Y-30916756D01*
X75196756Y-31072636D01*
X75196752Y-31072641D01*
X75095318Y-31212254D01*
X75039988Y-31254920D01*
X74970375Y-31260899D01*
X74908580Y-31228293D01*
X74894682Y-31212254D01*
X74793247Y-31072641D01*
X74793243Y-31072636D01*
X74637363Y-30916756D01*
X74637358Y-30916752D01*
X74459025Y-30787187D01*
X74459024Y-30787186D01*
X74459022Y-30787185D01*
X74341791Y-30727452D01*
X74262606Y-30687104D01*
X74262603Y-30687103D01*
X74052952Y-30618985D01*
X73944086Y-30601742D01*
X73835222Y-30584500D01*
X73614778Y-30584500D01*
X73542201Y-30595995D01*
X73397047Y-30618985D01*
X73187396Y-30687103D01*
X73187393Y-30687104D01*
X72990974Y-30787187D01*
X72812641Y-30916752D01*
X72812636Y-30916756D01*
X72656756Y-31072636D01*
X72656752Y-31072641D01*
X72555318Y-31212254D01*
X72499988Y-31254920D01*
X72430375Y-31260899D01*
X72368580Y-31228293D01*
X72354682Y-31212254D01*
X72253247Y-31072641D01*
X72253243Y-31072636D01*
X72097363Y-30916756D01*
X72097358Y-30916752D01*
X71919025Y-30787187D01*
X71919024Y-30787186D01*
X71919022Y-30787185D01*
X71801791Y-30727452D01*
X71722606Y-30687104D01*
X71722603Y-30687103D01*
X71512952Y-30618985D01*
X71404086Y-30601742D01*
X71295222Y-30584500D01*
X71074778Y-30584500D01*
X71002201Y-30595995D01*
X70857047Y-30618985D01*
X70647396Y-30687103D01*
X70647393Y-30687104D01*
X70450974Y-30787187D01*
X70272641Y-30916752D01*
X70272636Y-30916756D01*
X70116756Y-31072636D01*
X70116752Y-31072641D01*
X70015318Y-31212254D01*
X69959988Y-31254920D01*
X69890375Y-31260899D01*
X69828580Y-31228293D01*
X69814682Y-31212254D01*
X69713247Y-31072641D01*
X69713243Y-31072636D01*
X69557363Y-30916756D01*
X69557358Y-30916752D01*
X69379025Y-30787187D01*
X69379024Y-30787186D01*
X69379022Y-30787185D01*
X69261791Y-30727452D01*
X69182606Y-30687104D01*
X69182603Y-30687103D01*
X68972952Y-30618985D01*
X68864086Y-30601742D01*
X68755222Y-30584500D01*
X68534778Y-30584500D01*
X68462201Y-30595995D01*
X68317047Y-30618985D01*
X68107396Y-30687103D01*
X68107393Y-30687104D01*
X67910974Y-30787187D01*
X67732641Y-30916752D01*
X67732636Y-30916756D01*
X67576756Y-31072636D01*
X67576752Y-31072641D01*
X67475318Y-31212254D01*
X67419988Y-31254920D01*
X67350375Y-31260899D01*
X67288580Y-31228293D01*
X67274682Y-31212254D01*
X67173247Y-31072641D01*
X67173243Y-31072636D01*
X67017363Y-30916756D01*
X67017358Y-30916752D01*
X66839025Y-30787187D01*
X66839024Y-30787186D01*
X66839022Y-30787185D01*
X66721791Y-30727452D01*
X66642606Y-30687104D01*
X66642603Y-30687103D01*
X66432952Y-30618985D01*
X66324086Y-30601742D01*
X66215222Y-30584500D01*
X65994778Y-30584500D01*
X65922201Y-30595995D01*
X65777047Y-30618985D01*
X65567396Y-30687103D01*
X65567393Y-30687104D01*
X65370974Y-30787187D01*
X65192641Y-30916752D01*
X65192636Y-30916756D01*
X65036756Y-31072636D01*
X65036752Y-31072641D01*
X64935318Y-31212254D01*
X64879988Y-31254920D01*
X64810375Y-31260899D01*
X64748580Y-31228293D01*
X64734682Y-31212254D01*
X64633247Y-31072641D01*
X64633243Y-31072636D01*
X64477363Y-30916756D01*
X64477358Y-30916752D01*
X64299025Y-30787187D01*
X64299024Y-30787186D01*
X64299022Y-30787185D01*
X64181791Y-30727452D01*
X64102606Y-30687104D01*
X64102603Y-30687103D01*
X63892952Y-30618985D01*
X63784086Y-30601742D01*
X63675222Y-30584500D01*
X63454778Y-30584500D01*
X63382201Y-30595995D01*
X63237047Y-30618985D01*
X63027396Y-30687103D01*
X63027393Y-30687104D01*
X62830974Y-30787187D01*
X62652641Y-30916752D01*
X62652636Y-30916756D01*
X62496756Y-31072636D01*
X62496752Y-31072641D01*
X62395318Y-31212254D01*
X62339988Y-31254920D01*
X62270375Y-31260899D01*
X62208580Y-31228293D01*
X62194682Y-31212254D01*
X62093247Y-31072641D01*
X62093243Y-31072636D01*
X61937363Y-30916756D01*
X61937358Y-30916752D01*
X61759025Y-30787187D01*
X61759024Y-30787186D01*
X61759022Y-30787185D01*
X61641791Y-30727452D01*
X61562606Y-30687104D01*
X61562603Y-30687103D01*
X61352952Y-30618985D01*
X61244086Y-30601742D01*
X61135222Y-30584500D01*
X60914778Y-30584500D01*
X60842201Y-30595995D01*
X60697047Y-30618985D01*
X60487396Y-30687103D01*
X60487393Y-30687104D01*
X60290974Y-30787187D01*
X60112641Y-30916752D01*
X60112636Y-30916756D01*
X59956756Y-31072636D01*
X59956752Y-31072641D01*
X59855318Y-31212254D01*
X59799988Y-31254920D01*
X59730375Y-31260899D01*
X59668580Y-31228293D01*
X59654682Y-31212254D01*
X59553247Y-31072641D01*
X59553243Y-31072636D01*
X59397363Y-30916756D01*
X59397358Y-30916752D01*
X59219025Y-30787187D01*
X59219024Y-30787186D01*
X59219022Y-30787185D01*
X59101791Y-30727452D01*
X59022606Y-30687104D01*
X59022603Y-30687103D01*
X58812952Y-30618985D01*
X58704086Y-30601742D01*
X58595222Y-30584500D01*
X58374778Y-30584500D01*
X58302201Y-30595995D01*
X58157047Y-30618985D01*
X57947396Y-30687103D01*
X57947393Y-30687104D01*
X57750974Y-30787187D01*
X57572641Y-30916752D01*
X57572636Y-30916756D01*
X57416756Y-31072636D01*
X57416752Y-31072641D01*
X57315318Y-31212254D01*
X57259988Y-31254920D01*
X57190375Y-31260899D01*
X57128580Y-31228293D01*
X57114682Y-31212254D01*
X57013247Y-31072641D01*
X57013243Y-31072636D01*
X56857363Y-30916756D01*
X56857358Y-30916752D01*
X56679025Y-30787187D01*
X56679024Y-30787186D01*
X56679022Y-30787185D01*
X56561791Y-30727452D01*
X56482606Y-30687104D01*
X56482603Y-30687103D01*
X56272952Y-30618985D01*
X56164086Y-30601742D01*
X56055222Y-30584500D01*
X55834778Y-30584500D01*
X55762201Y-30595995D01*
X55617047Y-30618985D01*
X55407396Y-30687103D01*
X55407393Y-30687104D01*
X55210974Y-30787187D01*
X55032641Y-30916752D01*
X55032636Y-30916756D01*
X54876756Y-31072636D01*
X54876752Y-31072641D01*
X54775318Y-31212254D01*
X54719988Y-31254920D01*
X54650375Y-31260899D01*
X54588580Y-31228293D01*
X54574682Y-31212254D01*
X54473247Y-31072641D01*
X54473243Y-31072636D01*
X54317363Y-30916756D01*
X54317358Y-30916752D01*
X54139025Y-30787187D01*
X54139024Y-30787186D01*
X54139022Y-30787185D01*
X54021791Y-30727452D01*
X53942606Y-30687104D01*
X53942603Y-30687103D01*
X53732952Y-30618985D01*
X53624086Y-30601742D01*
X53515222Y-30584500D01*
X53294778Y-30584500D01*
X53222201Y-30595995D01*
X53077047Y-30618985D01*
X52867396Y-30687103D01*
X52867393Y-30687104D01*
X52670974Y-30787187D01*
X52492641Y-30916752D01*
X52492636Y-30916756D01*
X52336756Y-31072636D01*
X52235008Y-31212681D01*
X52179678Y-31255346D01*
X52110065Y-31261325D01*
X52048270Y-31228719D01*
X52034372Y-31212680D01*
X51932862Y-31072964D01*
X51932857Y-31072958D01*
X51777041Y-30917142D01*
X51598760Y-30787613D01*
X51402410Y-30687567D01*
X51192836Y-30619473D01*
X51115000Y-30607144D01*
X51115000Y-31836517D01*
X51096591Y-31825889D01*
X50943991Y-31785000D01*
X50786009Y-31785000D01*
X50633409Y-31825889D01*
X50615000Y-31836517D01*
X50615000Y-30607144D01*
X50537164Y-30619473D01*
X50537161Y-30619473D01*
X50327589Y-30687567D01*
X50131239Y-30787613D01*
X49952958Y-30917142D01*
X49902655Y-30967445D01*
X49841332Y-31000929D01*
X49771640Y-30995944D01*
X49715707Y-30954073D01*
X49698793Y-30923095D01*
X49668798Y-30842673D01*
X49668793Y-30842664D01*
X49582547Y-30727455D01*
X49582544Y-30727452D01*
X49467335Y-30641206D01*
X49467328Y-30641202D01*
X49332482Y-30590908D01*
X49332483Y-30590908D01*
X49272883Y-30584501D01*
X49272881Y-30584500D01*
X49272873Y-30584500D01*
X49272864Y-30584500D01*
X47377129Y-30584500D01*
X47377123Y-30584501D01*
X47317516Y-30590908D01*
X47182671Y-30641202D01*
X47182664Y-30641206D01*
X47067455Y-30727452D01*
X47067452Y-30727455D01*
X46981206Y-30842664D01*
X46981202Y-30842671D01*
X46930908Y-30977517D01*
X46924501Y-31037116D01*
X46924500Y-31037135D01*
X46924500Y-33732870D01*
X46924501Y-33732876D01*
X46930908Y-33792483D01*
X46981202Y-33927328D01*
X46981206Y-33927335D01*
X47067452Y-34042544D01*
X47067455Y-34042547D01*
X47182664Y-34128793D01*
X47182671Y-34128797D01*
X47317517Y-34179091D01*
X47317516Y-34179091D01*
X47324444Y-34179835D01*
X47377127Y-34185500D01*
X49272872Y-34185499D01*
X49332483Y-34179091D01*
X49467331Y-34128796D01*
X49582546Y-34042546D01*
X49668796Y-33927331D01*
X49698793Y-33846903D01*
X49740663Y-33790970D01*
X49806127Y-33766552D01*
X49874400Y-33781403D01*
X49902656Y-33802555D01*
X49952958Y-33852857D01*
X50131239Y-33982386D01*
X50327589Y-34082432D01*
X50537163Y-34150526D01*
X50614999Y-34162854D01*
X50615000Y-34162854D01*
X50615000Y-32933482D01*
X50633409Y-32944111D01*
X50786009Y-32985000D01*
X50943991Y-32985000D01*
X51096591Y-32944111D01*
X51115000Y-32933482D01*
X51115000Y-34162854D01*
X51192834Y-34150526D01*
X51192837Y-34150526D01*
X51402410Y-34082432D01*
X51598760Y-33982386D01*
X51777041Y-33852857D01*
X51932857Y-33697041D01*
X51932862Y-33697035D01*
X52034372Y-33557319D01*
X52089702Y-33514653D01*
X52159315Y-33508674D01*
X52221110Y-33541279D01*
X52235008Y-33557319D01*
X52336752Y-33697358D01*
X52336756Y-33697363D01*
X52492636Y-33853243D01*
X52492641Y-33853247D01*
X52594603Y-33927326D01*
X52670978Y-33982815D01*
X52799375Y-34048237D01*
X52867393Y-34082895D01*
X52867396Y-34082896D01*
X52952924Y-34110685D01*
X53077049Y-34151015D01*
X53294778Y-34185500D01*
X53294779Y-34185500D01*
X53515221Y-34185500D01*
X53515222Y-34185500D01*
X53732951Y-34151015D01*
X53942606Y-34082895D01*
X53964102Y-34071941D01*
X54032771Y-34059044D01*
X54097512Y-34085318D01*
X54137771Y-34142424D01*
X54144400Y-34182425D01*
X54144400Y-35970402D01*
X54124715Y-36037441D01*
X54108081Y-36058083D01*
X38446565Y-51719598D01*
X38385242Y-51753083D01*
X38372768Y-51755137D01*
X38285850Y-51764930D01*
X38115578Y-51824510D01*
X37962837Y-51920484D01*
X37835284Y-52048037D01*
X37739311Y-52200776D01*
X37679731Y-52371045D01*
X37679730Y-52371050D01*
X37671976Y-52439882D01*
X37644910Y-52504296D01*
X37587316Y-52543852D01*
X37548756Y-52550000D01*
X37256397Y-52550000D01*
X37189358Y-52530315D01*
X37168716Y-52513681D01*
X35982390Y-51327355D01*
X35982388Y-51327352D01*
X35863517Y-51208481D01*
X35863509Y-51208475D01*
X35761736Y-51149717D01*
X35761734Y-51149716D01*
X35726590Y-51129425D01*
X35726589Y-51129424D01*
X35714063Y-51126067D01*
X35573857Y-51088499D01*
X35415743Y-51088499D01*
X35408147Y-51088499D01*
X35408131Y-51088500D01*
X28930812Y-51088500D01*
X28863773Y-51068815D01*
X28853497Y-51061445D01*
X28850663Y-51059185D01*
X28850662Y-51059184D01*
X28774292Y-51011197D01*
X28697921Y-50963210D01*
X28527649Y-50903630D01*
X28458816Y-50895875D01*
X28394402Y-50868808D01*
X28354847Y-50811214D01*
X28348700Y-50772655D01*
X28348700Y-50086634D01*
X28368385Y-50019595D01*
X28421189Y-49973840D01*
X28431728Y-49969599D01*
X28581222Y-49917289D01*
X28733962Y-49821316D01*
X28861516Y-49693762D01*
X28957489Y-49541022D01*
X29017068Y-49370755D01*
X29037265Y-49191500D01*
X29029135Y-49119345D01*
X29029061Y-49118683D01*
X29041115Y-49049862D01*
X29088465Y-48998482D01*
X29152281Y-48980800D01*
X31337231Y-48980800D01*
X31337247Y-48980801D01*
X31344843Y-48980801D01*
X31502954Y-48980801D01*
X31502957Y-48980801D01*
X31655685Y-48939877D01*
X31747310Y-48886977D01*
X31792616Y-48860820D01*
X31904420Y-48749016D01*
X31904420Y-48749014D01*
X31914624Y-48738811D01*
X31914628Y-48738806D01*
X32454506Y-48198928D01*
X32454511Y-48198924D01*
X32464714Y-48188720D01*
X32464716Y-48188720D01*
X32576520Y-48076916D01*
X32648244Y-47952686D01*
X32655577Y-47939985D01*
X32696501Y-47787257D01*
X32696501Y-47629143D01*
X32696501Y-47621548D01*
X32696500Y-47621530D01*
X32696500Y-40206412D01*
X32716185Y-40139373D01*
X32723555Y-40129097D01*
X32725810Y-40126267D01*
X32725816Y-40126262D01*
X32821789Y-39973522D01*
X32881368Y-39803255D01*
X32901565Y-39624000D01*
X32881368Y-39444745D01*
X32821789Y-39274478D01*
X32725816Y-39121738D01*
X32725814Y-39121736D01*
X32725813Y-39121734D01*
X32723550Y-39118896D01*
X32722659Y-39116715D01*
X32722111Y-39115842D01*
X32722264Y-39115745D01*
X32697144Y-39054209D01*
X32696500Y-39041587D01*
X32696500Y-37519059D01*
X32696501Y-37519046D01*
X32696501Y-37350945D01*
X32696501Y-37350943D01*
X32655577Y-37198215D01*
X32626639Y-37148095D01*
X32576520Y-37061284D01*
X32464716Y-36949480D01*
X32464715Y-36949479D01*
X32460385Y-36945149D01*
X32460374Y-36945139D01*
X31564700Y-36049465D01*
X31531215Y-35988142D01*
X31529163Y-35975686D01*
X31519368Y-35888745D01*
X31459789Y-35718478D01*
X31363816Y-35565738D01*
X31236262Y-35438184D01*
X31083523Y-35342211D01*
X30913254Y-35282631D01*
X30913249Y-35282630D01*
X30734004Y-35262435D01*
X30733996Y-35262435D01*
X30554750Y-35282630D01*
X30554745Y-35282631D01*
X30384476Y-35342211D01*
X30231737Y-35438184D01*
X30104184Y-35565737D01*
X30008211Y-35718476D01*
X29948631Y-35888745D01*
X29948630Y-35888750D01*
X29928435Y-36067996D01*
X29928435Y-36068003D01*
X29948630Y-36247249D01*
X29948631Y-36247254D01*
X30008211Y-36417523D01*
X30061471Y-36502285D01*
X30104184Y-36570262D01*
X30231738Y-36697816D01*
X30384478Y-36793789D01*
X30554745Y-36853368D01*
X30641669Y-36863161D01*
X30706080Y-36890226D01*
X30715465Y-36898700D01*
X31459181Y-37642416D01*
X31492666Y-37703739D01*
X31495500Y-37730097D01*
X31495500Y-39041587D01*
X31475815Y-39108626D01*
X31468450Y-39118896D01*
X31466186Y-39121734D01*
X31370211Y-39274476D01*
X31310631Y-39444745D01*
X31310630Y-39444750D01*
X31290435Y-39623996D01*
X31290435Y-39624003D01*
X31310630Y-39803249D01*
X31310631Y-39803254D01*
X31370211Y-39973523D01*
X31466185Y-40126263D01*
X31468445Y-40129097D01*
X31469334Y-40131275D01*
X31469889Y-40132158D01*
X31469734Y-40132255D01*
X31494855Y-40193783D01*
X31495500Y-40206412D01*
X31495500Y-47408103D01*
X31475815Y-47475142D01*
X31459181Y-47495784D01*
X31211484Y-47743481D01*
X31150161Y-47776966D01*
X31123803Y-47779800D01*
X28196257Y-47779800D01*
X28038143Y-47779800D01*
X27885415Y-47820723D01*
X27885414Y-47820723D01*
X27885412Y-47820724D01*
X27885409Y-47820725D01*
X27835296Y-47849659D01*
X27835295Y-47849660D01*
X27791889Y-47874720D01*
X27748485Y-47899779D01*
X27748482Y-47899781D01*
X26818581Y-48829682D01*
X26818579Y-48829685D01*
X26768461Y-48916494D01*
X26768459Y-48916496D01*
X26739525Y-48966609D01*
X26739524Y-48966610D01*
X26739523Y-48966615D01*
X26698599Y-49119343D01*
X26698599Y-49119345D01*
X26698599Y-49287446D01*
X26698600Y-49287459D01*
X26698600Y-69304330D01*
X26698599Y-69304348D01*
X26698599Y-69470054D01*
X26698598Y-69470054D01*
X26739523Y-69622785D01*
X26768458Y-69672900D01*
X26768459Y-69672904D01*
X26768460Y-69672904D01*
X26818579Y-69759714D01*
X26818581Y-69759717D01*
X26937449Y-69878585D01*
X26937455Y-69878590D01*
X29525802Y-72466938D01*
X29559287Y-72528261D01*
X29554303Y-72597953D01*
X29525803Y-72642300D01*
X29379503Y-72788600D01*
X29249575Y-72974158D01*
X29194998Y-73017783D01*
X29125500Y-73024977D01*
X29063145Y-72993454D01*
X29046425Y-72974158D01*
X28916494Y-72788597D01*
X28749402Y-72621506D01*
X28749395Y-72621501D01*
X28555834Y-72485967D01*
X28555830Y-72485965D01*
X28555826Y-72485963D01*
X28341663Y-72386097D01*
X28341659Y-72386096D01*
X28341655Y-72386094D01*
X28113413Y-72324938D01*
X28113403Y-72324936D01*
X27878001Y-72304341D01*
X27877999Y-72304341D01*
X27642596Y-72324936D01*
X27642586Y-72324938D01*
X27414344Y-72386094D01*
X27414335Y-72386098D01*
X27200171Y-72485964D01*
X27200169Y-72485965D01*
X27006600Y-72621503D01*
X26884284Y-72743819D01*
X26822961Y-72777303D01*
X26753269Y-72772319D01*
X26697336Y-72730447D01*
X26680421Y-72699470D01*
X26631354Y-72567913D01*
X26631350Y-72567906D01*
X26545190Y-72452812D01*
X26545187Y-72452809D01*
X26430093Y-72366649D01*
X26430086Y-72366645D01*
X26295379Y-72316403D01*
X26295372Y-72316401D01*
X26235844Y-72310000D01*
X25588000Y-72310000D01*
X25588000Y-73226988D01*
X25530993Y-73194075D01*
X25403826Y-73160000D01*
X25272174Y-73160000D01*
X25145007Y-73194075D01*
X25088000Y-73226988D01*
X25088000Y-72310000D01*
X24440155Y-72310000D01*
X24380627Y-72316401D01*
X24380620Y-72316403D01*
X24245913Y-72366645D01*
X24245906Y-72366649D01*
X24130812Y-72452809D01*
X24130809Y-72452812D01*
X24044649Y-72567906D01*
X24044645Y-72567913D01*
X23994403Y-72702620D01*
X23994401Y-72702627D01*
X23988000Y-72762155D01*
X23298500Y-72762155D01*
X23298500Y-32384998D01*
X40820290Y-32384998D01*
X40820290Y-32385001D01*
X40840704Y-32670433D01*
X40901528Y-32950037D01*
X40901530Y-32950043D01*
X40901531Y-32950046D01*
X40962292Y-33112951D01*
X41001535Y-33218166D01*
X41138670Y-33469309D01*
X41138675Y-33469317D01*
X41310154Y-33698387D01*
X41310170Y-33698405D01*
X41512494Y-33900729D01*
X41512512Y-33900745D01*
X41741582Y-34072224D01*
X41741590Y-34072229D01*
X41992733Y-34209364D01*
X41992732Y-34209364D01*
X41992736Y-34209365D01*
X41992739Y-34209367D01*
X42260854Y-34309369D01*
X42260860Y-34309370D01*
X42260862Y-34309371D01*
X42540466Y-34370195D01*
X42540468Y-34370195D01*
X42540472Y-34370196D01*
X42794120Y-34388337D01*
X42825899Y-34390610D01*
X42825900Y-34390610D01*
X42825901Y-34390610D01*
X42854495Y-34388564D01*
X43111328Y-34370196D01*
X43390946Y-34309369D01*
X43659061Y-34209367D01*
X43910215Y-34072226D01*
X44139295Y-33900739D01*
X44341639Y-33698395D01*
X44513126Y-33469315D01*
X44650267Y-33218161D01*
X44750269Y-32950046D01*
X44811096Y-32670428D01*
X44831510Y-32385000D01*
X44811096Y-32099572D01*
X44750269Y-31819954D01*
X44650267Y-31551839D01*
X44593235Y-31447394D01*
X44513129Y-31300690D01*
X44513124Y-31300682D01*
X44341645Y-31071612D01*
X44341629Y-31071594D01*
X44139305Y-30869270D01*
X44139287Y-30869254D01*
X43910217Y-30697775D01*
X43910209Y-30697770D01*
X43659066Y-30560635D01*
X43659067Y-30560635D01*
X43551815Y-30520632D01*
X43390946Y-30460631D01*
X43390943Y-30460630D01*
X43390937Y-30460628D01*
X43111333Y-30399804D01*
X42825901Y-30379390D01*
X42825899Y-30379390D01*
X42540466Y-30399804D01*
X42260862Y-30460628D01*
X41992733Y-30560635D01*
X41741590Y-30697770D01*
X41741582Y-30697775D01*
X41512512Y-30869254D01*
X41512494Y-30869270D01*
X41310170Y-31071594D01*
X41310154Y-31071612D01*
X41138675Y-31300682D01*
X41138670Y-31300690D01*
X41001535Y-31551833D01*
X40901528Y-31819962D01*
X40840704Y-32099566D01*
X40820290Y-32384998D01*
X23298500Y-32384998D01*
X23298500Y-25145997D01*
X54655340Y-25145997D01*
X54655340Y-25146002D01*
X54673944Y-25358654D01*
X54673945Y-25358662D01*
X54729194Y-25564853D01*
X54729197Y-25564859D01*
X54819413Y-25758329D01*
X54858415Y-25814030D01*
X55480000Y-25192445D01*
X55480000Y-25198661D01*
X55507259Y-25300394D01*
X55559920Y-25391606D01*
X55634394Y-25466080D01*
X55725606Y-25518741D01*
X55827339Y-25546000D01*
X55833553Y-25546000D01*
X55211968Y-26167584D01*
X55267663Y-26206582D01*
X55267669Y-26206586D01*
X55461140Y-26296802D01*
X55461146Y-26296805D01*
X55667337Y-26352054D01*
X55667345Y-26352055D01*
X55879998Y-26370660D01*
X55880002Y-26370660D01*
X56092654Y-26352055D01*
X56092662Y-26352054D01*
X56298853Y-26296805D01*
X56298864Y-26296801D01*
X56492325Y-26206589D01*
X56548030Y-26167583D01*
X55926448Y-25546000D01*
X55932661Y-25546000D01*
X56034394Y-25518741D01*
X56125606Y-25466080D01*
X56200080Y-25391606D01*
X56252741Y-25300394D01*
X56280000Y-25198661D01*
X56280000Y-25192446D01*
X56901583Y-25814029D01*
X56940589Y-25758325D01*
X57030801Y-25564864D01*
X57032658Y-25559764D01*
X57034567Y-25560458D01*
X57066291Y-25508362D01*
X57129125Y-25477806D01*
X57198504Y-25486071D01*
X57252401Y-25530533D01*
X57265989Y-25560256D01*
X57266870Y-25559936D01*
X57268722Y-25565022D01*
X57268724Y-25565030D01*
X57311171Y-25656058D01*
X57358977Y-25758578D01*
X57481472Y-25933521D01*
X57632478Y-26084527D01*
X57632481Y-26084529D01*
X57807419Y-26207021D01*
X57807421Y-26207022D01*
X57807420Y-26207022D01*
X57871936Y-26237106D01*
X58000970Y-26297276D01*
X58207253Y-26352549D01*
X58359215Y-26365844D01*
X58419998Y-26371162D01*
X58420000Y-26371162D01*
X58420002Y-26371162D01*
X58473186Y-26366508D01*
X58632747Y-26352549D01*
X58839030Y-26297276D01*
X59032581Y-26207021D01*
X59207519Y-26084529D01*
X59358529Y-25933519D01*
X59481021Y-25758581D01*
X59571276Y-25565030D01*
X59571280Y-25565013D01*
X59573130Y-25559936D01*
X59575253Y-25560709D01*
X59606576Y-25509305D01*
X59669419Y-25478766D01*
X59738796Y-25487050D01*
X59792680Y-25531528D01*
X59805827Y-25560315D01*
X59806870Y-25559936D01*
X59808722Y-25565022D01*
X59808724Y-25565030D01*
X59851171Y-25656058D01*
X59898977Y-25758578D01*
X60021472Y-25933521D01*
X60172478Y-26084527D01*
X60172481Y-26084529D01*
X60347419Y-26207021D01*
X60347421Y-26207022D01*
X60347420Y-26207022D01*
X60411936Y-26237106D01*
X60540970Y-26297276D01*
X60747253Y-26352549D01*
X60899215Y-26365844D01*
X60959998Y-26371162D01*
X60960000Y-26371162D01*
X60960002Y-26371162D01*
X61013186Y-26366508D01*
X61172747Y-26352549D01*
X61379030Y-26297276D01*
X61572581Y-26207021D01*
X61747519Y-26084529D01*
X61898529Y-25933519D01*
X62021021Y-25758581D01*
X62111276Y-25565030D01*
X62166549Y-25358747D01*
X62185162Y-25146000D01*
X62166549Y-24933253D01*
X62112539Y-24731685D01*
X62111278Y-24726977D01*
X62111277Y-24726976D01*
X62111276Y-24726970D01*
X62021021Y-24533419D01*
X61898529Y-24358481D01*
X61898527Y-24358478D01*
X61747521Y-24207472D01*
X61572578Y-24084977D01*
X61572579Y-24084977D01*
X61443547Y-24024809D01*
X61379030Y-23994724D01*
X61379026Y-23994723D01*
X61379022Y-23994721D01*
X61172752Y-23939452D01*
X61172748Y-23939451D01*
X61172747Y-23939451D01*
X61172746Y-23939450D01*
X61172741Y-23939450D01*
X60960002Y-23920838D01*
X60959998Y-23920838D01*
X60747258Y-23939450D01*
X60747247Y-23939452D01*
X60540977Y-23994721D01*
X60540968Y-23994725D01*
X60347421Y-24084977D01*
X60172478Y-24207472D01*
X60021472Y-24358478D01*
X59898977Y-24533421D01*
X59808725Y-24726968D01*
X59806870Y-24732064D01*
X59804749Y-24731292D01*
X59773406Y-24782710D01*
X59710558Y-24813237D01*
X59641183Y-24804939D01*
X59587307Y-24760452D01*
X59574169Y-24731685D01*
X59573130Y-24732064D01*
X59571279Y-24726983D01*
X59571276Y-24726970D01*
X59481021Y-24533419D01*
X59358529Y-24358481D01*
X59358527Y-24358478D01*
X59207521Y-24207472D01*
X59032578Y-24084977D01*
X59032579Y-24084977D01*
X58903547Y-24024809D01*
X58839030Y-23994724D01*
X58839026Y-23994723D01*
X58839022Y-23994721D01*
X58632752Y-23939452D01*
X58632748Y-23939451D01*
X58632747Y-23939451D01*
X58632746Y-23939450D01*
X58632741Y-23939450D01*
X58420002Y-23920838D01*
X58419998Y-23920838D01*
X58207258Y-23939450D01*
X58207247Y-23939452D01*
X58000977Y-23994721D01*
X58000968Y-23994725D01*
X57807421Y-24084977D01*
X57632478Y-24207472D01*
X57481472Y-24358478D01*
X57358977Y-24533421D01*
X57268725Y-24726968D01*
X57266870Y-24732064D01*
X57265031Y-24731394D01*
X57233104Y-24783715D01*
X57170242Y-24814212D01*
X57100870Y-24805883D01*
X57047015Y-24761371D01*
X57033571Y-24731903D01*
X57032658Y-24732236D01*
X57030802Y-24727140D01*
X56940586Y-24533669D01*
X56940582Y-24533663D01*
X56901584Y-24477968D01*
X56280000Y-25099552D01*
X56280000Y-25093339D01*
X56252741Y-24991606D01*
X56200080Y-24900394D01*
X56125606Y-24825920D01*
X56034394Y-24773259D01*
X55932661Y-24746000D01*
X55926447Y-24746000D01*
X56548030Y-24124415D01*
X56492329Y-24085413D01*
X56298859Y-23995197D01*
X56298853Y-23995194D01*
X56092662Y-23939945D01*
X56092654Y-23939944D01*
X55880002Y-23921340D01*
X55879998Y-23921340D01*
X55667345Y-23939944D01*
X55667337Y-23939945D01*
X55461146Y-23995194D01*
X55461140Y-23995197D01*
X55267671Y-24085412D01*
X55267669Y-24085413D01*
X55211969Y-24124415D01*
X55211968Y-24124415D01*
X55833554Y-24746000D01*
X55827339Y-24746000D01*
X55725606Y-24773259D01*
X55634394Y-24825920D01*
X55559920Y-24900394D01*
X55507259Y-24991606D01*
X55480000Y-25093339D01*
X55480000Y-25099553D01*
X54858415Y-24477968D01*
X54858415Y-24477969D01*
X54819413Y-24533669D01*
X54819412Y-24533671D01*
X54729197Y-24727140D01*
X54729194Y-24727146D01*
X54673945Y-24933337D01*
X54673944Y-24933345D01*
X54655340Y-25145997D01*
X23298500Y-25145997D01*
X23298500Y-20944500D01*
X23318185Y-20877461D01*
X23370989Y-20831706D01*
X23422500Y-20820500D01*
X123773500Y-20820500D01*
X123840539Y-20840185D01*
G37*
%TD.AperFunction*%
%TD*%
M02*
