%TF.GenerationSoftware,KiCad,Pcbnew,8.0.2*%
%TF.CreationDate,2025-01-05T21:37:03+01:00*%
%TF.ProjectId,lcd_display,6c63645f-6469-4737-906c-61792e6b6963,rev?*%
%TF.SameCoordinates,Original*%
%TF.FileFunction,Soldermask,Bot*%
%TF.FilePolarity,Negative*%
%FSLAX46Y46*%
G04 Gerber Fmt 4.6, Leading zero omitted, Abs format (unit mm)*
G04 Created by KiCad (PCBNEW 8.0.2) date 2025-01-05 21:37:03*
%MOMM*%
%LPD*%
G01*
G04 APERTURE LIST*
%ADD10R,1.700000X1.700000*%
%ADD11O,1.700000X1.700000*%
%ADD12C,1.440000*%
%ADD13C,3.000000*%
%ADD14R,1.800000X2.600000*%
%ADD15O,1.800000X2.600000*%
G04 APERTURE END LIST*
D10*
%TO.C,J1*%
X25338000Y-73660000D03*
D11*
X27878000Y-73660000D03*
X30418000Y-73660000D03*
X32958000Y-73660000D03*
X35498000Y-73660000D03*
X38038000Y-73660000D03*
X40578000Y-73660000D03*
X43118000Y-73660000D03*
X45658000Y-73660000D03*
X48198000Y-73660000D03*
%TD*%
D12*
%TO.C,RV1*%
X60960000Y-25146000D03*
X58420000Y-25146000D03*
X55880000Y-25146000D03*
%TD*%
D13*
%TO.C,DS1*%
X42825900Y-32385000D03*
X42825900Y-63385700D03*
X117824480Y-63385700D03*
X117825000Y-32385000D03*
D14*
X48325000Y-32385000D03*
D15*
X50865000Y-32385000D03*
X53405000Y-32385000D03*
X55945000Y-32385000D03*
X58485000Y-32385000D03*
X61025000Y-32385000D03*
X63565000Y-32385000D03*
X66105000Y-32385000D03*
X68645000Y-32385000D03*
X71185000Y-32385000D03*
X73725000Y-32385000D03*
X76265000Y-32385000D03*
X78805000Y-32385000D03*
X81345000Y-32385000D03*
X83885000Y-32385000D03*
X86425000Y-32385000D03*
%TD*%
D10*
%TO.C,J2*%
X121858000Y-22860000D03*
D11*
X119318000Y-22860000D03*
X116778000Y-22860000D03*
X114238000Y-22860000D03*
X111698000Y-22860000D03*
X109158000Y-22860000D03*
X106618000Y-22860000D03*
X104078000Y-22860000D03*
X101538000Y-22860000D03*
X98998000Y-22860000D03*
%TD*%
M02*
