M48
; DRILL file {KiCad 8.0.2} date 2025-01-05T21:37:05+0100
; FORMAT={-:-/ absolute / inch / decimal}
; #@! TF.CreationDate,2025-01-05T21:37:05+01:00
; #@! TF.GenerationSoftware,Kicad,Pcbnew,8.0.2
; #@! TF.FileFunction,Plated,1,2,PTH
FMAT,2
INCH
; #@! TA.AperFunction,Plated,PTH,ViaDrill
T1C0.0118
; #@! TA.AperFunction,Plated,PTH,ComponentDrill
T2C0.0315
; #@! TA.AperFunction,Plated,PTH,ComponentDrill
T3C0.0394
; #@! TA.AperFunction,Plated,PTH,ComponentDrill
T4C0.0472
; #@! TA.AperFunction,Plated,PTH,ComponentDrill
T5C0.0984
%
G90
G05
T1
X1.1115Y-1.9367
X1.1119Y-1.1892
X1.1161Y-2.035
X1.1175Y-2.2735
X1.1471Y-2.1273
X1.21Y-1.42
X1.2273Y-1.881
X1.2636Y-1.56
X1.5144Y-2.0689
X1.6772Y-1.9845
X3.22Y-0.95
T2
X2.2Y-0.99
X2.3Y-0.99
X2.4Y-0.99
T3
X0.9976Y-2.9
X1.0976Y-2.9
X1.1976Y-2.9
X1.2976Y-2.9
X1.3976Y-2.9
X1.4976Y-2.9
X1.5976Y-2.9
X1.6976Y-2.9
X1.7976Y-2.9
X1.8976Y-2.9
X3.8976Y-0.9
X3.9976Y-0.9
X4.0976Y-0.9
X4.1976Y-0.9
X4.2976Y-0.9
X4.3976Y-0.9
X4.4976Y-0.9
X4.5976Y-0.9
X4.6976Y-0.9
X4.7976Y-0.9
T4
X1.9026Y-1.275
X2.0026Y-1.275
X2.1026Y-1.275
X2.2026Y-1.275
X2.3026Y-1.275
X2.4026Y-1.275
X2.5026Y-1.275
X2.6026Y-1.275
X2.7026Y-1.275
X2.8026Y-1.275
X2.9026Y-1.275
X3.0026Y-1.275
X3.1026Y-1.275
X3.2026Y-1.275
X3.3026Y-1.275
X3.4026Y-1.275
T5
X1.6861Y-1.275
X1.6861Y-2.4955
X4.6388Y-2.4955
X4.6388Y-1.275
M30
