%TF.GenerationSoftware,KiCad,Pcbnew,8.0.2*%
%TF.CreationDate,2025-01-05T21:37:03+01:00*%
%TF.ProjectId,lcd_display,6c63645f-6469-4737-906c-61792e6b6963,rev?*%
%TF.SameCoordinates,Original*%
%TF.FileFunction,Legend,Bot*%
%TF.FilePolarity,Positive*%
%FSLAX46Y46*%
G04 Gerber Fmt 4.6, Leading zero omitted, Abs format (unit mm)*
G04 Created by KiCad (PCBNEW 8.0.2) date 2025-01-05 21:37:03*
%MOMM*%
%LPD*%
G01*
G04 APERTURE LIST*
%ADD10C,0.150000*%
%ADD11C,0.120000*%
G04 APERTURE END LIST*
D10*
X50192819Y-73326666D02*
X50907104Y-73326666D01*
X50907104Y-73326666D02*
X51049961Y-73279047D01*
X51049961Y-73279047D02*
X51145200Y-73183809D01*
X51145200Y-73183809D02*
X51192819Y-73040952D01*
X51192819Y-73040952D02*
X51192819Y-72945714D01*
X51192819Y-74326666D02*
X51192819Y-73755238D01*
X51192819Y-74040952D02*
X50192819Y-74040952D01*
X50192819Y-74040952D02*
X50335676Y-73945714D01*
X50335676Y-73945714D02*
X50430914Y-73850476D01*
X50430914Y-73850476D02*
X50478533Y-73755238D01*
X95912819Y-22526666D02*
X96627104Y-22526666D01*
X96627104Y-22526666D02*
X96769961Y-22479047D01*
X96769961Y-22479047D02*
X96865200Y-22383809D01*
X96865200Y-22383809D02*
X96912819Y-22240952D01*
X96912819Y-22240952D02*
X96912819Y-22145714D01*
X96008057Y-22955238D02*
X95960438Y-23002857D01*
X95960438Y-23002857D02*
X95912819Y-23098095D01*
X95912819Y-23098095D02*
X95912819Y-23336190D01*
X95912819Y-23336190D02*
X95960438Y-23431428D01*
X95960438Y-23431428D02*
X96008057Y-23479047D01*
X96008057Y-23479047D02*
X96103295Y-23526666D01*
X96103295Y-23526666D02*
X96198533Y-23526666D01*
X96198533Y-23526666D02*
X96341390Y-23479047D01*
X96341390Y-23479047D02*
X96912819Y-22907619D01*
X96912819Y-22907619D02*
X96912819Y-23526666D01*
D11*
%TO.C,J1*%
X24008000Y-73660000D02*
X24008000Y-72330000D01*
X24008000Y-72330000D02*
X25338000Y-72330000D01*
X49528000Y-72330000D02*
X26608000Y-72330000D01*
X26608000Y-74990000D02*
X26608000Y-72330000D01*
X49528000Y-74990000D02*
X49528000Y-72330000D01*
X49528000Y-74990000D02*
X26608000Y-74990000D01*
%TO.C,J2*%
X123188000Y-22860000D02*
X123188000Y-24190000D01*
X123188000Y-24190000D02*
X121858000Y-24190000D01*
X97668000Y-24190000D02*
X120588000Y-24190000D01*
X120588000Y-21530000D02*
X120588000Y-24190000D01*
X97668000Y-21530000D02*
X97668000Y-24190000D01*
X97668000Y-21530000D02*
X120588000Y-21530000D01*
%TD*%
M02*
