%TF.GenerationSoftware,KiCad,Pcbnew,8.0.2*%
%TF.CreationDate,2025-01-05T21:37:03+01:00*%
%TF.ProjectId,lcd_display,6c63645f-6469-4737-906c-61792e6b6963,rev?*%
%TF.SameCoordinates,Original*%
%TF.FileFunction,Copper,L1,Top*%
%TF.FilePolarity,Positive*%
%FSLAX46Y46*%
G04 Gerber Fmt 4.6, Leading zero omitted, Abs format (unit mm)*
G04 Created by KiCad (PCBNEW 8.0.2) date 2025-01-05 21:37:03*
%MOMM*%
%LPD*%
G01*
G04 APERTURE LIST*
G04 Aperture macros list*
%AMRoundRect*
0 Rectangle with rounded corners*
0 $1 Rounding radius*
0 $2 $3 $4 $5 $6 $7 $8 $9 X,Y pos of 4 corners*
0 Add a 4 corners polygon primitive as box body*
4,1,4,$2,$3,$4,$5,$6,$7,$8,$9,$2,$3,0*
0 Add four circle primitives for the rounded corners*
1,1,$1+$1,$2,$3*
1,1,$1+$1,$4,$5*
1,1,$1+$1,$6,$7*
1,1,$1+$1,$8,$9*
0 Add four rect primitives between the rounded corners*
20,1,$1+$1,$2,$3,$4,$5,0*
20,1,$1+$1,$4,$5,$6,$7,0*
20,1,$1+$1,$6,$7,$8,$9,0*
20,1,$1+$1,$8,$9,$2,$3,0*%
G04 Aperture macros list end*
%TA.AperFunction,ComponentPad*%
%ADD10R,1.700000X1.700000*%
%TD*%
%TA.AperFunction,ComponentPad*%
%ADD11O,1.700000X1.700000*%
%TD*%
%TA.AperFunction,SMDPad,CuDef*%
%ADD12RoundRect,0.250000X0.262500X0.450000X-0.262500X0.450000X-0.262500X-0.450000X0.262500X-0.450000X0*%
%TD*%
%TA.AperFunction,ComponentPad*%
%ADD13C,1.440000*%
%TD*%
%TA.AperFunction,SMDPad,CuDef*%
%ADD14RoundRect,0.150000X-0.825000X-0.150000X0.825000X-0.150000X0.825000X0.150000X-0.825000X0.150000X0*%
%TD*%
%TA.AperFunction,SMDPad,CuDef*%
%ADD15RoundRect,0.150000X-0.875000X-0.150000X0.875000X-0.150000X0.875000X0.150000X-0.875000X0.150000X0*%
%TD*%
%TA.AperFunction,ComponentPad*%
%ADD16C,3.000000*%
%TD*%
%TA.AperFunction,ComponentPad*%
%ADD17R,1.800000X2.600000*%
%TD*%
%TA.AperFunction,ComponentPad*%
%ADD18O,1.800000X2.600000*%
%TD*%
%TA.AperFunction,SMDPad,CuDef*%
%ADD19RoundRect,0.250000X0.250000X0.475000X-0.250000X0.475000X-0.250000X-0.475000X0.250000X-0.475000X0*%
%TD*%
%TA.AperFunction,SMDPad,CuDef*%
%ADD20RoundRect,0.243750X-0.243750X-0.456250X0.243750X-0.456250X0.243750X0.456250X-0.243750X0.456250X0*%
%TD*%
%TA.AperFunction,ViaPad*%
%ADD21C,0.600000*%
%TD*%
%TA.AperFunction,Conductor*%
%ADD22C,0.200000*%
%TD*%
G04 APERTURE END LIST*
D10*
%TO.P,J1,1,Pin_1*%
%TO.N,VCC*%
X25338000Y-73660000D03*
D11*
%TO.P,J1,2,Pin_2*%
%TO.N,CLK*%
X27878000Y-73660000D03*
%TO.P,J1,3,Pin_3*%
%TO.N,IN*%
X30418000Y-73660000D03*
%TO.P,J1,4,Pin_4*%
%TO.N,~{CLR}*%
X32958000Y-73660000D03*
%TO.P,J1,5,Pin_5*%
%TO.N,unconnected-(J1-Pin_5-Pad5)*%
X35498000Y-73660000D03*
%TO.P,J1,6,Pin_6*%
%TO.N,unconnected-(J1-Pin_6-Pad6)*%
X38038000Y-73660000D03*
%TO.P,J1,7,Pin_7*%
%TO.N,unconnected-(J1-Pin_7-Pad7)*%
X40578000Y-73660000D03*
%TO.P,J1,8,Pin_8*%
%TO.N,unconnected-(J1-Pin_8-Pad8)*%
X43118000Y-73660000D03*
%TO.P,J1,9,Pin_9*%
%TO.N,unconnected-(J1-Pin_9-Pad9)*%
X45658000Y-73660000D03*
%TO.P,J1,10,Pin_10*%
%TO.N,GND*%
X48198000Y-73660000D03*
%TD*%
D12*
%TO.P,R1,1*%
%TO.N,Net-(DS1-LED(+))*%
X83820000Y-26924000D03*
%TO.P,R1,2*%
%TO.N,VCC*%
X81995000Y-26924000D03*
%TD*%
D13*
%TO.P,RV1,1,1*%
%TO.N,GND*%
X60960000Y-25146000D03*
%TO.P,RV1,2,2*%
%TO.N,Net-(DS1-VO)*%
X58420000Y-25146000D03*
%TO.P,RV1,3,3*%
%TO.N,VCC*%
X55880000Y-25146000D03*
%TD*%
D14*
%TO.P,U2,1*%
%TO.N,CLK*%
X29021000Y-34798000D03*
%TO.P,U2,2*%
%TO.N,IN*%
X29021000Y-36068000D03*
%TO.P,U2,3*%
%TO.N,Net-(U2-Pad3)*%
X29021000Y-37338000D03*
%TO.P,U2,4*%
X29021000Y-38608000D03*
%TO.P,U2,5*%
X29021000Y-39878000D03*
%TO.P,U2,6*%
%TO.N,Net-(U1-Cp)*%
X29021000Y-41148000D03*
%TO.P,U2,7,GND*%
%TO.N,GND*%
X29021000Y-42418000D03*
%TO.P,U2,8*%
%TO.N,Net-(U2-Pad12)*%
X33971000Y-42418000D03*
%TO.P,U2,9*%
%TO.N,IN*%
X33971000Y-41148000D03*
%TO.P,U2,10*%
X33971000Y-39878000D03*
%TO.P,U2,11*%
%TO.N,Net-(R2-Pad1)*%
X33971000Y-38608000D03*
%TO.P,U2,12*%
%TO.N,Net-(U2-Pad12)*%
X33971000Y-37338000D03*
%TO.P,U2,13*%
X33971000Y-36068000D03*
%TO.P,U2,14,VCC*%
%TO.N,VCC*%
X33971000Y-34798000D03*
%TD*%
D15*
%TO.P,U1,1,~{Mr}*%
%TO.N,~{CLR}*%
X26846000Y-49784000D03*
%TO.P,U1,2,Q0*%
%TO.N,D0*%
X26846000Y-51054000D03*
%TO.P,U1,3,D0*%
%TO.N,BUS0*%
X26846000Y-52324000D03*
%TO.P,U1,4,D1*%
%TO.N,BUS1*%
X26846000Y-53594000D03*
%TO.P,U1,5,Q1*%
%TO.N,D1*%
X26846000Y-54864000D03*
%TO.P,U1,6,Q2*%
%TO.N,D2*%
X26846000Y-56134000D03*
%TO.P,U1,7,D2*%
%TO.N,BUS2*%
X26846000Y-57404000D03*
%TO.P,U1,8,D3*%
%TO.N,BUS3*%
X26846000Y-58674000D03*
%TO.P,U1,9,Q3*%
%TO.N,D3*%
X26846000Y-59944000D03*
%TO.P,U1,10,GND*%
%TO.N,GND*%
X26846000Y-61214000D03*
%TO.P,U1,11,Cp*%
%TO.N,Net-(U1-Cp)*%
X36146000Y-61214000D03*
%TO.P,U1,12,Q4*%
%TO.N,unconnected-(U1-Q4-Pad12)*%
X36146000Y-59944000D03*
%TO.P,U1,13,D4*%
%TO.N,BUS4*%
X36146000Y-58674000D03*
%TO.P,U1,14,D5*%
%TO.N,BUS5*%
X36146000Y-57404000D03*
%TO.P,U1,15,Q5*%
%TO.N,unconnected-(U1-Q5-Pad15)*%
X36146000Y-56134000D03*
%TO.P,U1,16,Q6*%
%TO.N,D6*%
X36146000Y-54864000D03*
%TO.P,U1,17,D6*%
%TO.N,BUS6*%
X36146000Y-53594000D03*
%TO.P,U1,18,D7*%
%TO.N,BUS7*%
X36146000Y-52324000D03*
%TO.P,U1,19,Q7*%
%TO.N,D7*%
X36146000Y-51054000D03*
%TO.P,U1,20,VCC*%
%TO.N,VCC*%
X36146000Y-49784000D03*
%TD*%
D16*
%TO.P,DS1,*%
%TO.N,*%
X42825900Y-32385000D03*
X42825900Y-63385700D03*
X117824480Y-63385700D03*
X117825000Y-32385000D03*
D17*
%TO.P,DS1,1,VSS*%
%TO.N,GND*%
X48325000Y-32385000D03*
D18*
%TO.P,DS1,2,VDD*%
%TO.N,VCC*%
X50865000Y-32385000D03*
%TO.P,DS1,3,VO*%
%TO.N,Net-(DS1-VO)*%
X53405000Y-32385000D03*
%TO.P,DS1,4,RS*%
%TO.N,D6*%
X55945000Y-32385000D03*
%TO.P,DS1,5,R/W*%
%TO.N,GND*%
X58485000Y-32385000D03*
%TO.P,DS1,6,E*%
%TO.N,D7*%
X61025000Y-32385000D03*
%TO.P,DS1,7,D0*%
%TO.N,unconnected-(DS1-D0-Pad7)*%
X63565000Y-32385000D03*
%TO.P,DS1,8,D1*%
%TO.N,unconnected-(DS1-D1-Pad8)*%
X66105000Y-32385000D03*
%TO.P,DS1,9,D2*%
%TO.N,unconnected-(DS1-D2-Pad9)*%
X68645000Y-32385000D03*
%TO.P,DS1,10,D3*%
%TO.N,unconnected-(DS1-D3-Pad10)*%
X71185000Y-32385000D03*
%TO.P,DS1,11,D4*%
%TO.N,D0*%
X73725000Y-32385000D03*
%TO.P,DS1,12,D5*%
%TO.N,D1*%
X76265000Y-32385000D03*
%TO.P,DS1,13,D6*%
%TO.N,D2*%
X78805000Y-32385000D03*
%TO.P,DS1,14,D7*%
%TO.N,D3*%
X81345000Y-32385000D03*
%TO.P,DS1,15,LED(+)*%
%TO.N,Net-(DS1-LED(+))*%
X83885000Y-32385000D03*
%TO.P,DS1,16,LED(-)*%
%TO.N,GND*%
X86425000Y-32385000D03*
%TD*%
D19*
%TO.P,C2,1*%
%TO.N,VCC*%
X32446000Y-46482000D03*
%TO.P,C2,2*%
%TO.N,GND*%
X30546000Y-46482000D03*
%TD*%
D10*
%TO.P,J2,1,Pin_1*%
%TO.N,VCC*%
X121858000Y-22860000D03*
D11*
%TO.P,J2,2,Pin_2*%
%TO.N,BUS0*%
X119318000Y-22860000D03*
%TO.P,J2,3,Pin_3*%
%TO.N,BUS1*%
X116778000Y-22860000D03*
%TO.P,J2,4,Pin_4*%
%TO.N,BUS2*%
X114238000Y-22860000D03*
%TO.P,J2,5,Pin_5*%
%TO.N,BUS3*%
X111698000Y-22860000D03*
%TO.P,J2,6,Pin_6*%
%TO.N,BUS4*%
X109158000Y-22860000D03*
%TO.P,J2,7,Pin_7*%
%TO.N,BUS5*%
X106618000Y-22860000D03*
%TO.P,J2,8,Pin_8*%
%TO.N,BUS6*%
X104078000Y-22860000D03*
%TO.P,J2,9,Pin_9*%
%TO.N,BUS7*%
X101538000Y-22860000D03*
%TO.P,J2,10,Pin_10*%
%TO.N,GND*%
X98998000Y-22860000D03*
%TD*%
D19*
%TO.P,C3,1*%
%TO.N,VCC*%
X50546000Y-26924000D03*
%TO.P,C3,2*%
%TO.N,GND*%
X48646000Y-26924000D03*
%TD*%
%TO.P,C1,1*%
%TO.N,VCC*%
X32446000Y-31496000D03*
%TO.P,C1,2*%
%TO.N,GND*%
X30546000Y-31496000D03*
%TD*%
D20*
%TO.P,D1,1,K*%
%TO.N,GND*%
X27636000Y-27178000D03*
%TO.P,D1,2,A*%
%TO.N,Net-(D1-A)*%
X29511000Y-27178000D03*
%TD*%
D12*
%TO.P,R2,1*%
%TO.N,Net-(R2-Pad1)*%
X37338000Y-27178000D03*
%TO.P,R2,2*%
%TO.N,Net-(D1-A)*%
X35513000Y-27178000D03*
%TD*%
D21*
%TO.N,BUS0*%
X28348400Y-51689000D03*
%TO.N,BUS2*%
X28385000Y-57746800D03*
%TO.N,BUS1*%
X29137600Y-54034400D03*
%TO.N,~{CLR}*%
X28231700Y-49191500D03*
%TO.N,IN*%
X30734000Y-36068000D03*
X32096000Y-39624000D03*
%TO.N,D6*%
X38465100Y-52550300D03*
%TO.N,D7*%
X42602100Y-50406800D03*
%TO.N,VCC*%
X81788000Y-24130000D03*
X28241900Y-30204500D03*
X31173700Y-47777300D03*
%TD*%
D22*
%TO.N,Net-(U2-Pad12)*%
X32258000Y-37338000D02*
X33971000Y-37338000D01*
X31496000Y-38100000D02*
X32258000Y-37338000D01*
X31496000Y-40918000D02*
X31496000Y-38100000D01*
X32996000Y-42418000D02*
X31496000Y-40918000D01*
X33971000Y-42418000D02*
X32996000Y-42418000D01*
X33971000Y-36068000D02*
X33971000Y-37338000D01*
%TO.N,Net-(U2-Pad3)*%
X29021000Y-37338000D02*
X29021000Y-38608000D01*
X29021000Y-38608000D02*
X29021000Y-39878000D01*
%TO.N,Net-(U1-Cp)*%
X28604700Y-41148000D02*
X29021000Y-41148000D01*
X24659900Y-45092800D02*
X28604700Y-41148000D01*
X24659900Y-61835300D02*
X24659900Y-45092800D01*
X25528600Y-62704000D02*
X24659900Y-61835300D01*
X34656000Y-62704000D02*
X25528600Y-62704000D01*
X36146000Y-61214000D02*
X34656000Y-62704000D01*
%TO.N,Net-(R2-Pad1)*%
X36830000Y-38608000D02*
X33971000Y-38608000D01*
X37338000Y-38100000D02*
X36830000Y-38608000D01*
X37338000Y-27178000D02*
X37338000Y-38100000D01*
%TO.N,BUS5*%
X71211400Y-57404000D02*
X36146000Y-57404000D01*
X105467900Y-23147500D02*
X71211400Y-57404000D01*
X105467900Y-22860000D02*
X105467900Y-23147500D01*
X106618000Y-22860000D02*
X105467900Y-22860000D01*
%TO.N,BUS4*%
X72481400Y-58674000D02*
X36146000Y-58674000D01*
X108007900Y-23147500D02*
X72481400Y-58674000D01*
X108007900Y-22860000D02*
X108007900Y-23147500D01*
X109158000Y-22860000D02*
X108007900Y-22860000D01*
%TO.N,BUS7*%
X37277000Y-52324000D02*
X36146000Y-52324000D01*
X38052600Y-51548400D02*
X37277000Y-52324000D01*
X71987000Y-51548400D02*
X38052600Y-51548400D01*
X100387900Y-23147500D02*
X71987000Y-51548400D01*
X100387900Y-22860000D02*
X100387900Y-23147500D01*
X101538000Y-22860000D02*
X100387900Y-22860000D01*
%TO.N,BUS6*%
X104078000Y-22860000D02*
X102927900Y-22860000D01*
X36572900Y-53594000D02*
X36146000Y-53594000D01*
X38216700Y-51950200D02*
X36572900Y-53594000D01*
X74125200Y-51950200D02*
X38216700Y-51950200D01*
X102927900Y-23147500D02*
X74125200Y-51950200D01*
X102927900Y-22860000D02*
X102927900Y-23147500D01*
%TO.N,BUS0*%
X27481000Y-51689000D02*
X28348400Y-51689000D01*
X26846000Y-52324000D02*
X27481000Y-51689000D01*
%TO.N,BUS3*%
X26405800Y-58674000D02*
X26846000Y-58674000D01*
X25074600Y-60005200D02*
X26405800Y-58674000D01*
X25074600Y-61683500D02*
X25074600Y-60005200D01*
X25667300Y-62276200D02*
X25074600Y-61683500D01*
X31263200Y-62276200D02*
X25667300Y-62276200D01*
X32960400Y-60579000D02*
X31263200Y-62276200D01*
X73116400Y-60579000D02*
X32960400Y-60579000D01*
X110547900Y-23147500D02*
X73116400Y-60579000D01*
X110547900Y-22860000D02*
X110547900Y-23147500D01*
X111698000Y-22860000D02*
X110547900Y-22860000D01*
%TO.N,BUS2*%
X27188800Y-57746800D02*
X28385000Y-57746800D01*
X26846000Y-57404000D02*
X27188800Y-57746800D01*
%TO.N,BUS1*%
X27286400Y-54034400D02*
X26846000Y-53594000D01*
X29137600Y-54034400D02*
X27286400Y-54034400D01*
%TO.N,CLK*%
X27878000Y-71820000D02*
X27878000Y-73660000D01*
X23876000Y-67818000D02*
X27878000Y-71820000D01*
X23876000Y-37846000D02*
X23876000Y-67818000D01*
X26924000Y-34798000D02*
X23876000Y-37846000D01*
X29021000Y-34798000D02*
X26924000Y-34798000D01*
%TO.N,~{CLR}*%
X27438500Y-49191500D02*
X28231700Y-49191500D01*
X26846000Y-49784000D02*
X27438500Y-49191500D01*
%TO.N,IN*%
X32350000Y-39878000D02*
X32096000Y-39624000D01*
X33971000Y-39878000D02*
X32350000Y-39878000D01*
X30734000Y-36068000D02*
X29021000Y-36068000D01*
X33971000Y-39878000D02*
X33971000Y-41148000D01*
%TO.N,Net-(DS1-LED(+))*%
X83820000Y-32320000D02*
X83885000Y-32385000D01*
X83820000Y-26924000D02*
X83820000Y-32320000D01*
%TO.N,D6*%
X38465100Y-52943100D02*
X38465100Y-52550300D01*
X36544200Y-54864000D02*
X38465100Y-52943100D01*
X36146000Y-54864000D02*
X36544200Y-54864000D01*
%TO.N,D7*%
X36793200Y-50406800D02*
X42602100Y-50406800D01*
X36146000Y-51054000D02*
X36793200Y-50406800D01*
%TO.N,D3*%
X81345000Y-32385000D02*
X80144900Y-32385000D01*
X26413800Y-59944000D02*
X26846000Y-59944000D01*
X25485400Y-60872400D02*
X26413800Y-59944000D01*
X25485400Y-61522300D02*
X25485400Y-60872400D01*
X25808500Y-61845400D02*
X25485400Y-61522300D01*
X30710500Y-61845400D02*
X25808500Y-61845400D01*
X33862100Y-58693800D02*
X30710500Y-61845400D01*
X33862100Y-52945600D02*
X33862100Y-58693800D01*
X35118700Y-51689000D02*
X33862100Y-52945600D01*
X37346300Y-51689000D02*
X35118700Y-51689000D01*
X37911200Y-51124100D02*
X37346300Y-51689000D01*
X62164500Y-51124100D02*
X37911200Y-51124100D01*
X80144900Y-33143700D02*
X62164500Y-51124100D01*
X80144900Y-32385000D02*
X80144900Y-33143700D01*
%TO.N,Net-(DS1-VO)*%
X53405000Y-30415000D02*
X53405000Y-32385000D01*
X54102000Y-29718000D02*
X53405000Y-30415000D01*
X56896000Y-29718000D02*
X54102000Y-29718000D01*
X58420000Y-28194000D02*
X56896000Y-29718000D01*
X58420000Y-25146000D02*
X58420000Y-28194000D01*
%TO.N,D1*%
X76265000Y-32385000D02*
X75064900Y-32385000D01*
X75064900Y-33210100D02*
X75064900Y-32385000D01*
X63334500Y-44940500D02*
X75064900Y-33210100D01*
X30007300Y-44940500D02*
X63334500Y-44940500D01*
X29301000Y-45646800D02*
X30007300Y-44940500D01*
X29301000Y-51595400D02*
X29301000Y-45646800D01*
X27937400Y-52959000D02*
X29301000Y-51595400D01*
X25774400Y-52959000D02*
X27937400Y-52959000D01*
X25509600Y-53223800D02*
X25774400Y-52959000D01*
X25509600Y-54008600D02*
X25509600Y-53223800D01*
X26365000Y-54864000D02*
X25509600Y-54008600D01*
X26846000Y-54864000D02*
X26365000Y-54864000D01*
%TO.N,D0*%
X73725000Y-32385000D02*
X72524900Y-32385000D01*
X72524900Y-33170100D02*
X72524900Y-32385000D01*
X61181200Y-44513800D02*
X72524900Y-33170100D01*
X29868200Y-44513800D02*
X61181200Y-44513800D01*
X28900800Y-45481200D02*
X29868200Y-44513800D01*
X28900800Y-49447100D02*
X28900800Y-45481200D01*
X27293900Y-51054000D02*
X28900800Y-49447100D01*
X26846000Y-51054000D02*
X27293900Y-51054000D01*
%TO.N,D2*%
X78805000Y-32385000D02*
X77604900Y-32385000D01*
X77604900Y-33210100D02*
X77604900Y-32385000D01*
X65474300Y-45340700D02*
X77604900Y-33210100D01*
X30173000Y-45340700D02*
X65474300Y-45340700D01*
X29737700Y-45776000D02*
X30173000Y-45340700D01*
X29737700Y-54283000D02*
X29737700Y-45776000D01*
X27886700Y-56134000D02*
X29737700Y-54283000D01*
X26846000Y-56134000D02*
X27886700Y-56134000D01*
%TO.N,Net-(D1-A)*%
X29511000Y-27178000D02*
X35513000Y-27178000D01*
%TO.N,GND*%
X30826000Y-20920000D02*
X31242000Y-21336000D01*
X25146000Y-20920000D02*
X30826000Y-20920000D01*
X25146000Y-21174000D02*
X25146000Y-20920000D01*
X23476000Y-22844000D02*
X25146000Y-21174000D01*
X23476000Y-74784000D02*
X23476000Y-22844000D01*
X24130000Y-75438000D02*
X23476000Y-74784000D01*
X46420000Y-75438000D02*
X24130000Y-75438000D01*
X48198000Y-73660000D02*
X46420000Y-75438000D01*
X27636000Y-24688000D02*
X27636000Y-27178000D01*
X30988000Y-21336000D02*
X27636000Y-24688000D01*
X31242000Y-21336000D02*
X30988000Y-21336000D01*
X51308000Y-21336000D02*
X31242000Y-21336000D01*
X51562000Y-21590000D02*
X51308000Y-21336000D01*
X48646000Y-24506000D02*
X48646000Y-26924000D01*
X51562000Y-21590000D02*
X48646000Y-24506000D01*
X62738000Y-21590000D02*
X51562000Y-21590000D01*
X60960000Y-23368000D02*
X60960000Y-25146000D01*
X62738000Y-21590000D02*
X60960000Y-23368000D01*
X88646000Y-21590000D02*
X62738000Y-21590000D01*
X86425000Y-23811000D02*
X86425000Y-32385000D01*
X88646000Y-21590000D02*
X86425000Y-23811000D01*
X100076000Y-21590000D02*
X88646000Y-21590000D01*
X58485000Y-29653000D02*
X58485000Y-32385000D01*
X60960000Y-27178000D02*
X58485000Y-29653000D01*
X60960000Y-25146000D02*
X60960000Y-27178000D01*
X27940000Y-31496000D02*
X30546000Y-31496000D01*
X27636000Y-31192000D02*
X27940000Y-31496000D01*
X27636000Y-27178000D02*
X27636000Y-31192000D01*
X48646000Y-30094000D02*
X48646000Y-26924000D01*
X48514000Y-30226000D02*
X48646000Y-30094000D01*
X48514000Y-30480000D02*
X48514000Y-30226000D01*
X48325000Y-30669000D02*
X48514000Y-30480000D01*
X48325000Y-32385000D02*
X48325000Y-30669000D01*
X123444000Y-21590000D02*
X100076000Y-21590000D01*
X123698000Y-21844000D02*
X123444000Y-21590000D01*
X123698000Y-72898000D02*
X123698000Y-21844000D01*
X122936000Y-73660000D02*
X123698000Y-72898000D01*
X122936000Y-74168000D02*
X122936000Y-73660000D01*
X121504000Y-75600000D02*
X122936000Y-74168000D01*
X50138000Y-75600000D02*
X121504000Y-75600000D01*
X48198000Y-73660000D02*
X50138000Y-75600000D01*
X98998000Y-22668000D02*
X98998000Y-22860000D01*
X100076000Y-21590000D02*
X98998000Y-22668000D01*
X30988000Y-42418000D02*
X29021000Y-42418000D01*
X30988000Y-36662500D02*
X30988000Y-42418000D01*
X31334000Y-36316500D02*
X30988000Y-36662500D01*
X31334000Y-33366000D02*
X31334000Y-36316500D01*
X30546000Y-32578000D02*
X31334000Y-33366000D01*
X30546000Y-31496000D02*
X30546000Y-32578000D01*
X31496000Y-49276000D02*
X31496000Y-56803200D01*
X30546000Y-48326000D02*
X31496000Y-49276000D01*
X30546000Y-46482000D02*
X30546000Y-48326000D01*
X30734000Y-61214000D02*
X26846000Y-61214000D01*
X31496000Y-60452000D02*
X30734000Y-61214000D01*
X31496000Y-56803200D02*
X31496000Y-60452000D01*
X25090900Y-46348100D02*
X29021000Y-42418000D01*
X25090900Y-56048700D02*
X25090900Y-46348100D01*
X25845400Y-56803200D02*
X25090900Y-56048700D01*
X31496000Y-56803200D02*
X25845400Y-56803200D01*
%TO.N,VCC*%
X81995000Y-24337000D02*
X81788000Y-24130000D01*
X81995000Y-26924000D02*
X81995000Y-24337000D01*
X50865000Y-30545000D02*
X50865000Y-32385000D01*
X50546000Y-30226000D02*
X50865000Y-30545000D01*
X50546000Y-26924000D02*
X50546000Y-30226000D01*
X32446000Y-31496000D02*
X32446000Y-32160100D01*
X32766000Y-34798000D02*
X33971000Y-34798000D01*
X32446000Y-34478000D02*
X32766000Y-34798000D01*
X32446000Y-32160100D02*
X32446000Y-34478000D01*
X30781600Y-30204500D02*
X28241900Y-30204500D01*
X32446000Y-31868900D02*
X30781600Y-30204500D01*
X32446000Y-32160100D02*
X32446000Y-31868900D01*
X31173700Y-47777300D02*
X32446000Y-47777300D01*
X32446000Y-46482000D02*
X32446000Y-47777300D01*
X33274000Y-49784000D02*
X36146000Y-49784000D01*
X32446000Y-48956000D02*
X33274000Y-49784000D01*
X32446000Y-47777300D02*
X32446000Y-48956000D01*
%TD*%
%TA.AperFunction,Conductor*%
%TO.N,GND*%
G36*
X123840539Y-20840185D02*
G01*
X123886294Y-20892989D01*
X123897500Y-20944500D01*
X123897500Y-75575500D01*
X123877815Y-75642539D01*
X123825011Y-75688294D01*
X123773500Y-75699500D01*
X23422500Y-75699500D01*
X23355461Y-75679815D01*
X23309706Y-75627011D01*
X23298500Y-75575500D01*
X23298500Y-68389098D01*
X23318185Y-68322059D01*
X23370989Y-68276304D01*
X23440147Y-68266360D01*
X23494675Y-68291262D01*
X23495454Y-68290095D01*
X23495457Y-68290097D01*
X23499648Y-68293533D01*
X23503703Y-68295385D01*
X23510181Y-68301417D01*
X23514349Y-68305585D01*
X23514355Y-68305590D01*
X27241181Y-72032416D01*
X27274666Y-72093739D01*
X27277500Y-72120097D01*
X27277500Y-72370908D01*
X27257815Y-72437947D01*
X27205914Y-72483286D01*
X27200173Y-72485963D01*
X27200169Y-72485965D01*
X27006600Y-72621503D01*
X26884673Y-72743430D01*
X26823350Y-72776914D01*
X26753658Y-72771930D01*
X26697725Y-72730058D01*
X26680810Y-72699081D01*
X26631797Y-72567671D01*
X26631793Y-72567664D01*
X26545547Y-72452455D01*
X26545544Y-72452452D01*
X26430335Y-72366206D01*
X26430328Y-72366202D01*
X26295482Y-72315908D01*
X26295483Y-72315908D01*
X26235883Y-72309501D01*
X26235881Y-72309500D01*
X26235873Y-72309500D01*
X26235864Y-72309500D01*
X24440129Y-72309500D01*
X24440123Y-72309501D01*
X24380516Y-72315908D01*
X24245671Y-72366202D01*
X24245664Y-72366206D01*
X24130455Y-72452452D01*
X24130452Y-72452455D01*
X24044206Y-72567664D01*
X24044202Y-72567671D01*
X23993908Y-72702517D01*
X23987501Y-72762116D01*
X23987500Y-72762135D01*
X23987500Y-74557870D01*
X23987501Y-74557876D01*
X23993908Y-74617483D01*
X24044202Y-74752328D01*
X24044206Y-74752335D01*
X24130452Y-74867544D01*
X24130455Y-74867547D01*
X24245664Y-74953793D01*
X24245671Y-74953797D01*
X24380517Y-75004091D01*
X24380516Y-75004091D01*
X24387444Y-75004835D01*
X24440127Y-75010500D01*
X26235872Y-75010499D01*
X26295483Y-75004091D01*
X26430331Y-74953796D01*
X26545546Y-74867546D01*
X26631796Y-74752331D01*
X26680810Y-74620916D01*
X26722681Y-74564984D01*
X26788145Y-74540566D01*
X26856418Y-74555417D01*
X26884673Y-74576569D01*
X27006599Y-74698495D01*
X27103384Y-74766265D01*
X27200165Y-74834032D01*
X27200167Y-74834033D01*
X27200170Y-74834035D01*
X27414337Y-74933903D01*
X27642592Y-74995063D01*
X27819034Y-75010500D01*
X27877999Y-75015659D01*
X27878000Y-75015659D01*
X27878001Y-75015659D01*
X27936966Y-75010500D01*
X28113408Y-74995063D01*
X28341663Y-74933903D01*
X28555830Y-74834035D01*
X28749401Y-74698495D01*
X28916495Y-74531401D01*
X29046425Y-74345842D01*
X29101002Y-74302217D01*
X29170500Y-74295023D01*
X29232855Y-74326546D01*
X29249575Y-74345842D01*
X29379281Y-74531082D01*
X29379505Y-74531401D01*
X29546599Y-74698495D01*
X29643384Y-74766265D01*
X29740165Y-74834032D01*
X29740167Y-74834033D01*
X29740170Y-74834035D01*
X29954337Y-74933903D01*
X30182592Y-74995063D01*
X30359034Y-75010500D01*
X30417999Y-75015659D01*
X30418000Y-75015659D01*
X30418001Y-75015659D01*
X30476966Y-75010500D01*
X30653408Y-74995063D01*
X30881663Y-74933903D01*
X31095830Y-74834035D01*
X31289401Y-74698495D01*
X31456495Y-74531401D01*
X31586425Y-74345842D01*
X31641002Y-74302217D01*
X31710500Y-74295023D01*
X31772855Y-74326546D01*
X31789575Y-74345842D01*
X31919281Y-74531082D01*
X31919505Y-74531401D01*
X32086599Y-74698495D01*
X32183384Y-74766265D01*
X32280165Y-74834032D01*
X32280167Y-74834033D01*
X32280170Y-74834035D01*
X32494337Y-74933903D01*
X32722592Y-74995063D01*
X32899034Y-75010500D01*
X32957999Y-75015659D01*
X32958000Y-75015659D01*
X32958001Y-75015659D01*
X33016966Y-75010500D01*
X33193408Y-74995063D01*
X33421663Y-74933903D01*
X33635830Y-74834035D01*
X33829401Y-74698495D01*
X33996495Y-74531401D01*
X34126425Y-74345842D01*
X34181002Y-74302217D01*
X34250500Y-74295023D01*
X34312855Y-74326546D01*
X34329575Y-74345842D01*
X34459281Y-74531082D01*
X34459505Y-74531401D01*
X34626599Y-74698495D01*
X34723384Y-74766265D01*
X34820165Y-74834032D01*
X34820167Y-74834033D01*
X34820170Y-74834035D01*
X35034337Y-74933903D01*
X35262592Y-74995063D01*
X35439034Y-75010500D01*
X35497999Y-75015659D01*
X35498000Y-75015659D01*
X35498001Y-75015659D01*
X35556966Y-75010500D01*
X35733408Y-74995063D01*
X35961663Y-74933903D01*
X36175830Y-74834035D01*
X36369401Y-74698495D01*
X36536495Y-74531401D01*
X36666425Y-74345842D01*
X36721002Y-74302217D01*
X36790500Y-74295023D01*
X36852855Y-74326546D01*
X36869575Y-74345842D01*
X36999281Y-74531082D01*
X36999505Y-74531401D01*
X37166599Y-74698495D01*
X37263384Y-74766265D01*
X37360165Y-74834032D01*
X37360167Y-74834033D01*
X37360170Y-74834035D01*
X37574337Y-74933903D01*
X37802592Y-74995063D01*
X37979034Y-75010500D01*
X38037999Y-75015659D01*
X38038000Y-75015659D01*
X38038001Y-75015659D01*
X38096966Y-75010500D01*
X38273408Y-74995063D01*
X38501663Y-74933903D01*
X38715830Y-74834035D01*
X38909401Y-74698495D01*
X39076495Y-74531401D01*
X39206425Y-74345842D01*
X39261002Y-74302217D01*
X39330500Y-74295023D01*
X39392855Y-74326546D01*
X39409575Y-74345842D01*
X39539281Y-74531082D01*
X39539505Y-74531401D01*
X39706599Y-74698495D01*
X39803384Y-74766265D01*
X39900165Y-74834032D01*
X39900167Y-74834033D01*
X39900170Y-74834035D01*
X40114337Y-74933903D01*
X40342592Y-74995063D01*
X40519034Y-75010500D01*
X40577999Y-75015659D01*
X40578000Y-75015659D01*
X40578001Y-75015659D01*
X40636966Y-75010500D01*
X40813408Y-74995063D01*
X41041663Y-74933903D01*
X41255830Y-74834035D01*
X41449401Y-74698495D01*
X41616495Y-74531401D01*
X41746425Y-74345842D01*
X41801002Y-74302217D01*
X41870500Y-74295023D01*
X41932855Y-74326546D01*
X41949575Y-74345842D01*
X42079281Y-74531082D01*
X42079505Y-74531401D01*
X42246599Y-74698495D01*
X42343384Y-74766265D01*
X42440165Y-74834032D01*
X42440167Y-74834033D01*
X42440170Y-74834035D01*
X42654337Y-74933903D01*
X42882592Y-74995063D01*
X43059034Y-75010500D01*
X43117999Y-75015659D01*
X43118000Y-75015659D01*
X43118001Y-75015659D01*
X43176966Y-75010500D01*
X43353408Y-74995063D01*
X43581663Y-74933903D01*
X43795830Y-74834035D01*
X43989401Y-74698495D01*
X44156495Y-74531401D01*
X44286425Y-74345842D01*
X44341002Y-74302217D01*
X44410500Y-74295023D01*
X44472855Y-74326546D01*
X44489575Y-74345842D01*
X44619281Y-74531082D01*
X44619505Y-74531401D01*
X44786599Y-74698495D01*
X44883384Y-74766265D01*
X44980165Y-74834032D01*
X44980167Y-74834033D01*
X44980170Y-74834035D01*
X45194337Y-74933903D01*
X45422592Y-74995063D01*
X45599034Y-75010500D01*
X45657999Y-75015659D01*
X45658000Y-75015659D01*
X45658001Y-75015659D01*
X45716966Y-75010500D01*
X45893408Y-74995063D01*
X46121663Y-74933903D01*
X46335830Y-74834035D01*
X46529401Y-74698495D01*
X46696495Y-74531401D01*
X46826730Y-74345405D01*
X46881307Y-74301781D01*
X46950805Y-74294587D01*
X47013160Y-74326110D01*
X47029879Y-74345405D01*
X47159890Y-74531078D01*
X47326917Y-74698105D01*
X47520421Y-74833600D01*
X47734507Y-74933429D01*
X47734516Y-74933433D01*
X47948000Y-74990634D01*
X47948000Y-74093012D01*
X48005007Y-74125925D01*
X48132174Y-74160000D01*
X48263826Y-74160000D01*
X48390993Y-74125925D01*
X48448000Y-74093012D01*
X48448000Y-74990633D01*
X48661483Y-74933433D01*
X48661492Y-74933429D01*
X48875578Y-74833600D01*
X49069082Y-74698105D01*
X49236105Y-74531082D01*
X49371600Y-74337578D01*
X49471429Y-74123492D01*
X49471432Y-74123486D01*
X49528636Y-73910000D01*
X48631012Y-73910000D01*
X48663925Y-73852993D01*
X48698000Y-73725826D01*
X48698000Y-73594174D01*
X48663925Y-73467007D01*
X48631012Y-73410000D01*
X49528636Y-73410000D01*
X49528635Y-73409999D01*
X49471432Y-73196513D01*
X49471429Y-73196507D01*
X49371600Y-72982422D01*
X49371599Y-72982420D01*
X49236113Y-72788926D01*
X49236108Y-72788920D01*
X49069082Y-72621894D01*
X48875578Y-72486399D01*
X48661492Y-72386570D01*
X48661486Y-72386567D01*
X48448000Y-72329364D01*
X48448000Y-73226988D01*
X48390993Y-73194075D01*
X48263826Y-73160000D01*
X48132174Y-73160000D01*
X48005007Y-73194075D01*
X47948000Y-73226988D01*
X47948000Y-72329364D01*
X47947999Y-72329364D01*
X47734513Y-72386567D01*
X47734507Y-72386570D01*
X47520422Y-72486399D01*
X47520420Y-72486400D01*
X47326926Y-72621886D01*
X47326920Y-72621891D01*
X47159891Y-72788920D01*
X47159890Y-72788922D01*
X47029880Y-72974595D01*
X46975303Y-73018219D01*
X46905804Y-73025412D01*
X46843450Y-72993890D01*
X46826730Y-72974594D01*
X46696494Y-72788597D01*
X46529402Y-72621506D01*
X46529395Y-72621501D01*
X46335834Y-72485967D01*
X46335830Y-72485965D01*
X46330085Y-72483286D01*
X46121663Y-72386097D01*
X46121659Y-72386096D01*
X46121655Y-72386094D01*
X45893413Y-72324938D01*
X45893403Y-72324936D01*
X45658001Y-72304341D01*
X45657999Y-72304341D01*
X45422596Y-72324936D01*
X45422586Y-72324938D01*
X45194344Y-72386094D01*
X45194335Y-72386098D01*
X44980171Y-72485964D01*
X44980169Y-72485965D01*
X44786597Y-72621505D01*
X44619505Y-72788597D01*
X44489575Y-72974158D01*
X44434998Y-73017783D01*
X44365500Y-73024977D01*
X44303145Y-72993454D01*
X44286425Y-72974158D01*
X44156494Y-72788597D01*
X43989402Y-72621506D01*
X43989395Y-72621501D01*
X43795834Y-72485967D01*
X43795830Y-72485965D01*
X43790085Y-72483286D01*
X43581663Y-72386097D01*
X43581659Y-72386096D01*
X43581655Y-72386094D01*
X43353413Y-72324938D01*
X43353403Y-72324936D01*
X43118001Y-72304341D01*
X43117999Y-72304341D01*
X42882596Y-72324936D01*
X42882586Y-72324938D01*
X42654344Y-72386094D01*
X42654335Y-72386098D01*
X42440171Y-72485964D01*
X42440169Y-72485965D01*
X42246597Y-72621505D01*
X42079505Y-72788597D01*
X41949575Y-72974158D01*
X41894998Y-73017783D01*
X41825500Y-73024977D01*
X41763145Y-72993454D01*
X41746425Y-72974158D01*
X41616494Y-72788597D01*
X41449402Y-72621506D01*
X41449395Y-72621501D01*
X41255834Y-72485967D01*
X41255830Y-72485965D01*
X41250085Y-72483286D01*
X41041663Y-72386097D01*
X41041659Y-72386096D01*
X41041655Y-72386094D01*
X40813413Y-72324938D01*
X40813403Y-72324936D01*
X40578001Y-72304341D01*
X40577999Y-72304341D01*
X40342596Y-72324936D01*
X40342586Y-72324938D01*
X40114344Y-72386094D01*
X40114335Y-72386098D01*
X39900171Y-72485964D01*
X39900169Y-72485965D01*
X39706597Y-72621505D01*
X39539505Y-72788597D01*
X39409575Y-72974158D01*
X39354998Y-73017783D01*
X39285500Y-73024977D01*
X39223145Y-72993454D01*
X39206425Y-72974158D01*
X39076494Y-72788597D01*
X38909402Y-72621506D01*
X38909395Y-72621501D01*
X38715834Y-72485967D01*
X38715830Y-72485965D01*
X38710085Y-72483286D01*
X38501663Y-72386097D01*
X38501659Y-72386096D01*
X38501655Y-72386094D01*
X38273413Y-72324938D01*
X38273403Y-72324936D01*
X38038001Y-72304341D01*
X38037999Y-72304341D01*
X37802596Y-72324936D01*
X37802586Y-72324938D01*
X37574344Y-72386094D01*
X37574335Y-72386098D01*
X37360171Y-72485964D01*
X37360169Y-72485965D01*
X37166597Y-72621505D01*
X36999505Y-72788597D01*
X36869575Y-72974158D01*
X36814998Y-73017783D01*
X36745500Y-73024977D01*
X36683145Y-72993454D01*
X36666425Y-72974158D01*
X36536494Y-72788597D01*
X36369402Y-72621506D01*
X36369395Y-72621501D01*
X36175834Y-72485967D01*
X36175830Y-72485965D01*
X36170085Y-72483286D01*
X35961663Y-72386097D01*
X35961659Y-72386096D01*
X35961655Y-72386094D01*
X35733413Y-72324938D01*
X35733403Y-72324936D01*
X35498001Y-72304341D01*
X35497999Y-72304341D01*
X35262596Y-72324936D01*
X35262586Y-72324938D01*
X35034344Y-72386094D01*
X35034335Y-72386098D01*
X34820171Y-72485964D01*
X34820169Y-72485965D01*
X34626597Y-72621505D01*
X34459505Y-72788597D01*
X34329575Y-72974158D01*
X34274998Y-73017783D01*
X34205500Y-73024977D01*
X34143145Y-72993454D01*
X34126425Y-72974158D01*
X33996494Y-72788597D01*
X33829402Y-72621506D01*
X33829395Y-72621501D01*
X33635834Y-72485967D01*
X33635830Y-72485965D01*
X33630085Y-72483286D01*
X33421663Y-72386097D01*
X33421659Y-72386096D01*
X33421655Y-72386094D01*
X33193413Y-72324938D01*
X33193403Y-72324936D01*
X32958001Y-72304341D01*
X32957999Y-72304341D01*
X32722596Y-72324936D01*
X32722586Y-72324938D01*
X32494344Y-72386094D01*
X32494335Y-72386098D01*
X32280171Y-72485964D01*
X32280169Y-72485965D01*
X32086597Y-72621505D01*
X31919505Y-72788597D01*
X31789575Y-72974158D01*
X31734998Y-73017783D01*
X31665500Y-73024977D01*
X31603145Y-72993454D01*
X31586425Y-72974158D01*
X31456494Y-72788597D01*
X31289402Y-72621506D01*
X31289395Y-72621501D01*
X31095834Y-72485967D01*
X31095830Y-72485965D01*
X31090085Y-72483286D01*
X30881663Y-72386097D01*
X30881659Y-72386096D01*
X30881655Y-72386094D01*
X30653413Y-72324938D01*
X30653403Y-72324936D01*
X30418001Y-72304341D01*
X30417999Y-72304341D01*
X30182596Y-72324936D01*
X30182586Y-72324938D01*
X29954344Y-72386094D01*
X29954335Y-72386098D01*
X29740171Y-72485964D01*
X29740169Y-72485965D01*
X29546597Y-72621505D01*
X29379505Y-72788597D01*
X29249575Y-72974158D01*
X29194998Y-73017783D01*
X29125500Y-73024977D01*
X29063145Y-72993454D01*
X29046425Y-72974158D01*
X28916494Y-72788597D01*
X28749402Y-72621506D01*
X28749395Y-72621501D01*
X28555831Y-72485965D01*
X28555826Y-72485962D01*
X28550091Y-72483288D01*
X28497653Y-72437113D01*
X28478500Y-72370908D01*
X28478500Y-71909060D01*
X28478501Y-71909047D01*
X28478501Y-71740944D01*
X28437576Y-71588214D01*
X28437573Y-71588209D01*
X28358524Y-71451290D01*
X28358518Y-71451282D01*
X24512819Y-67605583D01*
X24479334Y-67544260D01*
X24476500Y-67517902D01*
X24476500Y-62800497D01*
X24496185Y-62733458D01*
X24548989Y-62687703D01*
X24618147Y-62677759D01*
X24681703Y-62706784D01*
X24688181Y-62712816D01*
X25043739Y-63068374D01*
X25043749Y-63068385D01*
X25048079Y-63072715D01*
X25048080Y-63072716D01*
X25159884Y-63184520D01*
X25246695Y-63234639D01*
X25246697Y-63234641D01*
X25296813Y-63263576D01*
X25296815Y-63263577D01*
X25449542Y-63304500D01*
X25449543Y-63304500D01*
X34569331Y-63304500D01*
X34569347Y-63304501D01*
X34576943Y-63304501D01*
X34735054Y-63304501D01*
X34735057Y-63304501D01*
X34887785Y-63263577D01*
X34937904Y-63234639D01*
X35024716Y-63184520D01*
X35136520Y-63072716D01*
X35136520Y-63072714D01*
X35146728Y-63062507D01*
X35146729Y-63062504D01*
X36158416Y-62050819D01*
X36219739Y-62017334D01*
X36246097Y-62014500D01*
X37086686Y-62014500D01*
X37086694Y-62014500D01*
X37123569Y-62011598D01*
X37123571Y-62011597D01*
X37123573Y-62011597D01*
X37165191Y-61999505D01*
X37281398Y-61965744D01*
X37422865Y-61882081D01*
X37539081Y-61765865D01*
X37622744Y-61624398D01*
X37668598Y-61466569D01*
X37671500Y-61429694D01*
X37671500Y-61303500D01*
X37691185Y-61236461D01*
X37743989Y-61190706D01*
X37795500Y-61179500D01*
X42403040Y-61179500D01*
X42470079Y-61199185D01*
X42515834Y-61251989D01*
X42525778Y-61321147D01*
X42496753Y-61384703D01*
X42437975Y-61422477D01*
X42429398Y-61424666D01*
X42260862Y-61461328D01*
X41992733Y-61561335D01*
X41741590Y-61698470D01*
X41741582Y-61698475D01*
X41512512Y-61869954D01*
X41512494Y-61869970D01*
X41310170Y-62072294D01*
X41310154Y-62072312D01*
X41138675Y-62301382D01*
X41138670Y-62301390D01*
X41001535Y-62552533D01*
X40901528Y-62820662D01*
X40840704Y-63100266D01*
X40820290Y-63385698D01*
X40820290Y-63385701D01*
X40840704Y-63671133D01*
X40901528Y-63950737D01*
X41001535Y-64218866D01*
X41138670Y-64470009D01*
X41138675Y-64470017D01*
X41310154Y-64699087D01*
X41310170Y-64699105D01*
X41512494Y-64901429D01*
X41512512Y-64901445D01*
X41741582Y-65072924D01*
X41741590Y-65072929D01*
X41992733Y-65210064D01*
X41992732Y-65210064D01*
X41992736Y-65210065D01*
X41992739Y-65210067D01*
X42260854Y-65310069D01*
X42260860Y-65310070D01*
X42260862Y-65310071D01*
X42540466Y-65370895D01*
X42540468Y-65370895D01*
X42540472Y-65370896D01*
X42794120Y-65389037D01*
X42825899Y-65391310D01*
X42825900Y-65391310D01*
X42825901Y-65391310D01*
X42854495Y-65389264D01*
X43111328Y-65370896D01*
X43390946Y-65310069D01*
X43659061Y-65210067D01*
X43910215Y-65072926D01*
X44139295Y-64901439D01*
X44341639Y-64699095D01*
X44513126Y-64470015D01*
X44650267Y-64218861D01*
X44750269Y-63950746D01*
X44811096Y-63671128D01*
X44831510Y-63385700D01*
X44831510Y-63385698D01*
X115818870Y-63385698D01*
X115818870Y-63385701D01*
X115839284Y-63671133D01*
X115900108Y-63950737D01*
X116000115Y-64218866D01*
X116137250Y-64470009D01*
X116137255Y-64470017D01*
X116308734Y-64699087D01*
X116308750Y-64699105D01*
X116511074Y-64901429D01*
X116511092Y-64901445D01*
X116740162Y-65072924D01*
X116740170Y-65072929D01*
X116991313Y-65210064D01*
X116991312Y-65210064D01*
X116991316Y-65210065D01*
X116991319Y-65210067D01*
X117259434Y-65310069D01*
X117259440Y-65310070D01*
X117259442Y-65310071D01*
X117539046Y-65370895D01*
X117539048Y-65370895D01*
X117539052Y-65370896D01*
X117792700Y-65389037D01*
X117824479Y-65391310D01*
X117824480Y-65391310D01*
X117824481Y-65391310D01*
X117853075Y-65389264D01*
X118109908Y-65370896D01*
X118389526Y-65310069D01*
X118657641Y-65210067D01*
X118908795Y-65072926D01*
X119137875Y-64901439D01*
X119340219Y-64699095D01*
X119511706Y-64470015D01*
X119648847Y-64218861D01*
X119748849Y-63950746D01*
X119809676Y-63671128D01*
X119830090Y-63385700D01*
X119809676Y-63100272D01*
X119802739Y-63068385D01*
X119748851Y-62820662D01*
X119748850Y-62820660D01*
X119748849Y-62820654D01*
X119648847Y-62552539D01*
X119511706Y-62301385D01*
X119511704Y-62301382D01*
X119340225Y-62072312D01*
X119340209Y-62072294D01*
X119137885Y-61869970D01*
X119137867Y-61869954D01*
X118908797Y-61698475D01*
X118908789Y-61698470D01*
X118657646Y-61561335D01*
X118657647Y-61561335D01*
X118550395Y-61521332D01*
X118389526Y-61461331D01*
X118389523Y-61461330D01*
X118389517Y-61461328D01*
X118109913Y-61400504D01*
X117824481Y-61380090D01*
X117824479Y-61380090D01*
X117539046Y-61400504D01*
X117259442Y-61461328D01*
X116991313Y-61561335D01*
X116740170Y-61698470D01*
X116740162Y-61698475D01*
X116511092Y-61869954D01*
X116511074Y-61869970D01*
X116308750Y-62072294D01*
X116308734Y-62072312D01*
X116137255Y-62301382D01*
X116137250Y-62301390D01*
X116000115Y-62552533D01*
X115900108Y-62820662D01*
X115839284Y-63100266D01*
X115818870Y-63385698D01*
X44831510Y-63385698D01*
X44811096Y-63100272D01*
X44804159Y-63068385D01*
X44750271Y-62820662D01*
X44750270Y-62820660D01*
X44750269Y-62820654D01*
X44650267Y-62552539D01*
X44513126Y-62301385D01*
X44513124Y-62301382D01*
X44341645Y-62072312D01*
X44341629Y-62072294D01*
X44139305Y-61869970D01*
X44139287Y-61869954D01*
X43910217Y-61698475D01*
X43910209Y-61698470D01*
X43659066Y-61561335D01*
X43659067Y-61561335D01*
X43551815Y-61521332D01*
X43390946Y-61461331D01*
X43390943Y-61461330D01*
X43390937Y-61461328D01*
X43222402Y-61424666D01*
X43161079Y-61391181D01*
X43127594Y-61329858D01*
X43132578Y-61260166D01*
X43174450Y-61204233D01*
X43239914Y-61179816D01*
X43248760Y-61179500D01*
X73029731Y-61179500D01*
X73029747Y-61179501D01*
X73037343Y-61179501D01*
X73195454Y-61179501D01*
X73195457Y-61179501D01*
X73348185Y-61138577D01*
X73407753Y-61104185D01*
X73485116Y-61059520D01*
X73596920Y-60947716D01*
X73596920Y-60947714D01*
X73607124Y-60937511D01*
X73607128Y-60937506D01*
X102159636Y-32384998D01*
X115819390Y-32384998D01*
X115819390Y-32385001D01*
X115839804Y-32670433D01*
X115900628Y-32950037D01*
X115900630Y-32950043D01*
X115900631Y-32950046D01*
X115961392Y-33112951D01*
X116000635Y-33218166D01*
X116137770Y-33469309D01*
X116137775Y-33469317D01*
X116309254Y-33698387D01*
X116309270Y-33698405D01*
X116511594Y-33900729D01*
X116511612Y-33900745D01*
X116740682Y-34072224D01*
X116740690Y-34072229D01*
X116991833Y-34209364D01*
X116991832Y-34209364D01*
X116991836Y-34209365D01*
X116991839Y-34209367D01*
X117259954Y-34309369D01*
X117259960Y-34309370D01*
X117259962Y-34309371D01*
X117539566Y-34370195D01*
X117539568Y-34370195D01*
X117539572Y-34370196D01*
X117782998Y-34387606D01*
X117824999Y-34390610D01*
X117825000Y-34390610D01*
X117825001Y-34390610D01*
X117853595Y-34388564D01*
X118110428Y-34370196D01*
X118390046Y-34309369D01*
X118658161Y-34209367D01*
X118909315Y-34072226D01*
X119138395Y-33900739D01*
X119340739Y-33698395D01*
X119512226Y-33469315D01*
X119649367Y-33218161D01*
X119749369Y-32950046D01*
X119810196Y-32670428D01*
X119830610Y-32385000D01*
X119810196Y-32099572D01*
X119793107Y-32021016D01*
X119749371Y-31819962D01*
X119749370Y-31819960D01*
X119749369Y-31819954D01*
X119649367Y-31551839D01*
X119592335Y-31447394D01*
X119512229Y-31300690D01*
X119512224Y-31300682D01*
X119340745Y-31071612D01*
X119340729Y-31071594D01*
X119138405Y-30869270D01*
X119138387Y-30869254D01*
X118909317Y-30697775D01*
X118909309Y-30697770D01*
X118658166Y-30560635D01*
X118658167Y-30560635D01*
X118550915Y-30520632D01*
X118390046Y-30460631D01*
X118390043Y-30460630D01*
X118390037Y-30460628D01*
X118110433Y-30399804D01*
X117825001Y-30379390D01*
X117824999Y-30379390D01*
X117539566Y-30399804D01*
X117259962Y-30460628D01*
X116991833Y-30560635D01*
X116740690Y-30697770D01*
X116740682Y-30697775D01*
X116511612Y-30869254D01*
X116511594Y-30869270D01*
X116309270Y-31071594D01*
X116309254Y-31071612D01*
X116137775Y-31300682D01*
X116137770Y-31300690D01*
X116000635Y-31551833D01*
X115900628Y-31819962D01*
X115839804Y-32099566D01*
X115819390Y-32384998D01*
X102159636Y-32384998D01*
X110648688Y-23895946D01*
X110710011Y-23862461D01*
X110779703Y-23867445D01*
X110824050Y-23895946D01*
X110826599Y-23898495D01*
X110923384Y-23966265D01*
X111020165Y-24034032D01*
X111020167Y-24034033D01*
X111020170Y-24034035D01*
X111234337Y-24133903D01*
X111462592Y-24195063D01*
X111639034Y-24210500D01*
X111697999Y-24215659D01*
X111698000Y-24215659D01*
X111698001Y-24215659D01*
X111756966Y-24210500D01*
X111933408Y-24195063D01*
X112161663Y-24133903D01*
X112375830Y-24034035D01*
X112569401Y-23898495D01*
X112736495Y-23731401D01*
X112866425Y-23545842D01*
X112921002Y-23502217D01*
X112990500Y-23495023D01*
X113052855Y-23526546D01*
X113069575Y-23545842D01*
X113199281Y-23731082D01*
X113199505Y-23731401D01*
X113366599Y-23898495D01*
X113463384Y-23966265D01*
X113560165Y-24034032D01*
X113560167Y-24034033D01*
X113560170Y-24034035D01*
X113774337Y-24133903D01*
X114002592Y-24195063D01*
X114179034Y-24210500D01*
X114237999Y-24215659D01*
X114238000Y-24215659D01*
X114238001Y-24215659D01*
X114296966Y-24210500D01*
X114473408Y-24195063D01*
X114701663Y-24133903D01*
X114915830Y-24034035D01*
X115109401Y-23898495D01*
X115276495Y-23731401D01*
X115406425Y-23545842D01*
X115461002Y-23502217D01*
X115530500Y-23495023D01*
X115592855Y-23526546D01*
X115609575Y-23545842D01*
X115739281Y-23731082D01*
X115739505Y-23731401D01*
X115906599Y-23898495D01*
X116003384Y-23966265D01*
X116100165Y-24034032D01*
X116100167Y-24034033D01*
X116100170Y-24034035D01*
X116314337Y-24133903D01*
X116542592Y-24195063D01*
X116719034Y-24210500D01*
X116777999Y-24215659D01*
X116778000Y-24215659D01*
X116778001Y-24215659D01*
X116836966Y-24210500D01*
X117013408Y-24195063D01*
X117241663Y-24133903D01*
X117455830Y-24034035D01*
X117649401Y-23898495D01*
X117816495Y-23731401D01*
X117946425Y-23545842D01*
X118001002Y-23502217D01*
X118070500Y-23495023D01*
X118132855Y-23526546D01*
X118149575Y-23545842D01*
X118279281Y-23731082D01*
X118279505Y-23731401D01*
X118446599Y-23898495D01*
X118543384Y-23966265D01*
X118640165Y-24034032D01*
X118640167Y-24034033D01*
X118640170Y-24034035D01*
X118854337Y-24133903D01*
X119082592Y-24195063D01*
X119259034Y-24210500D01*
X119317999Y-24215659D01*
X119318000Y-24215659D01*
X119318001Y-24215659D01*
X119376966Y-24210500D01*
X119553408Y-24195063D01*
X119781663Y-24133903D01*
X119995830Y-24034035D01*
X120189401Y-23898495D01*
X120311329Y-23776566D01*
X120372648Y-23743084D01*
X120442340Y-23748068D01*
X120498274Y-23789939D01*
X120515189Y-23820917D01*
X120564202Y-23952328D01*
X120564206Y-23952335D01*
X120650452Y-24067544D01*
X120650455Y-24067547D01*
X120765664Y-24153793D01*
X120765671Y-24153797D01*
X120900517Y-24204091D01*
X120900516Y-24204091D01*
X120907444Y-24204835D01*
X120960127Y-24210500D01*
X122755872Y-24210499D01*
X122815483Y-24204091D01*
X122950331Y-24153796D01*
X123065546Y-24067546D01*
X123151796Y-23952331D01*
X123202091Y-23817483D01*
X123208500Y-23757873D01*
X123208499Y-21962128D01*
X123202091Y-21902517D01*
X123200810Y-21899083D01*
X123151797Y-21767671D01*
X123151793Y-21767664D01*
X123065547Y-21652455D01*
X123065544Y-21652452D01*
X122950335Y-21566206D01*
X122950328Y-21566202D01*
X122815482Y-21515908D01*
X122815483Y-21515908D01*
X122755883Y-21509501D01*
X122755881Y-21509500D01*
X122755873Y-21509500D01*
X122755864Y-21509500D01*
X120960129Y-21509500D01*
X120960123Y-21509501D01*
X120900516Y-21515908D01*
X120765671Y-21566202D01*
X120765664Y-21566206D01*
X120650455Y-21652452D01*
X120650452Y-21652455D01*
X120564206Y-21767664D01*
X120564203Y-21767669D01*
X120515189Y-21899083D01*
X120473317Y-21955016D01*
X120407853Y-21979433D01*
X120339580Y-21964581D01*
X120311326Y-21943430D01*
X120189402Y-21821506D01*
X120189395Y-21821501D01*
X119995834Y-21685967D01*
X119995830Y-21685965D01*
X119995828Y-21685964D01*
X119781663Y-21586097D01*
X119781659Y-21586096D01*
X119781655Y-21586094D01*
X119553413Y-21524938D01*
X119553403Y-21524936D01*
X119318001Y-21504341D01*
X119317999Y-21504341D01*
X119082596Y-21524936D01*
X119082586Y-21524938D01*
X118854344Y-21586094D01*
X118854335Y-21586098D01*
X118640171Y-21685964D01*
X118640169Y-21685965D01*
X118446597Y-21821505D01*
X118279505Y-21988597D01*
X118149575Y-22174158D01*
X118094998Y-22217783D01*
X118025500Y-22224977D01*
X117963145Y-22193454D01*
X117946425Y-22174158D01*
X117816494Y-21988597D01*
X117649402Y-21821506D01*
X117649395Y-21821501D01*
X117455834Y-21685967D01*
X117455830Y-21685965D01*
X117455828Y-21685964D01*
X117241663Y-21586097D01*
X117241659Y-21586096D01*
X117241655Y-21586094D01*
X117013413Y-21524938D01*
X117013403Y-21524936D01*
X116778001Y-21504341D01*
X116777999Y-21504341D01*
X116542596Y-21524936D01*
X116542586Y-21524938D01*
X116314344Y-21586094D01*
X116314335Y-21586098D01*
X116100171Y-21685964D01*
X116100169Y-21685965D01*
X115906597Y-21821505D01*
X115739505Y-21988597D01*
X115609575Y-22174158D01*
X115554998Y-22217783D01*
X115485500Y-22224977D01*
X115423145Y-22193454D01*
X115406425Y-22174158D01*
X115276494Y-21988597D01*
X115109402Y-21821506D01*
X115109395Y-21821501D01*
X114915834Y-21685967D01*
X114915830Y-21685965D01*
X114915828Y-21685964D01*
X114701663Y-21586097D01*
X114701659Y-21586096D01*
X114701655Y-21586094D01*
X114473413Y-21524938D01*
X114473403Y-21524936D01*
X114238001Y-21504341D01*
X114237999Y-21504341D01*
X114002596Y-21524936D01*
X114002586Y-21524938D01*
X113774344Y-21586094D01*
X113774335Y-21586098D01*
X113560171Y-21685964D01*
X113560169Y-21685965D01*
X113366597Y-21821505D01*
X113199505Y-21988597D01*
X113069575Y-22174158D01*
X113014998Y-22217783D01*
X112945500Y-22224977D01*
X112883145Y-22193454D01*
X112866425Y-22174158D01*
X112736494Y-21988597D01*
X112569402Y-21821506D01*
X112569395Y-21821501D01*
X112375834Y-21685967D01*
X112375830Y-21685965D01*
X112375828Y-21685964D01*
X112161663Y-21586097D01*
X112161659Y-21586096D01*
X112161655Y-21586094D01*
X111933413Y-21524938D01*
X111933403Y-21524936D01*
X111698001Y-21504341D01*
X111697999Y-21504341D01*
X111462596Y-21524936D01*
X111462586Y-21524938D01*
X111234344Y-21586094D01*
X111234335Y-21586098D01*
X111020171Y-21685964D01*
X111020169Y-21685965D01*
X110826597Y-21821505D01*
X110659506Y-21988596D01*
X110529575Y-22174159D01*
X110474998Y-22217784D01*
X110405500Y-22224978D01*
X110343145Y-22193455D01*
X110326425Y-22174159D01*
X110196494Y-21988597D01*
X110029402Y-21821506D01*
X110029395Y-21821501D01*
X109835834Y-21685967D01*
X109835830Y-21685965D01*
X109835828Y-21685964D01*
X109621663Y-21586097D01*
X109621659Y-21586096D01*
X109621655Y-21586094D01*
X109393413Y-21524938D01*
X109393403Y-21524936D01*
X109158001Y-21504341D01*
X109157999Y-21504341D01*
X108922596Y-21524936D01*
X108922586Y-21524938D01*
X108694344Y-21586094D01*
X108694335Y-21586098D01*
X108480171Y-21685964D01*
X108480169Y-21685965D01*
X108286597Y-21821505D01*
X108119506Y-21988596D01*
X107989575Y-22174159D01*
X107934998Y-22217784D01*
X107865500Y-22224978D01*
X107803145Y-22193455D01*
X107786425Y-22174159D01*
X107656494Y-21988597D01*
X107489402Y-21821506D01*
X107489395Y-21821501D01*
X107295834Y-21685967D01*
X107295830Y-21685965D01*
X107295828Y-21685964D01*
X107081663Y-21586097D01*
X107081659Y-21586096D01*
X107081655Y-21586094D01*
X106853413Y-21524938D01*
X106853403Y-21524936D01*
X106618001Y-21504341D01*
X106617999Y-21504341D01*
X106382596Y-21524936D01*
X106382586Y-21524938D01*
X106154344Y-21586094D01*
X106154335Y-21586098D01*
X105940171Y-21685964D01*
X105940169Y-21685965D01*
X105746597Y-21821505D01*
X105579506Y-21988596D01*
X105449575Y-22174159D01*
X105394998Y-22217784D01*
X105325500Y-22224978D01*
X105263145Y-22193455D01*
X105246425Y-22174159D01*
X105116494Y-21988597D01*
X104949402Y-21821506D01*
X104949395Y-21821501D01*
X104755834Y-21685967D01*
X104755830Y-21685965D01*
X104755828Y-21685964D01*
X104541663Y-21586097D01*
X104541659Y-21586096D01*
X104541655Y-21586094D01*
X104313413Y-21524938D01*
X104313403Y-21524936D01*
X104078001Y-21504341D01*
X104077999Y-21504341D01*
X103842596Y-21524936D01*
X103842586Y-21524938D01*
X103614344Y-21586094D01*
X103614335Y-21586098D01*
X103400171Y-21685964D01*
X103400169Y-21685965D01*
X103206597Y-21821505D01*
X103039506Y-21988596D01*
X102909575Y-22174159D01*
X102854998Y-22217784D01*
X102785500Y-22224978D01*
X102723145Y-22193455D01*
X102706425Y-22174159D01*
X102576494Y-21988597D01*
X102409402Y-21821506D01*
X102409395Y-21821501D01*
X102215834Y-21685967D01*
X102215830Y-21685965D01*
X102215828Y-21685964D01*
X102001663Y-21586097D01*
X102001659Y-21586096D01*
X102001655Y-21586094D01*
X101773413Y-21524938D01*
X101773403Y-21524936D01*
X101538001Y-21504341D01*
X101537999Y-21504341D01*
X101302596Y-21524936D01*
X101302586Y-21524938D01*
X101074344Y-21586094D01*
X101074335Y-21586098D01*
X100860171Y-21685964D01*
X100860169Y-21685965D01*
X100666597Y-21821505D01*
X100499505Y-21988597D01*
X100369269Y-22174595D01*
X100314692Y-22218220D01*
X100245194Y-22225414D01*
X100182839Y-22193891D01*
X100166119Y-22174595D01*
X100036113Y-21988926D01*
X100036108Y-21988920D01*
X99869082Y-21821894D01*
X99675578Y-21686399D01*
X99461492Y-21586570D01*
X99461486Y-21586567D01*
X99248000Y-21529364D01*
X99248000Y-22426988D01*
X99190993Y-22394075D01*
X99063826Y-22360000D01*
X98932174Y-22360000D01*
X98805007Y-22394075D01*
X98748000Y-22426988D01*
X98748000Y-21529364D01*
X98747999Y-21529364D01*
X98534513Y-21586567D01*
X98534507Y-21586570D01*
X98320422Y-21686399D01*
X98320420Y-21686400D01*
X98126926Y-21821886D01*
X98126920Y-21821891D01*
X97959891Y-21988920D01*
X97959886Y-21988926D01*
X97824400Y-22182420D01*
X97824399Y-22182422D01*
X97724570Y-22396507D01*
X97724567Y-22396513D01*
X97667364Y-22609999D01*
X97667364Y-22610000D01*
X98564988Y-22610000D01*
X98532075Y-22667007D01*
X98498000Y-22794174D01*
X98498000Y-22925826D01*
X98532075Y-23052993D01*
X98564988Y-23110000D01*
X97667364Y-23110000D01*
X97724567Y-23323486D01*
X97724570Y-23323492D01*
X97824399Y-23537578D01*
X97959894Y-23731082D01*
X98126917Y-23898105D01*
X98320419Y-24033598D01*
X98386439Y-24064383D01*
X98438878Y-24110555D01*
X98458031Y-24177748D01*
X98437816Y-24244630D01*
X98421716Y-24264447D01*
X71774584Y-50911581D01*
X71713261Y-50945066D01*
X71686903Y-50947900D01*
X63489297Y-50947900D01*
X63422258Y-50928215D01*
X63376503Y-50875411D01*
X63366559Y-50806253D01*
X63395584Y-50742697D01*
X63401616Y-50736219D01*
X71504149Y-42633686D01*
X80272004Y-33865830D01*
X80333325Y-33832347D01*
X80403017Y-33837331D01*
X80432568Y-33853194D01*
X80610978Y-33982815D01*
X80807393Y-34082895D01*
X80807396Y-34082896D01*
X80874624Y-34104739D01*
X81017049Y-34151015D01*
X81234778Y-34185500D01*
X81234779Y-34185500D01*
X81455221Y-34185500D01*
X81455222Y-34185500D01*
X81672951Y-34151015D01*
X81882606Y-34082895D01*
X82079022Y-33982815D01*
X82257365Y-33853242D01*
X82413242Y-33697365D01*
X82423804Y-33682826D01*
X82514682Y-33557745D01*
X82570011Y-33515079D01*
X82639625Y-33509100D01*
X82701420Y-33541705D01*
X82715318Y-33557745D01*
X82816752Y-33697358D01*
X82816756Y-33697363D01*
X82972636Y-33853243D01*
X82972641Y-33853247D01*
X83128192Y-33966260D01*
X83150978Y-33982815D01*
X83275483Y-34046254D01*
X83347393Y-34082895D01*
X83347396Y-34082896D01*
X83414624Y-34104739D01*
X83557049Y-34151015D01*
X83774778Y-34185500D01*
X83774779Y-34185500D01*
X83995221Y-34185500D01*
X83995222Y-34185500D01*
X84212951Y-34151015D01*
X84422606Y-34082895D01*
X84619022Y-33982815D01*
X84797365Y-33853242D01*
X84953242Y-33697365D01*
X85054991Y-33557317D01*
X85110320Y-33514653D01*
X85179933Y-33508674D01*
X85241729Y-33541279D01*
X85255627Y-33557318D01*
X85357142Y-33697041D01*
X85512958Y-33852857D01*
X85691239Y-33982386D01*
X85887589Y-34082432D01*
X86097163Y-34150526D01*
X86174999Y-34162854D01*
X86175000Y-34162854D01*
X86175000Y-32933482D01*
X86193409Y-32944111D01*
X86346009Y-32985000D01*
X86503991Y-32985000D01*
X86656591Y-32944111D01*
X86675000Y-32933482D01*
X86675000Y-34162854D01*
X86752834Y-34150526D01*
X86752837Y-34150526D01*
X86962410Y-34082432D01*
X87158760Y-33982386D01*
X87337041Y-33852857D01*
X87492857Y-33697041D01*
X87622386Y-33518760D01*
X87722432Y-33322410D01*
X87790526Y-33112835D01*
X87825000Y-32895181D01*
X87825000Y-32635000D01*
X86973482Y-32635000D01*
X86984111Y-32616591D01*
X87025000Y-32463991D01*
X87025000Y-32306009D01*
X86984111Y-32153409D01*
X86973482Y-32135000D01*
X87825000Y-32135000D01*
X87825000Y-31874818D01*
X87790526Y-31657164D01*
X87722432Y-31447589D01*
X87622386Y-31251239D01*
X87492857Y-31072958D01*
X87337041Y-30917142D01*
X87158760Y-30787613D01*
X86962410Y-30687567D01*
X86752836Y-30619473D01*
X86675000Y-30607144D01*
X86675000Y-31836517D01*
X86656591Y-31825889D01*
X86503991Y-31785000D01*
X86346009Y-31785000D01*
X86193409Y-31825889D01*
X86175000Y-31836517D01*
X86175000Y-30607144D01*
X86097164Y-30619473D01*
X86097161Y-30619473D01*
X85887589Y-30687567D01*
X85691239Y-30787613D01*
X85512958Y-30917142D01*
X85357142Y-31072958D01*
X85357142Y-31072959D01*
X85255627Y-31212681D01*
X85200297Y-31255346D01*
X85130683Y-31261325D01*
X85068888Y-31228719D01*
X85054991Y-31212680D01*
X84953247Y-31072641D01*
X84953243Y-31072636D01*
X84797363Y-30916756D01*
X84797358Y-30916752D01*
X84619023Y-30787185D01*
X84488204Y-30720528D01*
X84437409Y-30672553D01*
X84420500Y-30610044D01*
X84420500Y-28116507D01*
X84440185Y-28049468D01*
X84479403Y-28010968D01*
X84551156Y-27966712D01*
X84675212Y-27842656D01*
X84767314Y-27693334D01*
X84822499Y-27526797D01*
X84833000Y-27424009D01*
X84832999Y-26423992D01*
X84831433Y-26408666D01*
X84822499Y-26321203D01*
X84822498Y-26321200D01*
X84803205Y-26262977D01*
X84767314Y-26154666D01*
X84675212Y-26005344D01*
X84551156Y-25881288D01*
X84401834Y-25789186D01*
X84235297Y-25734001D01*
X84235295Y-25734000D01*
X84132510Y-25723500D01*
X83507498Y-25723500D01*
X83507480Y-25723501D01*
X83404703Y-25734000D01*
X83404700Y-25734001D01*
X83238168Y-25789185D01*
X83238163Y-25789187D01*
X83088842Y-25881289D01*
X82995181Y-25974951D01*
X82933858Y-26008436D01*
X82864166Y-26003452D01*
X82819819Y-25974951D01*
X82726155Y-25881287D01*
X82654402Y-25837029D01*
X82607678Y-25785081D01*
X82595500Y-25731491D01*
X82595500Y-24257944D01*
X82595500Y-24257943D01*
X82590061Y-24237648D01*
X82586616Y-24191669D01*
X82593565Y-24130001D01*
X82593565Y-24129997D01*
X82573369Y-23950750D01*
X82573368Y-23950745D01*
X82527939Y-23820917D01*
X82513789Y-23780478D01*
X82493424Y-23748068D01*
X82417815Y-23627737D01*
X82290262Y-23500184D01*
X82137523Y-23404211D01*
X81967254Y-23344631D01*
X81967249Y-23344630D01*
X81788004Y-23324435D01*
X81787996Y-23324435D01*
X81608750Y-23344630D01*
X81608745Y-23344631D01*
X81438476Y-23404211D01*
X81285737Y-23500184D01*
X81158184Y-23627737D01*
X81062211Y-23780476D01*
X81002631Y-23950745D01*
X81002630Y-23950750D01*
X80982435Y-24129996D01*
X80982435Y-24130003D01*
X81002630Y-24309249D01*
X81002631Y-24309254D01*
X81062211Y-24479523D01*
X81096235Y-24533671D01*
X81158184Y-24632262D01*
X81285738Y-24759816D01*
X81336473Y-24791695D01*
X81382762Y-24844026D01*
X81394500Y-24896687D01*
X81394500Y-25731491D01*
X81374815Y-25798530D01*
X81335598Y-25837029D01*
X81263844Y-25881287D01*
X81139789Y-26005342D01*
X81047687Y-26154663D01*
X81047685Y-26154668D01*
X81043405Y-26167584D01*
X80992501Y-26321203D01*
X80992501Y-26321204D01*
X80992500Y-26321204D01*
X80982000Y-26423983D01*
X80982000Y-27424001D01*
X80982001Y-27424019D01*
X80992500Y-27526796D01*
X80992501Y-27526799D01*
X81047685Y-27693331D01*
X81047687Y-27693336D01*
X81063104Y-27718331D01*
X81139788Y-27842656D01*
X81263844Y-27966712D01*
X81413166Y-28058814D01*
X81579703Y-28113999D01*
X81682491Y-28124500D01*
X82307508Y-28124499D01*
X82307516Y-28124498D01*
X82307519Y-28124498D01*
X82385745Y-28116507D01*
X82410297Y-28113999D01*
X82576834Y-28058814D01*
X82726156Y-27966712D01*
X82819819Y-27873049D01*
X82881142Y-27839564D01*
X82950834Y-27844548D01*
X82995181Y-27873049D01*
X83088844Y-27966712D01*
X83160596Y-28010968D01*
X83207321Y-28062915D01*
X83219500Y-28116507D01*
X83219500Y-30676284D01*
X83199815Y-30743323D01*
X83154776Y-30784073D01*
X83155126Y-30784643D01*
X83152094Y-30786500D01*
X83151801Y-30786765D01*
X83151087Y-30787129D01*
X83150972Y-30787188D01*
X82972641Y-30916752D01*
X82972636Y-30916756D01*
X82816756Y-31072636D01*
X82816752Y-31072641D01*
X82715318Y-31212254D01*
X82659988Y-31254920D01*
X82590375Y-31260899D01*
X82528580Y-31228293D01*
X82514682Y-31212254D01*
X82413247Y-31072641D01*
X82413243Y-31072636D01*
X82257363Y-30916756D01*
X82257358Y-30916752D01*
X82079025Y-30787187D01*
X82079024Y-30787186D01*
X82079022Y-30787185D01*
X82010498Y-30752270D01*
X81882606Y-30687104D01*
X81882603Y-30687103D01*
X81672952Y-30618985D01*
X81564086Y-30601742D01*
X81455222Y-30584500D01*
X81234778Y-30584500D01*
X81170290Y-30594714D01*
X81017047Y-30618985D01*
X80807396Y-30687103D01*
X80807393Y-30687104D01*
X80610974Y-30787187D01*
X80432641Y-30916752D01*
X80432636Y-30916756D01*
X80276756Y-31072636D01*
X80276752Y-31072641D01*
X80175318Y-31212254D01*
X80119988Y-31254920D01*
X80050375Y-31260899D01*
X79988580Y-31228293D01*
X79974682Y-31212254D01*
X79873247Y-31072641D01*
X79873243Y-31072636D01*
X79717363Y-30916756D01*
X79717358Y-30916752D01*
X79539025Y-30787187D01*
X79539024Y-30787186D01*
X79539022Y-30787185D01*
X79470498Y-30752270D01*
X79342606Y-30687104D01*
X79342603Y-30687103D01*
X79132952Y-30618985D01*
X79024086Y-30601742D01*
X78915222Y-30584500D01*
X78694778Y-30584500D01*
X78630290Y-30594714D01*
X78477047Y-30618985D01*
X78267396Y-30687103D01*
X78267393Y-30687104D01*
X78070974Y-30787187D01*
X77892641Y-30916752D01*
X77892636Y-30916756D01*
X77736756Y-31072636D01*
X77736752Y-31072641D01*
X77635318Y-31212254D01*
X77579988Y-31254920D01*
X77510375Y-31260899D01*
X77448580Y-31228293D01*
X77434682Y-31212254D01*
X77333247Y-31072641D01*
X77333243Y-31072636D01*
X77177363Y-30916756D01*
X77177358Y-30916752D01*
X76999025Y-30787187D01*
X76999024Y-30787186D01*
X76999022Y-30787185D01*
X76930498Y-30752270D01*
X76802606Y-30687104D01*
X76802603Y-30687103D01*
X76592952Y-30618985D01*
X76484086Y-30601742D01*
X76375222Y-30584500D01*
X76154778Y-30584500D01*
X76090290Y-30594714D01*
X75937047Y-30618985D01*
X75727396Y-30687103D01*
X75727393Y-30687104D01*
X75530974Y-30787187D01*
X75352641Y-30916752D01*
X75352636Y-30916756D01*
X75196756Y-31072636D01*
X75196752Y-31072641D01*
X75095318Y-31212254D01*
X75039988Y-31254920D01*
X74970375Y-31260899D01*
X74908580Y-31228293D01*
X74894682Y-31212254D01*
X74793247Y-31072641D01*
X74793243Y-31072636D01*
X74637363Y-30916756D01*
X74637358Y-30916752D01*
X74459025Y-30787187D01*
X74459024Y-30787186D01*
X74459022Y-30787185D01*
X74390498Y-30752270D01*
X74262606Y-30687104D01*
X74262603Y-30687103D01*
X74052952Y-30618985D01*
X73944086Y-30601742D01*
X73835222Y-30584500D01*
X73614778Y-30584500D01*
X73550290Y-30594714D01*
X73397047Y-30618985D01*
X73187396Y-30687103D01*
X73187393Y-30687104D01*
X72990974Y-30787187D01*
X72812641Y-30916752D01*
X72812636Y-30916756D01*
X72656756Y-31072636D01*
X72656752Y-31072641D01*
X72555318Y-31212254D01*
X72499988Y-31254920D01*
X72430375Y-31260899D01*
X72368580Y-31228293D01*
X72354682Y-31212254D01*
X72253247Y-31072641D01*
X72253243Y-31072636D01*
X72097363Y-30916756D01*
X72097358Y-30916752D01*
X71919025Y-30787187D01*
X71919024Y-30787186D01*
X71919022Y-30787185D01*
X71850498Y-30752270D01*
X71722606Y-30687104D01*
X71722603Y-30687103D01*
X71512952Y-30618985D01*
X71404086Y-30601742D01*
X71295222Y-30584500D01*
X71074778Y-30584500D01*
X71010290Y-30594714D01*
X70857047Y-30618985D01*
X70647396Y-30687103D01*
X70647393Y-30687104D01*
X70450974Y-30787187D01*
X70272641Y-30916752D01*
X70272636Y-30916756D01*
X70116756Y-31072636D01*
X70116752Y-31072641D01*
X70015318Y-31212254D01*
X69959988Y-31254920D01*
X69890375Y-31260899D01*
X69828580Y-31228293D01*
X69814682Y-31212254D01*
X69713247Y-31072641D01*
X69713243Y-31072636D01*
X69557363Y-30916756D01*
X69557358Y-30916752D01*
X69379025Y-30787187D01*
X69379024Y-30787186D01*
X69379022Y-30787185D01*
X69310498Y-30752270D01*
X69182606Y-30687104D01*
X69182603Y-30687103D01*
X68972952Y-30618985D01*
X68864086Y-30601742D01*
X68755222Y-30584500D01*
X68534778Y-30584500D01*
X68470290Y-30594714D01*
X68317047Y-30618985D01*
X68107396Y-30687103D01*
X68107393Y-30687104D01*
X67910974Y-30787187D01*
X67732641Y-30916752D01*
X67732636Y-30916756D01*
X67576756Y-31072636D01*
X67576752Y-31072641D01*
X67475318Y-31212254D01*
X67419988Y-31254920D01*
X67350375Y-31260899D01*
X67288580Y-31228293D01*
X67274682Y-31212254D01*
X67173247Y-31072641D01*
X67173243Y-31072636D01*
X67017363Y-30916756D01*
X67017358Y-30916752D01*
X66839025Y-30787187D01*
X66839024Y-30787186D01*
X66839022Y-30787185D01*
X66770498Y-30752270D01*
X66642606Y-30687104D01*
X66642603Y-30687103D01*
X66432952Y-30618985D01*
X66324086Y-30601742D01*
X66215222Y-30584500D01*
X65994778Y-30584500D01*
X65930290Y-30594714D01*
X65777047Y-30618985D01*
X65567396Y-30687103D01*
X65567393Y-30687104D01*
X65370974Y-30787187D01*
X65192641Y-30916752D01*
X65192636Y-30916756D01*
X65036756Y-31072636D01*
X65036752Y-31072641D01*
X64935318Y-31212254D01*
X64879988Y-31254920D01*
X64810375Y-31260899D01*
X64748580Y-31228293D01*
X64734682Y-31212254D01*
X64633247Y-31072641D01*
X64633243Y-31072636D01*
X64477363Y-30916756D01*
X64477358Y-30916752D01*
X64299025Y-30787187D01*
X64299024Y-30787186D01*
X64299022Y-30787185D01*
X64230498Y-30752270D01*
X64102606Y-30687104D01*
X64102603Y-30687103D01*
X63892952Y-30618985D01*
X63784086Y-30601742D01*
X63675222Y-30584500D01*
X63454778Y-30584500D01*
X63390290Y-30594714D01*
X63237047Y-30618985D01*
X63027396Y-30687103D01*
X63027393Y-30687104D01*
X62830974Y-30787187D01*
X62652641Y-30916752D01*
X62652636Y-30916756D01*
X62496756Y-31072636D01*
X62496752Y-31072641D01*
X62395318Y-31212254D01*
X62339988Y-31254920D01*
X62270375Y-31260899D01*
X62208580Y-31228293D01*
X62194682Y-31212254D01*
X62093247Y-31072641D01*
X62093243Y-31072636D01*
X61937363Y-30916756D01*
X61937358Y-30916752D01*
X61759025Y-30787187D01*
X61759024Y-30787186D01*
X61759022Y-30787185D01*
X61690498Y-30752270D01*
X61562606Y-30687104D01*
X61562603Y-30687103D01*
X61352952Y-30618985D01*
X61244086Y-30601742D01*
X61135222Y-30584500D01*
X60914778Y-30584500D01*
X60850290Y-30594714D01*
X60697047Y-30618985D01*
X60487396Y-30687103D01*
X60487393Y-30687104D01*
X60290974Y-30787187D01*
X60112641Y-30916752D01*
X60112636Y-30916756D01*
X59956756Y-31072636D01*
X59855008Y-31212681D01*
X59799678Y-31255346D01*
X59730065Y-31261325D01*
X59668270Y-31228719D01*
X59654372Y-31212680D01*
X59552862Y-31072964D01*
X59552857Y-31072958D01*
X59397041Y-30917142D01*
X59218760Y-30787613D01*
X59022410Y-30687567D01*
X58812836Y-30619473D01*
X58735000Y-30607144D01*
X58735000Y-31836517D01*
X58716591Y-31825889D01*
X58563991Y-31785000D01*
X58406009Y-31785000D01*
X58253409Y-31825889D01*
X58235000Y-31836517D01*
X58235000Y-30607144D01*
X58157164Y-30619473D01*
X58157161Y-30619473D01*
X57947589Y-30687567D01*
X57751239Y-30787613D01*
X57572958Y-30917142D01*
X57417142Y-31072958D01*
X57417142Y-31072959D01*
X57315627Y-31212681D01*
X57260297Y-31255346D01*
X57190683Y-31261325D01*
X57128888Y-31228719D01*
X57114991Y-31212680D01*
X57013247Y-31072641D01*
X57013243Y-31072636D01*
X56857363Y-30916756D01*
X56857358Y-30916752D01*
X56679025Y-30787187D01*
X56679024Y-30787186D01*
X56679022Y-30787185D01*
X56610498Y-30752270D01*
X56482606Y-30687104D01*
X56482603Y-30687103D01*
X56272952Y-30618985D01*
X56164086Y-30601742D01*
X56055222Y-30584500D01*
X55834778Y-30584500D01*
X55770290Y-30594714D01*
X55617047Y-30618985D01*
X55407396Y-30687103D01*
X55407393Y-30687104D01*
X55210974Y-30787187D01*
X55032641Y-30916752D01*
X55032636Y-30916756D01*
X54876756Y-31072636D01*
X54876752Y-31072641D01*
X54775318Y-31212254D01*
X54719988Y-31254920D01*
X54650375Y-31260899D01*
X54588580Y-31228293D01*
X54574682Y-31212254D01*
X54473247Y-31072641D01*
X54473243Y-31072636D01*
X54317363Y-30916756D01*
X54317358Y-30916752D01*
X54139025Y-30787186D01*
X54120855Y-30777928D01*
X54070060Y-30729952D01*
X54053266Y-30662131D01*
X54075805Y-30595996D01*
X54089465Y-30579769D01*
X54314416Y-30354819D01*
X54375739Y-30321334D01*
X54402097Y-30318500D01*
X56809331Y-30318500D01*
X56809347Y-30318501D01*
X56816943Y-30318501D01*
X56975054Y-30318501D01*
X56975057Y-30318501D01*
X57127785Y-30277577D01*
X57177904Y-30248639D01*
X57264716Y-30198520D01*
X57376520Y-30086716D01*
X57376520Y-30086714D01*
X57386728Y-30076507D01*
X57386730Y-30076504D01*
X58778506Y-28684728D01*
X58778511Y-28684724D01*
X58788714Y-28674520D01*
X58788716Y-28674520D01*
X58900520Y-28562716D01*
X58979577Y-28425784D01*
X59020500Y-28273057D01*
X59020500Y-26280031D01*
X59040185Y-26212992D01*
X59073377Y-26178456D01*
X59136908Y-26133971D01*
X59207519Y-26084529D01*
X59358529Y-25933519D01*
X59481021Y-25758581D01*
X59571276Y-25565030D01*
X59571280Y-25565013D01*
X59573130Y-25559936D01*
X59574981Y-25560609D01*
X59606847Y-25508328D01*
X59669694Y-25477797D01*
X59739069Y-25486091D01*
X59792948Y-25530575D01*
X59806430Y-25560095D01*
X59807342Y-25559764D01*
X59809197Y-25564859D01*
X59899413Y-25758329D01*
X59938415Y-25814030D01*
X60560000Y-25192445D01*
X60560000Y-25198661D01*
X60587259Y-25300394D01*
X60639920Y-25391606D01*
X60714394Y-25466080D01*
X60805606Y-25518741D01*
X60907339Y-25546000D01*
X60913553Y-25546000D01*
X60291968Y-26167584D01*
X60347663Y-26206582D01*
X60347669Y-26206586D01*
X60541140Y-26296802D01*
X60541146Y-26296805D01*
X60747337Y-26352054D01*
X60747345Y-26352055D01*
X60959998Y-26370660D01*
X60960002Y-26370660D01*
X61172654Y-26352055D01*
X61172662Y-26352054D01*
X61378853Y-26296805D01*
X61378864Y-26296801D01*
X61572325Y-26206589D01*
X61628030Y-26167583D01*
X61006448Y-25546000D01*
X61012661Y-25546000D01*
X61114394Y-25518741D01*
X61205606Y-25466080D01*
X61280080Y-25391606D01*
X61332741Y-25300394D01*
X61360000Y-25198661D01*
X61360000Y-25192446D01*
X61981583Y-25814029D01*
X62020589Y-25758325D01*
X62110801Y-25564864D01*
X62110805Y-25564853D01*
X62166054Y-25358662D01*
X62166055Y-25358654D01*
X62184660Y-25146002D01*
X62184660Y-25145997D01*
X62166055Y-24933345D01*
X62166054Y-24933337D01*
X62110805Y-24727146D01*
X62110802Y-24727140D01*
X62020586Y-24533669D01*
X62020582Y-24533663D01*
X61981584Y-24477968D01*
X61360000Y-25099552D01*
X61360000Y-25093339D01*
X61332741Y-24991606D01*
X61280080Y-24900394D01*
X61205606Y-24825920D01*
X61114394Y-24773259D01*
X61012661Y-24746000D01*
X61006447Y-24746000D01*
X61628030Y-24124415D01*
X61572329Y-24085413D01*
X61378859Y-23995197D01*
X61378853Y-23995194D01*
X61172662Y-23939945D01*
X61172654Y-23939944D01*
X60960002Y-23921340D01*
X60959998Y-23921340D01*
X60747345Y-23939944D01*
X60747337Y-23939945D01*
X60541146Y-23995194D01*
X60541140Y-23995197D01*
X60347671Y-24085412D01*
X60347669Y-24085413D01*
X60291969Y-24124415D01*
X60291968Y-24124415D01*
X60913554Y-24746000D01*
X60907339Y-24746000D01*
X60805606Y-24773259D01*
X60714394Y-24825920D01*
X60639920Y-24900394D01*
X60587259Y-24991606D01*
X60560000Y-25093339D01*
X60560000Y-25099553D01*
X59938415Y-24477968D01*
X59938415Y-24477969D01*
X59899413Y-24533669D01*
X59899412Y-24533671D01*
X59809197Y-24727140D01*
X59807342Y-24732236D01*
X59805445Y-24731545D01*
X59773656Y-24783684D01*
X59710805Y-24814205D01*
X59641431Y-24805901D01*
X59587559Y-24761408D01*
X59574012Y-24731742D01*
X59573130Y-24732064D01*
X59571279Y-24726983D01*
X59571276Y-24726970D01*
X59481021Y-24533419D01*
X59358529Y-24358481D01*
X59358527Y-24358478D01*
X59207521Y-24207472D01*
X59032578Y-24084977D01*
X59032579Y-24084977D01*
X58903547Y-24024809D01*
X58839030Y-23994724D01*
X58839026Y-23994723D01*
X58839022Y-23994721D01*
X58632752Y-23939452D01*
X58632748Y-23939451D01*
X58632747Y-23939451D01*
X58632746Y-23939450D01*
X58632741Y-23939450D01*
X58420002Y-23920838D01*
X58419998Y-23920838D01*
X58207258Y-23939450D01*
X58207247Y-23939452D01*
X58000977Y-23994721D01*
X58000968Y-23994725D01*
X57807421Y-24084977D01*
X57632478Y-24207472D01*
X57481472Y-24358478D01*
X57358977Y-24533421D01*
X57268725Y-24726968D01*
X57266870Y-24732064D01*
X57264749Y-24731292D01*
X57233406Y-24782710D01*
X57170558Y-24813237D01*
X57101183Y-24804939D01*
X57047307Y-24760452D01*
X57034169Y-24731685D01*
X57033130Y-24732064D01*
X57031279Y-24726983D01*
X57031276Y-24726970D01*
X56941021Y-24533419D01*
X56818529Y-24358481D01*
X56818527Y-24358478D01*
X56667521Y-24207472D01*
X56492578Y-24084977D01*
X56492579Y-24084977D01*
X56363547Y-24024809D01*
X56299030Y-23994724D01*
X56299026Y-23994723D01*
X56299022Y-23994721D01*
X56092752Y-23939452D01*
X56092748Y-23939451D01*
X56092747Y-23939451D01*
X56092746Y-23939450D01*
X56092741Y-23939450D01*
X55880002Y-23920838D01*
X55879998Y-23920838D01*
X55667258Y-23939450D01*
X55667247Y-23939452D01*
X55460977Y-23994721D01*
X55460968Y-23994725D01*
X55267421Y-24084977D01*
X55092478Y-24207472D01*
X54941472Y-24358478D01*
X54818977Y-24533421D01*
X54728725Y-24726968D01*
X54728721Y-24726977D01*
X54673452Y-24933247D01*
X54673450Y-24933258D01*
X54654838Y-25145998D01*
X54654838Y-25146001D01*
X54673450Y-25358741D01*
X54673452Y-25358752D01*
X54728721Y-25565022D01*
X54728723Y-25565026D01*
X54728724Y-25565030D01*
X54771171Y-25656058D01*
X54818977Y-25758578D01*
X54941472Y-25933521D01*
X55092478Y-26084527D01*
X55092481Y-26084529D01*
X55267419Y-26207021D01*
X55267421Y-26207022D01*
X55267420Y-26207022D01*
X55323201Y-26233033D01*
X55460970Y-26297276D01*
X55667253Y-26352549D01*
X55819215Y-26365844D01*
X55879998Y-26371162D01*
X55880000Y-26371162D01*
X55880002Y-26371162D01*
X55933186Y-26366508D01*
X56092747Y-26352549D01*
X56299030Y-26297276D01*
X56492581Y-26207021D01*
X56667519Y-26084529D01*
X56818529Y-25933519D01*
X56941021Y-25758581D01*
X57031276Y-25565030D01*
X57031280Y-25565013D01*
X57033130Y-25559936D01*
X57035253Y-25560709D01*
X57066576Y-25509305D01*
X57129419Y-25478766D01*
X57198796Y-25487050D01*
X57252680Y-25531528D01*
X57265827Y-25560315D01*
X57266870Y-25559936D01*
X57268722Y-25565022D01*
X57268724Y-25565030D01*
X57311171Y-25656058D01*
X57358977Y-25758578D01*
X57481472Y-25933521D01*
X57632478Y-26084527D01*
X57766623Y-26178456D01*
X57810248Y-26233033D01*
X57819500Y-26280031D01*
X57819500Y-27893903D01*
X57799815Y-27960942D01*
X57783181Y-27981584D01*
X56683584Y-29081181D01*
X56622261Y-29114666D01*
X56595903Y-29117500D01*
X54188669Y-29117500D01*
X54188653Y-29117499D01*
X54181057Y-29117499D01*
X54022943Y-29117499D01*
X53915587Y-29146265D01*
X53870210Y-29158424D01*
X53870209Y-29158425D01*
X53820096Y-29187359D01*
X53820095Y-29187360D01*
X53776689Y-29212420D01*
X53733285Y-29237479D01*
X53733282Y-29237481D01*
X53366765Y-29603999D01*
X53036286Y-29934478D01*
X53036284Y-29934480D01*
X52993499Y-29977265D01*
X52924481Y-30046282D01*
X52924480Y-30046284D01*
X52913975Y-30064480D01*
X52845423Y-30183215D01*
X52804499Y-30335943D01*
X52804499Y-30335945D01*
X52804499Y-30504046D01*
X52804500Y-30504059D01*
X52804500Y-30643164D01*
X52784815Y-30710203D01*
X52736796Y-30753648D01*
X52670976Y-30787185D01*
X52492641Y-30916752D01*
X52492636Y-30916756D01*
X52336756Y-31072636D01*
X52336752Y-31072641D01*
X52235318Y-31212254D01*
X52179988Y-31254920D01*
X52110375Y-31260899D01*
X52048580Y-31228293D01*
X52034682Y-31212254D01*
X51933247Y-31072641D01*
X51933243Y-31072636D01*
X51777363Y-30916756D01*
X51777358Y-30916752D01*
X51599023Y-30787185D01*
X51533204Y-30753648D01*
X51482409Y-30705674D01*
X51465500Y-30643164D01*
X51465500Y-30465945D01*
X51465500Y-30465943D01*
X51424577Y-30313216D01*
X51424577Y-30313215D01*
X51361810Y-30204500D01*
X51345520Y-30176284D01*
X51233716Y-30064480D01*
X51233715Y-30064479D01*
X51229385Y-30060149D01*
X51229374Y-30060139D01*
X51182819Y-30013584D01*
X51149334Y-29952261D01*
X51146500Y-29925903D01*
X51146500Y-28133797D01*
X51166185Y-28066758D01*
X51205403Y-28028258D01*
X51264656Y-27991712D01*
X51388712Y-27867656D01*
X51480814Y-27718334D01*
X51535999Y-27551797D01*
X51546500Y-27449009D01*
X51546499Y-26398992D01*
X51541721Y-26352223D01*
X51535999Y-26296203D01*
X51535998Y-26296200D01*
X51524810Y-26262436D01*
X51480814Y-26129666D01*
X51388712Y-25980344D01*
X51264656Y-25856288D01*
X51155864Y-25789185D01*
X51115336Y-25764187D01*
X51115331Y-25764185D01*
X51097647Y-25758325D01*
X50948797Y-25709001D01*
X50948795Y-25709000D01*
X50846010Y-25698500D01*
X50245998Y-25698500D01*
X50245980Y-25698501D01*
X50143203Y-25709000D01*
X50143200Y-25709001D01*
X49976668Y-25764185D01*
X49976663Y-25764187D01*
X49827342Y-25856289D01*
X49703288Y-25980343D01*
X49703283Y-25980349D01*
X49701241Y-25983661D01*
X49699247Y-25985453D01*
X49698807Y-25986011D01*
X49698711Y-25985935D01*
X49649291Y-26030383D01*
X49580328Y-26041602D01*
X49516247Y-26013755D01*
X49490168Y-25983656D01*
X49488319Y-25980659D01*
X49488316Y-25980655D01*
X49364345Y-25856684D01*
X49215124Y-25764643D01*
X49215119Y-25764641D01*
X49048697Y-25709494D01*
X49048690Y-25709493D01*
X48945986Y-25699000D01*
X48896000Y-25699000D01*
X48896000Y-28148999D01*
X48945972Y-28148999D01*
X48945986Y-28148998D01*
X49048697Y-28138505D01*
X49215119Y-28083358D01*
X49215124Y-28083356D01*
X49364345Y-27991315D01*
X49488318Y-27867342D01*
X49490165Y-27864348D01*
X49491969Y-27862724D01*
X49492798Y-27861677D01*
X49492976Y-27861818D01*
X49542110Y-27817621D01*
X49611073Y-27806396D01*
X49675156Y-27834236D01*
X49701243Y-27864341D01*
X49703288Y-27867656D01*
X49827344Y-27991712D01*
X49886596Y-28028258D01*
X49933321Y-28080204D01*
X49945500Y-28133797D01*
X49945500Y-30139330D01*
X49945499Y-30139348D01*
X49945499Y-30305054D01*
X49945498Y-30305054D01*
X49970886Y-30399804D01*
X49986423Y-30457785D01*
X50007365Y-30494057D01*
X50056847Y-30579763D01*
X50065479Y-30594714D01*
X50065481Y-30594717D01*
X50101856Y-30631092D01*
X50135341Y-30692415D01*
X50130357Y-30762107D01*
X50088485Y-30818040D01*
X50087061Y-30819091D01*
X49952635Y-30916757D01*
X49902075Y-30967317D01*
X49840752Y-31000801D01*
X49771060Y-30995816D01*
X49715127Y-30953945D01*
X49698213Y-30922968D01*
X49668354Y-30842913D01*
X49668350Y-30842906D01*
X49582190Y-30727812D01*
X49582187Y-30727809D01*
X49467093Y-30641649D01*
X49467086Y-30641645D01*
X49332379Y-30591403D01*
X49332372Y-30591401D01*
X49272844Y-30585000D01*
X48575000Y-30585000D01*
X48575000Y-31836517D01*
X48556591Y-31825889D01*
X48403991Y-31785000D01*
X48246009Y-31785000D01*
X48093409Y-31825889D01*
X48075000Y-31836517D01*
X48075000Y-30585000D01*
X47377155Y-30585000D01*
X47317627Y-30591401D01*
X47317620Y-30591403D01*
X47182913Y-30641645D01*
X47182906Y-30641649D01*
X47067812Y-30727809D01*
X47067809Y-30727812D01*
X46981649Y-30842906D01*
X46981645Y-30842913D01*
X46931403Y-30977620D01*
X46931401Y-30977627D01*
X46925000Y-31037155D01*
X46925000Y-32135000D01*
X47776518Y-32135000D01*
X47765889Y-32153409D01*
X47725000Y-32306009D01*
X47725000Y-32463991D01*
X47765889Y-32616591D01*
X47776518Y-32635000D01*
X46925000Y-32635000D01*
X46925000Y-33732844D01*
X46931401Y-33792372D01*
X46931403Y-33792379D01*
X46981645Y-33927086D01*
X46981649Y-33927093D01*
X47067809Y-34042187D01*
X47067812Y-34042190D01*
X47182906Y-34128350D01*
X47182913Y-34128354D01*
X47317620Y-34178596D01*
X47317627Y-34178598D01*
X47377155Y-34184999D01*
X47377172Y-34185000D01*
X48075000Y-34185000D01*
X48075000Y-32933482D01*
X48093409Y-32944111D01*
X48246009Y-32985000D01*
X48403991Y-32985000D01*
X48556591Y-32944111D01*
X48575000Y-32933482D01*
X48575000Y-34185000D01*
X49272828Y-34185000D01*
X49272844Y-34184999D01*
X49332372Y-34178598D01*
X49332379Y-34178596D01*
X49467086Y-34128354D01*
X49467093Y-34128350D01*
X49582187Y-34042190D01*
X49582190Y-34042187D01*
X49668350Y-33927093D01*
X49668354Y-33927086D01*
X49698213Y-33847031D01*
X49740084Y-33791097D01*
X49805548Y-33766680D01*
X49873821Y-33781531D01*
X49902076Y-33802683D01*
X49952636Y-33853243D01*
X49952641Y-33853247D01*
X50108192Y-33966260D01*
X50130978Y-33982815D01*
X50255483Y-34046254D01*
X50327393Y-34082895D01*
X50327396Y-34082896D01*
X50394624Y-34104739D01*
X50537049Y-34151015D01*
X50754778Y-34185500D01*
X50754779Y-34185500D01*
X50975221Y-34185500D01*
X50975222Y-34185500D01*
X51192951Y-34151015D01*
X51402606Y-34082895D01*
X51599022Y-33982815D01*
X51777365Y-33853242D01*
X51933242Y-33697365D01*
X51943804Y-33682826D01*
X52034682Y-33557745D01*
X52090011Y-33515079D01*
X52159625Y-33509100D01*
X52221420Y-33541705D01*
X52235318Y-33557745D01*
X52336752Y-33697358D01*
X52336756Y-33697363D01*
X52492636Y-33853243D01*
X52492641Y-33853247D01*
X52648192Y-33966260D01*
X52670978Y-33982815D01*
X52795483Y-34046254D01*
X52867393Y-34082895D01*
X52867396Y-34082896D01*
X52934624Y-34104739D01*
X53077049Y-34151015D01*
X53294778Y-34185500D01*
X53294779Y-34185500D01*
X53515221Y-34185500D01*
X53515222Y-34185500D01*
X53732951Y-34151015D01*
X53942606Y-34082895D01*
X54139022Y-33982815D01*
X54317365Y-33853242D01*
X54473242Y-33697365D01*
X54483804Y-33682826D01*
X54574682Y-33557745D01*
X54630011Y-33515079D01*
X54699625Y-33509100D01*
X54761420Y-33541705D01*
X54775318Y-33557745D01*
X54876752Y-33697358D01*
X54876756Y-33697363D01*
X55032636Y-33853243D01*
X55032641Y-33853247D01*
X55188192Y-33966260D01*
X55210978Y-33982815D01*
X55335483Y-34046254D01*
X55407393Y-34082895D01*
X55407396Y-34082896D01*
X55474624Y-34104739D01*
X55617049Y-34151015D01*
X55834778Y-34185500D01*
X55834779Y-34185500D01*
X56055221Y-34185500D01*
X56055222Y-34185500D01*
X56272951Y-34151015D01*
X56482606Y-34082895D01*
X56679022Y-33982815D01*
X56857365Y-33853242D01*
X57013242Y-33697365D01*
X57114991Y-33557317D01*
X57170320Y-33514653D01*
X57239933Y-33508674D01*
X57301729Y-33541279D01*
X57315627Y-33557318D01*
X57417142Y-33697041D01*
X57572958Y-33852857D01*
X57751239Y-33982386D01*
X57947589Y-34082432D01*
X58157163Y-34150526D01*
X58234999Y-34162854D01*
X58235000Y-34162854D01*
X58235000Y-32933482D01*
X58253409Y-32944111D01*
X58406009Y-32985000D01*
X58563991Y-32985000D01*
X58716591Y-32944111D01*
X58735000Y-32933482D01*
X58735000Y-34162854D01*
X58812834Y-34150526D01*
X58812837Y-34150526D01*
X59022410Y-34082432D01*
X59218760Y-33982386D01*
X59397041Y-33852857D01*
X59552857Y-33697041D01*
X59552862Y-33697035D01*
X59654372Y-33557319D01*
X59709702Y-33514653D01*
X59779315Y-33508674D01*
X59841110Y-33541279D01*
X59855008Y-33557319D01*
X59956752Y-33697358D01*
X59956756Y-33697363D01*
X60112636Y-33853243D01*
X60112641Y-33853247D01*
X60268192Y-33966260D01*
X60290978Y-33982815D01*
X60415483Y-34046254D01*
X60487393Y-34082895D01*
X60487396Y-34082896D01*
X60554624Y-34104739D01*
X60697049Y-34151015D01*
X60914778Y-34185500D01*
X60914779Y-34185500D01*
X61135221Y-34185500D01*
X61135222Y-34185500D01*
X61352951Y-34151015D01*
X61562606Y-34082895D01*
X61759022Y-33982815D01*
X61937365Y-33853242D01*
X62093242Y-33697365D01*
X62103804Y-33682826D01*
X62194682Y-33557745D01*
X62250011Y-33515079D01*
X62319625Y-33509100D01*
X62381420Y-33541705D01*
X62395318Y-33557745D01*
X62496752Y-33697358D01*
X62496756Y-33697363D01*
X62652636Y-33853243D01*
X62652641Y-33853247D01*
X62808192Y-33966260D01*
X62830978Y-33982815D01*
X62955483Y-34046254D01*
X63027393Y-34082895D01*
X63027396Y-34082896D01*
X63094624Y-34104739D01*
X63237049Y-34151015D01*
X63454778Y-34185500D01*
X63454779Y-34185500D01*
X63675221Y-34185500D01*
X63675222Y-34185500D01*
X63892951Y-34151015D01*
X64102606Y-34082895D01*
X64299022Y-33982815D01*
X64477365Y-33853242D01*
X64633242Y-33697365D01*
X64643804Y-33682826D01*
X64734682Y-33557745D01*
X64790011Y-33515079D01*
X64859625Y-33509100D01*
X64921420Y-33541705D01*
X64935318Y-33557745D01*
X65036752Y-33697358D01*
X65036756Y-33697363D01*
X65192636Y-33853243D01*
X65192641Y-33853247D01*
X65348192Y-33966260D01*
X65370978Y-33982815D01*
X65495483Y-34046254D01*
X65567393Y-34082895D01*
X65567396Y-34082896D01*
X65634624Y-34104739D01*
X65777049Y-34151015D01*
X65994778Y-34185500D01*
X65994779Y-34185500D01*
X66215221Y-34185500D01*
X66215222Y-34185500D01*
X66432951Y-34151015D01*
X66642606Y-34082895D01*
X66839022Y-33982815D01*
X67017365Y-33853242D01*
X67173242Y-33697365D01*
X67183804Y-33682826D01*
X67274682Y-33557745D01*
X67330011Y-33515079D01*
X67399625Y-33509100D01*
X67461420Y-33541705D01*
X67475318Y-33557745D01*
X67576752Y-33697358D01*
X67576756Y-33697363D01*
X67732636Y-33853243D01*
X67732641Y-33853247D01*
X67888192Y-33966260D01*
X67910978Y-33982815D01*
X68035483Y-34046254D01*
X68107393Y-34082895D01*
X68107396Y-34082896D01*
X68174624Y-34104739D01*
X68317049Y-34151015D01*
X68534778Y-34185500D01*
X68534779Y-34185500D01*
X68755221Y-34185500D01*
X68755222Y-34185500D01*
X68972951Y-34151015D01*
X69182606Y-34082895D01*
X69379022Y-33982815D01*
X69557365Y-33853242D01*
X69713242Y-33697365D01*
X69723804Y-33682826D01*
X69814682Y-33557745D01*
X69870011Y-33515079D01*
X69939625Y-33509100D01*
X70001420Y-33541705D01*
X70015318Y-33557745D01*
X70116752Y-33697358D01*
X70116756Y-33697363D01*
X70272636Y-33853243D01*
X70272641Y-33853247D01*
X70450976Y-33982814D01*
X70571823Y-34044390D01*
X70622618Y-34092364D01*
X70639413Y-34160185D01*
X70616875Y-34226320D01*
X70603208Y-34242555D01*
X60968784Y-43876981D01*
X60907461Y-43910466D01*
X60881103Y-43913300D01*
X29947257Y-43913300D01*
X29789142Y-43913300D01*
X29636415Y-43954223D01*
X29636414Y-43954223D01*
X29636412Y-43954224D01*
X29636409Y-43954225D01*
X29586296Y-43983159D01*
X29586295Y-43983160D01*
X29542889Y-44008220D01*
X29499485Y-44033279D01*
X29499482Y-44033281D01*
X28420281Y-45112482D01*
X28420280Y-45112484D01*
X28383898Y-45175500D01*
X28341223Y-45249415D01*
X28300299Y-45402143D01*
X28300299Y-45402145D01*
X28300299Y-45570246D01*
X28300300Y-45570259D01*
X28300300Y-48267392D01*
X28280615Y-48334431D01*
X28227811Y-48380186D01*
X28190184Y-48390612D01*
X28052449Y-48406130D01*
X28052445Y-48406131D01*
X27882176Y-48465711D01*
X27729436Y-48561685D01*
X27726603Y-48563945D01*
X27724424Y-48564834D01*
X27723542Y-48565389D01*
X27723444Y-48565234D01*
X27661917Y-48590355D01*
X27649288Y-48591000D01*
X27525170Y-48591000D01*
X27525154Y-48590999D01*
X27517558Y-48590999D01*
X27359443Y-48590999D01*
X27283079Y-48611461D01*
X27206714Y-48631923D01*
X27206709Y-48631926D01*
X27069790Y-48710975D01*
X27069782Y-48710981D01*
X26833583Y-48947181D01*
X26772260Y-48980666D01*
X26745902Y-48983500D01*
X25905298Y-48983500D01*
X25868432Y-48986401D01*
X25868426Y-48986402D01*
X25710606Y-49032254D01*
X25710603Y-49032255D01*
X25569137Y-49115917D01*
X25569129Y-49115923D01*
X25472081Y-49212972D01*
X25410758Y-49246457D01*
X25341066Y-49241473D01*
X25285133Y-49199601D01*
X25260716Y-49134137D01*
X25260400Y-49125291D01*
X25260400Y-45392897D01*
X25280085Y-45325858D01*
X25296719Y-45305216D01*
X26403582Y-44198353D01*
X27567669Y-43034265D01*
X27628989Y-43000783D01*
X27698681Y-43005767D01*
X27743028Y-43034268D01*
X27794438Y-43085678D01*
X27794447Y-43085685D01*
X27935803Y-43169282D01*
X27935806Y-43169283D01*
X28093504Y-43215099D01*
X28093510Y-43215100D01*
X28130350Y-43217999D01*
X28130366Y-43218000D01*
X28771000Y-43218000D01*
X29271000Y-43218000D01*
X29911634Y-43218000D01*
X29911649Y-43217999D01*
X29948489Y-43215100D01*
X29948495Y-43215099D01*
X30106193Y-43169283D01*
X30106196Y-43169282D01*
X30247552Y-43085685D01*
X30247561Y-43085678D01*
X30363678Y-42969561D01*
X30363685Y-42969552D01*
X30447281Y-42828198D01*
X30493100Y-42670486D01*
X30493295Y-42668001D01*
X30493295Y-42668000D01*
X29271000Y-42668000D01*
X29271000Y-43218000D01*
X28771000Y-43218000D01*
X28771000Y-42292000D01*
X28790685Y-42224961D01*
X28843489Y-42179206D01*
X28895000Y-42168000D01*
X30493295Y-42168000D01*
X30493295Y-42167998D01*
X30493100Y-42165513D01*
X30447281Y-42007801D01*
X30363685Y-41866447D01*
X30358900Y-41860278D01*
X30361366Y-41858364D01*
X30334802Y-41809776D01*
X30339749Y-41740082D01*
X30360856Y-41707232D01*
X30359301Y-41706026D01*
X30364077Y-41699868D01*
X30364081Y-41699865D01*
X30447744Y-41558398D01*
X30493598Y-41400569D01*
X30496500Y-41363694D01*
X30496500Y-40932306D01*
X30493598Y-40895431D01*
X30491771Y-40889144D01*
X30447745Y-40737606D01*
X30447744Y-40737603D01*
X30447744Y-40737602D01*
X30364081Y-40596135D01*
X30364078Y-40596132D01*
X30359298Y-40589969D01*
X30361750Y-40588066D01*
X30335155Y-40539421D01*
X30340104Y-40469726D01*
X30360940Y-40437304D01*
X30359298Y-40436031D01*
X30364075Y-40429870D01*
X30364081Y-40429865D01*
X30447744Y-40288398D01*
X30493598Y-40130569D01*
X30496500Y-40093694D01*
X30496500Y-39662306D01*
X30493598Y-39625431D01*
X30447744Y-39467602D01*
X30364081Y-39326135D01*
X30364078Y-39326132D01*
X30359298Y-39319969D01*
X30361750Y-39318066D01*
X30335155Y-39269421D01*
X30340104Y-39199726D01*
X30360940Y-39167304D01*
X30359298Y-39166031D01*
X30364075Y-39159870D01*
X30364081Y-39159865D01*
X30447744Y-39018398D01*
X30493598Y-38860569D01*
X30496500Y-38823694D01*
X30496500Y-38392306D01*
X30493598Y-38355431D01*
X30447744Y-38197602D01*
X30364081Y-38056135D01*
X30364078Y-38056132D01*
X30359298Y-38049969D01*
X30361750Y-38048066D01*
X30335155Y-37999421D01*
X30340104Y-37929726D01*
X30360940Y-37897304D01*
X30359298Y-37896031D01*
X30364075Y-37889870D01*
X30364081Y-37889865D01*
X30447744Y-37748398D01*
X30481505Y-37632191D01*
X30493597Y-37590573D01*
X30493598Y-37590567D01*
X30496499Y-37553701D01*
X30496500Y-37553694D01*
X30496500Y-37122306D01*
X30493598Y-37085431D01*
X30473727Y-37017035D01*
X30473926Y-36947166D01*
X30511868Y-36888496D01*
X30575506Y-36859652D01*
X30606683Y-36859220D01*
X30688370Y-36868423D01*
X30733998Y-36873565D01*
X30734000Y-36873565D01*
X30734004Y-36873565D01*
X30913249Y-36853369D01*
X30913252Y-36853368D01*
X30913255Y-36853368D01*
X31083522Y-36793789D01*
X31236262Y-36697816D01*
X31363816Y-36570262D01*
X31459789Y-36417522D01*
X31519368Y-36247255D01*
X31539565Y-36068000D01*
X31519368Y-35888745D01*
X31459789Y-35718478D01*
X31363816Y-35565738D01*
X31236262Y-35438184D01*
X31177616Y-35401334D01*
X31083523Y-35342211D01*
X30913254Y-35282631D01*
X30913249Y-35282630D01*
X30734004Y-35262435D01*
X30733996Y-35262435D01*
X30606686Y-35276779D01*
X30537864Y-35264724D01*
X30486485Y-35217375D01*
X30468861Y-35149765D01*
X30473726Y-35118966D01*
X30493598Y-35050569D01*
X30496500Y-35013694D01*
X30496500Y-34582306D01*
X30493598Y-34545431D01*
X30447744Y-34387602D01*
X30364081Y-34246135D01*
X30364079Y-34246133D01*
X30364076Y-34246129D01*
X30247870Y-34129923D01*
X30247862Y-34129917D01*
X30106396Y-34046255D01*
X30106393Y-34046254D01*
X29948573Y-34000402D01*
X29948567Y-34000401D01*
X29911701Y-33997500D01*
X29911694Y-33997500D01*
X28130306Y-33997500D01*
X28130298Y-33997500D01*
X28093432Y-34000401D01*
X28093426Y-34000402D01*
X27935606Y-34046254D01*
X27935603Y-34046255D01*
X27794137Y-34129917D01*
X27794129Y-34129923D01*
X27762874Y-34161180D01*
X27701552Y-34194666D01*
X27675192Y-34197500D01*
X27010669Y-34197500D01*
X27010653Y-34197499D01*
X27003057Y-34197499D01*
X26844943Y-34197499D01*
X26737587Y-34226265D01*
X26692210Y-34238424D01*
X26692209Y-34238425D01*
X26642096Y-34267359D01*
X26642095Y-34267360D01*
X26598689Y-34292420D01*
X26555285Y-34317479D01*
X26555282Y-34317481D01*
X23510181Y-37362583D01*
X23448858Y-37396068D01*
X23379166Y-37391084D01*
X23323233Y-37349212D01*
X23298816Y-37283748D01*
X23298500Y-37274902D01*
X23298500Y-32020986D01*
X29546001Y-32020986D01*
X29556494Y-32123697D01*
X29611641Y-32290119D01*
X29611643Y-32290124D01*
X29703684Y-32439345D01*
X29827654Y-32563315D01*
X29976875Y-32655356D01*
X29976880Y-32655358D01*
X30143302Y-32710505D01*
X30143309Y-32710506D01*
X30246019Y-32720999D01*
X30295999Y-32720998D01*
X30296000Y-32720998D01*
X30296000Y-31746000D01*
X29546001Y-31746000D01*
X29546001Y-32020986D01*
X23298500Y-32020986D01*
X23298500Y-30204496D01*
X27436335Y-30204496D01*
X27436335Y-30204501D01*
X27456530Y-30383749D01*
X27456531Y-30383754D01*
X27516111Y-30554023D01*
X27584040Y-30662131D01*
X27612084Y-30706762D01*
X27739638Y-30834316D01*
X27829980Y-30891082D01*
X27880726Y-30922968D01*
X27892378Y-30930289D01*
X28008718Y-30970998D01*
X28062645Y-30989868D01*
X28062650Y-30989869D01*
X28241896Y-31010065D01*
X28241900Y-31010065D01*
X28241904Y-31010065D01*
X28421149Y-30989869D01*
X28421152Y-30989868D01*
X28421155Y-30989868D01*
X28591422Y-30930289D01*
X28744162Y-30834316D01*
X28744167Y-30834310D01*
X28746997Y-30832055D01*
X28749175Y-30831165D01*
X28750058Y-30830611D01*
X28750155Y-30830765D01*
X28811683Y-30805645D01*
X28824312Y-30805000D01*
X29425647Y-30805000D01*
X29492686Y-30824685D01*
X29538441Y-30877489D01*
X29549005Y-30941601D01*
X29546000Y-30971009D01*
X29546000Y-31246000D01*
X30672000Y-31246000D01*
X30739039Y-31265685D01*
X30784794Y-31318489D01*
X30796000Y-31370000D01*
X30796000Y-32720999D01*
X30845972Y-32720999D01*
X30845986Y-32720998D01*
X30948697Y-32710505D01*
X31115119Y-32655358D01*
X31115124Y-32655356D01*
X31264345Y-32563315D01*
X31388318Y-32439342D01*
X31390165Y-32436348D01*
X31391969Y-32434724D01*
X31392798Y-32433677D01*
X31392976Y-32433818D01*
X31442110Y-32389621D01*
X31511073Y-32378396D01*
X31575156Y-32406236D01*
X31601243Y-32436341D01*
X31603288Y-32439656D01*
X31727344Y-32563712D01*
X31786596Y-32600258D01*
X31833321Y-32652204D01*
X31845500Y-32705797D01*
X31845500Y-34391330D01*
X31845499Y-34391348D01*
X31845499Y-34557054D01*
X31845498Y-34557054D01*
X31886423Y-34709785D01*
X31915358Y-34759900D01*
X31915359Y-34759904D01*
X31915360Y-34759904D01*
X31965479Y-34846714D01*
X31965481Y-34846717D01*
X32084349Y-34965585D01*
X32084355Y-34965590D01*
X32281139Y-35162374D01*
X32281149Y-35162385D01*
X32285479Y-35166715D01*
X32285480Y-35166716D01*
X32397284Y-35278520D01*
X32397286Y-35278521D01*
X32397290Y-35278524D01*
X32507601Y-35342211D01*
X32534216Y-35357577D01*
X32538243Y-35358656D01*
X32541258Y-35360493D01*
X32541723Y-35360686D01*
X32541692Y-35360758D01*
X32597903Y-35395016D01*
X32628436Y-35457861D01*
X32620145Y-35527237D01*
X32612887Y-35541551D01*
X32544254Y-35657605D01*
X32544254Y-35657606D01*
X32498402Y-35815426D01*
X32498401Y-35815432D01*
X32495500Y-35852298D01*
X32495500Y-36283701D01*
X32498401Y-36320567D01*
X32498402Y-36320573D01*
X32544254Y-36478393D01*
X32544257Y-36478400D01*
X32586825Y-36550380D01*
X32604008Y-36618104D01*
X32581848Y-36684366D01*
X32527381Y-36728129D01*
X32480093Y-36737500D01*
X32344670Y-36737500D01*
X32344654Y-36737499D01*
X32337058Y-36737499D01*
X32178943Y-36737499D01*
X32102579Y-36757961D01*
X32026214Y-36778423D01*
X32026209Y-36778426D01*
X31889290Y-36857475D01*
X31889282Y-36857481D01*
X31015481Y-37731282D01*
X31015480Y-37731284D01*
X30971477Y-37807500D01*
X30936423Y-37868215D01*
X30895499Y-38020943D01*
X30895499Y-38020945D01*
X30895499Y-38189046D01*
X30895500Y-38189059D01*
X30895500Y-40831330D01*
X30895499Y-40831348D01*
X30895499Y-40997054D01*
X30895498Y-40997054D01*
X30936423Y-41149785D01*
X30965358Y-41199900D01*
X30965359Y-41199904D01*
X30965360Y-41199904D01*
X31015479Y-41286714D01*
X31015481Y-41286717D01*
X31134349Y-41405585D01*
X31134355Y-41405590D01*
X32511139Y-42782374D01*
X32511160Y-42782397D01*
X32517683Y-42788920D01*
X32540047Y-42821824D01*
X32540285Y-42821684D01*
X32542519Y-42825463D01*
X32543799Y-42827345D01*
X32544252Y-42828392D01*
X32627916Y-42969861D01*
X32627923Y-42969870D01*
X32744129Y-43086076D01*
X32744133Y-43086079D01*
X32744135Y-43086081D01*
X32885602Y-43169744D01*
X32927224Y-43181836D01*
X33043426Y-43215597D01*
X33043429Y-43215597D01*
X33043431Y-43215598D01*
X33080306Y-43218500D01*
X33080314Y-43218500D01*
X34861686Y-43218500D01*
X34861694Y-43218500D01*
X34898569Y-43215598D01*
X34898571Y-43215597D01*
X34898573Y-43215597D01*
X34940191Y-43203505D01*
X35056398Y-43169744D01*
X35197865Y-43086081D01*
X35314081Y-42969865D01*
X35397744Y-42828398D01*
X35443598Y-42670569D01*
X35446500Y-42633694D01*
X35446500Y-42202306D01*
X35443598Y-42165431D01*
X35397744Y-42007602D01*
X35314081Y-41866135D01*
X35314078Y-41866132D01*
X35309298Y-41859969D01*
X35311750Y-41858066D01*
X35285155Y-41809421D01*
X35290104Y-41739726D01*
X35310940Y-41707304D01*
X35309298Y-41706031D01*
X35314075Y-41699870D01*
X35314081Y-41699865D01*
X35397744Y-41558398D01*
X35443598Y-41400569D01*
X35446500Y-41363694D01*
X35446500Y-40932306D01*
X35443598Y-40895431D01*
X35441771Y-40889144D01*
X35397745Y-40737606D01*
X35397744Y-40737603D01*
X35397744Y-40737602D01*
X35314081Y-40596135D01*
X35314078Y-40596132D01*
X35309298Y-40589969D01*
X35311750Y-40588066D01*
X35285155Y-40539421D01*
X35290104Y-40469726D01*
X35310940Y-40437304D01*
X35309298Y-40436031D01*
X35314075Y-40429870D01*
X35314081Y-40429865D01*
X35397744Y-40288398D01*
X35443598Y-40130569D01*
X35446500Y-40093694D01*
X35446500Y-39662306D01*
X35443598Y-39625431D01*
X35397744Y-39467602D01*
X35388871Y-39452598D01*
X35355175Y-39395620D01*
X35337992Y-39327896D01*
X35360152Y-39261634D01*
X35414619Y-39217871D01*
X35461907Y-39208500D01*
X36743331Y-39208500D01*
X36743347Y-39208501D01*
X36750943Y-39208501D01*
X36909054Y-39208501D01*
X36909057Y-39208501D01*
X37061785Y-39167577D01*
X37111904Y-39138639D01*
X37198716Y-39088520D01*
X37310520Y-38976716D01*
X37310520Y-38976714D01*
X37320728Y-38966507D01*
X37320730Y-38966504D01*
X37696506Y-38590728D01*
X37696511Y-38590724D01*
X37706714Y-38580520D01*
X37706716Y-38580520D01*
X37818520Y-38468716D01*
X37897577Y-38331784D01*
X37938500Y-38179057D01*
X37938500Y-32384998D01*
X40820290Y-32384998D01*
X40820290Y-32385001D01*
X40840704Y-32670433D01*
X40901528Y-32950037D01*
X40901530Y-32950043D01*
X40901531Y-32950046D01*
X40962292Y-33112951D01*
X41001535Y-33218166D01*
X41138670Y-33469309D01*
X41138675Y-33469317D01*
X41310154Y-33698387D01*
X41310170Y-33698405D01*
X41512494Y-33900729D01*
X41512512Y-33900745D01*
X41741582Y-34072224D01*
X41741590Y-34072229D01*
X41992733Y-34209364D01*
X41992732Y-34209364D01*
X41992736Y-34209365D01*
X41992739Y-34209367D01*
X42260854Y-34309369D01*
X42260860Y-34309370D01*
X42260862Y-34309371D01*
X42540466Y-34370195D01*
X42540468Y-34370195D01*
X42540472Y-34370196D01*
X42783898Y-34387606D01*
X42825899Y-34390610D01*
X42825900Y-34390610D01*
X42825901Y-34390610D01*
X42854495Y-34388564D01*
X43111328Y-34370196D01*
X43390946Y-34309369D01*
X43659061Y-34209367D01*
X43910215Y-34072226D01*
X44139295Y-33900739D01*
X44341639Y-33698395D01*
X44513126Y-33469315D01*
X44650267Y-33218161D01*
X44750269Y-32950046D01*
X44811096Y-32670428D01*
X44831510Y-32385000D01*
X44811096Y-32099572D01*
X44794007Y-32021016D01*
X44750271Y-31819962D01*
X44750270Y-31819960D01*
X44750269Y-31819954D01*
X44650267Y-31551839D01*
X44593235Y-31447394D01*
X44513129Y-31300690D01*
X44513124Y-31300682D01*
X44341645Y-31071612D01*
X44341629Y-31071594D01*
X44139305Y-30869270D01*
X44139287Y-30869254D01*
X43910217Y-30697775D01*
X43910209Y-30697770D01*
X43659066Y-30560635D01*
X43659067Y-30560635D01*
X43551815Y-30520632D01*
X43390946Y-30460631D01*
X43390943Y-30460630D01*
X43390937Y-30460628D01*
X43111333Y-30399804D01*
X42825901Y-30379390D01*
X42825899Y-30379390D01*
X42540466Y-30399804D01*
X42260862Y-30460628D01*
X41992733Y-30560635D01*
X41741590Y-30697770D01*
X41741582Y-30697775D01*
X41512512Y-30869254D01*
X41512494Y-30869270D01*
X41310170Y-31071594D01*
X41310154Y-31071612D01*
X41138675Y-31300682D01*
X41138670Y-31300690D01*
X41001535Y-31551833D01*
X40901528Y-31819962D01*
X40840704Y-32099566D01*
X40820290Y-32384998D01*
X37938500Y-32384998D01*
X37938500Y-28370507D01*
X37958185Y-28303468D01*
X37997403Y-28264968D01*
X38069156Y-28220712D01*
X38193212Y-28096656D01*
X38285314Y-27947334D01*
X38340499Y-27780797D01*
X38351000Y-27678009D01*
X38351000Y-27448986D01*
X47646001Y-27448986D01*
X47656494Y-27551697D01*
X47711641Y-27718119D01*
X47711643Y-27718124D01*
X47803684Y-27867345D01*
X47927654Y-27991315D01*
X48076875Y-28083356D01*
X48076880Y-28083358D01*
X48243302Y-28138505D01*
X48243309Y-28138506D01*
X48346019Y-28148999D01*
X48395999Y-28148998D01*
X48396000Y-28148998D01*
X48396000Y-27174000D01*
X47646001Y-27174000D01*
X47646001Y-27448986D01*
X38351000Y-27448986D01*
X38350999Y-26677992D01*
X38350402Y-26672152D01*
X38340499Y-26575203D01*
X38340498Y-26575200D01*
X38332131Y-26549949D01*
X38285314Y-26408666D01*
X38279360Y-26399013D01*
X47646000Y-26399013D01*
X47646000Y-26674000D01*
X48396000Y-26674000D01*
X48396000Y-25699000D01*
X48395999Y-25698999D01*
X48346029Y-25699000D01*
X48346011Y-25699001D01*
X48243302Y-25709494D01*
X48076880Y-25764641D01*
X48076875Y-25764643D01*
X47927654Y-25856684D01*
X47803684Y-25980654D01*
X47711643Y-26129875D01*
X47711641Y-26129880D01*
X47656494Y-26296302D01*
X47656493Y-26296309D01*
X47646000Y-26399013D01*
X38279360Y-26399013D01*
X38193212Y-26259344D01*
X38069156Y-26135288D01*
X37919834Y-26043186D01*
X37753297Y-25988001D01*
X37753295Y-25988000D01*
X37650510Y-25977500D01*
X37025498Y-25977500D01*
X37025480Y-25977501D01*
X36922703Y-25988000D01*
X36922700Y-25988001D01*
X36756168Y-26043185D01*
X36756163Y-26043187D01*
X36606842Y-26135289D01*
X36513181Y-26228951D01*
X36451858Y-26262436D01*
X36382166Y-26257452D01*
X36337819Y-26228951D01*
X36244157Y-26135289D01*
X36244156Y-26135288D01*
X36094834Y-26043186D01*
X35928297Y-25988001D01*
X35928295Y-25988000D01*
X35825510Y-25977500D01*
X35200498Y-25977500D01*
X35200480Y-25977501D01*
X35097703Y-25988000D01*
X35097700Y-25988001D01*
X34931168Y-26043185D01*
X34931163Y-26043187D01*
X34781842Y-26135289D01*
X34657789Y-26259342D01*
X34565687Y-26408663D01*
X34565685Y-26408668D01*
X34537905Y-26492504D01*
X34498132Y-26549949D01*
X34433616Y-26576772D01*
X34420199Y-26577500D01*
X30580539Y-26577500D01*
X30513500Y-26557815D01*
X30467745Y-26505011D01*
X30462833Y-26492504D01*
X30440126Y-26423980D01*
X30433862Y-26405075D01*
X30433858Y-26405069D01*
X30433857Y-26405066D01*
X30342528Y-26257000D01*
X30342525Y-26256996D01*
X30219503Y-26133974D01*
X30219499Y-26133971D01*
X30071433Y-26042642D01*
X30071427Y-26042639D01*
X30071425Y-26042638D01*
X30034442Y-26030383D01*
X29906276Y-25987913D01*
X29804355Y-25977500D01*
X29804348Y-25977500D01*
X29217652Y-25977500D01*
X29217644Y-25977500D01*
X29115723Y-25987913D01*
X28950577Y-26042637D01*
X28950566Y-26042642D01*
X28802500Y-26133971D01*
X28802496Y-26133974D01*
X28679474Y-26256996D01*
X28679467Y-26257005D01*
X28678734Y-26258194D01*
X28678019Y-26258836D01*
X28674993Y-26262664D01*
X28674338Y-26262146D01*
X28626780Y-26304911D01*
X28557816Y-26316123D01*
X28493738Y-26288271D01*
X28471738Y-26262877D01*
X28471612Y-26262977D01*
X28469385Y-26260161D01*
X28467663Y-26258173D01*
X28467130Y-26257309D01*
X28344191Y-26134370D01*
X28196214Y-26043096D01*
X28196209Y-26043094D01*
X28031173Y-25988407D01*
X27929315Y-25978000D01*
X27886000Y-25978000D01*
X27886000Y-28378000D01*
X27929303Y-28378000D01*
X27929315Y-28377999D01*
X28031173Y-28367592D01*
X28196209Y-28312905D01*
X28196214Y-28312903D01*
X28344191Y-28221629D01*
X28467128Y-28098692D01*
X28467659Y-28097832D01*
X28468180Y-28097363D01*
X28471612Y-28093023D01*
X28472353Y-28093608D01*
X28519601Y-28051102D01*
X28588563Y-28039872D01*
X28652648Y-28067708D01*
X28674913Y-28093398D01*
X28674993Y-28093336D01*
X28676390Y-28095103D01*
X28678738Y-28097812D01*
X28679468Y-28098995D01*
X28679474Y-28099003D01*
X28802496Y-28222025D01*
X28802500Y-28222028D01*
X28950566Y-28313357D01*
X28950569Y-28313358D01*
X28950575Y-28313362D01*
X29115725Y-28368087D01*
X29217652Y-28378500D01*
X29217657Y-28378500D01*
X29804343Y-28378500D01*
X29804348Y-28378500D01*
X29906275Y-28368087D01*
X30071425Y-28313362D01*
X30219503Y-28222026D01*
X30342526Y-28099003D01*
X30433862Y-27950925D01*
X30462833Y-27863496D01*
X30502606Y-27806051D01*
X30567122Y-27779228D01*
X30580539Y-27778500D01*
X34420199Y-27778500D01*
X34487238Y-27798185D01*
X34532993Y-27850989D01*
X34537903Y-27863492D01*
X34547981Y-27893903D01*
X34565685Y-27947331D01*
X34565687Y-27947336D01*
X34593058Y-27991711D01*
X34657788Y-28096656D01*
X34781844Y-28220712D01*
X34931166Y-28312814D01*
X35097703Y-28367999D01*
X35200491Y-28378500D01*
X35825508Y-28378499D01*
X35825516Y-28378498D01*
X35825519Y-28378498D01*
X35903745Y-28370507D01*
X35928297Y-28367999D01*
X36094834Y-28312814D01*
X36244156Y-28220712D01*
X36337819Y-28127049D01*
X36399142Y-28093564D01*
X36468834Y-28098548D01*
X36513181Y-28127049D01*
X36606844Y-28220712D01*
X36678596Y-28264968D01*
X36725321Y-28316915D01*
X36737500Y-28370507D01*
X36737500Y-37799903D01*
X36717815Y-37866942D01*
X36701181Y-37887584D01*
X36617584Y-37971181D01*
X36556261Y-38004666D01*
X36529903Y-38007500D01*
X35461907Y-38007500D01*
X35394868Y-37987815D01*
X35349113Y-37935011D01*
X35339169Y-37865853D01*
X35355175Y-37820380D01*
X35376973Y-37783518D01*
X35397744Y-37748398D01*
X35431505Y-37632191D01*
X35443597Y-37590573D01*
X35443598Y-37590567D01*
X35446499Y-37553701D01*
X35446500Y-37553694D01*
X35446500Y-37122306D01*
X35443598Y-37085431D01*
X35443597Y-37085429D01*
X35443597Y-37085426D01*
X35397745Y-36927606D01*
X35397744Y-36927603D01*
X35397744Y-36927602D01*
X35314081Y-36786135D01*
X35314078Y-36786132D01*
X35309298Y-36779969D01*
X35311750Y-36778066D01*
X35285155Y-36729421D01*
X35290104Y-36659726D01*
X35310940Y-36627304D01*
X35309298Y-36626031D01*
X35314075Y-36619870D01*
X35314081Y-36619865D01*
X35397744Y-36478398D01*
X35443598Y-36320569D01*
X35446500Y-36283694D01*
X35446500Y-35852306D01*
X35443598Y-35815431D01*
X35397744Y-35657602D01*
X35314081Y-35516135D01*
X35314078Y-35516132D01*
X35309298Y-35509969D01*
X35311750Y-35508066D01*
X35285155Y-35459421D01*
X35290104Y-35389726D01*
X35310940Y-35357304D01*
X35309298Y-35356031D01*
X35314075Y-35349870D01*
X35314081Y-35349865D01*
X35397744Y-35208398D01*
X35443598Y-35050569D01*
X35446500Y-35013694D01*
X35446500Y-34582306D01*
X35443598Y-34545431D01*
X35397744Y-34387602D01*
X35314081Y-34246135D01*
X35314079Y-34246133D01*
X35314076Y-34246129D01*
X35197870Y-34129923D01*
X35197862Y-34129917D01*
X35056396Y-34046255D01*
X35056393Y-34046254D01*
X34898573Y-34000402D01*
X34898567Y-34000401D01*
X34861701Y-33997500D01*
X34861694Y-33997500D01*
X33170500Y-33997500D01*
X33103461Y-33977815D01*
X33057706Y-33925011D01*
X33046500Y-33873500D01*
X33046500Y-32705797D01*
X33066185Y-32638758D01*
X33105403Y-32600258D01*
X33164656Y-32563712D01*
X33288712Y-32439656D01*
X33380814Y-32290334D01*
X33435999Y-32123797D01*
X33446500Y-32021009D01*
X33446499Y-30970992D01*
X33435999Y-30868203D01*
X33380814Y-30701666D01*
X33288712Y-30552344D01*
X33164656Y-30428288D01*
X33015334Y-30336186D01*
X32848797Y-30281001D01*
X32848795Y-30281000D01*
X32746010Y-30270500D01*
X32145998Y-30270500D01*
X32145980Y-30270501D01*
X32043203Y-30281000D01*
X32043200Y-30281001D01*
X31932311Y-30317747D01*
X31876666Y-30336186D01*
X31876664Y-30336186D01*
X31869811Y-30338458D01*
X31869340Y-30337037D01*
X31808408Y-30346280D01*
X31744630Y-30317747D01*
X31737425Y-30311090D01*
X31269190Y-29842855D01*
X31269188Y-29842852D01*
X31150317Y-29723981D01*
X31150316Y-29723980D01*
X31063504Y-29673860D01*
X31063504Y-29673859D01*
X31063500Y-29673858D01*
X31013385Y-29644923D01*
X30860657Y-29603999D01*
X30702543Y-29603999D01*
X30694947Y-29603999D01*
X30694931Y-29604000D01*
X28824312Y-29604000D01*
X28757273Y-29584315D01*
X28746997Y-29576945D01*
X28744163Y-29574685D01*
X28744162Y-29574684D01*
X28687396Y-29539015D01*
X28591423Y-29478711D01*
X28421154Y-29419131D01*
X28421149Y-29419130D01*
X28241904Y-29398935D01*
X28241896Y-29398935D01*
X28062650Y-29419130D01*
X28062645Y-29419131D01*
X27892376Y-29478711D01*
X27739637Y-29574684D01*
X27612084Y-29702237D01*
X27516111Y-29854976D01*
X27456531Y-30025245D01*
X27456530Y-30025250D01*
X27436335Y-30204496D01*
X23298500Y-30204496D01*
X23298500Y-27683815D01*
X26648500Y-27683815D01*
X26658907Y-27785673D01*
X26713594Y-27950709D01*
X26713596Y-27950714D01*
X26804870Y-28098691D01*
X26927808Y-28221629D01*
X27075785Y-28312903D01*
X27075790Y-28312905D01*
X27240826Y-28367592D01*
X27342684Y-28377999D01*
X27342697Y-28378000D01*
X27386000Y-28378000D01*
X27386000Y-27428000D01*
X26648500Y-27428000D01*
X26648500Y-27683815D01*
X23298500Y-27683815D01*
X23298500Y-26672184D01*
X26648500Y-26672184D01*
X26648500Y-26928000D01*
X27386000Y-26928000D01*
X27386000Y-25978000D01*
X27342684Y-25978000D01*
X27240826Y-25988407D01*
X27075790Y-26043094D01*
X27075785Y-26043096D01*
X26927808Y-26134370D01*
X26804870Y-26257308D01*
X26713596Y-26405285D01*
X26713594Y-26405290D01*
X26658907Y-26570326D01*
X26648500Y-26672184D01*
X23298500Y-26672184D01*
X23298500Y-20944500D01*
X23318185Y-20877461D01*
X23370989Y-20831706D01*
X23422500Y-20820500D01*
X123773500Y-20820500D01*
X123840539Y-20840185D01*
G37*
%TD.AperFunction*%
%TA.AperFunction,Conductor*%
G36*
X30543403Y-48279527D02*
G01*
X30549881Y-48285559D01*
X30671438Y-48407116D01*
X30691873Y-48419956D01*
X30824174Y-48503087D01*
X30824178Y-48503089D01*
X30991633Y-48561684D01*
X30994445Y-48562668D01*
X30994450Y-48562669D01*
X31173696Y-48582865D01*
X31173700Y-48582865D01*
X31173704Y-48582865D01*
X31352949Y-48562669D01*
X31352952Y-48562668D01*
X31352955Y-48562668D01*
X31523222Y-48503089D01*
X31523224Y-48503087D01*
X31523226Y-48503087D01*
X31655528Y-48419956D01*
X31722764Y-48400955D01*
X31789599Y-48421322D01*
X31834814Y-48474590D01*
X31845500Y-48524949D01*
X31845500Y-48869330D01*
X31845499Y-48869348D01*
X31845499Y-49035054D01*
X31845498Y-49035054D01*
X31845499Y-49035057D01*
X31886423Y-49187785D01*
X31888562Y-49191490D01*
X31888565Y-49191501D01*
X31888568Y-49191500D01*
X31965477Y-49324712D01*
X31965481Y-49324717D01*
X32084349Y-49443585D01*
X32084355Y-49443590D01*
X32789139Y-50148374D01*
X32789149Y-50148385D01*
X32793479Y-50152715D01*
X32793480Y-50152716D01*
X32905284Y-50264520D01*
X32992095Y-50314639D01*
X32992097Y-50314641D01*
X33028858Y-50335865D01*
X33042215Y-50343577D01*
X33194943Y-50384501D01*
X33194946Y-50384501D01*
X33360653Y-50384501D01*
X33360669Y-50384500D01*
X34605093Y-50384500D01*
X34672132Y-50404185D01*
X34717887Y-50456989D01*
X34727831Y-50526147D01*
X34711825Y-50571620D01*
X34669257Y-50643599D01*
X34669254Y-50643606D01*
X34623402Y-50801426D01*
X34623401Y-50801432D01*
X34620500Y-50838298D01*
X34620500Y-51269706D01*
X34620996Y-51276007D01*
X34606625Y-51344383D01*
X34585058Y-51373404D01*
X33649763Y-52308701D01*
X33493386Y-52465078D01*
X33493384Y-52465080D01*
X33448689Y-52509775D01*
X33381580Y-52576883D01*
X33376298Y-52586032D01*
X33373844Y-52590284D01*
X33302523Y-52713815D01*
X33261599Y-52866543D01*
X33261599Y-52866545D01*
X33261599Y-53034646D01*
X33261600Y-53034659D01*
X33261600Y-58393703D01*
X33241915Y-58460742D01*
X33225281Y-58481384D01*
X30498084Y-61208581D01*
X30436761Y-61242066D01*
X30410403Y-61244900D01*
X26720000Y-61244900D01*
X26652961Y-61225215D01*
X26607206Y-61172411D01*
X26596000Y-61120900D01*
X26596000Y-61088000D01*
X26615685Y-61020961D01*
X26668489Y-60975206D01*
X26720000Y-60964000D01*
X28368295Y-60964000D01*
X28368295Y-60963998D01*
X28368100Y-60961513D01*
X28322281Y-60803801D01*
X28238685Y-60662447D01*
X28233900Y-60656278D01*
X28236366Y-60654364D01*
X28209802Y-60605776D01*
X28214749Y-60536082D01*
X28235856Y-60503232D01*
X28234301Y-60502026D01*
X28239077Y-60495868D01*
X28239081Y-60495865D01*
X28322744Y-60354398D01*
X28368598Y-60196569D01*
X28371500Y-60159694D01*
X28371500Y-59728306D01*
X28368598Y-59691431D01*
X28322744Y-59533602D01*
X28239081Y-59392135D01*
X28239078Y-59392132D01*
X28234298Y-59385969D01*
X28236750Y-59384066D01*
X28210155Y-59335421D01*
X28215104Y-59265726D01*
X28235940Y-59233304D01*
X28234298Y-59232031D01*
X28239075Y-59225870D01*
X28239081Y-59225865D01*
X28322744Y-59084398D01*
X28368598Y-58926569D01*
X28371500Y-58889694D01*
X28371500Y-58664699D01*
X28391185Y-58597660D01*
X28443989Y-58551905D01*
X28481617Y-58541479D01*
X28564250Y-58532169D01*
X28564253Y-58532168D01*
X28564255Y-58532168D01*
X28734522Y-58472589D01*
X28887262Y-58376616D01*
X29014816Y-58249062D01*
X29110789Y-58096322D01*
X29170368Y-57926055D01*
X29187645Y-57772716D01*
X29190565Y-57746803D01*
X29190565Y-57746796D01*
X29170369Y-57567550D01*
X29170368Y-57567545D01*
X29110788Y-57397276D01*
X29014815Y-57244537D01*
X28887262Y-57116984D01*
X28734523Y-57021011D01*
X28564254Y-56961431D01*
X28564249Y-56961430D01*
X28385004Y-56941235D01*
X28384995Y-56941235D01*
X28377349Y-56942096D01*
X28308527Y-56930037D01*
X28257151Y-56882685D01*
X28256741Y-56881996D01*
X28239083Y-56852138D01*
X28234298Y-56845969D01*
X28236750Y-56844066D01*
X28210155Y-56795421D01*
X28215104Y-56725726D01*
X28235940Y-56693304D01*
X28234298Y-56692031D01*
X28239077Y-56685868D01*
X28239081Y-56685865D01*
X28310727Y-56564715D01*
X28329779Y-56540156D01*
X28377422Y-56492514D01*
X28377429Y-56492504D01*
X30096206Y-54773728D01*
X30096211Y-54773724D01*
X30106414Y-54763520D01*
X30106416Y-54763520D01*
X30218220Y-54651716D01*
X30227929Y-54634900D01*
X30284636Y-54536680D01*
X30284637Y-54536676D01*
X30284646Y-54536662D01*
X30297277Y-54514785D01*
X30338200Y-54362058D01*
X30338200Y-54203943D01*
X30338200Y-48373240D01*
X30357885Y-48306201D01*
X30410689Y-48260446D01*
X30479847Y-48250502D01*
X30543403Y-48279527D01*
G37*
%TD.AperFunction*%
%TD*%
M02*
