%TF.GenerationSoftware,KiCad,Pcbnew,8.0.2*%
%TF.CreationDate,2025-01-05T21:37:03+01:00*%
%TF.ProjectId,lcd_display,6c63645f-6469-4737-906c-61792e6b6963,rev?*%
%TF.SameCoordinates,Original*%
%TF.FileFunction,Legend,Top*%
%TF.FilePolarity,Positive*%
%FSLAX46Y46*%
G04 Gerber Fmt 4.6, Leading zero omitted, Abs format (unit mm)*
G04 Created by KiCad (PCBNEW 8.0.2) date 2025-01-05 21:37:03*
%MOMM*%
%LPD*%
G01*
G04 APERTURE LIST*
%ADD10C,0.150000*%
%ADD11C,0.200000*%
%ADD12C,0.100000*%
%ADD13C,0.120000*%
G04 APERTURE END LIST*
D10*
X33974000Y-70866000D02*
X47182000Y-70866000D01*
X98500438Y-26514398D02*
X98452819Y-26609636D01*
X98452819Y-26609636D02*
X98452819Y-26752493D01*
X98452819Y-26752493D02*
X98500438Y-26895350D01*
X98500438Y-26895350D02*
X98595676Y-26990588D01*
X98595676Y-26990588D02*
X98690914Y-27038207D01*
X98690914Y-27038207D02*
X98881390Y-27085826D01*
X98881390Y-27085826D02*
X99024247Y-27085826D01*
X99024247Y-27085826D02*
X99214723Y-27038207D01*
X99214723Y-27038207D02*
X99309961Y-26990588D01*
X99309961Y-26990588D02*
X99405200Y-26895350D01*
X99405200Y-26895350D02*
X99452819Y-26752493D01*
X99452819Y-26752493D02*
X99452819Y-26657255D01*
X99452819Y-26657255D02*
X99405200Y-26514398D01*
X99405200Y-26514398D02*
X99357580Y-26466779D01*
X99357580Y-26466779D02*
X99024247Y-26466779D01*
X99024247Y-26466779D02*
X99024247Y-26657255D01*
X99452819Y-26038207D02*
X98452819Y-26038207D01*
X98452819Y-26038207D02*
X99452819Y-25466779D01*
X99452819Y-25466779D02*
X98452819Y-25466779D01*
X99452819Y-24990588D02*
X98452819Y-24990588D01*
X98452819Y-24990588D02*
X98452819Y-24752493D01*
X98452819Y-24752493D02*
X98500438Y-24609636D01*
X98500438Y-24609636D02*
X98595676Y-24514398D01*
X98595676Y-24514398D02*
X98690914Y-24466779D01*
X98690914Y-24466779D02*
X98881390Y-24419160D01*
X98881390Y-24419160D02*
X99024247Y-24419160D01*
X99024247Y-24419160D02*
X99214723Y-24466779D01*
X99214723Y-24466779D02*
X99309961Y-24514398D01*
X99309961Y-24514398D02*
X99405200Y-24609636D01*
X99405200Y-24609636D02*
X99452819Y-24752493D01*
X99452819Y-24752493D02*
X99452819Y-24990588D01*
D11*
X25477435Y-22043528D02*
X25763149Y-22043528D01*
X25763149Y-22043528D02*
X25906006Y-22114957D01*
X25906006Y-22114957D02*
X26048863Y-22257814D01*
X26048863Y-22257814D02*
X26120292Y-22543528D01*
X26120292Y-22543528D02*
X26120292Y-23043528D01*
X26120292Y-23043528D02*
X26048863Y-23329242D01*
X26048863Y-23329242D02*
X25906006Y-23472100D01*
X25906006Y-23472100D02*
X25763149Y-23543528D01*
X25763149Y-23543528D02*
X25477435Y-23543528D01*
X25477435Y-23543528D02*
X25334578Y-23472100D01*
X25334578Y-23472100D02*
X25191720Y-23329242D01*
X25191720Y-23329242D02*
X25120292Y-23043528D01*
X25120292Y-23043528D02*
X25120292Y-22543528D01*
X25120292Y-22543528D02*
X25191720Y-22257814D01*
X25191720Y-22257814D02*
X25334578Y-22114957D01*
X25334578Y-22114957D02*
X25477435Y-22043528D01*
X26763149Y-22043528D02*
X26763149Y-23257814D01*
X26763149Y-23257814D02*
X26834578Y-23400671D01*
X26834578Y-23400671D02*
X26906007Y-23472100D01*
X26906007Y-23472100D02*
X27048864Y-23543528D01*
X27048864Y-23543528D02*
X27334578Y-23543528D01*
X27334578Y-23543528D02*
X27477435Y-23472100D01*
X27477435Y-23472100D02*
X27548864Y-23400671D01*
X27548864Y-23400671D02*
X27620292Y-23257814D01*
X27620292Y-23257814D02*
X27620292Y-22043528D01*
X28120293Y-22043528D02*
X28977436Y-22043528D01*
X28548864Y-23543528D02*
X28548864Y-22043528D01*
X29477435Y-23543528D02*
X29477435Y-22043528D01*
X29477435Y-22043528D02*
X30048864Y-22043528D01*
X30048864Y-22043528D02*
X30191721Y-22114957D01*
X30191721Y-22114957D02*
X30263150Y-22186385D01*
X30263150Y-22186385D02*
X30334578Y-22329242D01*
X30334578Y-22329242D02*
X30334578Y-22543528D01*
X30334578Y-22543528D02*
X30263150Y-22686385D01*
X30263150Y-22686385D02*
X30191721Y-22757814D01*
X30191721Y-22757814D02*
X30048864Y-22829242D01*
X30048864Y-22829242D02*
X29477435Y-22829242D01*
X30977435Y-22043528D02*
X30977435Y-23257814D01*
X30977435Y-23257814D02*
X31048864Y-23400671D01*
X31048864Y-23400671D02*
X31120293Y-23472100D01*
X31120293Y-23472100D02*
X31263150Y-23543528D01*
X31263150Y-23543528D02*
X31548864Y-23543528D01*
X31548864Y-23543528D02*
X31691721Y-23472100D01*
X31691721Y-23472100D02*
X31763150Y-23400671D01*
X31763150Y-23400671D02*
X31834578Y-23257814D01*
X31834578Y-23257814D02*
X31834578Y-22043528D01*
X32334579Y-22043528D02*
X33191722Y-22043528D01*
X32763150Y-23543528D02*
X32763150Y-22043528D01*
X35691721Y-23543528D02*
X35191721Y-22829242D01*
X34834578Y-23543528D02*
X34834578Y-22043528D01*
X34834578Y-22043528D02*
X35406007Y-22043528D01*
X35406007Y-22043528D02*
X35548864Y-22114957D01*
X35548864Y-22114957D02*
X35620293Y-22186385D01*
X35620293Y-22186385D02*
X35691721Y-22329242D01*
X35691721Y-22329242D02*
X35691721Y-22543528D01*
X35691721Y-22543528D02*
X35620293Y-22686385D01*
X35620293Y-22686385D02*
X35548864Y-22757814D01*
X35548864Y-22757814D02*
X35406007Y-22829242D01*
X35406007Y-22829242D02*
X34834578Y-22829242D01*
X36334578Y-22757814D02*
X36834578Y-22757814D01*
X37048864Y-23543528D02*
X36334578Y-23543528D01*
X36334578Y-23543528D02*
X36334578Y-22043528D01*
X36334578Y-22043528D02*
X37048864Y-22043528D01*
X38477436Y-22114957D02*
X38334579Y-22043528D01*
X38334579Y-22043528D02*
X38120293Y-22043528D01*
X38120293Y-22043528D02*
X37906007Y-22114957D01*
X37906007Y-22114957D02*
X37763150Y-22257814D01*
X37763150Y-22257814D02*
X37691721Y-22400671D01*
X37691721Y-22400671D02*
X37620293Y-22686385D01*
X37620293Y-22686385D02*
X37620293Y-22900671D01*
X37620293Y-22900671D02*
X37691721Y-23186385D01*
X37691721Y-23186385D02*
X37763150Y-23329242D01*
X37763150Y-23329242D02*
X37906007Y-23472100D01*
X37906007Y-23472100D02*
X38120293Y-23543528D01*
X38120293Y-23543528D02*
X38263150Y-23543528D01*
X38263150Y-23543528D02*
X38477436Y-23472100D01*
X38477436Y-23472100D02*
X38548864Y-23400671D01*
X38548864Y-23400671D02*
X38548864Y-22900671D01*
X38548864Y-22900671D02*
X38263150Y-22900671D01*
X39191721Y-23543528D02*
X39191721Y-22043528D01*
X39834579Y-23472100D02*
X40048865Y-23543528D01*
X40048865Y-23543528D02*
X40406007Y-23543528D01*
X40406007Y-23543528D02*
X40548865Y-23472100D01*
X40548865Y-23472100D02*
X40620293Y-23400671D01*
X40620293Y-23400671D02*
X40691722Y-23257814D01*
X40691722Y-23257814D02*
X40691722Y-23114957D01*
X40691722Y-23114957D02*
X40620293Y-22972100D01*
X40620293Y-22972100D02*
X40548865Y-22900671D01*
X40548865Y-22900671D02*
X40406007Y-22829242D01*
X40406007Y-22829242D02*
X40120293Y-22757814D01*
X40120293Y-22757814D02*
X39977436Y-22686385D01*
X39977436Y-22686385D02*
X39906007Y-22614957D01*
X39906007Y-22614957D02*
X39834579Y-22472100D01*
X39834579Y-22472100D02*
X39834579Y-22329242D01*
X39834579Y-22329242D02*
X39906007Y-22186385D01*
X39906007Y-22186385D02*
X39977436Y-22114957D01*
X39977436Y-22114957D02*
X40120293Y-22043528D01*
X40120293Y-22043528D02*
X40477436Y-22043528D01*
X40477436Y-22043528D02*
X40691722Y-22114957D01*
X41120293Y-22043528D02*
X41977436Y-22043528D01*
X41548864Y-23543528D02*
X41548864Y-22043528D01*
X42477435Y-22757814D02*
X42977435Y-22757814D01*
X43191721Y-23543528D02*
X42477435Y-23543528D01*
X42477435Y-23543528D02*
X42477435Y-22043528D01*
X42477435Y-22043528D02*
X43191721Y-22043528D01*
X44691721Y-23543528D02*
X44191721Y-22829242D01*
X43834578Y-23543528D02*
X43834578Y-22043528D01*
X43834578Y-22043528D02*
X44406007Y-22043528D01*
X44406007Y-22043528D02*
X44548864Y-22114957D01*
X44548864Y-22114957D02*
X44620293Y-22186385D01*
X44620293Y-22186385D02*
X44691721Y-22329242D01*
X44691721Y-22329242D02*
X44691721Y-22543528D01*
X44691721Y-22543528D02*
X44620293Y-22686385D01*
X44620293Y-22686385D02*
X44548864Y-22757814D01*
X44548864Y-22757814D02*
X44406007Y-22829242D01*
X44406007Y-22829242D02*
X43834578Y-22829242D01*
X45334578Y-23400671D02*
X45406007Y-23472100D01*
X45406007Y-23472100D02*
X45334578Y-23543528D01*
X45334578Y-23543528D02*
X45263150Y-23472100D01*
X45263150Y-23472100D02*
X45334578Y-23400671D01*
X45334578Y-23400671D02*
X45334578Y-23543528D01*
X45334578Y-22614957D02*
X45406007Y-22686385D01*
X45406007Y-22686385D02*
X45334578Y-22757814D01*
X45334578Y-22757814D02*
X45263150Y-22686385D01*
X45263150Y-22686385D02*
X45334578Y-22614957D01*
X45334578Y-22614957D02*
X45334578Y-22757814D01*
X47906007Y-23543528D02*
X47191721Y-23543528D01*
X47191721Y-23543528D02*
X47191721Y-22043528D01*
X49263150Y-23400671D02*
X49191722Y-23472100D01*
X49191722Y-23472100D02*
X48977436Y-23543528D01*
X48977436Y-23543528D02*
X48834579Y-23543528D01*
X48834579Y-23543528D02*
X48620293Y-23472100D01*
X48620293Y-23472100D02*
X48477436Y-23329242D01*
X48477436Y-23329242D02*
X48406007Y-23186385D01*
X48406007Y-23186385D02*
X48334579Y-22900671D01*
X48334579Y-22900671D02*
X48334579Y-22686385D01*
X48334579Y-22686385D02*
X48406007Y-22400671D01*
X48406007Y-22400671D02*
X48477436Y-22257814D01*
X48477436Y-22257814D02*
X48620293Y-22114957D01*
X48620293Y-22114957D02*
X48834579Y-22043528D01*
X48834579Y-22043528D02*
X48977436Y-22043528D01*
X48977436Y-22043528D02*
X49191722Y-22114957D01*
X49191722Y-22114957D02*
X49263150Y-22186385D01*
X49906007Y-23543528D02*
X49906007Y-22043528D01*
X49906007Y-22043528D02*
X50263150Y-22043528D01*
X50263150Y-22043528D02*
X50477436Y-22114957D01*
X50477436Y-22114957D02*
X50620293Y-22257814D01*
X50620293Y-22257814D02*
X50691722Y-22400671D01*
X50691722Y-22400671D02*
X50763150Y-22686385D01*
X50763150Y-22686385D02*
X50763150Y-22900671D01*
X50763150Y-22900671D02*
X50691722Y-23186385D01*
X50691722Y-23186385D02*
X50620293Y-23329242D01*
X50620293Y-23329242D02*
X50477436Y-23472100D01*
X50477436Y-23472100D02*
X50263150Y-23543528D01*
X50263150Y-23543528D02*
X49906007Y-23543528D01*
D10*
X111152819Y-25733332D02*
X111152819Y-25114285D01*
X111152819Y-25114285D02*
X111533771Y-25447618D01*
X111533771Y-25447618D02*
X111533771Y-25304761D01*
X111533771Y-25304761D02*
X111581390Y-25209523D01*
X111581390Y-25209523D02*
X111629009Y-25161904D01*
X111629009Y-25161904D02*
X111724247Y-25114285D01*
X111724247Y-25114285D02*
X111962342Y-25114285D01*
X111962342Y-25114285D02*
X112057580Y-25161904D01*
X112057580Y-25161904D02*
X112105200Y-25209523D01*
X112105200Y-25209523D02*
X112152819Y-25304761D01*
X112152819Y-25304761D02*
X112152819Y-25590475D01*
X112152819Y-25590475D02*
X112105200Y-25685713D01*
X112105200Y-25685713D02*
X112057580Y-25733332D01*
D12*
X47849966Y-70520877D02*
X47816633Y-70587544D01*
X47816633Y-70587544D02*
X47816633Y-70687544D01*
X47816633Y-70687544D02*
X47849966Y-70787544D01*
X47849966Y-70787544D02*
X47916633Y-70854211D01*
X47916633Y-70854211D02*
X47983300Y-70887544D01*
X47983300Y-70887544D02*
X48116633Y-70920877D01*
X48116633Y-70920877D02*
X48216633Y-70920877D01*
X48216633Y-70920877D02*
X48349966Y-70887544D01*
X48349966Y-70887544D02*
X48416633Y-70854211D01*
X48416633Y-70854211D02*
X48483300Y-70787544D01*
X48483300Y-70787544D02*
X48516633Y-70687544D01*
X48516633Y-70687544D02*
X48516633Y-70620877D01*
X48516633Y-70620877D02*
X48483300Y-70520877D01*
X48483300Y-70520877D02*
X48449966Y-70487544D01*
X48449966Y-70487544D02*
X48216633Y-70487544D01*
X48216633Y-70487544D02*
X48216633Y-70620877D01*
X48516633Y-70187544D02*
X47816633Y-70187544D01*
X47816633Y-70187544D02*
X48516633Y-69787544D01*
X48516633Y-69787544D02*
X47816633Y-69787544D01*
X48516633Y-69454211D02*
X47816633Y-69454211D01*
X47816633Y-69454211D02*
X47816633Y-69287544D01*
X47816633Y-69287544D02*
X47849966Y-69187544D01*
X47849966Y-69187544D02*
X47916633Y-69120878D01*
X47916633Y-69120878D02*
X47983300Y-69087544D01*
X47983300Y-69087544D02*
X48116633Y-69054211D01*
X48116633Y-69054211D02*
X48216633Y-69054211D01*
X48216633Y-69054211D02*
X48349966Y-69087544D01*
X48349966Y-69087544D02*
X48416633Y-69120878D01*
X48416633Y-69120878D02*
X48483300Y-69187544D01*
X48483300Y-69187544D02*
X48516633Y-69287544D01*
X48516633Y-69287544D02*
X48516633Y-69454211D01*
D10*
X46180951Y-62954819D02*
X46180951Y-63669104D01*
X46180951Y-63669104D02*
X46133332Y-63811961D01*
X46133332Y-63811961D02*
X46038094Y-63907200D01*
X46038094Y-63907200D02*
X45895237Y-63954819D01*
X45895237Y-63954819D02*
X45799999Y-63954819D01*
X47133332Y-63954819D02*
X46657142Y-63954819D01*
X46657142Y-63954819D02*
X46657142Y-62954819D01*
X48038094Y-63859580D02*
X47990475Y-63907200D01*
X47990475Y-63907200D02*
X47847618Y-63954819D01*
X47847618Y-63954819D02*
X47752380Y-63954819D01*
X47752380Y-63954819D02*
X47609523Y-63907200D01*
X47609523Y-63907200D02*
X47514285Y-63811961D01*
X47514285Y-63811961D02*
X47466666Y-63716723D01*
X47466666Y-63716723D02*
X47419047Y-63526247D01*
X47419047Y-63526247D02*
X47419047Y-63383390D01*
X47419047Y-63383390D02*
X47466666Y-63192914D01*
X47466666Y-63192914D02*
X47514285Y-63097676D01*
X47514285Y-63097676D02*
X47609523Y-63002438D01*
X47609523Y-63002438D02*
X47752380Y-62954819D01*
X47752380Y-62954819D02*
X47847618Y-62954819D01*
X47847618Y-62954819D02*
X47990475Y-63002438D01*
X47990475Y-63002438D02*
X48038094Y-63050057D01*
X48752380Y-62954819D02*
X48752380Y-63669104D01*
X48752380Y-63669104D02*
X48704761Y-63811961D01*
X48704761Y-63811961D02*
X48609523Y-63907200D01*
X48609523Y-63907200D02*
X48466666Y-63954819D01*
X48466666Y-63954819D02*
X48371428Y-63954819D01*
X49704761Y-63954819D02*
X49228571Y-63954819D01*
X49228571Y-63954819D02*
X49228571Y-62954819D01*
X50609523Y-63859580D02*
X50561904Y-63907200D01*
X50561904Y-63907200D02*
X50419047Y-63954819D01*
X50419047Y-63954819D02*
X50323809Y-63954819D01*
X50323809Y-63954819D02*
X50180952Y-63907200D01*
X50180952Y-63907200D02*
X50085714Y-63811961D01*
X50085714Y-63811961D02*
X50038095Y-63716723D01*
X50038095Y-63716723D02*
X49990476Y-63526247D01*
X49990476Y-63526247D02*
X49990476Y-63383390D01*
X49990476Y-63383390D02*
X50038095Y-63192914D01*
X50038095Y-63192914D02*
X50085714Y-63097676D01*
X50085714Y-63097676D02*
X50180952Y-63002438D01*
X50180952Y-63002438D02*
X50323809Y-62954819D01*
X50323809Y-62954819D02*
X50419047Y-62954819D01*
X50419047Y-62954819D02*
X50561904Y-63002438D01*
X50561904Y-63002438D02*
X50609523Y-63050057D01*
X51323809Y-62954819D02*
X51323809Y-63669104D01*
X51323809Y-63669104D02*
X51276190Y-63811961D01*
X51276190Y-63811961D02*
X51180952Y-63907200D01*
X51180952Y-63907200D02*
X51038095Y-63954819D01*
X51038095Y-63954819D02*
X50942857Y-63954819D01*
X52276190Y-63954819D02*
X51800000Y-63954819D01*
X51800000Y-63954819D02*
X51800000Y-62954819D01*
X53180952Y-63859580D02*
X53133333Y-63907200D01*
X53133333Y-63907200D02*
X52990476Y-63954819D01*
X52990476Y-63954819D02*
X52895238Y-63954819D01*
X52895238Y-63954819D02*
X52752381Y-63907200D01*
X52752381Y-63907200D02*
X52657143Y-63811961D01*
X52657143Y-63811961D02*
X52609524Y-63716723D01*
X52609524Y-63716723D02*
X52561905Y-63526247D01*
X52561905Y-63526247D02*
X52561905Y-63383390D01*
X52561905Y-63383390D02*
X52609524Y-63192914D01*
X52609524Y-63192914D02*
X52657143Y-63097676D01*
X52657143Y-63097676D02*
X52752381Y-63002438D01*
X52752381Y-63002438D02*
X52895238Y-62954819D01*
X52895238Y-62954819D02*
X52990476Y-62954819D01*
X52990476Y-62954819D02*
X53133333Y-63002438D01*
X53133333Y-63002438D02*
X53180952Y-63050057D01*
X53895238Y-62954819D02*
X53895238Y-63669104D01*
X53895238Y-63669104D02*
X53847619Y-63811961D01*
X53847619Y-63811961D02*
X53752381Y-63907200D01*
X53752381Y-63907200D02*
X53609524Y-63954819D01*
X53609524Y-63954819D02*
X53514286Y-63954819D01*
X54847619Y-63954819D02*
X54371429Y-63954819D01*
X54371429Y-63954819D02*
X54371429Y-62954819D01*
X55752381Y-63859580D02*
X55704762Y-63907200D01*
X55704762Y-63907200D02*
X55561905Y-63954819D01*
X55561905Y-63954819D02*
X55466667Y-63954819D01*
X55466667Y-63954819D02*
X55323810Y-63907200D01*
X55323810Y-63907200D02*
X55228572Y-63811961D01*
X55228572Y-63811961D02*
X55180953Y-63716723D01*
X55180953Y-63716723D02*
X55133334Y-63526247D01*
X55133334Y-63526247D02*
X55133334Y-63383390D01*
X55133334Y-63383390D02*
X55180953Y-63192914D01*
X55180953Y-63192914D02*
X55228572Y-63097676D01*
X55228572Y-63097676D02*
X55323810Y-63002438D01*
X55323810Y-63002438D02*
X55466667Y-62954819D01*
X55466667Y-62954819D02*
X55561905Y-62954819D01*
X55561905Y-62954819D02*
X55704762Y-63002438D01*
X55704762Y-63002438D02*
X55752381Y-63050057D01*
X103532819Y-25209523D02*
X103532819Y-25399999D01*
X103532819Y-25399999D02*
X103580438Y-25495237D01*
X103580438Y-25495237D02*
X103628057Y-25542856D01*
X103628057Y-25542856D02*
X103770914Y-25638094D01*
X103770914Y-25638094D02*
X103961390Y-25685713D01*
X103961390Y-25685713D02*
X104342342Y-25685713D01*
X104342342Y-25685713D02*
X104437580Y-25638094D01*
X104437580Y-25638094D02*
X104485200Y-25590475D01*
X104485200Y-25590475D02*
X104532819Y-25495237D01*
X104532819Y-25495237D02*
X104532819Y-25304761D01*
X104532819Y-25304761D02*
X104485200Y-25209523D01*
X104485200Y-25209523D02*
X104437580Y-25161904D01*
X104437580Y-25161904D02*
X104342342Y-25114285D01*
X104342342Y-25114285D02*
X104104247Y-25114285D01*
X104104247Y-25114285D02*
X104009009Y-25161904D01*
X104009009Y-25161904D02*
X103961390Y-25209523D01*
X103961390Y-25209523D02*
X103913771Y-25304761D01*
X103913771Y-25304761D02*
X103913771Y-25495237D01*
X103913771Y-25495237D02*
X103961390Y-25590475D01*
X103961390Y-25590475D02*
X104009009Y-25638094D01*
X104009009Y-25638094D02*
X104104247Y-25685713D01*
X106072819Y-25161904D02*
X106072819Y-25638094D01*
X106072819Y-25638094D02*
X106549009Y-25685713D01*
X106549009Y-25685713D02*
X106501390Y-25638094D01*
X106501390Y-25638094D02*
X106453771Y-25542856D01*
X106453771Y-25542856D02*
X106453771Y-25304761D01*
X106453771Y-25304761D02*
X106501390Y-25209523D01*
X106501390Y-25209523D02*
X106549009Y-25161904D01*
X106549009Y-25161904D02*
X106644247Y-25114285D01*
X106644247Y-25114285D02*
X106882342Y-25114285D01*
X106882342Y-25114285D02*
X106977580Y-25161904D01*
X106977580Y-25161904D02*
X107025200Y-25209523D01*
X107025200Y-25209523D02*
X107072819Y-25304761D01*
X107072819Y-25304761D02*
X107072819Y-25542856D01*
X107072819Y-25542856D02*
X107025200Y-25638094D01*
X107025200Y-25638094D02*
X106977580Y-25685713D01*
X117232819Y-25114285D02*
X117232819Y-25685713D01*
X117232819Y-25399999D02*
X116232819Y-25399999D01*
X116232819Y-25399999D02*
X116375676Y-25495237D01*
X116375676Y-25495237D02*
X116470914Y-25590475D01*
X116470914Y-25590475D02*
X116518533Y-25685713D01*
D12*
X33209966Y-70487544D02*
X33243300Y-70520877D01*
X33243300Y-70520877D02*
X33276633Y-70620877D01*
X33276633Y-70620877D02*
X33276633Y-70687544D01*
X33276633Y-70687544D02*
X33243300Y-70787544D01*
X33243300Y-70787544D02*
X33176633Y-70854211D01*
X33176633Y-70854211D02*
X33109966Y-70887544D01*
X33109966Y-70887544D02*
X32976633Y-70920877D01*
X32976633Y-70920877D02*
X32876633Y-70920877D01*
X32876633Y-70920877D02*
X32743300Y-70887544D01*
X32743300Y-70887544D02*
X32676633Y-70854211D01*
X32676633Y-70854211D02*
X32609966Y-70787544D01*
X32609966Y-70787544D02*
X32576633Y-70687544D01*
X32576633Y-70687544D02*
X32576633Y-70620877D01*
X32576633Y-70620877D02*
X32609966Y-70520877D01*
X32609966Y-70520877D02*
X32643300Y-70487544D01*
X33276633Y-69854211D02*
X33276633Y-70187544D01*
X33276633Y-70187544D02*
X32576633Y-70187544D01*
X33276633Y-69220877D02*
X32943300Y-69454210D01*
X33276633Y-69620877D02*
X32576633Y-69620877D01*
X32576633Y-69620877D02*
X32576633Y-69354210D01*
X32576633Y-69354210D02*
X32609966Y-69287544D01*
X32609966Y-69287544D02*
X32643300Y-69254210D01*
X32643300Y-69254210D02*
X32709966Y-69220877D01*
X32709966Y-69220877D02*
X32809966Y-69220877D01*
X32809966Y-69220877D02*
X32876633Y-69254210D01*
X32876633Y-69254210D02*
X32909966Y-69287544D01*
X32909966Y-69287544D02*
X32943300Y-69354210D01*
X32943300Y-69354210D02*
X32943300Y-69620877D01*
X32382300Y-70984211D02*
X32382300Y-69157544D01*
D10*
X108946152Y-25209523D02*
X109612819Y-25209523D01*
X108565200Y-25447618D02*
X109279485Y-25685713D01*
X109279485Y-25685713D02*
X109279485Y-25066666D01*
D12*
X24956633Y-70987544D02*
X25656633Y-70754211D01*
X25656633Y-70754211D02*
X24956633Y-70520877D01*
X25589966Y-69887544D02*
X25623300Y-69920877D01*
X25623300Y-69920877D02*
X25656633Y-70020877D01*
X25656633Y-70020877D02*
X25656633Y-70087544D01*
X25656633Y-70087544D02*
X25623300Y-70187544D01*
X25623300Y-70187544D02*
X25556633Y-70254211D01*
X25556633Y-70254211D02*
X25489966Y-70287544D01*
X25489966Y-70287544D02*
X25356633Y-70320877D01*
X25356633Y-70320877D02*
X25256633Y-70320877D01*
X25256633Y-70320877D02*
X25123300Y-70287544D01*
X25123300Y-70287544D02*
X25056633Y-70254211D01*
X25056633Y-70254211D02*
X24989966Y-70187544D01*
X24989966Y-70187544D02*
X24956633Y-70087544D01*
X24956633Y-70087544D02*
X24956633Y-70020877D01*
X24956633Y-70020877D02*
X24989966Y-69920877D01*
X24989966Y-69920877D02*
X25023300Y-69887544D01*
X25589966Y-69187544D02*
X25623300Y-69220877D01*
X25623300Y-69220877D02*
X25656633Y-69320877D01*
X25656633Y-69320877D02*
X25656633Y-69387544D01*
X25656633Y-69387544D02*
X25623300Y-69487544D01*
X25623300Y-69487544D02*
X25556633Y-69554211D01*
X25556633Y-69554211D02*
X25489966Y-69587544D01*
X25489966Y-69587544D02*
X25356633Y-69620877D01*
X25356633Y-69620877D02*
X25256633Y-69620877D01*
X25256633Y-69620877D02*
X25123300Y-69587544D01*
X25123300Y-69587544D02*
X25056633Y-69554211D01*
X25056633Y-69554211D02*
X24989966Y-69487544D01*
X24989966Y-69487544D02*
X24956633Y-69387544D01*
X24956633Y-69387544D02*
X24956633Y-69320877D01*
X24956633Y-69320877D02*
X24989966Y-69220877D01*
X24989966Y-69220877D02*
X25023300Y-69187544D01*
D10*
X121312819Y-26990588D02*
X122312819Y-26657255D01*
X122312819Y-26657255D02*
X121312819Y-26323922D01*
X122217580Y-25419160D02*
X122265200Y-25466779D01*
X122265200Y-25466779D02*
X122312819Y-25609636D01*
X122312819Y-25609636D02*
X122312819Y-25704874D01*
X122312819Y-25704874D02*
X122265200Y-25847731D01*
X122265200Y-25847731D02*
X122169961Y-25942969D01*
X122169961Y-25942969D02*
X122074723Y-25990588D01*
X122074723Y-25990588D02*
X121884247Y-26038207D01*
X121884247Y-26038207D02*
X121741390Y-26038207D01*
X121741390Y-26038207D02*
X121550914Y-25990588D01*
X121550914Y-25990588D02*
X121455676Y-25942969D01*
X121455676Y-25942969D02*
X121360438Y-25847731D01*
X121360438Y-25847731D02*
X121312819Y-25704874D01*
X121312819Y-25704874D02*
X121312819Y-25609636D01*
X121312819Y-25609636D02*
X121360438Y-25466779D01*
X121360438Y-25466779D02*
X121408057Y-25419160D01*
X122217580Y-24419160D02*
X122265200Y-24466779D01*
X122265200Y-24466779D02*
X122312819Y-24609636D01*
X122312819Y-24609636D02*
X122312819Y-24704874D01*
X122312819Y-24704874D02*
X122265200Y-24847731D01*
X122265200Y-24847731D02*
X122169961Y-24942969D01*
X122169961Y-24942969D02*
X122074723Y-24990588D01*
X122074723Y-24990588D02*
X121884247Y-25038207D01*
X121884247Y-25038207D02*
X121741390Y-25038207D01*
X121741390Y-25038207D02*
X121550914Y-24990588D01*
X121550914Y-24990588D02*
X121455676Y-24942969D01*
X121455676Y-24942969D02*
X121360438Y-24847731D01*
X121360438Y-24847731D02*
X121312819Y-24704874D01*
X121312819Y-24704874D02*
X121312819Y-24609636D01*
X121312819Y-24609636D02*
X121360438Y-24466779D01*
X121360438Y-24466779D02*
X121408057Y-24419160D01*
X100992819Y-25733332D02*
X100992819Y-25066666D01*
X100992819Y-25066666D02*
X101992819Y-25495237D01*
D12*
X30736633Y-70887544D02*
X30036633Y-70887544D01*
X30736633Y-70554211D02*
X30036633Y-70554211D01*
X30036633Y-70554211D02*
X30736633Y-70154211D01*
X30736633Y-70154211D02*
X30036633Y-70154211D01*
D10*
X118772819Y-25447618D02*
X118772819Y-25352380D01*
X118772819Y-25352380D02*
X118820438Y-25257142D01*
X118820438Y-25257142D02*
X118868057Y-25209523D01*
X118868057Y-25209523D02*
X118963295Y-25161904D01*
X118963295Y-25161904D02*
X119153771Y-25114285D01*
X119153771Y-25114285D02*
X119391866Y-25114285D01*
X119391866Y-25114285D02*
X119582342Y-25161904D01*
X119582342Y-25161904D02*
X119677580Y-25209523D01*
X119677580Y-25209523D02*
X119725200Y-25257142D01*
X119725200Y-25257142D02*
X119772819Y-25352380D01*
X119772819Y-25352380D02*
X119772819Y-25447618D01*
X119772819Y-25447618D02*
X119725200Y-25542856D01*
X119725200Y-25542856D02*
X119677580Y-25590475D01*
X119677580Y-25590475D02*
X119582342Y-25638094D01*
X119582342Y-25638094D02*
X119391866Y-25685713D01*
X119391866Y-25685713D02*
X119153771Y-25685713D01*
X119153771Y-25685713D02*
X118963295Y-25638094D01*
X118963295Y-25638094D02*
X118868057Y-25590475D01*
X118868057Y-25590475D02*
X118820438Y-25542856D01*
X118820438Y-25542856D02*
X118772819Y-25447618D01*
X113788057Y-25685713D02*
X113740438Y-25638094D01*
X113740438Y-25638094D02*
X113692819Y-25542856D01*
X113692819Y-25542856D02*
X113692819Y-25304761D01*
X113692819Y-25304761D02*
X113740438Y-25209523D01*
X113740438Y-25209523D02*
X113788057Y-25161904D01*
X113788057Y-25161904D02*
X113883295Y-25114285D01*
X113883295Y-25114285D02*
X113978533Y-25114285D01*
X113978533Y-25114285D02*
X114121390Y-25161904D01*
X114121390Y-25161904D02*
X114692819Y-25733332D01*
X114692819Y-25733332D02*
X114692819Y-25114285D01*
D12*
X28129966Y-70487544D02*
X28163300Y-70520877D01*
X28163300Y-70520877D02*
X28196633Y-70620877D01*
X28196633Y-70620877D02*
X28196633Y-70687544D01*
X28196633Y-70687544D02*
X28163300Y-70787544D01*
X28163300Y-70787544D02*
X28096633Y-70854211D01*
X28096633Y-70854211D02*
X28029966Y-70887544D01*
X28029966Y-70887544D02*
X27896633Y-70920877D01*
X27896633Y-70920877D02*
X27796633Y-70920877D01*
X27796633Y-70920877D02*
X27663300Y-70887544D01*
X27663300Y-70887544D02*
X27596633Y-70854211D01*
X27596633Y-70854211D02*
X27529966Y-70787544D01*
X27529966Y-70787544D02*
X27496633Y-70687544D01*
X27496633Y-70687544D02*
X27496633Y-70620877D01*
X27496633Y-70620877D02*
X27529966Y-70520877D01*
X27529966Y-70520877D02*
X27563300Y-70487544D01*
X28196633Y-69854211D02*
X28196633Y-70187544D01*
X28196633Y-70187544D02*
X27496633Y-70187544D01*
X28196633Y-69620877D02*
X27496633Y-69620877D01*
X28196633Y-69220877D02*
X27796633Y-69520877D01*
X27496633Y-69220877D02*
X27896633Y-69620877D01*
X38578000Y-70389300D02*
X38678000Y-70422633D01*
X38678000Y-70422633D02*
X38844667Y-70422633D01*
X38844667Y-70422633D02*
X38911333Y-70389300D01*
X38911333Y-70389300D02*
X38944667Y-70355966D01*
X38944667Y-70355966D02*
X38978000Y-70289300D01*
X38978000Y-70289300D02*
X38978000Y-70222633D01*
X38978000Y-70222633D02*
X38944667Y-70155966D01*
X38944667Y-70155966D02*
X38911333Y-70122633D01*
X38911333Y-70122633D02*
X38844667Y-70089300D01*
X38844667Y-70089300D02*
X38711333Y-70055966D01*
X38711333Y-70055966D02*
X38644667Y-70022633D01*
X38644667Y-70022633D02*
X38611333Y-69989300D01*
X38611333Y-69989300D02*
X38578000Y-69922633D01*
X38578000Y-69922633D02*
X38578000Y-69855966D01*
X38578000Y-69855966D02*
X38611333Y-69789300D01*
X38611333Y-69789300D02*
X38644667Y-69755966D01*
X38644667Y-69755966D02*
X38711333Y-69722633D01*
X38711333Y-69722633D02*
X38878000Y-69722633D01*
X38878000Y-69722633D02*
X38978000Y-69755966D01*
X39278000Y-70422633D02*
X39278000Y-69722633D01*
X39978000Y-69755966D02*
X39911333Y-69722633D01*
X39911333Y-69722633D02*
X39811333Y-69722633D01*
X39811333Y-69722633D02*
X39711333Y-69755966D01*
X39711333Y-69755966D02*
X39644667Y-69822633D01*
X39644667Y-69822633D02*
X39611333Y-69889300D01*
X39611333Y-69889300D02*
X39578000Y-70022633D01*
X39578000Y-70022633D02*
X39578000Y-70122633D01*
X39578000Y-70122633D02*
X39611333Y-70255966D01*
X39611333Y-70255966D02*
X39644667Y-70322633D01*
X39644667Y-70322633D02*
X39711333Y-70389300D01*
X39711333Y-70389300D02*
X39811333Y-70422633D01*
X39811333Y-70422633D02*
X39878000Y-70422633D01*
X39878000Y-70422633D02*
X39978000Y-70389300D01*
X39978000Y-70389300D02*
X40011333Y-70355966D01*
X40011333Y-70355966D02*
X40011333Y-70122633D01*
X40011333Y-70122633D02*
X39878000Y-70122633D01*
X40311333Y-70422633D02*
X40311333Y-69722633D01*
X40311333Y-69722633D02*
X40711333Y-70422633D01*
X40711333Y-70422633D02*
X40711333Y-69722633D01*
X41011333Y-70222633D02*
X41344666Y-70222633D01*
X40944666Y-70422633D02*
X41178000Y-69722633D01*
X41178000Y-69722633D02*
X41411333Y-70422633D01*
X41978000Y-70422633D02*
X41644666Y-70422633D01*
X41644666Y-70422633D02*
X41644666Y-69722633D01*
X42178000Y-70389300D02*
X42278000Y-70422633D01*
X42278000Y-70422633D02*
X42444667Y-70422633D01*
X42444667Y-70422633D02*
X42511333Y-70389300D01*
X42511333Y-70389300D02*
X42544667Y-70355966D01*
X42544667Y-70355966D02*
X42578000Y-70289300D01*
X42578000Y-70289300D02*
X42578000Y-70222633D01*
X42578000Y-70222633D02*
X42544667Y-70155966D01*
X42544667Y-70155966D02*
X42511333Y-70122633D01*
X42511333Y-70122633D02*
X42444667Y-70089300D01*
X42444667Y-70089300D02*
X42311333Y-70055966D01*
X42311333Y-70055966D02*
X42244667Y-70022633D01*
X42244667Y-70022633D02*
X42211333Y-69989300D01*
X42211333Y-69989300D02*
X42178000Y-69922633D01*
X42178000Y-69922633D02*
X42178000Y-69855966D01*
X42178000Y-69855966D02*
X42211333Y-69789300D01*
X42211333Y-69789300D02*
X42244667Y-69755966D01*
X42244667Y-69755966D02*
X42311333Y-69722633D01*
X42311333Y-69722633D02*
X42478000Y-69722633D01*
X42478000Y-69722633D02*
X42578000Y-69755966D01*
D10*
X85638333Y-27378819D02*
X85305000Y-26902628D01*
X85066905Y-27378819D02*
X85066905Y-26378819D01*
X85066905Y-26378819D02*
X85447857Y-26378819D01*
X85447857Y-26378819D02*
X85543095Y-26426438D01*
X85543095Y-26426438D02*
X85590714Y-26474057D01*
X85590714Y-26474057D02*
X85638333Y-26569295D01*
X85638333Y-26569295D02*
X85638333Y-26712152D01*
X85638333Y-26712152D02*
X85590714Y-26807390D01*
X85590714Y-26807390D02*
X85543095Y-26855009D01*
X85543095Y-26855009D02*
X85447857Y-26902628D01*
X85447857Y-26902628D02*
X85066905Y-26902628D01*
X86590714Y-27378819D02*
X86019286Y-27378819D01*
X86305000Y-27378819D02*
X86305000Y-26378819D01*
X86305000Y-26378819D02*
X86209762Y-26521676D01*
X86209762Y-26521676D02*
X86114524Y-26616914D01*
X86114524Y-26616914D02*
X86019286Y-26664533D01*
X82040833Y-28638700D02*
X82074166Y-28605366D01*
X82074166Y-28605366D02*
X82140833Y-28572033D01*
X82140833Y-28572033D02*
X82307500Y-28572033D01*
X82307500Y-28572033D02*
X82374166Y-28605366D01*
X82374166Y-28605366D02*
X82407500Y-28638700D01*
X82407500Y-28638700D02*
X82440833Y-28705366D01*
X82440833Y-28705366D02*
X82440833Y-28772033D01*
X82440833Y-28772033D02*
X82407500Y-28872033D01*
X82407500Y-28872033D02*
X82007500Y-29272033D01*
X82007500Y-29272033D02*
X82440833Y-29272033D01*
X82707500Y-28638700D02*
X82740833Y-28605366D01*
X82740833Y-28605366D02*
X82807500Y-28572033D01*
X82807500Y-28572033D02*
X82974167Y-28572033D01*
X82974167Y-28572033D02*
X83040833Y-28605366D01*
X83040833Y-28605366D02*
X83074167Y-28638700D01*
X83074167Y-28638700D02*
X83107500Y-28705366D01*
X83107500Y-28705366D02*
X83107500Y-28772033D01*
X83107500Y-28772033D02*
X83074167Y-28872033D01*
X83074167Y-28872033D02*
X82674167Y-29272033D01*
X82674167Y-29272033D02*
X83107500Y-29272033D01*
X83540834Y-28572033D02*
X83607500Y-28572033D01*
X83607500Y-28572033D02*
X83674167Y-28605366D01*
X83674167Y-28605366D02*
X83707500Y-28638700D01*
X83707500Y-28638700D02*
X83740834Y-28705366D01*
X83740834Y-28705366D02*
X83774167Y-28838700D01*
X83774167Y-28838700D02*
X83774167Y-29005366D01*
X83774167Y-29005366D02*
X83740834Y-29138700D01*
X83740834Y-29138700D02*
X83707500Y-29205366D01*
X83707500Y-29205366D02*
X83674167Y-29238700D01*
X83674167Y-29238700D02*
X83607500Y-29272033D01*
X83607500Y-29272033D02*
X83540834Y-29272033D01*
X83540834Y-29272033D02*
X83474167Y-29238700D01*
X83474167Y-29238700D02*
X83440834Y-29205366D01*
X83440834Y-29205366D02*
X83407500Y-29138700D01*
X83407500Y-29138700D02*
X83374167Y-29005366D01*
X83374167Y-29005366D02*
X83374167Y-28838700D01*
X83374167Y-28838700D02*
X83407500Y-28705366D01*
X83407500Y-28705366D02*
X83440834Y-28638700D01*
X83440834Y-28638700D02*
X83474167Y-28605366D01*
X83474167Y-28605366D02*
X83540834Y-28572033D01*
X57824761Y-21940819D02*
X57491428Y-21464628D01*
X57253333Y-21940819D02*
X57253333Y-20940819D01*
X57253333Y-20940819D02*
X57634285Y-20940819D01*
X57634285Y-20940819D02*
X57729523Y-20988438D01*
X57729523Y-20988438D02*
X57777142Y-21036057D01*
X57777142Y-21036057D02*
X57824761Y-21131295D01*
X57824761Y-21131295D02*
X57824761Y-21274152D01*
X57824761Y-21274152D02*
X57777142Y-21369390D01*
X57777142Y-21369390D02*
X57729523Y-21417009D01*
X57729523Y-21417009D02*
X57634285Y-21464628D01*
X57634285Y-21464628D02*
X57253333Y-21464628D01*
X58110476Y-20940819D02*
X58443809Y-21940819D01*
X58443809Y-21940819D02*
X58777142Y-20940819D01*
X59634285Y-21940819D02*
X59062857Y-21940819D01*
X59348571Y-21940819D02*
X59348571Y-20940819D01*
X59348571Y-20940819D02*
X59253333Y-21083676D01*
X59253333Y-21083676D02*
X59158095Y-21178914D01*
X59158095Y-21178914D02*
X59062857Y-21226533D01*
X30734095Y-32782819D02*
X30734095Y-33592342D01*
X30734095Y-33592342D02*
X30781714Y-33687580D01*
X30781714Y-33687580D02*
X30829333Y-33735200D01*
X30829333Y-33735200D02*
X30924571Y-33782819D01*
X30924571Y-33782819D02*
X31115047Y-33782819D01*
X31115047Y-33782819D02*
X31210285Y-33735200D01*
X31210285Y-33735200D02*
X31257904Y-33687580D01*
X31257904Y-33687580D02*
X31305523Y-33592342D01*
X31305523Y-33592342D02*
X31305523Y-32782819D01*
X31734095Y-32878057D02*
X31781714Y-32830438D01*
X31781714Y-32830438D02*
X31876952Y-32782819D01*
X31876952Y-32782819D02*
X32115047Y-32782819D01*
X32115047Y-32782819D02*
X32210285Y-32830438D01*
X32210285Y-32830438D02*
X32257904Y-32878057D01*
X32257904Y-32878057D02*
X32305523Y-32973295D01*
X32305523Y-32973295D02*
X32305523Y-33068533D01*
X32305523Y-33068533D02*
X32257904Y-33211390D01*
X32257904Y-33211390D02*
X31686476Y-33782819D01*
X31686476Y-33782819D02*
X32305523Y-33782819D01*
X28710286Y-43342819D02*
X29376952Y-43342819D01*
X29376952Y-43342819D02*
X28948381Y-44342819D01*
X30186476Y-43676152D02*
X30186476Y-44342819D01*
X29948381Y-43295200D02*
X29710286Y-44009485D01*
X29710286Y-44009485D02*
X30329333Y-44009485D01*
X30710286Y-44342819D02*
X30710286Y-43342819D01*
X30710286Y-43819009D02*
X31281714Y-43819009D01*
X31281714Y-44342819D02*
X31281714Y-43342819D01*
X32329333Y-44247580D02*
X32281714Y-44295200D01*
X32281714Y-44295200D02*
X32138857Y-44342819D01*
X32138857Y-44342819D02*
X32043619Y-44342819D01*
X32043619Y-44342819D02*
X31900762Y-44295200D01*
X31900762Y-44295200D02*
X31805524Y-44199961D01*
X31805524Y-44199961D02*
X31757905Y-44104723D01*
X31757905Y-44104723D02*
X31710286Y-43914247D01*
X31710286Y-43914247D02*
X31710286Y-43771390D01*
X31710286Y-43771390D02*
X31757905Y-43580914D01*
X31757905Y-43580914D02*
X31805524Y-43485676D01*
X31805524Y-43485676D02*
X31900762Y-43390438D01*
X31900762Y-43390438D02*
X32043619Y-43342819D01*
X32043619Y-43342819D02*
X32138857Y-43342819D01*
X32138857Y-43342819D02*
X32281714Y-43390438D01*
X32281714Y-43390438D02*
X32329333Y-43438057D01*
X32948381Y-43342819D02*
X33043619Y-43342819D01*
X33043619Y-43342819D02*
X33138857Y-43390438D01*
X33138857Y-43390438D02*
X33186476Y-43438057D01*
X33186476Y-43438057D02*
X33234095Y-43533295D01*
X33234095Y-43533295D02*
X33281714Y-43723771D01*
X33281714Y-43723771D02*
X33281714Y-43961866D01*
X33281714Y-43961866D02*
X33234095Y-44152342D01*
X33234095Y-44152342D02*
X33186476Y-44247580D01*
X33186476Y-44247580D02*
X33138857Y-44295200D01*
X33138857Y-44295200D02*
X33043619Y-44342819D01*
X33043619Y-44342819D02*
X32948381Y-44342819D01*
X32948381Y-44342819D02*
X32853143Y-44295200D01*
X32853143Y-44295200D02*
X32805524Y-44247580D01*
X32805524Y-44247580D02*
X32757905Y-44152342D01*
X32757905Y-44152342D02*
X32710286Y-43961866D01*
X32710286Y-43961866D02*
X32710286Y-43723771D01*
X32710286Y-43723771D02*
X32757905Y-43533295D01*
X32757905Y-43533295D02*
X32805524Y-43438057D01*
X32805524Y-43438057D02*
X32853143Y-43390438D01*
X32853143Y-43390438D02*
X32948381Y-43342819D01*
X33900762Y-43342819D02*
X33996000Y-43342819D01*
X33996000Y-43342819D02*
X34091238Y-43390438D01*
X34091238Y-43390438D02*
X34138857Y-43438057D01*
X34138857Y-43438057D02*
X34186476Y-43533295D01*
X34186476Y-43533295D02*
X34234095Y-43723771D01*
X34234095Y-43723771D02*
X34234095Y-43961866D01*
X34234095Y-43961866D02*
X34186476Y-44152342D01*
X34186476Y-44152342D02*
X34138857Y-44247580D01*
X34138857Y-44247580D02*
X34091238Y-44295200D01*
X34091238Y-44295200D02*
X33996000Y-44342819D01*
X33996000Y-44342819D02*
X33900762Y-44342819D01*
X33900762Y-44342819D02*
X33805524Y-44295200D01*
X33805524Y-44295200D02*
X33757905Y-44247580D01*
X33757905Y-44247580D02*
X33710286Y-44152342D01*
X33710286Y-44152342D02*
X33662667Y-43961866D01*
X33662667Y-43961866D02*
X33662667Y-43723771D01*
X33662667Y-43723771D02*
X33710286Y-43533295D01*
X33710286Y-43533295D02*
X33757905Y-43438057D01*
X33757905Y-43438057D02*
X33805524Y-43390438D01*
X33805524Y-43390438D02*
X33900762Y-43342819D01*
X30734095Y-47603819D02*
X30734095Y-48413342D01*
X30734095Y-48413342D02*
X30781714Y-48508580D01*
X30781714Y-48508580D02*
X30829333Y-48556200D01*
X30829333Y-48556200D02*
X30924571Y-48603819D01*
X30924571Y-48603819D02*
X31115047Y-48603819D01*
X31115047Y-48603819D02*
X31210285Y-48556200D01*
X31210285Y-48556200D02*
X31257904Y-48508580D01*
X31257904Y-48508580D02*
X31305523Y-48413342D01*
X31305523Y-48413342D02*
X31305523Y-47603819D01*
X32305523Y-48603819D02*
X31734095Y-48603819D01*
X32019809Y-48603819D02*
X32019809Y-47603819D01*
X32019809Y-47603819D02*
X31924571Y-47746676D01*
X31924571Y-47746676D02*
X31829333Y-47841914D01*
X31829333Y-47841914D02*
X31734095Y-47889533D01*
X28234095Y-62303819D02*
X28900761Y-62303819D01*
X28900761Y-62303819D02*
X28472190Y-63303819D01*
X29710285Y-62637152D02*
X29710285Y-63303819D01*
X29472190Y-62256200D02*
X29234095Y-62970485D01*
X29234095Y-62970485D02*
X29853142Y-62970485D01*
X30234095Y-63303819D02*
X30234095Y-62303819D01*
X30234095Y-62780009D02*
X30805523Y-62780009D01*
X30805523Y-63303819D02*
X30805523Y-62303819D01*
X31853142Y-63208580D02*
X31805523Y-63256200D01*
X31805523Y-63256200D02*
X31662666Y-63303819D01*
X31662666Y-63303819D02*
X31567428Y-63303819D01*
X31567428Y-63303819D02*
X31424571Y-63256200D01*
X31424571Y-63256200D02*
X31329333Y-63160961D01*
X31329333Y-63160961D02*
X31281714Y-63065723D01*
X31281714Y-63065723D02*
X31234095Y-62875247D01*
X31234095Y-62875247D02*
X31234095Y-62732390D01*
X31234095Y-62732390D02*
X31281714Y-62541914D01*
X31281714Y-62541914D02*
X31329333Y-62446676D01*
X31329333Y-62446676D02*
X31424571Y-62351438D01*
X31424571Y-62351438D02*
X31567428Y-62303819D01*
X31567428Y-62303819D02*
X31662666Y-62303819D01*
X31662666Y-62303819D02*
X31805523Y-62351438D01*
X31805523Y-62351438D02*
X31853142Y-62399057D01*
X32234095Y-62399057D02*
X32281714Y-62351438D01*
X32281714Y-62351438D02*
X32376952Y-62303819D01*
X32376952Y-62303819D02*
X32615047Y-62303819D01*
X32615047Y-62303819D02*
X32710285Y-62351438D01*
X32710285Y-62351438D02*
X32757904Y-62399057D01*
X32757904Y-62399057D02*
X32805523Y-62494295D01*
X32805523Y-62494295D02*
X32805523Y-62589533D01*
X32805523Y-62589533D02*
X32757904Y-62732390D01*
X32757904Y-62732390D02*
X32186476Y-63303819D01*
X32186476Y-63303819D02*
X32805523Y-63303819D01*
X33138857Y-62303819D02*
X33805523Y-62303819D01*
X33805523Y-62303819D02*
X33376952Y-63303819D01*
X34091238Y-62303819D02*
X34710285Y-62303819D01*
X34710285Y-62303819D02*
X34376952Y-62684771D01*
X34376952Y-62684771D02*
X34519809Y-62684771D01*
X34519809Y-62684771D02*
X34615047Y-62732390D01*
X34615047Y-62732390D02*
X34662666Y-62780009D01*
X34662666Y-62780009D02*
X34710285Y-62875247D01*
X34710285Y-62875247D02*
X34710285Y-63113342D01*
X34710285Y-63113342D02*
X34662666Y-63208580D01*
X34662666Y-63208580D02*
X34615047Y-63256200D01*
X34615047Y-63256200D02*
X34519809Y-63303819D01*
X34519809Y-63303819D02*
X34234095Y-63303819D01*
X34234095Y-63303819D02*
X34138857Y-63256200D01*
X34138857Y-63256200D02*
X34091238Y-63208580D01*
X41290714Y-29029819D02*
X41290714Y-28029819D01*
X41290714Y-28029819D02*
X41528809Y-28029819D01*
X41528809Y-28029819D02*
X41671666Y-28077438D01*
X41671666Y-28077438D02*
X41766904Y-28172676D01*
X41766904Y-28172676D02*
X41814523Y-28267914D01*
X41814523Y-28267914D02*
X41862142Y-28458390D01*
X41862142Y-28458390D02*
X41862142Y-28601247D01*
X41862142Y-28601247D02*
X41814523Y-28791723D01*
X41814523Y-28791723D02*
X41766904Y-28886961D01*
X41766904Y-28886961D02*
X41671666Y-28982200D01*
X41671666Y-28982200D02*
X41528809Y-29029819D01*
X41528809Y-29029819D02*
X41290714Y-29029819D01*
X42243095Y-28982200D02*
X42385952Y-29029819D01*
X42385952Y-29029819D02*
X42624047Y-29029819D01*
X42624047Y-29029819D02*
X42719285Y-28982200D01*
X42719285Y-28982200D02*
X42766904Y-28934580D01*
X42766904Y-28934580D02*
X42814523Y-28839342D01*
X42814523Y-28839342D02*
X42814523Y-28744104D01*
X42814523Y-28744104D02*
X42766904Y-28648866D01*
X42766904Y-28648866D02*
X42719285Y-28601247D01*
X42719285Y-28601247D02*
X42624047Y-28553628D01*
X42624047Y-28553628D02*
X42433571Y-28506009D01*
X42433571Y-28506009D02*
X42338333Y-28458390D01*
X42338333Y-28458390D02*
X42290714Y-28410771D01*
X42290714Y-28410771D02*
X42243095Y-28315533D01*
X42243095Y-28315533D02*
X42243095Y-28220295D01*
X42243095Y-28220295D02*
X42290714Y-28125057D01*
X42290714Y-28125057D02*
X42338333Y-28077438D01*
X42338333Y-28077438D02*
X42433571Y-28029819D01*
X42433571Y-28029819D02*
X42671666Y-28029819D01*
X42671666Y-28029819D02*
X42814523Y-28077438D01*
X43766904Y-29029819D02*
X43195476Y-29029819D01*
X43481190Y-29029819D02*
X43481190Y-28029819D01*
X43481190Y-28029819D02*
X43385952Y-28172676D01*
X43385952Y-28172676D02*
X43290714Y-28267914D01*
X43290714Y-28267914D02*
X43195476Y-28315533D01*
X29315580Y-46775666D02*
X29363200Y-46823285D01*
X29363200Y-46823285D02*
X29410819Y-46966142D01*
X29410819Y-46966142D02*
X29410819Y-47061380D01*
X29410819Y-47061380D02*
X29363200Y-47204237D01*
X29363200Y-47204237D02*
X29267961Y-47299475D01*
X29267961Y-47299475D02*
X29172723Y-47347094D01*
X29172723Y-47347094D02*
X28982247Y-47394713D01*
X28982247Y-47394713D02*
X28839390Y-47394713D01*
X28839390Y-47394713D02*
X28648914Y-47347094D01*
X28648914Y-47347094D02*
X28553676Y-47299475D01*
X28553676Y-47299475D02*
X28458438Y-47204237D01*
X28458438Y-47204237D02*
X28410819Y-47061380D01*
X28410819Y-47061380D02*
X28410819Y-46966142D01*
X28410819Y-46966142D02*
X28458438Y-46823285D01*
X28458438Y-46823285D02*
X28506057Y-46775666D01*
X28506057Y-46394713D02*
X28458438Y-46347094D01*
X28458438Y-46347094D02*
X28410819Y-46251856D01*
X28410819Y-46251856D02*
X28410819Y-46013761D01*
X28410819Y-46013761D02*
X28458438Y-45918523D01*
X28458438Y-45918523D02*
X28506057Y-45870904D01*
X28506057Y-45870904D02*
X28601295Y-45823285D01*
X28601295Y-45823285D02*
X28696533Y-45823285D01*
X28696533Y-45823285D02*
X28839390Y-45870904D01*
X28839390Y-45870904D02*
X29410819Y-46442332D01*
X29410819Y-46442332D02*
X29410819Y-45823285D01*
X94588112Y-22791009D02*
X94730969Y-22838628D01*
X94730969Y-22838628D02*
X94778588Y-22886247D01*
X94778588Y-22886247D02*
X94826207Y-22981485D01*
X94826207Y-22981485D02*
X94826207Y-23124342D01*
X94826207Y-23124342D02*
X94778588Y-23219580D01*
X94778588Y-23219580D02*
X94730969Y-23267200D01*
X94730969Y-23267200D02*
X94635731Y-23314819D01*
X94635731Y-23314819D02*
X94254779Y-23314819D01*
X94254779Y-23314819D02*
X94254779Y-22314819D01*
X94254779Y-22314819D02*
X94588112Y-22314819D01*
X94588112Y-22314819D02*
X94683350Y-22362438D01*
X94683350Y-22362438D02*
X94730969Y-22410057D01*
X94730969Y-22410057D02*
X94778588Y-22505295D01*
X94778588Y-22505295D02*
X94778588Y-22600533D01*
X94778588Y-22600533D02*
X94730969Y-22695771D01*
X94730969Y-22695771D02*
X94683350Y-22743390D01*
X94683350Y-22743390D02*
X94588112Y-22791009D01*
X94588112Y-22791009D02*
X94254779Y-22791009D01*
X95254779Y-22314819D02*
X95254779Y-23124342D01*
X95254779Y-23124342D02*
X95302398Y-23219580D01*
X95302398Y-23219580D02*
X95350017Y-23267200D01*
X95350017Y-23267200D02*
X95445255Y-23314819D01*
X95445255Y-23314819D02*
X95635731Y-23314819D01*
X95635731Y-23314819D02*
X95730969Y-23267200D01*
X95730969Y-23267200D02*
X95778588Y-23219580D01*
X95778588Y-23219580D02*
X95826207Y-23124342D01*
X95826207Y-23124342D02*
X95826207Y-22314819D01*
X96254779Y-23267200D02*
X96397636Y-23314819D01*
X96397636Y-23314819D02*
X96635731Y-23314819D01*
X96635731Y-23314819D02*
X96730969Y-23267200D01*
X96730969Y-23267200D02*
X96778588Y-23219580D01*
X96778588Y-23219580D02*
X96826207Y-23124342D01*
X96826207Y-23124342D02*
X96826207Y-23029104D01*
X96826207Y-23029104D02*
X96778588Y-22933866D01*
X96778588Y-22933866D02*
X96730969Y-22886247D01*
X96730969Y-22886247D02*
X96635731Y-22838628D01*
X96635731Y-22838628D02*
X96445255Y-22791009D01*
X96445255Y-22791009D02*
X96350017Y-22743390D01*
X96350017Y-22743390D02*
X96302398Y-22695771D01*
X96302398Y-22695771D02*
X96254779Y-22600533D01*
X96254779Y-22600533D02*
X96254779Y-22505295D01*
X96254779Y-22505295D02*
X96302398Y-22410057D01*
X96302398Y-22410057D02*
X96350017Y-22362438D01*
X96350017Y-22362438D02*
X96445255Y-22314819D01*
X96445255Y-22314819D02*
X96683350Y-22314819D01*
X96683350Y-22314819D02*
X96826207Y-22362438D01*
X49429333Y-25378580D02*
X49381714Y-25426200D01*
X49381714Y-25426200D02*
X49238857Y-25473819D01*
X49238857Y-25473819D02*
X49143619Y-25473819D01*
X49143619Y-25473819D02*
X49000762Y-25426200D01*
X49000762Y-25426200D02*
X48905524Y-25330961D01*
X48905524Y-25330961D02*
X48857905Y-25235723D01*
X48857905Y-25235723D02*
X48810286Y-25045247D01*
X48810286Y-25045247D02*
X48810286Y-24902390D01*
X48810286Y-24902390D02*
X48857905Y-24711914D01*
X48857905Y-24711914D02*
X48905524Y-24616676D01*
X48905524Y-24616676D02*
X49000762Y-24521438D01*
X49000762Y-24521438D02*
X49143619Y-24473819D01*
X49143619Y-24473819D02*
X49238857Y-24473819D01*
X49238857Y-24473819D02*
X49381714Y-24521438D01*
X49381714Y-24521438D02*
X49429333Y-24569057D01*
X49762667Y-24473819D02*
X50381714Y-24473819D01*
X50381714Y-24473819D02*
X50048381Y-24854771D01*
X50048381Y-24854771D02*
X50191238Y-24854771D01*
X50191238Y-24854771D02*
X50286476Y-24902390D01*
X50286476Y-24902390D02*
X50334095Y-24950009D01*
X50334095Y-24950009D02*
X50381714Y-25045247D01*
X50381714Y-25045247D02*
X50381714Y-25283342D01*
X50381714Y-25283342D02*
X50334095Y-25378580D01*
X50334095Y-25378580D02*
X50286476Y-25426200D01*
X50286476Y-25426200D02*
X50191238Y-25473819D01*
X50191238Y-25473819D02*
X49905524Y-25473819D01*
X49905524Y-25473819D02*
X49810286Y-25426200D01*
X49810286Y-25426200D02*
X49762667Y-25378580D01*
X31329333Y-30077580D02*
X31281714Y-30125200D01*
X31281714Y-30125200D02*
X31138857Y-30172819D01*
X31138857Y-30172819D02*
X31043619Y-30172819D01*
X31043619Y-30172819D02*
X30900762Y-30125200D01*
X30900762Y-30125200D02*
X30805524Y-30029961D01*
X30805524Y-30029961D02*
X30757905Y-29934723D01*
X30757905Y-29934723D02*
X30710286Y-29744247D01*
X30710286Y-29744247D02*
X30710286Y-29601390D01*
X30710286Y-29601390D02*
X30757905Y-29410914D01*
X30757905Y-29410914D02*
X30805524Y-29315676D01*
X30805524Y-29315676D02*
X30900762Y-29220438D01*
X30900762Y-29220438D02*
X31043619Y-29172819D01*
X31043619Y-29172819D02*
X31138857Y-29172819D01*
X31138857Y-29172819D02*
X31281714Y-29220438D01*
X31281714Y-29220438D02*
X31329333Y-29268057D01*
X32281714Y-30172819D02*
X31710286Y-30172819D01*
X31996000Y-30172819D02*
X31996000Y-29172819D01*
X31996000Y-29172819D02*
X31900762Y-29315676D01*
X31900762Y-29315676D02*
X31805524Y-29410914D01*
X31805524Y-29410914D02*
X31710286Y-29458533D01*
X25075530Y-27632819D02*
X25075530Y-26632819D01*
X25075530Y-26632819D02*
X25313625Y-26632819D01*
X25313625Y-26632819D02*
X25456482Y-26680438D01*
X25456482Y-26680438D02*
X25551720Y-26775676D01*
X25551720Y-26775676D02*
X25599339Y-26870914D01*
X25599339Y-26870914D02*
X25646958Y-27061390D01*
X25646958Y-27061390D02*
X25646958Y-27204247D01*
X25646958Y-27204247D02*
X25599339Y-27394723D01*
X25599339Y-27394723D02*
X25551720Y-27489961D01*
X25551720Y-27489961D02*
X25456482Y-27585200D01*
X25456482Y-27585200D02*
X25313625Y-27632819D01*
X25313625Y-27632819D02*
X25075530Y-27632819D01*
X26599339Y-27632819D02*
X26027911Y-27632819D01*
X26313625Y-27632819D02*
X26313625Y-26632819D01*
X26313625Y-26632819D02*
X26218387Y-26775676D01*
X26218387Y-26775676D02*
X26123149Y-26870914D01*
X26123149Y-26870914D02*
X26027911Y-26918533D01*
X30511191Y-27632819D02*
X30511191Y-26632819D01*
X30987381Y-27632819D02*
X30987381Y-26632819D01*
X30987381Y-26632819D02*
X31558809Y-27632819D01*
X31558809Y-27632819D02*
X31558809Y-26632819D01*
X34305033Y-27294666D02*
X33971700Y-27527999D01*
X34305033Y-27694666D02*
X33605033Y-27694666D01*
X33605033Y-27694666D02*
X33605033Y-27427999D01*
X33605033Y-27427999D02*
X33638366Y-27361333D01*
X33638366Y-27361333D02*
X33671700Y-27327999D01*
X33671700Y-27327999D02*
X33738366Y-27294666D01*
X33738366Y-27294666D02*
X33838366Y-27294666D01*
X33838366Y-27294666D02*
X33905033Y-27327999D01*
X33905033Y-27327999D02*
X33938366Y-27361333D01*
X33938366Y-27361333D02*
X33971700Y-27427999D01*
X33971700Y-27427999D02*
X33971700Y-27694666D01*
X33671700Y-27027999D02*
X33638366Y-26994666D01*
X33638366Y-26994666D02*
X33605033Y-26927999D01*
X33605033Y-26927999D02*
X33605033Y-26761333D01*
X33605033Y-26761333D02*
X33638366Y-26694666D01*
X33638366Y-26694666D02*
X33671700Y-26661333D01*
X33671700Y-26661333D02*
X33738366Y-26627999D01*
X33738366Y-26627999D02*
X33805033Y-26627999D01*
X33805033Y-26627999D02*
X33905033Y-26661333D01*
X33905033Y-26661333D02*
X34305033Y-27061333D01*
X34305033Y-27061333D02*
X34305033Y-26627999D01*
X38304033Y-28078000D02*
X38304033Y-27644666D01*
X38304033Y-27644666D02*
X38570700Y-27878000D01*
X38570700Y-27878000D02*
X38570700Y-27778000D01*
X38570700Y-27778000D02*
X38604033Y-27711333D01*
X38604033Y-27711333D02*
X38637366Y-27678000D01*
X38637366Y-27678000D02*
X38704033Y-27644666D01*
X38704033Y-27644666D02*
X38870700Y-27644666D01*
X38870700Y-27644666D02*
X38937366Y-27678000D01*
X38937366Y-27678000D02*
X38970700Y-27711333D01*
X38970700Y-27711333D02*
X39004033Y-27778000D01*
X39004033Y-27778000D02*
X39004033Y-27978000D01*
X39004033Y-27978000D02*
X38970700Y-28044666D01*
X38970700Y-28044666D02*
X38937366Y-28078000D01*
X38304033Y-27411333D02*
X38304033Y-26977999D01*
X38304033Y-26977999D02*
X38570700Y-27211333D01*
X38570700Y-27211333D02*
X38570700Y-27111333D01*
X38570700Y-27111333D02*
X38604033Y-27044666D01*
X38604033Y-27044666D02*
X38637366Y-27011333D01*
X38637366Y-27011333D02*
X38704033Y-26977999D01*
X38704033Y-26977999D02*
X38870700Y-26977999D01*
X38870700Y-26977999D02*
X38937366Y-27011333D01*
X38937366Y-27011333D02*
X38970700Y-27044666D01*
X38970700Y-27044666D02*
X39004033Y-27111333D01*
X39004033Y-27111333D02*
X39004033Y-27311333D01*
X39004033Y-27311333D02*
X38970700Y-27377999D01*
X38970700Y-27377999D02*
X38937366Y-27411333D01*
X38304033Y-26544666D02*
X38304033Y-26477999D01*
X38304033Y-26477999D02*
X38337366Y-26411332D01*
X38337366Y-26411332D02*
X38370700Y-26377999D01*
X38370700Y-26377999D02*
X38437366Y-26344666D01*
X38437366Y-26344666D02*
X38570700Y-26311332D01*
X38570700Y-26311332D02*
X38737366Y-26311332D01*
X38737366Y-26311332D02*
X38870700Y-26344666D01*
X38870700Y-26344666D02*
X38937366Y-26377999D01*
X38937366Y-26377999D02*
X38970700Y-26411332D01*
X38970700Y-26411332D02*
X39004033Y-26477999D01*
X39004033Y-26477999D02*
X39004033Y-26544666D01*
X39004033Y-26544666D02*
X38970700Y-26611332D01*
X38970700Y-26611332D02*
X38937366Y-26644666D01*
X38937366Y-26644666D02*
X38870700Y-26677999D01*
X38870700Y-26677999D02*
X38737366Y-26711332D01*
X38737366Y-26711332D02*
X38570700Y-26711332D01*
X38570700Y-26711332D02*
X38437366Y-26677999D01*
X38437366Y-26677999D02*
X38370700Y-26644666D01*
X38370700Y-26644666D02*
X38337366Y-26611332D01*
X38337366Y-26611332D02*
X38304033Y-26544666D01*
D13*
%TO.C,R1*%
X83134564Y-27659000D02*
X82680436Y-27659000D01*
X83134564Y-26189000D02*
X82680436Y-26189000D01*
%TO.C,RV1*%
X53535000Y-22616000D02*
X53535000Y-27686000D01*
X53535000Y-22616000D02*
X63305000Y-22616000D01*
X53535000Y-27686000D02*
X63305000Y-27686000D01*
X63305000Y-22616000D02*
X63305000Y-27686000D01*
%TO.C,U2*%
X31496000Y-34173000D02*
X29546000Y-34173000D01*
X31496000Y-34173000D02*
X33446000Y-34173000D01*
X31496000Y-43043000D02*
X29546000Y-43043000D01*
X31496000Y-43043000D02*
X33446000Y-43043000D01*
X28796000Y-34238000D02*
X28556000Y-33908000D01*
X29036000Y-33908000D01*
X28796000Y-34238000D01*
G36*
X28796000Y-34238000D02*
G01*
X28556000Y-33908000D01*
X29036000Y-33908000D01*
X28796000Y-34238000D01*
G37*
%TO.C,U1*%
X27636000Y-48989000D02*
X27636000Y-49224000D01*
X27636000Y-62009000D02*
X27636000Y-61774000D01*
X31496000Y-48989000D02*
X27636000Y-48989000D01*
X31496000Y-48989000D02*
X35356000Y-48989000D01*
X31496000Y-62009000D02*
X27636000Y-62009000D01*
X31496000Y-62009000D02*
X35356000Y-62009000D01*
X35356000Y-48989000D02*
X35356000Y-49224000D01*
X35356000Y-62009000D02*
X35356000Y-61774000D01*
X26783500Y-49224000D02*
X26443500Y-48754000D01*
X27123500Y-48754000D01*
X26783500Y-49224000D01*
G36*
X26783500Y-49224000D02*
G01*
X26443500Y-48754000D01*
X27123500Y-48754000D01*
X26783500Y-49224000D01*
G37*
%TO.C,DS1*%
X40185000Y-29745000D02*
X40185000Y-66025000D01*
X40185000Y-66025000D02*
X120465000Y-66025000D01*
X40195000Y-29745000D02*
X40985000Y-29745000D01*
X43325000Y-35385000D02*
X116325000Y-35385000D01*
X43325000Y-60385000D02*
X43325000Y-35385000D01*
X46825000Y-29385000D02*
X49825000Y-29385000D01*
X48025280Y-54884320D02*
X48025280Y-40885000D01*
X48525000Y-40385000D02*
X112025000Y-40385000D01*
X112025660Y-55385000D02*
X48525000Y-55385000D01*
X112525000Y-40885000D02*
X112525000Y-54885000D01*
X116325000Y-35385000D02*
X116325000Y-60385000D01*
X116325000Y-60385000D02*
X43325000Y-60385000D01*
X120465000Y-29745000D02*
X40985000Y-29745000D01*
X120465000Y-66025000D02*
X120465000Y-29745000D01*
X48025280Y-40883840D02*
G75*
G02*
X48525660Y-40383460I500380J0D01*
G01*
X48525660Y-55384700D02*
G75*
G02*
X48025280Y-54884320I0J500380D01*
G01*
X112025000Y-40385000D02*
G75*
G02*
X112525000Y-40885000I0J-500000D01*
G01*
X112526040Y-54884320D02*
G75*
G02*
X112025660Y-55384640I-500340J20D01*
G01*
%TO.C,C2*%
X31757252Y-47217000D02*
X31234748Y-47217000D01*
X31757252Y-45747000D02*
X31234748Y-45747000D01*
%TO.C,C3*%
X49857252Y-27659000D02*
X49334748Y-27659000D01*
X49857252Y-26189000D02*
X49334748Y-26189000D01*
%TO.C,C1*%
X31757252Y-32231000D02*
X31234748Y-32231000D01*
X31757252Y-30761000D02*
X31234748Y-30761000D01*
%TO.C,D1*%
X26888500Y-26218000D02*
X26888500Y-28138000D01*
X26888500Y-28138000D02*
X29573500Y-28138000D01*
X29573500Y-26218000D02*
X26888500Y-26218000D01*
%TO.C,R2*%
X36652564Y-27913000D02*
X36198436Y-27913000D01*
X36652564Y-26443000D02*
X36198436Y-26443000D01*
%TD*%
M02*
