%TF.GenerationSoftware,KiCad,Pcbnew,8.0.2*%
%TF.CreationDate,2025-01-05T21:37:03+01:00*%
%TF.ProjectId,lcd_display,6c63645f-6469-4737-906c-61792e6b6963,rev?*%
%TF.SameCoordinates,Original*%
%TF.FileFunction,Soldermask,Top*%
%TF.FilePolarity,Negative*%
%FSLAX46Y46*%
G04 Gerber Fmt 4.6, Leading zero omitted, Abs format (unit mm)*
G04 Created by KiCad (PCBNEW 8.0.2) date 2025-01-05 21:37:03*
%MOMM*%
%LPD*%
G01*
G04 APERTURE LIST*
G04 Aperture macros list*
%AMRoundRect*
0 Rectangle with rounded corners*
0 $1 Rounding radius*
0 $2 $3 $4 $5 $6 $7 $8 $9 X,Y pos of 4 corners*
0 Add a 4 corners polygon primitive as box body*
4,1,4,$2,$3,$4,$5,$6,$7,$8,$9,$2,$3,0*
0 Add four circle primitives for the rounded corners*
1,1,$1+$1,$2,$3*
1,1,$1+$1,$4,$5*
1,1,$1+$1,$6,$7*
1,1,$1+$1,$8,$9*
0 Add four rect primitives between the rounded corners*
20,1,$1+$1,$2,$3,$4,$5,0*
20,1,$1+$1,$4,$5,$6,$7,0*
20,1,$1+$1,$6,$7,$8,$9,0*
20,1,$1+$1,$8,$9,$2,$3,0*%
G04 Aperture macros list end*
%ADD10R,1.700000X1.700000*%
%ADD11O,1.700000X1.700000*%
%ADD12RoundRect,0.250000X0.262500X0.450000X-0.262500X0.450000X-0.262500X-0.450000X0.262500X-0.450000X0*%
%ADD13C,1.440000*%
%ADD14RoundRect,0.150000X-0.825000X-0.150000X0.825000X-0.150000X0.825000X0.150000X-0.825000X0.150000X0*%
%ADD15RoundRect,0.150000X-0.875000X-0.150000X0.875000X-0.150000X0.875000X0.150000X-0.875000X0.150000X0*%
%ADD16C,3.000000*%
%ADD17R,1.800000X2.600000*%
%ADD18O,1.800000X2.600000*%
%ADD19RoundRect,0.250000X0.250000X0.475000X-0.250000X0.475000X-0.250000X-0.475000X0.250000X-0.475000X0*%
%ADD20RoundRect,0.243750X-0.243750X-0.456250X0.243750X-0.456250X0.243750X0.456250X-0.243750X0.456250X0*%
G04 APERTURE END LIST*
D10*
%TO.C,J1*%
X25338000Y-73660000D03*
D11*
X27878000Y-73660000D03*
X30418000Y-73660000D03*
X32958000Y-73660000D03*
X35498000Y-73660000D03*
X38038000Y-73660000D03*
X40578000Y-73660000D03*
X43118000Y-73660000D03*
X45658000Y-73660000D03*
X48198000Y-73660000D03*
%TD*%
D12*
%TO.C,R1*%
X83820000Y-26924000D03*
X81995000Y-26924000D03*
%TD*%
D13*
%TO.C,RV1*%
X60960000Y-25146000D03*
X58420000Y-25146000D03*
X55880000Y-25146000D03*
%TD*%
D14*
%TO.C,U2*%
X29021000Y-34798000D03*
X29021000Y-36068000D03*
X29021000Y-37338000D03*
X29021000Y-38608000D03*
X29021000Y-39878000D03*
X29021000Y-41148000D03*
X29021000Y-42418000D03*
X33971000Y-42418000D03*
X33971000Y-41148000D03*
X33971000Y-39878000D03*
X33971000Y-38608000D03*
X33971000Y-37338000D03*
X33971000Y-36068000D03*
X33971000Y-34798000D03*
%TD*%
D15*
%TO.C,U1*%
X26846000Y-49784000D03*
X26846000Y-51054000D03*
X26846000Y-52324000D03*
X26846000Y-53594000D03*
X26846000Y-54864000D03*
X26846000Y-56134000D03*
X26846000Y-57404000D03*
X26846000Y-58674000D03*
X26846000Y-59944000D03*
X26846000Y-61214000D03*
X36146000Y-61214000D03*
X36146000Y-59944000D03*
X36146000Y-58674000D03*
X36146000Y-57404000D03*
X36146000Y-56134000D03*
X36146000Y-54864000D03*
X36146000Y-53594000D03*
X36146000Y-52324000D03*
X36146000Y-51054000D03*
X36146000Y-49784000D03*
%TD*%
D16*
%TO.C,DS1*%
X42825900Y-32385000D03*
X42825900Y-63385700D03*
X117824480Y-63385700D03*
X117825000Y-32385000D03*
D17*
X48325000Y-32385000D03*
D18*
X50865000Y-32385000D03*
X53405000Y-32385000D03*
X55945000Y-32385000D03*
X58485000Y-32385000D03*
X61025000Y-32385000D03*
X63565000Y-32385000D03*
X66105000Y-32385000D03*
X68645000Y-32385000D03*
X71185000Y-32385000D03*
X73725000Y-32385000D03*
X76265000Y-32385000D03*
X78805000Y-32385000D03*
X81345000Y-32385000D03*
X83885000Y-32385000D03*
X86425000Y-32385000D03*
%TD*%
D19*
%TO.C,C2*%
X32446000Y-46482000D03*
X30546000Y-46482000D03*
%TD*%
D10*
%TO.C,J2*%
X121858000Y-22860000D03*
D11*
X119318000Y-22860000D03*
X116778000Y-22860000D03*
X114238000Y-22860000D03*
X111698000Y-22860000D03*
X109158000Y-22860000D03*
X106618000Y-22860000D03*
X104078000Y-22860000D03*
X101538000Y-22860000D03*
X98998000Y-22860000D03*
%TD*%
D19*
%TO.C,C3*%
X50546000Y-26924000D03*
X48646000Y-26924000D03*
%TD*%
%TO.C,C1*%
X32446000Y-31496000D03*
X30546000Y-31496000D03*
%TD*%
D20*
%TO.C,D1*%
X27636000Y-27178000D03*
X29511000Y-27178000D03*
%TD*%
D12*
%TO.C,R2*%
X37338000Y-27178000D03*
X35513000Y-27178000D03*
%TD*%
M02*
